<?xml version="1.0" encoding="utf-8"?>
<!-- Generator: Adobe Illustrator 26.0.3, SVG Export Plug-In . SVG Version: 6.00 Build 0)  -->
<svg version="1.1" id="Layer_1" xmlns="http://www.w3.org/2000/svg" xmlns:xlink="http://www.w3.org/1999/xlink" x="0px" y="0px"
	 viewBox="0 0 66.6 27" style="enable-background:new 0 0 66.6 27;" xml:space="preserve">
<style type="text/css">
	.st0{fill-rule:evenodd;clip-rule:evenodd;fill:#B5B8C6;}
</style>
<path class="st0" d="M45.2,20.6v4.1c0,0,0.1,0.5-0.5,0.5H22.4c-0.5,0-0.5-0.8-0.5-0.8v-3.6c0-0.5-0.5-0.5-0.5-0.5H2.2
	c-0.7,0-0.6-1.1-0.6-1.1l6-11.9c0.5-1,1.2-0.8,1.2-0.8h12.8c0,0,0.5-0.1,0.5-0.5V2.2c0-0.5,0.5-0.5,0.5-0.5H45c0,0,0.3,0,0.3,0.3
	v3.9c0,0-0.1,0.5,0.5,0.5h18.9c0,0,1.2-0.1,0.6,1l-6.1,12.2l-0.8,0.8h-13C45.5,20.3,45.2,20.3,45.2,20.6L45.2,20.6z M42,16.5h14.3
	c0,0,0.4,0.1,0.7-0.6c0.3-0.6,2.4-4.9,2.4-4.9c0.5-0.9-0.3-0.8-0.3-0.8H41.9c-0.3,0-0.3-0.3-0.3-0.3V6.2c0-0.4-0.4-0.4-0.4-0.4H26.3
	c0,0-0.5,0-0.5,0.5v3.5c0,0,0,0.6-0.6,0.6H11.4c0,0-0.5-0.2-0.8,0.5l-2.9,5.3c0,0-0.3,0.5,0.3,0.5h17.2c0,0,0.6-0.1,0.6,0.5v4
	c0,0,0,0.3,0.3,0.3h15c0.6,0,0.5-0.5,0.5-0.5V17C41.6,16.5,42,16.5,42,16.5L42,16.5z"/>
</svg>
