<?xml version="1.0" encoding="utf-8"?>
<!-- Generator: Adobe Illustrator 26.0.3, SVG Export Plug-In . SVG Version: 6.00 Build 0)  -->
<svg version="1.1" id="Vrstva_1" xmlns="http://www.w3.org/2000/svg" xmlns:xlink="http://www.w3.org/1999/xlink" x="0px" y="0px"
	 viewBox="0 0 533.9 80.3" style="enable-background:new 0 0 533.9 80.3;" xml:space="preserve">
<style type="text/css">
	.st0{fill:#E8EAEE;}
	.st1{fill:#B4B9C5;}
</style>
<g>
	<polygon class="st0" points="457.5,5.8 397.3,75.6 426.6,75.6 486.8,5.8 	"/>
	<polygon class="st0" points="498.5,5.8 438.4,75.6 467.7,75.6 527.2,6.5 527.2,5.8 	"/>
</g>
<g>
	<path class="st1" d="M9.8,50.6c-1.1,0-1.9-0.9-1.9-2v-24c0-1.1,0.9-2,1.9-2l50.9,0c6.8,0,13.2,1.6,18.1,4.3c4.6,2.6,7.2,6,7.2,9.6
		c0,3.6-2.6,7-7.2,9.6c-4.8,2.7-11.3,4.3-18.1,4.3H9.8z M27.3,28.1c-1.1,0-2,1-2,2.1v12.9c0,1.2,0.9,2.1,2,2.1l26.1,0
		c7.9,0,14-3.8,14-8.6c0-4.8-6.2-8.6-14-8.6L27.3,28.1z"/>
	<path class="st1" d="M194.9,50.6c-1,0-1.9-0.9-1.9-2v-24c0-1.1,0.9-2,1.9-2l50.9,0.1c6.8,0,13.3,1.5,18.1,4.2
		c4.6,2.6,7.2,6,7.2,9.6c0,3.6-2.6,7-7.2,9.6c-4.8,2.7-11.2,4.2-18.1,4.2L194.9,50.6z M212.4,28.1c-1.1,0-2,1-2,2.1v12.9
		c0,1.2,0.9,2.1,2,2.1l26.1,0c7.9,0,14-3.8,14-8.5c0-4.8-6.2-8.5-14-8.5L212.4,28.1z"/>
	<path class="st1" d="M139.4,51.4c-4.1,0-7.1-0.1-10-0.2l-0.2,0c-8.7-0.3-16.8-1.9-22.7-4.6c-5.9-2.7-9.1-6.2-9.1-9.9
		c0-7.6,14-14,31.9-14.5c3.4-0.1,6.9-0.2,10.2-0.2s6.8,0.1,10.2,0.2c17.9,0.5,31.8,6.9,31.8,14.5c0,3.7-3.2,7.2-9.1,9.9
		c-5.9,2.7-14,4.3-22.7,4.6l-0.2,0C146.5,51.4,143.6,51.4,139.4,51.4 M139.4,27.4c-1.8,0-3.8,0.1-5.6,0.1
		c-10.7,0.3-18.4,4.2-18.4,9.2c0,5,7.7,8.9,18.4,9.2h0l0.1,0c1.7,0,3.2,0.1,5.5,0.1c2.3,0,3.8-0.1,5.5-0.1l0,0h0.1
		c10.6-0.4,18.4-4.2,18.4-9.2c0-5-7.7-8.9-18.4-9.2C143.2,27.5,141.3,27.4,139.4,27.4"/>
	<path class="st1" d="M311.5,50.7h-0.8c-19-0.1-29.1-4.9-29.1-14c0-7.3,12.8-13.4,29.1-13.9c1,0,2.2-0.1,3.5-0.1c1,0,1.9,0,2.9,0
		h0.3c0.9,0,1.7,0,2.5,0l41.2,0c0.4,0,1.1,0.1,1.1,1v3.3c0,1-0.8,1-1.1,1l-40.8,0c-1.6,0-3.2,0-4.8,0.1c-3.8,0.1-16,1.3-16,8.5
		c0,5.1,6.6,8.2,16,8.6l0,0c1.5,0.1,2.8,0.1,4.8,0.1l22.2,0c1.2,0,2.1-0.3,2.1-1.5v-3.2c0-1.2-0.9-1.6-2.1-1.6l-22.4,0
		c-0.4,0-0.9-0.3-0.9-1v-2.8c0-0.5,0.3-1,1.1-1l40.1,0c1.1,0,1.9,0.9,1.9,1.9v12.5c0,1.1-0.9,1.9-1.9,1.9l-40.3,0
		c-0.5,0-1.4,0-2.5,0h-0.7C315,50.7,312.9,50.7,311.5,50.7"/>
	<path class="st1" d="M377.3,50.6c-1,0-1.9-0.8-1.9-1.9V24.6c0-1,0.8-1.9,1.9-1.9h69c0.9,0,1.1,0.9,1.1,1.1v3.1c0,1-0.9,1.1-1.1,1.1
		l-50.5,0c-1.4,0-2.6,0.8-2.6,2.2v1.8c0,1.5,1.2,2.1,2.6,2.1l47.9,0c1,0,1.1,0.9,1.1,1.1v2.6c0,1-0.9,1.1-1.1,1.1l-48,0
		c-1.5,0-2.6,0.8-2.6,2.2v1.9c0,1.5,1.2,2.1,2.6,2.1l51.5,0c1.1,0,1.1,0.9,1.1,1.1v3.1c0,0.2-0.1,1.1-1.1,1.1L377.3,50.6z"/>
</g>
</svg>
