<?xml version="1.0" encoding="utf-8"?>
<!-- Generator: Adobe Illustrator 26.0.3, SVG Export Plug-In . SVG Version: 6.00 Build 0)  -->
<svg version="1.1" xmlns="http://www.w3.org/2000/svg" xmlns:xlink="http://www.w3.org/1999/xlink" x="0px" y="0px"
	 viewBox="0 0 277.5 99.7" style="enable-background:new 0 0 277.5 99.7;" xml:space="preserve">
<style type="text/css">
	.st0{display:none;}
	.st1{display:inline;fill:none;}
	.st2{fill:#B5B8C6;}
</style>
<g id="positional_box" class="st0">
	<rect x="-41.3" y="-40.1" class="st1" width="360" height="180"/>
</g>
<g id="ford_oval">
	<path class="st2" d="M138.7,97.1C63.7,97.1,2.8,76,2.8,49.8c0-26.1,60.8-47.3,135.9-47.3c75,0,135.9,21.2,135.9,47.3
		C274.6,76,213.8,97.1,138.7,97.1z M138.7,6.6C66.3,6.6,7.6,26,7.6,49.8S66.3,93,138.7,93c72.4,0,131.1-19.3,131.1-43.2
		S211.1,6.6,138.7,6.6z"/>
	<path class="st2" d="M223.3,34.4c0.2-0.3,0-0.6-0.4-0.6c-2.2,0-5,0-7.3,0c-0.5,0-0.8,0.1-1.1,0.6c-0.8,1.6-11,16.8-12.9,19.8
		c-0.3,0.5-0.7,0.4-0.8-0.1c-0.2-1.8-1.7-3.8-4.1-4.7c-1.8-0.7-3.6-0.9-5.5-0.6c-3.3,0.4-6.3,2.2-8.9,4.2c-3.9,3-7.4,6.9-11.8,9.8
		c-2.4,1.6-5.7,2.9-7.9,0.9c-2-1.8-1.8-5.9,1.3-9.1c0.3-0.3,0.7-0.1,0.6,0.2c-0.3,1.4,0.1,2.9,1.2,3.9c1.3,1.2,3.2,1.3,4.9,0.5
		c1.9-1,3-2.8,3.4-4.9c0.5-3.2-2-6.1-5.1-6.3c-2.5-0.2-5,0.7-7.3,2.7c-1.2,1-1.9,1.7-2.9,3.2c-0.2,0.4-0.6,0.4-0.6-0.1
		c0.1-4.1-1.6-6.5-5-6.6c-2.7-0.1-5.5,1.4-7.7,3.1c-2.4,1.9-4.5,4.5-6.8,7c-0.3,0.3-0.5,0.3-0.6-0.3c-0.1-2.7-0.8-5.4-2-7.3
		c-0.4-0.7-1.4-1-2.2-0.5c-0.4,0.2-1.6,0.8-2.6,1.5c-0.5,0.4-0.6,0.9-0.4,1.6c1.2,4.1,1,8.8-0.7,12.7c-1.5,3.6-4.5,6.9-8,8
		c-2.3,0.7-4.7,0.4-6.2-1.7c-2-2.8-1.2-7.7,1.8-11.8c2.7-3.6,6.5-5.8,10.4-7.3c0.5-0.2,0.5-0.5,0.4-0.9c-0.2-0.6-0.5-1.5-0.7-1.9
		c-0.4-0.9-1.3-1.1-2.6-1c-2.8,0.3-5.3,1.3-7.8,2.6c-6.5,3.5-9.8,10.3-11.2,13.9c-0.7,1.7-1.3,2.8-2,3.8c-1,1.3-2.3,2.5-4.7,4.6
		c-0.2,0.2-0.4,0.6-0.2,1c0.2,0.5,1.5,2.2,1.8,2.4c0.4,0.2,0.8-0.1,1-0.2c1.7-1.1,3.6-2.9,4.6-4.1c0.3-0.4,0.7-0.2,0.9,0.4
		c0.9,3.2,3.3,5.9,6.5,7c6,2,12.2-0.9,16.9-6c3-3.2,4.1-5.3,5.2-6.7c1.9-2.4,5.8-7.8,10.3-11.2c1.7-1.3,3.6-2.2,4.6-1.6
		c0.8,0.5,1.1,1.7-0.2,4c-4.6,8.5-11.5,18.4-12.7,20.8c-0.2,0.4,0,0.7,0.4,0.7c2.4,0,4.8,0,7,0c0.4,0,0.5-0.2,0.7-0.4
		c3.6-5.6,6.9-10.9,10.5-16.4c0.2-0.3,0.4-0.1,0.4,0.1c0.1,1.3,0.4,3,1.1,4.2c1.4,2.1,3.3,3,5.4,3c1.7,0,2.6-0.2,4.4-0.9
		c1.5-0.6,2.7-1.3,3.6-1.9c0.5-0.4,0.6,0.3,0.6,0.3c-0.8,4.4,0.2,9.7,4.6,11.8c5.3,2.6,11-1.1,14.4-4.3c0.3-0.3,0.7-0.3,0.7,0.4
		c0.1,1.3,0.6,2.7,1.7,3.8c2.8,2.8,8.4,1.7,14.1-2.7c3.6-2.8,7.4-6.8,10.8-10.9c0.1-0.2,0.2-0.4,0-0.7c-0.5-0.5-1.3-1.2-1.8-1.7
		c-0.2-0.2-0.6-0.1-0.8,0c-3.5,3.3-6.7,7.1-11.2,10.3c-1.5,1.1-4,1.9-5.1,0.5c-0.4-0.6-0.4-1.4,0-2.4
		C201.2,68.4,222.2,36.3,223.3,34.4z M195.5,61.3c0,0.2,0.4,0.5,0.7,0.6c0.1,0,0.2,0.1,0,0.4c-0.9,1.9-1.7,3-2.8,4.7
		c-1,1.5-2.2,2.7-3.6,3.9c-2.1,1.8-5.1,3.7-7.5,2.4c-1.1-0.6-1.6-2.1-1.5-3.3c0.1-3.5,1.6-7,4.4-10.5c3.5-4.3,7.3-6.5,9.8-5.3
		c2.6,1.2,1.8,4.2,0.6,6.6C195.4,61,195.4,61.1,195.5,61.3z"/>
	<path class="st2" d="M70.4,79.6c-7.9,0.1-14.8-4.8-15.6-13.2c-0.4-4.7,0.9-8.8,3.5-12.2c2.3-3,6.3-5.6,9.7-6.2
		c1.1-0.2,2.6-0.1,3.2,0.6c1,1.1,0.7,2.3-0.3,2.8c-2.6,1.3-5.6,3.5-7.2,6.6c-1.2,2.5-1.5,5.5,0.4,8.4c3.2,4.8,12,4.9,20.1-2.7
		c2-1.9,3.8-3.6,5.7-5.8c3.6-4.1,4.8-5.6,9.6-12.3c0.1-0.1,0.1-0.2,0-0.2c0-0.1-0.1-0.1-0.2-0.1c-3.2,0.1-6,1-8.7,3.1
		c-0.8,0.6-1.9,0.5-2.4-0.3c-0.5-0.8-0.2-2,0.7-2.6c4.4-3,9.1-3.6,14-4.4c0,0,0.3,0,0.6-0.4c2-2.6,3.5-4.9,5.6-7.5
		c2.1-2.6,4.9-5,7-6.9c3-2.5,4.8-3.4,6.8-4.4c0.5-0.3-0.1-0.6-0.2-0.6c-10.8-2-21.9-4.6-32.6-0.7c-7.4,2.8-10.6,8.6-9.1,12.5
		c1.1,2.8,4.8,3.2,8.2,1.6c2.8-1.4,5.5-3.6,7.3-6.5c1-1.6,3.2-0.4,2.1,2.3c-3.1,7.3-9.1,13.2-16.4,13.4c-6.2,0.2-10.2-4.4-10.2-10
		c0-11.1,12.4-18.4,25.3-19.5c15.6-1.3,30.4,2.9,45.9,4.7c11.9,1.4,23.3,1.5,35.2-1.3c1.4-0.3,2.4,0.6,2.3,2c-0.1,2.1-1.7,4-5.6,6.2
		c-4.5,2.5-9.1,3.2-14,3.2c-11.8,0.1-22.8-4.5-34.2-7c0,0.5,0.1,1.1-0.3,1.4c-6.3,4.7-12,9.4-15.8,16c-0.1,0.2-0.1,0.3,0.2,0.3
		c3.3-0.2,6.3-0.3,9.4-0.5c0.5,0,0.6-0.2,0.5-0.6c-0.3-2.3,0.4-4.9,2.4-6.7c2.1-1.8,4.6-2.1,6.3-0.7c1.9,1.5,1.8,4.2,0.7,6.3
		c-1.1,2.1-2.9,3.2-4.6,3.7c0,0-0.4,0.1-0.3,0.4c0.1,0.5,2.4,1.8,2.6,2.2c0.2,0.3,0.1,0.8-0.3,1.2c-0.2,0.3-0.6,0.5-1.1,0.5
		c-0.4,0-0.6-0.1-1.2-0.4c-1-0.6-2.4-1.5-3.2-2.6c-0.3-0.4-0.4-0.4-1.2-0.3c-3.3,0.2-8.6,0.7-12.1,1.1c-0.9,0.1-1,0.3-1.2,0.6
		c-5.6,9.3-11.7,19.3-18.3,26C82.5,77.6,76.6,79.5,70.4,79.6z M124.1,38.2c0.1,0.5,0.3,0.6,0.5,0.5c1.1-0.2,2.3-1.1,2.9-2.1
		c0.6-0.9,0.9-2.3,0.3-2.8c-0.6-0.5-1.5-0.3-2.2,0.3C124.3,35.3,123.9,37,124.1,38.2L124.1,38.2"/>
</g>
<g id="grid" class="st0">
</g>
</svg>
