<?xml version="1.0" encoding="utf-8"?>
<!-- Generator: Adobe Illustrator 26.0.3, SVG Export Plug-In . SVG Version: 6.00 Build 0)  -->
<svg version="1.1" id="Layer_1" xmlns="http://www.w3.org/2000/svg" xmlns:xlink="http://www.w3.org/1999/xlink" x="0px" y="0px"
	 viewBox="0 0 227.3 183.9" style="enable-background:new 0 0 227.3 183.9;" xml:space="preserve">
<style type="text/css">
	.st0{fill-rule:evenodd;clip-rule:evenodd;fill:#B5B8C6;}
</style>
<path class="st0" d="M219.6,84.9c0.4-9.6,0.6-19.2,0-28.8c-0.2-4-0.6-8.1-1.3-12.2c-0.9-6.6-4.5-22.7-19.6-29.1
	c-0.4-0.2-0.7-0.3-1.1-0.4c-6.6-2.9-14-4.2-21.1-5.2c-15.4-2.1-30.7-3-46.1-3.4c-0.5,0-1,0-1.5,0c-0.2,0-0.4,0-0.6,0
	c-0.1,0-0.2,0-0.3,0c-6.9-0.2-12.1-0.2-14.4-0.2c-1.5,0-4.4,0-8.1,0.1c0,0,0,0,0,0c0,0,0,0,0,0c-2.5,0-5.5,0.1-8.7,0.2
	C81.4,6.2,66.2,7.2,50.8,9.2c-7.1,0.9-14.5,2.2-21.1,5.2c-0.4,0.1-0.7,0.3-1.1,0.4C13.4,21.2,9.8,37.4,8.9,43.9
	c-0.7,4.1-1,8.2-1.3,12.2c-0.6,9.6-0.4,19.2,0,28.8c0,0.1,0,0.2,0,0.3c0,0,0,0,0,0.1c0,0.4,0,0.8,0,1.3c0.2,4.5,0.4,9.3,0.8,14
	c0,0.1,0,0.2,0,0.3c0,0.1,0,0.2,0,0.3c0.9,13.2,2.5,26.5,5.7,39.3c1.1,4.3,2.4,8.5,4.3,12.5c0,0,0,0,0,0c1.3,3.1,2.7,5.7,4.2,7.5
	c2.9,3.5,6.6,6.2,10.9,8.4c0,0,0,0,0,0c0.1,0,0.2,0.1,0.2,0.1c0.7,0.4,1.3,0.7,2,1c12.1,5.5,26,6,39.1,6.8
	c12.8,0.8,25.7,1.3,38.6,1.3c12.9-0.1,25.8-0.5,38.6-1.3c13.1-0.8,27-1.3,39.1-6.8c0.5-0.2,1-0.5,1.5-0.8c0.1,0,0.1-0.1,0.2-0.1
	c0,0,0.1,0,0.1,0c0.1,0,0.2-0.1,0.2-0.1c0,0,0.1,0,0.1-0.1c4.3-2.2,8-4.9,11-8.4c1.5-1.8,3-4.4,4.3-7.6c0,0,0,0,0,0
	c1.9-4,3.2-8.2,4.2-12.5c3.2-12.8,4.8-26.1,5.7-39.3c0-0.1,0-0.2,0-0.3c0-0.1,0-0.1,0-0.2c0.4-4.8,0.7-9.6,0.8-14.2
	C219.6,86,219.6,85.4,219.6,84.9z M195.4,151.3c0,0.1-0.1,0.1-0.1,0.2c-1.1,1.6-2.3,3-3.3,4.1c0,0,0,0,0,0c-2.4,2-9.1,6.1-14.7,8.1
	c0,0,0,0,0,0c-2.6,0.7-4.9,1-6.1,1.1c0,0,0,0,0,0c-1.5-0.2-2.5-1.1-2.6-2.9v0c0-0.1,0-0.1,0-0.2c0.1-0.6,0.2-1.5,0.3-2.7
	c0-0.2,0-0.3,0-0.5c2.3-17.8,4-35.7,5.4-53.6c0.1-0.9,0.2-1.9,0.3-3.1c1.6-16.7,2.7-31,3.3-42.7c0.3-5.7,0.5-10.7,0.7-15.2
	c0-0.2,0-0.4,0-0.6c0-0.5,0-1.1,0.1-1.6c0-0.3,0-0.5,0-0.8c0-0.5,0-1,0-1.4c0-0.6,0-1.1,0-1.7c0-0.1,0-0.3,0-0.4
	c0.2-9.7,0.1-15.3,0.1-16.4c0,0,0,0,0,0c0.4-0.6,1-1,1.8-1c0,0,0,0,0,0c0,0,0.1,0,0.1,0c0,0,0,0,0,0c2.4,0.7,4.8,1.4,7.2,2.3
	c0.1,0,0.1,0,0.2,0.1c1.9,0.8,3.9,1.7,5.6,2.7c0.1,0,0.2,0.1,0.3,0.2c0.1,0,0.1,0.1,0.1,0.1c1,0.6,1.9,1.3,2.7,2.1l0.6,0.6
	c0,0,0.1,0.1,0.1,0.1c0,0,0.1,0.1,0.1,0.1c0.4,0.5,0.9,1.1,1.3,1.5c0,0,0,0,0,0s0,0,0,0s0,0,0,0c0,0,0,0,0,0c0,0,0,0,0,0.1
	c0.2,0.3,0.5,0.6,0.7,1c0.2,0.3,0.4,0.7,0.6,1c0,0,0,0,0,0c0,0,0,0,0,0c0,0,0,0.1,0.1,0.1c0.2,0.3,0.4,0.7,0.6,1c0,0,0,0,0,0.1
	c0.2,0.4,0.4,0.7,0.6,1.1c0.2,0.4,0.4,0.8,0.5,1.2c0.2,0.4,0.3,0.7,0.5,1.1c0.1,0.3,0.2,0.6,0.4,0.9c0.1,0.2,0.1,0.4,0.2,0.5
	c0.1,0.3,0.2,0.7,0.4,1.1c0.1,0.4,0.3,0.8,0.4,1.2c0.2,0.5,0.3,1.1,0.4,1.6c0,0.1,0,0.2,0.1,0.3c0,0.2,0.1,0.4,0.2,0.7
	c0.1,0.5,0.2,1,0.3,1.5c0.1,0.4,0.1,0.8,0.2,1.2c0.1,0.4,0.1,0.8,0.2,1.2c0.1,0.4,0.1,0.9,0.2,1.3c0.1,0.3,0.1,0.7,0.1,1
	c0,0.3,0.1,0.7,0.1,1c0.1,0.7,0.1,1.3,0.2,2c0,0.6,0.1,1.3,0.1,1.9c0,0,0,0.1,0,0.1c0,0.6,0.1,1.3,0.1,1.9c0,0.7,0.1,1.3,0.1,2
	c0,0.6,0,1.3,0,1.9V60c0,0.6,0,1.3,0,1.9c0,0.6,0,1.3,0,1.9c0,2.2,0,4.3,0,6.3c0.2,16.6-0.6,33.5-2.8,49.9c-0.1,1-0.3,2-0.4,3.1
	c0,0.1,0,0.1,0,0.2c-0.3,1.5-0.5,2.9-0.8,4c-0.3,1.6-1.9,10.2-2.1,11.1c-0.8,3.4-2.3,8.1-2.8,9.5c0,0,0,0,0,0.1
	c-0.1,0.2-0.2,0.3-0.2,0.5c0,0,0,0.1,0,0.1c0,0,0,0,0,0.1l0,0C196.4,149.6,195.9,150.5,195.4,151.3z M50.1,163.8
	c-5.6-2-12.2-6-14.7-8c-1-1.1-2.3-2.6-3.5-4.3c-0.2-0.3-0.4-0.6-0.5-0.9c0-0.1-0.1-0.1-0.1-0.2c-0.3-0.5-0.6-1.1-0.9-1.6
	c0,0,0,0,0-0.1c0,0,0,0,0,0c-0.1-0.2-0.2-0.4-0.3-0.7c-0.5-1.2-2-6.1-2.9-9.6c-0.2-0.9-1.8-9.5-2.1-11.1c-0.3-1.2-0.5-2.7-0.8-4.3
	c-0.1-1-0.3-2-0.4-3c-2.3-16.5-3-33.3-2.8-49.9c0.2-12.9-0.8-29.2,7.2-40.2c0.4-0.5,0.9-1.1,1.3-1.6c0,0,0.1-0.1,0.1-0.1
	c0.2-0.2,0.5-0.5,0.7-0.7c0.9-0.8,1.8-1.6,2.8-2.2c0.1,0,0.2-0.1,0.3-0.2c1.8-1.1,3.8-2,5.6-2.7c0.1,0,0.1-0.1,0.2-0.1
	c2.4-0.9,4.9-1.6,7.3-2.3c0,0,0.1,0,0.1,0c0,0,0,0,0,0c0.9,0,1.5,0.4,1.8,1v0c0,0.1,0,0.3,0,0.6c0,0.2,0,0.5,0,0.9
	c0,1.4,0,3.5,0,6.4c0,0.4,0,0.8,0,1.3c0,0.5,0,1.1,0,1.7c0,0.8,0,1.5,0,2.4c0,0.3,0,0.7,0,1.1c0,0.5,0,1,0,1.5c0,0.2,0,0.4,0,0.5
	c0,0.4,0,0.9,0,1.4c0,0.3,0,0.6,0,0.9c0,0.5,0,1.1,0,1.7c0,0.1,0,0.1,0,0.2c0,0.6,0,1.3,0.1,2c0,0.8,0,1.6,0.1,2.4
	c0,1.2,0.1,2.4,0.1,3.7c0,0.8,0.1,1.7,0.1,2.6c0,0.7,0.1,1.5,0.1,2.2c0,0.2,0,0.3,0,0.5c0,0.9,0.1,1.9,0.1,2.8c0,0.5,0.1,1,0.1,1.5
	c0,0.1,0,0.2,0,0.4c0,0.9,0.1,1.7,0.1,2.6c0.5,8.5,1.2,18.2,2.1,29.1c0.2,2.3,0.4,4.6,0.6,7c0.1,1.2,0.2,2.4,0.3,3.6
	c0.1,0.9,0.2,1.7,0.2,2.4c0,0.2,0,0.3,0,0.5c0,0,0,0.1,0,0.1c1.4,17.9,3.1,35.8,5.4,53.7c0,0.2,0,0.3,0,0.5c0.1,1.3,0.2,2.2,0.3,2.9
	c0,1.8-1,2.7-2.6,2.9C55,164.8,52.7,164.4,50.1,163.8z M113.6,166.8L113.6,166.8H82.8c-0.2-0.1-0.3-0.3-0.3-0.5c0,0,0,0,0,0
	c0-0.3,0.1-0.6,0.1-0.8c0.2-0.6,0.3-1.2,0.5-1.9c1.6-5.2,5.7-18.4,5.7-18.4c0.1-0.2,0.1-0.4,0.2-0.6c0.5-1.5,1.1-3.1,1.9-4.9
	c1.5-3.6,4-6.3,6-7.6c1.1-0.7,2.4-1.3,3.7-1.7c0.7-0.1,1.4-0.3,2.2-0.5c1.3-0.3,2.8-0.5,4.2-0.7c1.9-0.1,4.1-0.2,6.6-0.2
	s4.7,0,6.6,0.2c1.5,0.2,2.9,0.4,4.2,0.6c0.8,0.2,1.5,0.3,2.2,0.5c1.4,0.4,2.6,1,3.7,1.7c2,1.3,4.6,4,6,7.6c0.7,1.8,1.3,3.4,1.9,4.9
	c0.1,0.2,0.1,0.4,0.2,0.6c0,0,4.2,13.4,5.7,18.5c0.2,0.6,0.3,1.1,0.5,1.7c0,0.1,0.1,0.4,0.1,0.7c0,0.3-0.1,0.5-0.3,0.6H113.6z
	 M68,17.5c1.4-0.3,6.4-0.9,14-1.4c1,0,2.1-0.1,3.2-0.1c16.4-0.5,27.8-0.6,28.4-0.7c0.6,0,12,0.1,28.4,0.7c1.1,0,2.2,0.1,3.1,0.1
	c7.7,0.5,12.7,1.1,14.1,1.4c0.5,0.2,0.7,0.5,0.7,0.9l0,0c-0.4,1.6-1.1,4.3-1.9,7.6c-3.8,14.2-7.9,31-11.7,44.9
	c-2.6,9.1-6.1,20.3-10.3,26.7c-3,4-6.8,7.1-12.2,8.4c-2.8,0.4-6.1,0.5-10.3,0.5c-4.2,0-7.5-0.1-10.3-0.5c-5.3-1.2-9.2-4.3-12.1-8.3
	c0,0,0-0.1-0.1-0.1c-4.2-6.4-7.8-17.8-10.4-27c-3.8-13.7-7.8-30.3-11.5-44.3c-0.9-3.4-1.6-6.3-2-7.9c0,0,0,0,0,0
	C67.3,18,67.5,17.7,68,17.5z"/>
</svg>
