<?xml version="1.0" encoding="utf-8"?>
<!-- Generator: Adobe Illustrator 26.0.3, SVG Export Plug-In . SVG Version: 6.00 Build 0)  -->
<svg version="1.1" id="Layer_1" xmlns="http://www.w3.org/2000/svg" xmlns:xlink="http://www.w3.org/1999/xlink" x="0px" y="0px"
	 viewBox="0 0 107.3 57.9" style="enable-background:new 0 0 107.3 57.9;" xml:space="preserve">
<style type="text/css">
	.st0{fill-rule:evenodd;clip-rule:evenodd;fill:#B5B8C6;}
</style>
<path class="st0" d="M53.8,3.9C25.9,3.9,3.3,15,3.3,28.8c0,13.8,22.6,24.9,50.5,24.9c27.9,0,50.5-11.2,50.5-24.9
	C104.2,15,81.7,3.9,53.8,3.9L53.8,3.9z M49,9.4c5.8-2,22.9,0,29.5,3.2c2.1,2-9.5,8.6-23.3,11.4C35.4,28,44.8,12.8,49,9.4L49,9.4z
	 M15.1,38.9c-4.3-3.1-12.9-12,1.2-21.2c7.4-4.3,11.6-5.3,16.7-6.4c2.5-0.5,4.3,0.1,2,2c-4.7,4.9-14.4,21-15.3,24.6
	C19,40.3,17.6,40.9,15.1,38.9L15.1,38.9z M55.6,49.2c-8.3,0.9-26.9-1.9-27.2-4.3c0.4-5.8,29.4-15.3,34.7-10
	C65.3,39.1,61.1,48.9,55.6,49.2L55.6,49.2z M98,32.4c-2.1,4.9-9.3,10.4-24.4,14.1c-2.3,0.5-3.1-0.9-1.6-2.2
	c2.5-1.5,14.4-21.5,16-25.5c0.9-2,2.6-1.2,3.6-0.4C96.4,21.5,100.1,26.5,98,32.4L98,32.4z"/>
</svg>
