<?xml version="1.0" encoding="utf-8"?>
<!-- Generator: Adobe Illustrator 26.0.3, SVG Export Plug-In . SVG Version: 6.00 Build 0)  -->
<svg version="1.1" id="Layer_1" xmlns="http://www.w3.org/2000/svg" xmlns:xlink="http://www.w3.org/1999/xlink" x="0px" y="0px"
	 viewBox="0 0 191.3 83.9" style="enable-background:new 0 0 191.3 83.9;" xml:space="preserve">
<style type="text/css">
	.st0{fill-rule:evenodd;clip-rule:evenodd;fill:#B5B8C6;}
</style>
<g>
	<path class="st0" d="M49.3,43.7c0,16.6-7.7,23-23,23C10.8,66.7,4,58.1,4,45v-8.3h16.8v6.8c0,4.6,0,9,5,9c4.8,0,4.6-5.9,4.6-8.5V5.2
		h18.8V43.7L49.3,43.7z"/>
	<path class="st0" d="M66.2,38.4c0.7-4.6,3.3-7.2,7.7-7.2c3.9,0,6.8,3.3,6.8,7.2H66.2L66.2,38.4z M95.3,47.2
		c0-17.1-7-26.7-22.8-26.7c-12.7,0-21,10.3-21,23c0,14.7,9.6,23,22.3,23c9.2,0,17.5-4.4,20.6-13.8H80.2c-1.3,2-3.9,3.1-6.3,3.1
		c-4.8,0-7.4-3.5-7.9-8.5H95.3L95.3,47.2z"/>
	<path class="st0" d="M111,38.4c0.7-4.6,3.3-7.2,7.7-7.2c3.9,0,6.8,3.3,6.8,7.2H111L111,38.4z M140.1,47.2c0-17.1-7-26.7-22.8-26.7
		c-12.7,0-21,10.3-21,23c0,14.7,9.6,23,22.3,23c9,0,17.5-4.4,20.6-13.8H125c-1.3,2-3.9,3.1-6.3,3.1c-4.8,0-7.4-3.5-7.9-8.5H140.1
		L140.1,47.2z"/>
	<path class="st0" d="M156.3,43.5c0-5.3,1.1-10.7,6.6-10.7c5.5,0,6.8,5.5,6.8,10.7c0,5-1.3,10.7-6.8,10.7
		C157.4,54.2,156.3,48.5,156.3,43.5L156.3,43.5z M141.6,79.4h15.1V60.5h0.2c2.2,3.7,6.3,5.9,10.9,5.9c13.3,0,16.8-12.5,16.8-22.8
		c0-10.9-5.3-23.2-16.6-23.2c-7.4,0-9.8,3.1-11.8,5.9l0,0v-4.8h-14.7V79.4L141.6,79.4z"/>
	<path class="st0" d="M178,71.7c0-2,1.3-3.3,3.1-3.3c1.8,0,3.1,1.3,3.1,3.3c0,1.8-1.3,3.1-3.1,3.1C179.3,74.8,178,73.4,178,71.7
		L178,71.7z M177.1,71.7c0,2,1.8,3.7,3.9,3.7c2,0,3.7-1.8,3.7-3.7c0-2.2-1.8-3.7-3.7-3.7C178.8,68,177.1,69.5,177.1,71.7L177.1,71.7
		z M179.5,73.9h0.7v-2h0.9l1.1,2h0.9l-1.3-2c0.7,0,1.1-0.4,1.1-1.3c0-0.7-0.4-1.1-1.5-1.1h-1.8V73.9L179.5,73.9z M180.1,69.9h1.1
		c0.4,0,0.9,0.2,0.9,0.7c0,0.7-0.7,0.9-1.1,0.9h-0.9V69.9L180.1,69.9z"/>
</g>
</svg>
