<?xml version="1.0" encoding="utf-8"?>
<!-- Generator: Adobe Illustrator 26.0.3, SVG Export Plug-In . SVG Version: 6.00 Build 0)  -->
<svg version="1.1" id="Layer_1" xmlns="http://www.w3.org/2000/svg" xmlns:xlink="http://www.w3.org/1999/xlink" x="0px" y="0px"
	 viewBox="0 0 46.3 37.9" style="enable-background:new 0 0 46.3 37.9;" xml:space="preserve">
<style type="text/css">
	.st0{fill-rule:evenodd;clip-rule:evenodd;fill:#B5B8C6;}
</style>
<path class="st0" d="M15.9,19c3.2,1.3,5.3,3.2,7.2,7.3c1.9-4.1,3.9-6.3,7.2-7.6c2.7-1,5.4-1.9,8.1-2.9c0,0.1,0,0.1,0.1,0.2
	c0.1,0.9,0.2,2,0.2,3.2c0,11.5-7.6,13.8-15.5,13.7c-8,0.1-15.5-2.2-15.5-13.7c0-0.9,0-1.7,0.1-2.4c0-0.2,0.1-0.3,0.1-0.5
	C10.6,17.2,13.2,18.1,15.9,19L15.9,19z M36.6,11.1c-0.1-0.1-0.1-0.2-0.2-0.3c-2.8-4.2-8-5.2-13.4-5.2S12.4,6.7,9.7,10.9
	c-0.1,0.2-0.2,0.3-0.3,0.5c4.7,2.7,10.1,2.8,13.7,9.6C26.4,14,31.8,13.9,36.6,11.1L36.6,11.1z M40.5,8.6c-0.2-0.2-0.3-0.4-0.5-0.5
	c-4.2-4.5-11.1-5.5-16.9-5.5c-5.9,0-13,1-17.1,5.8C5.9,8.5,5.9,8.6,5.8,8.6c-2,2.4-3.3,5.9-3.3,10.6C2.5,33.6,14.2,36,23.1,36
	c9,0,20.7-2.3,20.7-16.7C43.8,14.6,42.5,11.1,40.5,8.6L40.5,8.6z"/>
</svg>
