<?xml version="1.0" encoding="utf-8"?>
<!-- Generator: Adobe Illustrator 26.0.3, SVG Export Plug-In . SVG Version: 6.00 Build 0)  -->
<svg version="1.1" id="Layer_1" xmlns="http://www.w3.org/2000/svg" xmlns:xlink="http://www.w3.org/1999/xlink" x="0px" y="0px"
	 viewBox="0 0 162.3 104.9" style="enable-background:new 0 0 162.3 104.9;" xml:space="preserve">
<style type="text/css">
	.st0{fill-rule:evenodd;clip-rule:evenodd;fill:#B5B8C6;}
</style>
<path class="st0" d="M80.7,4.1C39,3.8,5.3,25,5.4,51.6C5.6,78,39.5,100,81.3,100.3c41.7,0.3,75.4-21.1,75.3-47.5
	C156.4,26.2,122.5,4.4,80.7,4.1z M80.8,9.7c24.3,0.2,44.1,7.4,44.1,15.8c0,6.4-10.8,11.9-26.5,14.2C95.8,23.1,88.9,11,80.8,11
	c-8.2-0.1-14.9,11.9-17.3,28.4c-15.7-2.6-26.6-8.2-26.6-14.6C36.8,16.4,56.5,9.5,80.8,9.7z M91.4,40.5c-3.4,0.2-6.8,0.2-10.4,0.1
	c-3.6,0-7-0.1-10.4-0.3C72,29.5,76.1,22,80.8,22.1C85.6,22.1,89.7,29.7,91.4,40.5z M76.3,95.1c-33.8-1.8-60.5-21.5-60.6-45.2
	c0-8.2,2.9-15.7,8.3-22.1v-0.2c0.5,11.1,16.4,20.3,38.7,24c-0.2,0.7-0.2,1.3-0.2,2c0.1,19.9,6.1,36.8,14.1,41.5L76.3,95.1z
	 M81.2,80.3C75.1,80.3,70,68,69.7,52.5c0,0,0,0,0,0l0-0.2c0,0.1,0,0.1,0,0.2c3.6,0.3,7.5,0.5,11.3,0.5c3.9,0,7.7-0.2,11.3-0.4
	c0-0.1,0-0.1,0-0.2l0,0.2c0,0,0,0,0,0C92.2,68.1,87.3,80.4,81.2,80.3z M86,95.2c7.9-4.6,13.7-21.4,13.6-41.3c0-0.7-0.2-1.3-0.2-2
	c22.2-3.4,38-12.3,38.4-23.4v0.2c5.5,6.5,8.5,14,8.5,22.2C146.5,74.6,120,93.9,86,95.2z"/>
</svg>
