<?xml version="1.0" encoding="utf-8"?>
<!-- Generator: Adobe Illustrator 26.4.1, SVG Export Plug-In . SVG Version: 6.00 Build 0)  -->
<svg version="1.1" id="logosvg.com" xmlns="http://www.w3.org/2000/svg" xmlns:xlink="http://www.w3.org/1999/xlink" x="0px"
	 y="0px" viewBox="0 0 125 92" style="enable-background:new 0 0 125 92;" xml:space="preserve">
<style type="text/css">
	.st0{fill:#FF0000;}
</style>
<path id="logosvg.com_1_" class="st0" d="M62.2,15.7c-25.8,0-46.7,13.6-46.7,30.4s20.9,30.4,46.7,30.4s46.7-13.6,46.7-30.4
	S88,15.7,62.2,15.7z M62.2,19.3c15.1,0,27.3,4.4,27.3,9.8c0,4-6.8,7.5-16.5,9l0,0C71.4,27.6,67.2,20,62.2,20S53,27.6,51.4,38.1l0,0
	c-9.7-1.5-16.5-5-16.5-9C34.9,23.7,47.1,19.3,62.2,19.3z M68.6,38.7c-2.1,0.2-4.2,0.3-6.5,0.3s-4.4-0.1-6.5-0.3
	c1-6.8,3.5-11.5,6.5-11.5S67.6,31.9,68.6,38.7z M59.1,73.4C38.2,72.4,21.7,60,21.7,45c0-5.1,1.9-9.9,5.2-14v-0.1
	c0.3,6.9,10.1,12.8,23.7,14.9c0,0.5,0,0.9,0,1.4C50.7,59.8,54.3,70.4,59.1,73.4L59.1,73.4z M62.2,64c-3.7,0-6.8-7.8-7-17.6
	c2.3,0.2,4.6,0.3,7,0.3c2.4,0,4.7-0.1,7-0.3C69,56.2,65.9,64,62.2,64z M65.2,73.4L65.2,73.4c4.8-3.1,8.4-13.6,8.4-26.2
	c0-0.5,0-0.9,0-1.4c13.6-2.1,23.5-8,23.7-14.9V31c3.3,4.1,5.2,8.9,5.2,14C102.6,60,86.1,72.4,65.2,73.4z"/>
</svg>
