<?xml version="1.0" encoding="utf-8"?>
<!-- Generator: Adobe Illustrator 26.0.3, SVG Export Plug-In . SVG Version: 6.00 Build 0)  -->
<svg version="1.1" id="Layer_1" xmlns="http://www.w3.org/2000/svg" xmlns:xlink="http://www.w3.org/1999/xlink" x="0px" y="0px"
	 viewBox="0 0 500 381.8" style="enable-background:new 0 0 500 381.8;" xml:space="preserve">
<style type="text/css">
	.st0{fill:#AFB2BF;}
	.st1{fill-rule:evenodd;clip-rule:evenodd;fill:#767784;}
	.st2{fill-rule:evenodd;clip-rule:evenodd;fill:#464754;}
	.st3{fill:url(#SVGID_1_);}
	
		.st4{clip-path:url(#SVGID_00000170974256280911232190000015078859934473901206_);fill:url(#SVGID_00000015316394502484301700000008162640298746891415_);}
	.st5{clip-path:url(#SVGID_00000170974256280911232190000015078859934473901206_);fill:#D7DADD;}
	
		.st6{opacity:0.29;clip-path:url(#SVGID_00000170974256280911232190000015078859934473901206_);fill:url(#SVGID_00000119078213836508719390000003235778447915831229_);}
	
		.st7{opacity:0.29;clip-path:url(#SVGID_00000170974256280911232190000015078859934473901206_);fill:url(#SVGID_00000124142488543571663130000013013778916933524635_);}
	.st8{fill:#E576C6;}
	.st9{fill:#0D0B6D;}
	.st10{fill:#CF3E83;}
	.st11{fill:#405FD3;}
	.st12{fill:#101016;}
	.st13{fill:#6CA1FF;}
	.st14{fill:none;stroke:#032466;stroke-width:9;stroke-miterlimit:10;}
	.st15{fill:none;stroke:#182084;stroke-width:3;stroke-miterlimit:10;}
	.st16{fill:#3C3C42;}
	.st17{fill:#6D6E71;}
	.st18{fill:#D7DADD;}
</style>
<g>
	<ellipse class="st0" cx="148.5" cy="372.2" rx="145" ry="2.1"/>
	<path class="st1" d="M62.8,343.8h107.9V217.4H62.8V343.8z"/>
	<path class="st2" d="M170.6,343.8h71.8V217.4h-71.8V343.8z"/>
	<path class="st2" d="M72.4,331.7h86.7v-46.4H72.4V331.7z"/>
	<path class="st2" d="M72.4,274.9h86.7v-46.4H72.4V274.9z"/>
	<path class="st1" d="M62.8,373.7h10.6v-29.9H62.8V373.7z"/>
	<path class="st2" d="M231.9,373.7h10.6v-29.9h-10.6V373.7z"/>
	<path class="st1" d="M160.1,373.7h10.6v-29.9h-10.6V373.7z"/>
	<path class="st2" d="M133.4,373.7H144v-29.9h-10.6V373.7z"/>
	<path class="st1" d="M107.2,251.7c0,4.7,3.8,8.6,8.6,8.6c4.7,0,8.6-3.8,8.6-8.6c0-4.7-3.8-8.6-8.6-8.6
		C111,243.1,107.2,247,107.2,251.7"/>
	<path class="st1" d="M107.2,308.5c0,4.7,3.8,8.6,8.6,8.6c4.7,0,8.6-3.8,8.6-8.6c0-4.7-3.8-8.6-8.6-8.6
		C111,299.9,107.2,303.8,107.2,308.5"/>
	<g>
		<linearGradient id="SVGID_1_" gradientUnits="userSpaceOnUse" x1="216.5958" y1="79.674" x2="602.8717" y2="77.1888">
			<stop  offset="0" style="stop-color:#CF3E83"/>
			<stop  offset="0.2099" style="stop-color:#D7546D"/>
			<stop  offset="0.6457" style="stop-color:#EC8D33"/>
			<stop  offset="1" style="stop-color:#FFC000"/>
		</linearGradient>
		<path class="st3" d="M494.2,78.6c0,11.6-4.7,22.2-12.3,29.8c-7.6,7.6-18.2,12.3-29.8,12.3H312.7c-23.3,0-42.1-18.9-42.1-42.1
			c0-11.6,4.7-22.2,12.3-29.8c7.6-7.6,18.2-12.3,29.8-12.3h139.3C475.3,36.5,494.2,55.3,494.2,78.6z"/>
		<g>
			<defs>
				<circle id="SVGID_00000060010325946244755940000004115637901323612591_" cx="347.5" cy="78.6" r="60.2"/>
			</defs>
			<clipPath id="SVGID_00000039836016589511016260000009170337555007371143_">
				<use xlink:href="#SVGID_00000060010325946244755940000004115637901323612591_"  style="overflow:visible;"/>
			</clipPath>
			
				<linearGradient id="SVGID_00000021079282489382991580000009710728679868610980_" gradientUnits="userSpaceOnUse" x1="352.1423" y1="134.4461" x2="342.1709" y2="14.3709">
				<stop  offset="0" style="stop-color:#B1B7BC"/>
				<stop  offset="1" style="stop-color:#EAEDEF"/>
			</linearGradient>
			
				<circle style="clip-path:url(#SVGID_00000039836016589511016260000009170337555007371143_);fill:url(#SVGID_00000021079282489382991580000009710728679868610980_);" cx="347.5" cy="78.6" r="60.2"/>
			
				<circle style="clip-path:url(#SVGID_00000039836016589511016260000009170337555007371143_);fill:#D7DADD;" cx="347.5" cy="78.6" r="53.7"/>
			
				<linearGradient id="SVGID_00000049210161928101387270000004712103503763699626_" gradientUnits="userSpaceOnUse" x1="296.0884" y1="96.8656" x2="306.4533" y2="126.1364">
				<stop  offset="0" style="stop-color:#939AA0"/>
				<stop  offset="1" style="stop-color:#D7DADD;stop-opacity:0"/>
			</linearGradient>
			
				<polygon style="opacity:0.29;clip-path:url(#SVGID_00000039836016589511016260000009170337555007371143_);fill:url(#SVGID_00000049210161928101387270000004712103503763699626_);" points="
				304,86.5 305.1,87.4 315.1,122.1 310.3,126 287.7,108.1 289,84.2 302.9,82.6 			"/>
			
				<linearGradient id="SVGID_00000021797671004806821330000015148216509466046649_" gradientUnits="userSpaceOnUse" x1="279.2021" y1="85.1057" x2="289.1706" y2="113.257" gradientTransform="matrix(0.9855 0.1694 -0.1694 0.9855 28.9004 -53.2773)">
				<stop  offset="0" style="stop-color:#939AA0"/>
				<stop  offset="1" style="stop-color:#D7DADD;stop-opacity:0"/>
			</linearGradient>
			
				<polygon style="opacity:0.29;clip-path:url(#SVGID_00000039836016589511016260000009170337555007371143_);fill:url(#SVGID_00000021797671004806821330000015148216509466046649_);" points="
				295,63 303.1,101.8 292.2,108.9 280.2,77 			"/>
		</g>
	</g>
	<g>
		<path class="st8" d="M280.3,66.9c0,0-0.7,5.3,0.9,6.4c1.8,1.2,6.7-2.2,6.7-2.2s3.7-3.5,6.1-5.3c2.3-1.8,0.6-3.2,0.6-3.2l-5.8,2.9
			c-0.2,0.5,0.4-2,1.5-5.2c1.7-5,3.3-8.5,3.3-8.5l-5,4.7l-2.6,6.7L280.3,66.9z"/>
		<path class="st9" d="M217.5,204.6l-3,5.3c0,0,14.3,2.5,20.5,7.6h-32.4l9.3-16.1L217.5,204.6z"/>
		<polygon class="st10" points="211.3,202.4 207.6,208.7 214.5,209.9 217.2,205.1 		"/>
		<path class="st9" d="M119.9,217.5h-17.1l-10-11.9l13.4-16.9l4.5,6.7l-5.9,9.3l5.8,9c0,0,2.6,0.6,4.9,1.6
			C117.6,216.2,119.9,217.5,119.9,217.5z"/>
		<polygon class="st10" points="106.1,188.7 98.4,198.6 104.7,204.7 109.1,197.7 		"/>
		<path class="st11" d="M278.1,65.2l4-0.1v11.1l-4-0.2c0,1.3-1.5,2.9-3.1,2.8l-36.9-4.7l-2.1,5.5l-18.8-16l-5.9-12.4l8.3-0.3
			c3.4-0.1,6.8,0.2,10.2,1l46.1,10.4C277.3,62.6,278.1,63.7,278.1,65.2z"/>
		<polygon class="st12" points="203.9,103 152.2,161.2 112.9,205.5 99.1,194.5 155.3,118 164.1,106 167.4,97.8 		"/>
		<path class="st13" d="M236,78.3l-14.1,21.8c-2.4,3.7-4.9,4.7-9.3,4.1l-46-6.6c-3.6-0.5-5.1-4.8-2.8-7.5L196,56
			c1.9-2,4.5-3.2,7.2-3.3l8.1-0.3l5.9,11.3L236,78.3z"/>
		<path class="st9" d="M238.6,18.5c0,0,7.7,11.1-3.6,13.4"/>
		<path class="st8" d="M216.5,58.4l7.2-10.7c0,0,12,2.2,14.5,1.1c0,0,3.1-11.2,2.1-19.5l-8.7-9.7l-15.7-0.5L212.7,33
			c-0.6-2.5-7.7-6.3-10-1.1c-3,6.7,9.4,11.6,9.4,11.6l-8.1,10.6L216.5,58.4z"/>
		<path class="st9" d="M205.2,29.5c0,0-6.7-4.7,3.1-12.8c9.7-8.2,17.1-2.6,17.1-2.6s3.2-9,9.3-8.4c8.7,0.9,8.6,14.5,8.6,14.5
			s2.9-7.1,5.3-5.8c2.4,1.3,2.1,25.9-31.3,10.4c0,0,3.4,7.6-4.7,8.2C212.7,33,210.4,28.7,205.2,29.5z"/>
		<polyline class="st14" points="213.1,8.5 213.5,14.7 211.1,15.5 207.4,10.8 		"/>
		<polygon class="st11" points="234.6,36.2 236.3,42.2 233.5,41.9 		"/>
		<path class="st15" d="M232.2,44.5c0,0-2.3-0.1-2.8-2"/>
		<circle class="st9" cx="231" cy="35.7" r="1.4"/>
		<circle class="st9" cx="237.7" cy="36.1" r="1.4"/>
		<path class="st16" d="M222.3,206.3l-14.5-1.3l21.7-52.5c0,0-40.4-32-50.9-39.4c-9.9-7.1-9.9-15.2-9.9-15.2l39.8,5.7
			c0,0,41,33,43.6,44.7C254.4,158.5,222.3,206.3,222.3,206.3z"/>
		<path class="st8" d="M282.8,84.3c0,0,2.9-6.4,3.6-8.8c0.2-0.8,1-0.9,1-0.9s-0.1,3.9,0.2,5.3c0.3,1.8,2.1,1.9,2.1,1.9l12.4,0.6
			c0.5,0,0.9,0.4,0.9,0.8l0,0.5c0,0.4-0.3,0.7-0.7,0.7l-11.9,0.4c-0.2,0-0.3,0.2-0.3,0.3l0,0c0,0.2,0.1,0.3,0.3,0.3l13.8,0.9
			c0.5,0,0.9,0.4,0.9,0.8l0,0.7c0,0.5-0.4,0.8-0.9,0.8L291,88c-0.2,0-0.3,0.1-0.3,0.3v0c0,0.2,0.1,0.3,0.3,0.3l11.7,0.9
			c0.4,0,0.8,0.4,0.7,0.8l-0.1,0.7c0,0.4-0.4,0.6-0.8,0.6l-12.6-0.3c-0.2,0-0.4,0.2-0.4,0.4l0,0c0,0.2,0.2,0.4,0.4,0.4l9.5,0.5
			c0.4,0,0.7,0.4,0.7,0.7l0,0.5c0,0.3-0.4,0.7-0.8,0.8L287.6,95l-6.6-2.6L282.8,84.3z"/>
		<path class="st13" d="M203.3,72.5c0,0,9.9,3.8,32.5,11.7c17.8,6.2,34.9,11.9,34.9,11.9c2.6,0.9,6,0.1,7-2.2l4,0.7l1.5-13.6
			l-3.9-0.4c0-2.2-0.9-3.1-3.4-3.9c0,0-48.5-19.4-63.5-22.8c-9.6-2.2-9-0.5-9-0.5L203.3,72.5z"/>
		<polygon class="st10" points="223.6,47.7 215.3,44.6 221.4,51.1 		"/>
		<path class="st16" d="M155.3,118c-0.9,12.4-2.1,28.9-3.1,43.2l-39.3,44.3l-13.8-10.9L155.3,118z"/>
		<polygon class="st11" points="199.3,70.8 233.2,83.3 196.1,76.5 		"/>
	</g>
	<g>
		<path class="st17" d="M341.8,69.2h-11.8v7.2h10.4v5.7h-10.4v7.2h11.8v5.8h-18.4V63.4h18.4V69.2z"/>
		<path class="st17" d="M370.3,63.4h6.6v31.7h-7.6l-14-22.7v22.7h-6.6V63.4h7.5l14.1,22.5V63.4z"/>
	</g>
	<g>
		<path class="st18" d="M435.8,68.7h-12v7.4h10.6v5.9h-10.6v7.3h12v5.9H417V62.8h18.8V68.7z"/>
		<path class="st18" d="M453.5,95.6c-3.6,0-6.6-0.8-9-2.5c-2.4-1.7-3.9-4-4.4-6.9l6.9-1.6c0.2,1.8,0.9,3.1,2.1,4.1
			c1.2,0.9,2.7,1.4,4.5,1.4c1.4,0,2.6-0.3,3.5-1c0.9-0.7,1.4-1.6,1.3-2.9c0-0.9-0.4-1.7-1.1-2.4c-0.8-0.7-1.5-1.2-2.3-1.5
			c-0.8-0.3-2-0.7-3.6-1.2c-0.2-0.1-0.4-0.1-0.5-0.2c-0.9-0.3-1.5-0.5-2.1-0.7s-1.2-0.4-1.9-0.8s-1.4-0.6-1.9-0.9
			c-0.5-0.3-1-0.7-1.6-1.2c-0.6-0.5-1-1-1.3-1.5c-0.3-0.5-0.6-1.1-0.8-1.9c-0.2-0.7-0.3-1.5-0.3-2.3c0-2,0.5-3.7,1.5-5.1
			c1-1.4,2.4-2.5,4.1-3.3c1.7-0.7,3.7-1.1,5.8-1.1c1.5,0,2.9,0.2,4.2,0.5c1.3,0.3,2.6,0.8,3.8,1.4c1.2,0.7,2.2,1.5,3,2.7
			s1.4,2.4,1.7,3.9l-6.5,1.6c-0.6-3.1-2.5-4.6-5.8-4.6c-1.5,0-2.7,0.3-3.6,0.9s-1.4,1.6-1.4,2.8c0,1.2,0.8,2.1,2.4,2.9
			c0.7,0.4,2.2,0.9,4.5,1.5c0.9,0.3,1.6,0.5,2.2,0.7s1.2,0.4,2.1,0.8c0.8,0.3,1.5,0.7,2,1s1.1,0.7,1.7,1.2c0.6,0.5,1.1,1,1.4,1.6
			s0.6,1.2,0.9,2c0.2,0.8,0.4,1.6,0.4,2.5c0,1.3-0.2,2.6-0.7,3.7s-1,2-1.8,2.8c-0.8,0.7-1.6,1.4-2.7,1.9s-2.1,0.9-3.3,1.1
			S454.8,95.6,453.5,95.6z"/>
	</g>
</g>
</svg>
