<?xml version="1.0" encoding="utf-8"?>
<!-- Generator: Adobe Illustrator 26.0.3, SVG Export Plug-In . SVG Version: 6.00 Build 0)  -->
<svg version="1.1" id="Layer_1" xmlns="http://www.w3.org/2000/svg" xmlns:xlink="http://www.w3.org/1999/xlink" x="0px" y="0px"
	 viewBox="0 0 500 381.8" style="enable-background:new 0 0 500 381.8;" xml:space="preserve">
<style type="text/css">
	.st0{fill:#AFB3C6;}
	.st1{fill:#E576C6;}
	.st2{fill:#0D0B6D;}
	.st3{fill:#CF3E83;}
	.st4{fill:#240040;}
	.st5{fill:#247DFF;}
	.st6{fill:#3030C1;}
	.st7{fill:#2B2A38;}
	.st8{fill:#BC3579;}
	.st9{fill:#17217F;}
	.st10{fill:#405FD3;}
	.st11{fill:none;stroke:#1C295E;stroke-width:3;stroke-miterlimit:10;}
	.st12{fill:none;stroke:#2F2F3D;stroke-width:9;stroke-miterlimit:10;}
	.st13{fill:#2F2F3D;}
	.st14{fill:#1A1D21;}
	.st15{fill:#FFC000;}
	.st16{fill:#DB8B21;}
	.st17{fill:none;stroke:#2F2F3D;stroke-width:5;stroke-miterlimit:10;}
	.st18{fill:none;stroke:#36363A;stroke-width:9;stroke-miterlimit:10;}
	.st19{fill:#7B7F8E;}
	.st20{fill:none;stroke:#6E7284;stroke-width:3;stroke-miterlimit:10;}
</style>
<g>
	<g>
		<ellipse class="st0" cx="372.2" cy="377.6" rx="72.4" ry="1.5"/>
		<path class="st1" d="M450.3,166.1l2.6-1.3c0,0,1.9-0.8,4-1.4s5.1-0.3,8-3.3c2.9-3,2,1.6,0.6,3.1c-1.1,1.3-4.2,2.2-5,3.5
			c0.7,0.5,1.3,0.7,1.3,0.7l13.1,3.3c0.4,0.1,0.7,0.5,0.7,0.9l0,0.5c0,0.5-0.5,0.9-1.1,0.8c-2.8-0.5-11.1-2.3-11.1-2.2l-0.2,0.3
			l13.2,4.8c0.4,0.1,0.7,0.6,0.6,1l-0.1,0.7c-0.1,0.5-0.6,0.8-1.1,0.7c-3-0.8-13.1-4.2-13.1-4.1l-0.1,0.4l10.9,5
			c0.5,0.1,0.7,0.6,0.6,1.1l-0.2,0.5c-0.1,0.5-0.6,0.8-1.1,0.6l-10.7-4.6l-0.3,0.4l7.7,4.7c0.4,0.2,0.6,0.7,0.5,1.1l-0.1,0.3
			c-0.2,0.5-0.6,0.7-1.1,0.6c-1.6-0.5-4.9-2.7-8.4-4c-2.7-1.1-4.9-1.2-8.1-2.9c-1.4-0.7-3-2-3.9-2.8"/>
		<path class="st2" d="M346.1,354.2l-0.1,11.1c0,0,10.9,1.6,14.6,11.9h-29.2l2.1-12.4l1.2-10.8L346.1,354.2z"/>
		<polygon class="st3" points="335,351.3 333.5,364.8 345.9,365.3 346,354.6 		"/>
		<path class="st1" d="M283.8,97.6c-3,2.3-1.9,4.5-3.8,5.3c-1.4,0.6-4.8,0.3-7.1-0.2c0,0-0.1,0-0.1,0c0,0,0,0,0,0c0,0,0,0-0.1,0
			c-0.1,0-0.3-0.1-0.4-0.1c0,0-0.1,0-0.1,0c-0.5-0.1-1-0.3-1.3-0.4c-3-1.3-7.4-7.2-6.8-8.4c0,0,0,0,0,0c0.7-1.2,7.6-1.6,8.8-2.8
			c1.3-1.2-1.9-3.7-2.4-5.5c-0.4-1.8,1-5.8,2.1-2.2c1.1,3.6,3.9,4.5,5.4,5.9c1.6,1.4,2.8,2.8,2.8,2.8L283.8,97.6z"/>
		<path class="st2" d="M398.1,356.4l-1.2,8.7c0,0,21.6,4.9,29.7,12.1l-42.4,0.1l3.7-24.9L398.1,356.4z"/>
		<polygon class="st3" points="387.6,354.2 386,364.7 396.9,365 397.9,357.8 		"/>
		<path class="st1" d="M276.1,101.1l4.1-7.1l36.3,14.6l23.8-9.6l5.9,17.5c0,0-22.5,6.6-29.3,5.8C305,120.7,276.1,101.1,276.1,101.1z
			"/>
		<circle class="st4" cx="382.7" cy="55.6" r="31.2"/>
		<path class="st5" d="M283.5,98.4L283.5,98.4l-62.7-25.3v0c0.8-2.4,3.9-4.6,6.2-4.2c5.7,1,16.7,3.3,28.7,8.2
			c12,4.8,21.7,10.8,26.6,14.1C284.3,92.5,284.3,96,283.5,98.4z"/>
		
			<ellipse transform="matrix(0.3746 -0.9272 0.9272 0.3746 78.2199 287.4048)" class="st6" cx="252.2" cy="85.7" rx="4.1" ry="33.8"/>
		<path class="st1" d="M405.2,120.3c0,0,5.9,24.2,11.5,31c8.5,7.9,32.4,23.8,32.4,23.8l2-9.3l-24.4-22.9l-9.7-27.2L405.2,120.3z"/>
		<path class="st7" d="M401.8,356.8l-19.3-0.1l4.7-90.1l-7.3-80.1l-29.5,171.7H331c0,0,8.1-90.7,11.7-145.8
			c2.6-38.8,7.7-51.4,7.7-51.4h56.5c0,0,3.5,17.3,4.5,39.5c2.1,42.3,2.6,50,1.3,66.6C411,289.6,401.8,356.8,401.8,356.8z"/>
		<circle class="st4" cx="402.9" cy="19.2" r="16.8"/>
		
			<rect x="362.2" y="47.1" transform="matrix(1.491011e-03 -1 1 1.491011e-03 303.8467 460.8822)" class="st4" width="41.1" height="62.4"/>
		<polygon class="st8" points="412.9,144.2 424.5,136.4 423.4,133.1 411.3,140.3 		"/>
		<polygon class="st8" points="339,118.3 334,101.5 332.4,102.1 334.4,119.5 		"/>
		<path class="st5" d="M427.1,130.9l-20.4,12.2l-2.8-17.9c0,0,6.1-0.2,3.7,4.5c-4.6,9-5.1,10.3-2.4,22c0.4,2,1.6,9.3,1.6,9.3h-56.5
			c0,0,2.9-8.4,11.2-23.1c5.2-9.4-4.6-23.1-4.6-23.1l-15.4,12.3l-8.4-28.3c0,0,10.7-4.8,19.6-8.7c9.1-4,13.6-3.4,26.9-3.4
			c12.5,0,20.7,0.7,26.3,5.4C417.6,101.9,427.1,130.9,427.1,130.9z"/>
		<g>
			<path class="st1" d="M391.9,107.1c-8.9,0-15.1-4-17.7-11.5c-1.5-4.2-2.6-8.3-2.7-8.5l-0.7-2.6l2.7,0c0,0,1,0,2.3,0
				c1.6,0,3.9,0,5.6-0.1c0.2,0,0.4,0,0.6,0c4.2,0,8.8,2.4,8.9,2.5c0.2,0.1,3.6,2,6.6,6.5c2.3,3.6,2.8,7.2,1.4,10
				C397.6,105.8,395.1,107.1,391.9,107.1L391.9,107.1z"/>
			<path class="st9" d="M382,86.4c3.7,0,8,2.3,8,2.3s3.2,1.7,5.8,5.8c3.7,5.6,1.7,10.5-3.9,10.5c0,0,0,0,0,0
				c-6,0-12.9-1.9-15.8-10.2c-1.5-4.2-2.7-8.4-2.7-8.4s1,0,2.3,0c1.7,0,4,0,5.8-0.1C381.6,86.4,381.8,86.4,382,86.4 M382,82.4
				L382,82.4c-0.2,0-0.5,0-0.7,0c-1.7,0.1-3.9,0.1-5.5,0.1c-1.3,0-2.2,0-2.3,0l-5.4-0.1l1.5,5.2c0,0.2,1.2,4.3,2.7,8.6
				c2.1,5.9,7.1,12.8,19.6,12.8h0l0,0c3.9,0,7.1-1.7,8.7-4.7c1.8-3.4,1.3-7.8-1.4-12c-3.1-4.8-6.8-6.9-7.3-7.2
				C391.3,84.9,386.6,82.4,382,82.4L382,82.4z"/>
		</g>
		<path class="st1" d="M390.1,71.1c-1.7,2.7-1,6.3,0,8.4c0.3,0.7,2.5,6.7,2.8,7c1.2,1.1-13.6,7.5-13.6,7.5l-1-12.2
			c-4.3,0.2-9.3,0-12.1-1.8c-8.2-5.5-8.7-24.4-8.6-25.4l6.9-7.7c0,0,10.4-4.8,12-2.8c2.9,3.7,9.7,20.5,14.6,18.6
			c0,0-0.6-5.2,3.7-5.2c3.2,0,4.1,2.6,4.1,4.1C398.9,66.7,392.3,67.4,390.1,71.1z"/>
		<polygon class="st10" points="367.4,65.1 364.3,72.6 367.9,72.5 		"/>
		
			<ellipse transform="matrix(0.9989 -4.618637e-02 4.618637e-02 0.9989 -2.6183 17.2766)" class="st2" cx="372.6" cy="65.3" rx="1.8" ry="2.7"/>
		
			<ellipse transform="matrix(0.9989 -4.618637e-02 4.618637e-02 0.9989 -2.6173 16.8375)" class="st2" cx="363.1" cy="65.1" rx="1.8" ry="2.7"/>
		<path class="st4" d="M366.9,46.8c0,2.1-0.4,4.1-1,5.9c-0.1,0.2-0.2,0.5-0.3,0.7c-0.6,1.5-1.4,3-2.4,4.3c-2.7,3.4-6.6,5.8-11,6.2
			c-0.2,0-0.4,0-0.7,0.1l0-6.3l0,0c0-0.2,0-0.4,0-0.6c0-7.8,2.6-15,6.9-20.6c0.8-1.1,1.7-2,2.6-3c2.1,1.8,3.7,4.2,4.7,6.8
			C366.4,42.4,366.9,44.5,366.9,46.8z"/>
		<path class="st4" d="M391.1,46.5c0,4.5-4.1,8.3-9.7,9.5c-0.4,0.1-0.9,0.2-1.4,0.2c-0.7,0.1-1.5,0.1-2.3,0.1
			c-7.3,0-13.3-4.4-13.3-9.9c0-0.5,0.1-1,0.2-1.5c1-4.7,6.5-8.3,13.1-8.3c7.3,0,13.2,4.4,13.3,9.7C391.1,46.4,391.1,46.4,391.1,46.5
			z"/>
		<path class="st11" d="M367.9,75.3c0,0,2.3,0.8,4.7-1.9"/>
		<path class="st3" d="M378.2,81.8c0,0,5.4,0.2,7.7-1.1l-7.4,4.7L378.2,81.8z"/>
		<path class="st4" d="M371.5,86.7c0,0,1.4-0.1,3.6,0.1c3,0.2,3.6,0.2,3.6,0.2l-0.4-4.4l-8.2,1.1L371.5,86.7z"/>
		
			<rect x="381.8" y="356.4" transform="matrix(-1 1.378317e-03 -1.378317e-03 -1 785.4363 717.6884)" class="st7" width="21.4" height="5.5"/>
		<polygon class="st7" points="329.3,361.9 351.5,361.8 351.8,356.4 329.7,356.4 		"/>
		<path class="st4" d="M389,111.5L389,111.5l0.1-37.1l24.9,0l0,12.2C413.9,100.4,402.7,111.5,389,111.5z"/>
		<path class="st1" d="M270.9,98.5L270.9,98.5c-0.3,0.8-1.9,1.1-3.6,0.5L255,95c-1.7-0.6-1.1-1.6-0.7-1.8c0.6-0.4,2.2-0.6,4.1-0.1
			l9.8,3C269.9,96.6,271.1,97.7,270.9,98.5z"/>
		<path class="st1" d="M271.5,99.8L271.5,99.8c-0.5,0.8-2.2,0.6-3.7-0.3l-11-6.9c-1.6-1-0.7-1.8-0.2-2c0.7-0.3,2.4-0.1,4.1,0.8
			l8.9,5.2C271,97.5,271.9,99,271.5,99.8z"/>
		<path class="st1" d="M273.5,101.5L273.5,101.5c-0.7,0.7-2.2,0.3-3.3-0.9l-7.9-8.3c-1.1-1.2,0-1.9,0.5-2c0.8-0.1,2.2,0.2,3.5,1.4
			l6.5,6.4C273.8,99.3,274.2,100.8,273.5,101.5z"/>
		<path class="st1" d="M273.3,102.2L273.3,102.2c-0.7,0.4-1.8-0.2-2.3-1.2l-3.9-7.5c-0.6-1.1,0.5-1.4,0.9-1.4c0.6,0,1.6,0.5,2.3,1.6
			l3.3,5.8C274.1,100.6,274,101.8,273.3,102.2z"/>
		<path class="st6" d="M404.8,134.3c0,0,4-7,3.2-13.6"/>
	</g>
	<g>
		<ellipse class="st0" cx="155.7" cy="377.2" rx="131.5" ry="1.5"/>
		<g>
			<path class="st12" d="M113.3,361c0,0-16.9-19-24.5-23.6c-7.7-4.6-22.7-9.7-22.7-9.7"/>
			<path class="st7" d="M124,374.6l-3.6,2c-2.5,1.4-5.8,0.5-7.2-2l0,0c-1.4-2.5-0.5-5.8,2-7.2l3.6-2c2.5-1.4,5.8-0.5,7.2,2h0
				C127.4,369.9,126.5,373.2,124,374.6z"/>
			<g>
				<polygon class="st13" points="110.7,356.8 112.5,372.5 124.6,365.7 110.7,356.8 				"/>
			</g>
		</g>
		<g>
			<path class="st12" d="M193.9,361.6c0,0-12.8-19.9-19.3-25.1c-6.4-5.3-19.5-12.1-19.5-12.1"/>
			<path class="st7" d="M201.9,375.7l-3.6,1.4c-2.5,1-5.4-0.3-6.4-2.9v0c-1-2.5,0.3-5.4,2.9-6.4l3.6-1.4c2.5-1,5.4,0.3,6.4,2.9l0,0
				C205.7,371.8,204.4,374.7,201.9,375.7z"/>
			<g>
				<polygon class="st13" points="192.2,357.5 191.6,372.2 203.6,367.6 192.2,357.5 				"/>
			</g>
		</g>
		<g>
			<path class="st12" d="M246.8,363.8c0,0-19.1-13.9-27-16.5c-7.9-2.6-22.5-4.3-22.5-4.3"/>
			<path class="st7" d="M259.3,374.1l-2.9,2.6c-2,1.8-5.2,1.6-7-0.4l0,0c-1.8-2-1.6-5.2,0.4-7l2.9-2.6c2-1.8,5.2-1.6,7,0.4v0
				C261.5,369.1,261.3,372.2,259.3,374.1z"/>
			<g>
				<polygon class="st13" points="243.7,360.6 248.4,374.5 258.1,365.9 243.7,360.6 				"/>
			</g>
		</g>
		<path class="st7" d="M159.8,300c0,0-15.5,23.8-6.2,27.4c6.3,2.5,9-9.3,9-9.3l54.9-37.1c0,0,1.8-2.9-2.3-7.8
			c-4.1-4.9-6.1-3.7-6.1-3.7l-24.9,16.8l-3.3-0.6L159.8,300z"/>
		<path class="st14" d="M117.1,327.7"/>
		<path class="st7" d="M69,303.2c0,0-12.9,26.9-2.7,29.4c7,1.7,8-10.9,8-10.9l52-46.2c0,0,1.5-3.3-3.4-7.8c-4.9-4.5-6.8-3-6.8-3
			l-23.6,20.9l-3.6-0.2L69,303.2z"/>
		<path class="st13" d="M216.7,291.2l-20.2-1.2c-2.2-0.1-3.8-2-3.7-4.1l1-16.7c0.1-2.2,2-3.8,4.1-3.7l26.1,1.5
			c2.7,0.2,4.4,3,3.4,5.5l-6.9,16.3C219.9,290.4,218.4,291.3,216.7,291.2z"/>
		<path class="st15" d="M196,267.6l-1.2,20.6c-0.2,2.8-2.6,5-5.5,4.9l-13.6-0.8l0,0c0.1-1.9-1.3-3.5-3.2-3.6l-49.5-2.9
			c-1.9-0.1-3.5,1.3-3.6,3.2l0,0l-45.3-2.6c-2.8-0.2-5-2.6-4.9-5.5l1.2-20.6c0.2-2.8,2.6-5,5.5-4.9l115.1,6.7
			C194,262.3,196.2,264.7,196,267.6z"/>
		<path class="st16" d="M195.5,276.9l-0.7,11.3c-0.2,2.9-2.6,5-5.5,4.9l-13.6-0.8c0-0.1,0-0.1,0-0.2c0-1.8-1.4-3.3-3.2-3.4
			l-49.5-2.9c-1.9-0.1-3.5,1.3-3.6,3.2l-45.3-2.6c-1.7-0.1-3.1-1-4-2.3l18.9-6.6l9-12.4l14.5,0.8l5.5-2.6l20.9,2.4l11.9,8.9
			L195.5,276.9z"/>
		<path class="st13" d="M94,284.1l-2.5-0.1c-5.8-0.3-10.2-5.3-9.9-11.1l0.2-3.7c0.3-5.8,5.3-10.2,11.1-9.9l2.5,0.1
			c5.8,0.3,10.2,5.3,9.9,11.1l-0.2,3.7C104.8,280,99.8,284.4,94,284.1z"/>
		<path class="st13" d="M136.3,274l-19.5-1.1c-2.5-0.1-4.4-2.3-4.2-4.7l0,0c0.1-2.5,2.3-4.4,4.7-4.2l19.5,1.1
			c2.5,0.1,4.4,2.3,4.2,4.7v0C140.9,272.2,138.8,274.1,136.3,274z"/>
		<polyline class="st17" points="195.5,277 150.8,274.4 137.5,264.5 116.4,263.3 112.6,265.7 103.7,265.2 		"/>
		<line class="st18" x1="191.8" y1="268.8" x2="167.3" y2="267.5"/>
		<circle class="st13" cx="206.9" cy="250" r="8.4"/>
		
			<rect x="199.2" y="250" transform="matrix(0.9983 5.801430e-02 -5.801430e-02 0.9983 15.444 -11.5236)" class="st13" width="14" height="20.4"/>
		<path class="st15" d="M186.8,324.9c0,0,3.2,28.2,12.7,25c6.5-2.2,1-12.8,1-12.8l18.5-63.6c0,0-0.4-3.4-6.7-4.5
			c-6.2-1.1-7,1.1-7,1.1l-8.4,28.8l-3,1.6L186.8,324.9z"/>
		<g>
			<path class="st12" d="M46.4,359.6c0,0-1.4-25.4-4.5-33.7s-11.7-21.7-11.7-21.7"/>
			<path class="st7" d="M46.3,376.9l-4.1-0.6c-2.9-0.5-4.9-3.2-4.4-6.1l0,0c0.5-2.9,3.2-4.9,6.1-4.4l4.1,0.6
				c2.9,0.5,4.9,3.2,4.4,6.1h0C51.9,375.4,49.2,377.4,46.3,376.9z"/>
			<g>
				<polygon class="st13" points="47,354.8 38.6,368.2 52.3,370.4 47,354.8 				"/>
			</g>
		</g>
		
			<rect x="171.3" y="211.8" transform="matrix(-0.2029 0.9792 -0.9792 -0.2029 450.1212 119.5487)" class="st13" width="10.3" height="62.3"/>
		<path class="st13" d="M205,216.5l-52.8,13.3l-4.7,9.6c-1.2,2.6-4.3,3.6-6.9,2.4s-3.6-4.3-2.4-6.9l6.7-13.9l57.5-14.5L205,216.5z"
			/>
		<polygon class="st13" points="211.8,213.3 204,206.6 209.8,199.8 217.7,206.5 		"/>
		<path class="st13" d="M216.2,209.1l10.5,0.4c0.4,0,0.8-0.2,1-0.6L238,188c0.4-0.8-0.3-1.7-1.2-1.6l-22.8,3.7
			c-0.4,0.1-0.7,0.3-0.9,0.7l-4.3,11.4c-0.2,0.4,0,0.9,0.3,1.2l6.4,5.4C215.7,209,216,209.1,216.2,209.1z"/>
		<path class="st15" d="M42.6,286.3c0,0-21.7,20.5-13.1,26.4c5.9,4.1,11.4-7.3,11.4-7.3l65.1-24.5c0,0,2.6-2.5-0.4-8.5
			s-5.3-5.2-5.3-5.2l-29.5,11.1l-3.3-1.5L42.6,286.3z"/>
		<circle class="st13" cx="33" cy="308.2" r="2.8"/>
		<circle class="st13" cx="197.7" cy="344.4" r="2.8"/>
		<circle class="st19" cx="143.6" cy="235.7" r="2.6"/>
		<circle class="st19" cx="217.8" cy="195.4" r="2.6"/>
		<circle class="st13" cx="207.3" cy="210.3" r="7.1"/>
		<path class="st20" d="M210.7,197.3l2.4,2.6c2.5,2.7,6.7,3,9.6,0.7l15.1-13.8"/>
	</g>
</g>
</svg>
