<?xml version="1.0" encoding="utf-8"?>
<!-- Generator: Adobe Illustrator 26.0.3, SVG Export Plug-In . SVG Version: 6.00 Build 0)  -->
<svg version="1.1" id="Layer_1" xmlns="http://www.w3.org/2000/svg" xmlns:xlink="http://www.w3.org/1999/xlink" x="0px" y="0px"
	 viewBox="0 0 500 381.8" style="enable-background:new 0 0 500 381.8;" xml:space="preserve">
<style type="text/css">
	.st0{fill:#AFB2BF;}
	.st1{fill:#464754;}
	.st2{fill:#767784;}
	.st3{fill:#2B2A38;}
	.st4{fill:#555468;}
	.st5{fill:#9AA1A8;}
	.st6{fill:#FFFFFF;}
	.st7{fill:#FFC000;}
	.st8{fill:#405FD3;}
	.st9{fill:#CF3E83;}
	.st10{fill:#E576C6;}
	.st11{fill:#0D0B6D;}
	.st12{fill:#C94791;}
	.st13{fill:#182084;}
	.st14{fill:#1A1D21;}
	.st15{fill:#09070F;}
	.st16{fill:#282739;}
	.st17{fill:#6CA1FF;}
	.st18{fill:#DB8B21;}
	.st19{fill:#747A7F;}
</style>
<g>
	<ellipse class="st0" cx="249" cy="377.9" rx="244" ry="1.9"/>
	<g>
		<g>
			<rect x="280.7" y="239" class="st1" width="10.1" height="136.8"/>
		</g>
		<g>
			<rect x="290.8" y="239" class="st1" width="10.1" height="136.8"/>
		</g>
		<g>
			<rect x="351.5" y="239" class="st1" width="10.1" height="136.8"/>
		</g>
		<g>
			<rect x="361.6" y="239" class="st2" width="10.1" height="136.8"/>
		</g>
		<g>
			<rect x="225.8" y="177.9" class="st3" width="31.3" height="52.5"/>
		</g>
		<g>
			<path class="st4" d="M330.6,229.2h-85.7l-35.4-43.5c-0.6-0.7-0.7-1.7-0.5-2.5l1.2-4.2l78.4-1.4L330.6,229.2z"/>
		</g>
		<g>
			<path class="st5" d="M331.1,229.2h-80.6c-0.5,0-1-0.2-1.3-0.7l-38.6-47.4c-1.1-1.4-0.3-3.6,1.3-3.6h79.4c1.3,0,2.5,0.6,3.3,1.7
				l37.8,46.4C333.6,227,332.7,229.2,331.1,229.2z"/>
		</g>
		<g>
			<path class="st6" d="M326,226.2h-74.2c-0.1,0-0.2,0-0.2-0.1l-35.8-43.9c-0.5-0.7-0.1-1.8,0.7-1.8h73.4c1,0,1.9,0.5,2.5,1.3
				l34.4,42.2C327.5,224.8,327,226.2,326,226.2z"/>
		</g>
		<g>
			<rect x="158.9" y="229.2" class="st2" width="242.2" height="9.8"/>
		</g>
		<g>
			<rect x="103.5" y="239" class="st1" width="10.1" height="136.8"/>
		</g>
		<g>
			<rect x="113.6" y="239" class="st2" width="10.1" height="136.8"/>
		</g>
		<g>
			<rect x="174.7" y="239" class="st1" width="10.1" height="136.8"/>
		</g>
		<g>
			<rect x="105.5" y="239" class="st1" width="79.3" height="58.6"/>
		</g>
		<g>
			<rect x="184.8" y="239" class="st2" width="10.1" height="136.8"/>
		</g>
		<g>
			<rect x="192.2" y="239" class="st2" width="53" height="58.6"/>
		</g>
		<g>
			<rect x="71.2" y="229.2" class="st1" width="87.7" height="9.8"/>
		</g>
		<g>
			<rect x="109.1" y="239" class="st1" width="136.1" height="6.3"/>
		</g>
		<g>
			<rect x="194.8" y="243.2" class="st1" width="3.1" height="54.5"/>
		</g>
		<g>
			<circle class="st1" cx="221.9" cy="279.3" r="4.2"/>
		</g>
		<g>
			<circle class="st1" cx="221.9" cy="257.7" r="4.2"/>
		</g>
		<g>
			
				<ellipse transform="matrix(0.5502 -0.8351 0.8351 0.5502 -52.8022 273.2554)" class="st7" cx="227.2" cy="185.6" rx="2.7" ry="4.2"/>
		</g>
		<g>
			
				<ellipse transform="matrix(0.5502 -0.8351 0.8351 0.5502 -48.4087 281.3821)" class="st8" cx="237" cy="185.6" rx="2.7" ry="4.2"/>
		</g>
		<g>
			
				<ellipse transform="matrix(0.5502 -0.8351 0.8351 0.5502 -44.0152 289.5088)" class="st3" cx="246.7" cy="185.6" rx="2.7" ry="4.2"/>
		</g>
		<g>
			
				<ellipse transform="matrix(0.5502 -0.8351 0.8351 0.5502 -39.6217 297.6355)" class="st9" cx="256.4" cy="185.6" rx="2.7" ry="4.2"/>
		</g>
	</g>
	<g>
		<g>
			<path class="st7" d="M161.2,100c-4.5-7.2,3-37.4,21.7-44.8s41.7,9.5,36.1,27.2c-4.2,13.2-14.8-1.5-31,5.9
				C171.8,95.7,166.5,108.5,161.2,100z"/>
		</g>
		<g>
			<path class="st9" d="M209.2,123c-0.5,0-1-0.1-1.5-0.4c-1.3-0.8-1.7-2.6-0.9-3.9c3.5-5.7,9.7-5.8,14.7-5.8c5-0.1,8.1-0.2,9.9-3.1
				c1.8-2.9,0.5-5.8-1.7-10.2c-2.2-4.5-4.9-10-1.4-15.7c3.5-5.7,9.7-5.8,14.7-5.8c5-0.1,8.1-0.2,9.9-3.1c1.8-2.9,0.5-5.8-1.7-10.2
				c-2.2-4.5-4.9-10-1.4-15.7c3.5-5.7,9.7-5.8,14.7-5.8c5-0.1,8.1-0.2,9.9-3.1c0.8-1.3,2.6-1.7,3.9-0.9c1.3,0.8,1.7,2.6,0.9,3.9
				c-3.5,5.7-9.7,5.8-14.7,5.8c-5,0.1-8.1,0.2-9.9,3.1c-1.8,2.9-0.5,5.8,1.7,10.2c2.2,4.5,4.9,10,1.4,15.7
				c-3.5,5.7-9.7,5.8-14.7,5.8c-5,0.1-8.1,0.2-9.9,3.1c-1.8,2.9-0.5,5.8,1.7,10.2c2.2,4.5,4.9,10,1.4,15.7
				c-3.5,5.7-9.7,5.8-14.7,5.8c-5,0.1-8.1,0.2-9.9,3.1C211,122.5,210.1,123,209.2,123z"/>
		</g>
		<g>
			<path class="st9" d="M242.6,127.2c-3,0-6-1-8.7-1.9c-4.7-1.6-7.7-2.5-10.4-0.4c-1.2,1-3,0.8-4-0.4c-1-1.2-0.8-3,0.4-4
				c5.2-4.2,11.1-2.1,15.8-0.5c4.7,1.6,7.7,2.5,10.4,0.4c2.6-2.1,2.4-5.3,1.9-10.2c-0.5-4.9-1.2-11.1,4-15.3
				c5.2-4.2,11.1-2.1,15.8-0.5c4.7,1.6,7.7,2.5,10.4,0.4c2.6-2.1,2.4-5.3,1.9-10.2c-0.5-4.9-1.2-11.1,4-15.3
				c5.2-4.2,11.1-2.1,15.8-0.5c4.7,1.6,7.7,2.5,10.4,0.4c1.2-1,3-0.8,4,0.4c1,1.2,0.8,3-0.4,4c-5.2,4.2-11.1,2.1-15.8,0.5
				c-4.7-1.6-7.7-2.5-10.4-0.4c-2.6,2.1-2.4,5.3-1.9,10.2c0.5,4.9,1.2,11.1-4,15.3c-5.2,4.2-11.1,2.1-15.8,0.5
				c-4.7-1.6-7.7-2.5-10.4-0.4c-2.6,2.1-2.4,5.3-1.9,10.2c0.5,4.9,1.2,11.1-4,15.3C247.4,126.5,245,127.2,242.6,127.2z"/>
		</g>
		<g>
			<path class="st7" d="M179.3,168c-0.4,7.4-23.4,21.4-47.7,12.3c-17.5-6.6-30.2-29.1-16.7-38.1c8.3-5.5,13.5,10.4,29.2,14.2
				C159.9,160.3,179.7,159.2,179.3,168z"/>
		</g>
		<g>
			<path class="st9" d="M261.8,137.1c3.4-0.7,13.2,7.5,12.7,19.1c-0.4,8.3-8.7,16.5-14.7,11.7c-3.7-2.9,2.7-7,2.1-14.3
				C261.2,146.4,257.8,137.9,261.8,137.1z"/>
		</g>
		<g>
			<path class="st9" d="M137.2,106.3c6.1-3.3,13.7-0.9,17,5.2c3.3,6.1,0.6,10.2-5.5,13.5c-6.1,3.3-13.4,4.5-16.7-1.7
				C128.8,117.1,131.1,109.5,137.2,106.3z"/>
		</g>
		<g>
			<path class="st8" d="M131.9,76.8l5.6,19.6c0,0,10.3-14.3,10.2-14.3C147.6,82,131.9,76.8,131.9,76.8z"/>
		</g>
		<g>
			<path class="st8" d="M93.8,121.6l24.3-8.7c0,0-19.4-6.3-19.3-6.1S93.8,121.6,93.8,121.6z"/>
		</g>
		<g>
			<path class="st8" d="M95.6,87l30,16.6c0,0-9.9-25.6-10-25.4C115.5,78.2,95.6,87,95.6,87z"/>
		</g>
		<g>
			<path class="st8" d="M266.8,198.7c0,0-28.7-13.7-15.1-32.2c13.6-18.6-16.3-71.9-50.6-70.8c-23.7,0.7-26.6,28.9-61.9,38.6
				c-23.6,6.5,35.5,31.2,68.9,13.3c34.1-18.2,20,16.6,35.6,39.1C252.6,199.3,266.8,198.7,266.8,198.7z"/>
		</g>
	</g>
	<g>
		<g>
			<circle class="st3" cx="325.2" cy="368.8" r="7.1"/>
		</g>
		<g>
			<path class="st10" d="M282.4,189.5L282.4,189.5c1.6-2.5,3.5-3.1,2.4-3.8l-9.7-7c-1.1-0.8-3.1,2.6-3.6,3.8c-0.8,1.8-2,6.8-0.9,7.9
				l6.8,2.3C278.5,193.3,280.8,191.9,282.4,189.5z"/>
		</g>
		<g>
			<path class="st11" d="M300.6,126.8c0,0-10.5,15.9,5.5,18.7"/>
		</g>
		<g>
			<polygon class="st8" points="303.3,149.6 300.3,157.7 304.3,157.6 			"/>
		</g>
		<g>
			<path class="st10" d="M341.8,143.5c0.9-3.5,2,15.1,2,15.1l2.9,15.5l-20,6.6l-1.4-17c0,0-16.4,2.5-20,0.9c0,0-3.8-15.9-2.1-27.5
				l12.7-13.2l22,0L341.8,143.5z"/>
		</g>
		<g>
			<path class="st12" d="M326.2,156.2l-0.3-1.2c0.1,0,8.4-2.2,11.3-8.1l1.1,0.5C335.2,153.8,326.6,156.1,326.2,156.2z"/>
		</g>
		<g>
			<path class="st11" d="M342.1,153.9c5.2,0,12.1-19.3,3.9-29.7c-11.1-14-22.8-7-22.8-7s-4.1-12.8-12.7-12.2
				c-12.3,0.9-12.8,20-12.8,20s-3.8-10.1-7.2-8.4s-2.5,32.3,24.2,18.5c0,0-0.4,9.5,6.2,9.2c2.9-0.1,3.8-4.2,3.8-4.2
				s6.6,5.7,11.2,8.4C335.9,148.6,339.7,153.9,342.1,153.9z"/>
		</g>
		<g>
			<polygon class="st11" points="342.1,123 336.6,120.8 338.9,109.5 342.5,110.3 340.8,118.5 341,118.6 345.6,113.2 348.4,115.5 			
				"/>
		</g>
		<g>
			<polygon class="st9" points="325.3,163.7 332.8,162.1 325.7,168.6 			"/>
		</g>
		<g>
			<path class="st13" d="M305.5,159.9c-0.1,0-0.1,0-0.1,0l0.1-1.2l0,0.6l0-0.6c0,0,0.9,0,1.5-0.5c0.3-0.3,0.5-0.7,0.5-1.2l1.2,0
				c0,0.9-0.3,1.6-0.9,2.1C307,159.8,305.9,159.9,305.5,159.9z"/>
		</g>
		<g>
			<path class="st14" d="M284.5,143.9"/>
		</g>
		<g>
			<circle class="st11" cx="305.9" cy="149.7" r="1.9"/>
		</g>
		<g>
			<polygon class="st11" points="364,337.1 375.9,354.3 369.2,368 354,375.8 377.5,375.8 393.5,356.9 373.3,326.9 			"/>
		</g>
		<g>
			<polygon class="st9" points="374.7,324.7 386.5,346.5 375.9,354.1 364,337.1 			"/>
		</g>
		<g>
			<path class="st11" d="M293.4,348.7l1.5,13.7c0,0-22,3.9-32.6,13.4l54.2-0.1l-9.9-29.9L293.4,348.7z"/>
		</g>
		<g>
			<circle class="st3" cx="378" cy="368.8" r="7.1"/>
		</g>
		<g>
			<polygon class="st9" points="307.8,345.9 312,362 294.9,362.5 293.6,350.7 			"/>
		</g>
		<g>
			<polygon class="st15" points="350.4,265.3 388.4,340.9 368.5,351.6 320.3,274.6 			"/>
		</g>
		<g>
			<path class="st16" d="M295,266.7l20.7,89.5h-25.1l-31.8-96.8c-3.3-10.1,4.2-20.4,14.8-20.4h92.3v27.7H295z"/>
		</g>
		<g>
			<path class="st10" d="M279.5,233.7L249,222l3.6-9.8l28.5,6l15.8-26.2l16.3,13.6L294,232.8C291.2,236.3,285.9,236.5,279.5,233.7z"
				/>
		</g>
		<g>
			<polygon class="st10" points="282,193.4 321.1,210.4 329.2,199.6 283.7,185.4 			"/>
		</g>
		<g>
			<rect x="316.5" y="279.8" class="st7" width="70.5" height="2.4"/>
		</g>
		<g>
			<path class="st4" d="M367.6,279.8h-48.1c-3.6,0-6.6-2.9-6.6-6.6l0,0c0-3.6,2.9-6.6,6.6-6.6h48.1c3.6,0,6.6,2.9,6.6,6.6l0,0
				C374.1,276.9,371.2,279.8,367.6,279.8z"/>
		</g>
		<g>
			<path class="st17" d="M372.8,210.5l-2.9,28.5l-49.5-0.1l-6.2-26.9l-5.3,7.9l-24.2-13.9c0,0,8.8-15.5,14.1-20.9
				c11.8-12.1,22.3-15.4,33.6-15.4c11.4,0,8.4-1.5,18.9,1.1c7.4,1.9,13.9,7,17.6,19.7C372.7,203.8,372.8,210.5,372.8,210.5z"/>
		</g>
		<g>
			<path class="st7" d="M396.3,282.3h-32.8l-6.1-39.3v-30.3c0-14.8,12-26.8,26.8-26.8h0c14.8,0,26.8,12,26.8,26.8V243l3.2,18.8
				C415.6,272.6,407.2,282.3,396.3,282.3z"/>
		</g>
		<g>
			<path class="st7" d="M363.1,279.8h-20.7c10.9,0,19.2-9.5,17.9-20.3L363.1,279.8z"/>
		</g>
		<g>
			<path class="st18" d="M395.2,212.2c0,5.4-4.4,9.8-9.8,9.8c-0.3,0-0.5,0-0.8,0c-0.2,0-0.4,0-0.6-0.1c-4.7-0.7-8.4-4.8-8.4-9.7
				c0-4.9,3.6-9,8.4-9.7c0.2,0,0.4-0.1,0.6-0.1c0.3,0,0.5,0,0.8,0C390.8,202.4,395.2,206.8,395.2,212.2z"/>
		</g>
		<g>
			<path class="st6" d="M392.3,212.2c0,4.9-3.6,9-8.4,9.7c-4.7-0.7-8.4-4.8-8.4-9.7c0-4.9,3.6-9,8.4-9.7
				C388.7,203.2,392.3,207.3,392.3,212.2z"/>
		</g>
		<g>
			<path class="st19" d="M396.7,370.2h-69.8c-2.7,0-4.9-2.2-4.9-4.9l0,0c0-2.7,2.2-4.9,4.9-4.9h69.8c2.7,0,4.9,2.2,4.9,4.9l0,0
				C401.6,368,399.4,370.2,396.7,370.2z"/>
		</g>
		<g>
			<rect x="359.6" y="282.3" class="st19" width="4.4" height="85.6"/>
		</g>
		<g>
			<polygon class="st19" points="386.4,282.3 361.8,293.5 337.2,282.3 			"/>
		</g>
		<g>
			<path class="st4" d="M358.8,370.2h-9.1c-2.7,0-4.9-2.2-4.9-4.9l0,0c0-2.7,2.2-4.9,4.9-4.9h9.1c2.7,0,4.9,2.2,4.9,4.9l0,0
				C363.7,368,361.5,370.2,358.8,370.2z"/>
		</g>
		<g>
			<path class="st10" d="M349.3,170.4c0.5,1.6-1.1,3.7-7.1,3.9c-7.4,0.2-15.5-1.3-16.9-4.1C334.6,168.7,340.8,168.3,349.3,170.4z"/>
		</g>
		<g>
			<path class="st10" d="M256.8,214.1l-6.7-6.3c0,0-1.6-1-3.6-1.9c-1.9-0.9-2.8-1.1-5.6-3.8c-1.9-1.9-2.3,1.2-1.5,3s6.4,4.4,5.2,6.1
				c-1.2,1.7-5.5,4-10,2c-0.6-0.3-2.7,2.1,1.4,7.8c2,2.8,6.6,5.4,8.7,4.7c0,0,6-1.5,8.4-2.3C255.4,222.6,253.8,217.7,256.8,214.1z"
				/>
		</g>
		<g>
			<circle class="st3" cx="345.8" cy="368.8" r="7.1"/>
		</g>
		<g>
			<circle class="st3" cx="398.9" cy="368.8" r="7.1"/>
		</g>
		<g>
			<polygon class="st8" points="314.2,212.1 316.1,209.1 317.3,225.7 			"/>
		</g>
		<g>
			<path class="st10" d="M275.8,179.5L275.8,179.5c-0.7-0.8-1.8-0.8-2.6-0.2l-5.1,4.7c-0.7,0.7,0.3,1.5,0.7,1.7
				c0.6,0.3,1.8,0.4,2.6-0.2l4.3-3.5C276.4,181.4,276.5,180.2,275.8,179.5z"/>
		</g>
		<g>
			<polygon class="st11" points="270.1,196 266.8,198.7 267.7,194.5 285.1,166.5 287.4,167.9 			"/>
		</g>
		<g>
			<path class="st10" d="M288.3,192.9l-6.5,1.9c0,0-1.6,0.1-3.8-0.4c-2.2-0.6-3.1-1-7.1-0.7c-2.8,0.2-1.4-2.4,0.2-3.3
				c1.6-0.8,8.1,0.7,8-1.4S287.6,188.2,288.3,192.9z"/>
		</g>
		<g>
			<path class="st10" d="M269.4,183.3L269.4,183.3c-1,0.1-1.8,0.9-1.8,1.9l0.6,6.9c0.1,1,1.4,0.7,1.9,0.5c0.7-0.3,1.5-1.2,1.5-2.2
				l-0.1-5.5C271.4,184,270.5,183.3,269.4,183.3z"/>
		</g>
		<g>
			<path class="st10" d="M337.7,146.4c-2.3,6.7-13.4,9.2-13.4,9.2l0.1-3.3l0.4-12.1c1-3.4,10.4-6.9,12.9,1.2
				C338.3,143.3,338.2,144.9,337.7,146.4z"/>
		</g>
		<g>
			<path class="st12" d="M327.3,150.3l-0.2-1.2l0.1,0.6l-0.1-0.6c0.3,0,1.1-0.3,1.4-0.8c0.2-0.3,0.2-0.6,0.1-1.1
				c-0.4-1.6-1.9-1.6-2-1.6l-0.6,0l0-0.6c0-0.1,0.1-2.9,2-4.5c1-0.9,2.4-1.3,4-1.1l-0.1,1.2c-1.2-0.1-2.3,0.1-3,0.8
				c-1,0.9-1.4,2.3-1.5,3.1c0.9,0.2,2.1,0.8,2.5,2.4c0.2,0.8,0.1,1.4-0.3,2C328.8,150,327.4,150.3,327.3,150.3z"/>
		</g>
		<g>
			<polygon class="st9" points="287.2,207.5 304.8,217.6 301,223 			"/>
		</g>
		<g>
			
				<rect x="277.1" y="220.1" transform="matrix(0.515 -0.8572 0.8572 0.515 -53.3744 347.0192)" class="st9" width="5.8" height="1.2"/>
		</g>
	</g>
</g>
</svg>
