<svg id="car-list-both" xmlns="http://www.w3.org/2000/svg" xmlns:xlink="http://www.w3.org/1999/xlink" viewBox="0 0 981.900000 1268.470000" shape-rendering="geometricPrecision" text-rendering="geometricPrecision" width="981.900000" height="1268.470000"><style><![CDATA[#car-list-both-g1_to {animation: car-list-both-g1_to__to 12000ms linear infinite normal forwards}@keyframes car-list-both-g1_to__to { 0% {transform: translate(235.700005px,1259.700000px)} 100% {transform: translate(235.700005px,6.150108px)} }#car-list-both-g14_to {animation: car-list-both-g14_to__to 12000ms linear infinite normal forwards}@keyframes car-list-both-g14_to__to { 0% {transform: translate(745.650012px,1224.000093px)} 100% {transform: translate(745.650013px,0.000008px)} }]]></style><g id="car-list-both-car-list-both"><g id="car-list-both-g1_to" transform="translate(235.700005,1259.700000)"><g id="car-list-both-g1" transform="translate(-235.700005,-1533.099915)"><g id="car-list-both-g2"><g id="car-list-both-g3"><path id="car-list-both-path1" d="M372.300000,871.100000L99.100000,871.100000C69.500000,871.100000,45.600000,847.100000,45.600000,817.600000L45.600000,369.800000C45.600000,340.200000,69.600000,316.300000,99.100000,316.300000L372.300000,316.300000C401.900000,316.300000,425.800000,340.300000,425.800000,369.800000L425.800000,817.600000C425.800000,847.100000,401.900000,871.100000,372.300000,871.100000Z" fill="rgb(236,246,255)" stroke="none" stroke-width="1"/><rect id="car-list-both-rect1" width="280.900000" height="21.100000" rx="0" ry="0" transform="matrix(1 0 0 1 87.09999999999999 364.39999999999998)" fill="rgb(204,227,255)" stroke="none" stroke-width="1"/><rect id="car-list-both-rect2" width="219.100000" height="21.100000" rx="0" ry="0" transform="matrix(1 0 0 1 87.09999999999999 395.80000000000001)" fill="rgb(204,227,255)" stroke="none" stroke-width="1"/><path id="car-list-both-path2" d="M377.100000,748.400000L94.300000,748.400000C84.300000,748.400000,76.300000,740.300000,76.300000,730.400000L76.300000,474.200000C76.300000,464.200000,84.400000,456.200000,94.300000,456.200000L377.100000,456.200000C387.100000,456.200000,395.100000,464.300000,395.100000,474.200000L395.100000,730.300000C395.100000,740.300000,387,748.400000,377.100000,748.400000Z" fill="rgb(204,227,255)" stroke="none" stroke-width="1"/></g><g id="car-list-both-g4"><g id="car-list-both-g5"><path id="car-list-both-path3" d="M358.100000,611C356.800000,605.900000,355.100000,601,353.200000,596.100000C352,594.700000,350.500000,593.700000,348.800000,593C340.100000,580.600000,318.900000,562.100000,316.500000,561.200000C302.400000,555.500000,269,554.600000,258.100000,554.600000C214.800000,554.600000,197.500000,563.100000,193.600000,564.800000C182.800000,568.100000,154.700000,590,153.200000,591.300000C151.700000,592.400000,150.200000,593.500000,148.600000,594.400000L145.100000,594.700000C143.300000,594.700000,137.500000,597.300000,127.300000,602.100000C117.100000,606.900000,115.100000,609.800000,114.900000,610.300000C114.700000,610.700000,113.800000,614.300000,113.800000,614.300000C112.700000,615.300000,111.800000,616.500000,111,617.800000C110.200000,619.500000,111.900000,636.400000,111.900000,636.400000L111.900000,637.900000C113.100000,639.200000,114.400000,640.400000,115.800000,641.500000C122.400000,644.100000,129.200000,645.900000,136.200000,646.900000L144.900000,646.900000C136,636.900000,136.900000,621.500000,147,612.600000C151.300000,608.800000,156.700000,606.600000,162.500000,606.500000C175.700000,606.700000,186.200000,617.400000,186.100000,630.600000C186.100000,636.700000,183.800000,642.600000,179.700000,647.100000C203.600000,647.100000,230.600000,647.300000,241.800000,647.300000C251.600000,647.300000,274.500000,646.700000,296.400000,646C292.900000,641.700000,291,636.200000,291,630.600000C291,617.600000,301.600000,607,314.600000,607C327.600000,607,338.200000,617.600000,338.200000,630.600000C338.200000,635.600000,336.600000,640.600000,333.700000,644.700000C342,644.400000,347.300000,644.100000,347.400000,644.100000C350.700000,640.300000,360,628.500000,360.600000,626.300000C361.100000,624,359.400000,616.300000,358.100000,611Z" fill="rgb(236,246,255)" stroke="none" stroke-width="1"/><path id="car-list-both-path4" d="M314.500000,611.100000C303.900000,611.300000,295.400000,620,295.500000,630.600000C295.500000,636.500000,298.100000,642,302.600000,645.700000C309.800000,651.800000,320.500000,651.400000,327.300000,644.800000C331.200000,641.100000,333.500000,635.900000,333.500000,630.500000C333.500000,619.900000,325.100000,611.200000,314.500000,611.100000ZM314.500000,623C318.700000,622.900000,322.100000,626.200000,322.200000,630.400000C322.300000,634.600000,319,638,314.800000,638.100000C310.600000,638.200000,307.200000,634.900000,307.100000,630.700000C307.100000,630.600000,307.100000,630.600000,307.100000,630.500000C307.100000,626.400000,310.300000,623.100000,314.500000,623Z" fill="rgb(236,246,255)" stroke="none" stroke-width="1"/><path id="car-list-both-path5" d="M162.300000,611.100000C151.700000,611.300000,143.200000,620,143.300000,630.600000C143.300000,637.200000,146.600000,643.300000,152.200000,646.900000C158.400000,651,166.400000,651,172.600000,646.900000C178.100000,643.300000,181.500000,637.100000,181.400000,630.500000C181.500000,619.800000,173,611.200000,162.300000,611.100000ZM162.300000,623C166.500000,622.900000,169.900000,626.200000,170,630.400000C170.100000,634.600000,166.800000,638,162.600000,638.100000C158.400000,638.200000,155,634.900000,154.900000,630.700000C154.900000,630.600000,154.900000,630.600000,154.900000,630.500000C154.900000,626.400000,158.200000,623.100000,162.300000,623Z" fill="rgb(236,246,255)" stroke="none" stroke-width="1"/></g></g></g><g id="car-list-both-g6"><path id="car-list-both-path6" d="M363.400000,1497.400000L99.100000,1497.400000C69.500000,1497.400000,45.600000,1473.400000,45.600000,1443.900000L45.600000,996C45.600000,966.400000,69.600000,942.500000,99.100000,942.500000L363.500000,942.500000C393.100000,942.500000,417,966.500000,417,996L417,1443.800000C417,1473.400000,393,1497.400000,363.400000,1497.400000Z" fill="rgb(236,246,255)" stroke="none" stroke-width="1"/><circle id="car-list-both-circle1" r="39.400000" transform="matrix(1 0 0 1 114.09999999999999 1015)" fill="rgb(204,227,255)" stroke="none" stroke-width="1"/><rect id="car-list-both-rect3" width="180.900000" height="21.100000" rx="0" ry="0" transform="matrix(1 0 0 1 184.40000000000001 989.70000000000005)" fill="rgb(204,227,255)" stroke="none" stroke-width="1"/><rect id="car-list-both-rect4" width="270.900000" height="21.100000" rx="0" ry="0" transform="matrix(1 0 0 1 94.40000000000001 1399.70000000000005)" fill="rgb(204,227,255)" stroke="none" stroke-width="1"/><rect id="car-list-both-rect5" width="270.900000" height="21.100000" rx="0" ry="0" transform="matrix(1 0 0 1 94.40000000000001 1432.70000000000005)" fill="rgb(204,227,255)" stroke="none" stroke-width="1"/><line id="car-list-both-line1" x1="94.400000" y1="1409.700000" x2="365.300000" y2="1409.700000" fill="rgb(204,227,255)" stroke="none" stroke-width="1"/><rect id="car-list-both-rect6" width="119.100000" height="21.100000" rx="0" ry="0" transform="matrix(1 0 0 1 184.40000000000001 1021.10000000000002)" fill="rgb(204,227,255)" stroke="none" stroke-width="1"/><path id="car-list-both-path7" d="M392.400000,1102.900000L392.400000,1350.700000C392.400000,1360.700000,384.300000,1368.700000,374.400000,1368.700000L91.500000,1368.700000C81.500000,1368.700000,73.500000,1360.600000,73.500000,1350.700000L73.500000,1102.900000C73.500000,1092.900000,81.600000,1084.900000,91.500000,1084.900000L374.300000,1084.900000C384.300000,1084.900000,392.400000,1093,392.400000,1102.900000Z" fill="rgb(204,227,255)" stroke="none" stroke-width="1"/><path id="car-list-both-path8" d="M180.700000,1118.700000C180.700000,1154.200000,151.900000,1183,116.400000,1183C99.900000,1183,84.900000,1176.800000,73.500000,1166.600000L73.500000,1102.900000C73.500000,1092.900000,81.600000,1084.900000,91.500000,1084.900000L171,1084.900000C177.200000,1094.700000,180.700000,1106.300000,180.700000,1118.700000Z" fill="rgb(220,238,255)" stroke="none" stroke-width="1"/><g id="car-list-both-g7"><path id="car-list-both-path9" d="M350.400000,1248.900000C349.100000,1243.800000,347.400000,1238.900000,345.500000,1234C344.300000,1232.600000,342.800000,1231.600000,341.100000,1230.900000C332.400000,1218.500000,311.200000,1200,308.800000,1199.100000C294.700000,1193.400000,261.300000,1192.500000,250.400000,1192.500000C207.100000,1192.500000,189.800000,1201,185.900000,1202.700000C175.100000,1206,147,1227.900000,145.500000,1229.200000C144,1230.300000,142.500000,1231.400000,140.900000,1232.300000L137.400000,1232.600000C135.600000,1232.600000,129.800000,1235.200000,119.600000,1240C109.300000,1244.700000,107.400000,1247.700000,107.200000,1248.200000C107,1248.600000,106.100000,1252.200000,106.100000,1252.200000C105,1253.200000,104.100000,1254.400000,103.300000,1255.700000C102.500000,1257.400000,104.200000,1274.300000,104.200000,1274.300000L104.200000,1275.800000C105.400000,1277.100000,106.700000,1278.300000,108.100000,1279.400000C114.700000,1282,121.500000,1283.800000,128.500000,1284.800000L137.200000,1284.800000C128.300000,1274.800000,129.200000,1259.400000,139.300000,1250.500000C143.600000,1246.700000,149,1244.500000,154.800000,1244.400000C168,1244.600000,178.500000,1255.300000,178.400000,1268.500000C178.400000,1274.600000,176.100000,1280.500000,172,1285C195.900000,1285,222.900000,1285.200000,234.100000,1285.200000C243.900000,1285.200000,266.800000,1284.600000,288.700000,1283.900000C285.200000,1279.600000,283.300000,1274.100000,283.300000,1268.500000C283.300000,1255.500000,293.900000,1244.900000,306.900000,1244.900000C319.900000,1244.900000,330.500000,1255.500000,330.500000,1268.500000C330.500000,1273.500000,328.900000,1278.500000,326,1282.600000C334.300000,1282.300000,339.600000,1282,339.700000,1282C343,1278.200000,352.300000,1266.400000,352.900000,1264.200000C353.500000,1262,351.700000,1254.100000,350.400000,1248.900000Z" fill="rgb(220,238,255)" stroke="none" stroke-width="1"/><path id="car-list-both-path10" d="M306.800000,1248.900000C296.200000,1249.100000,287.700000,1257.800000,287.800000,1268.400000C287.800000,1274.300000,290.400000,1279.800000,294.900000,1283.500000C302.100000,1289.600000,312.800000,1289.200000,319.600000,1282.600000C323.500000,1278.900000,325.800000,1273.700000,325.800000,1268.300000C325.900000,1257.800000,317.400000,1249.100000,306.800000,1248.900000ZM306.800000,1260.800000C311,1260.700000,314.400000,1264,314.500000,1268.200000C314.600000,1272.400000,311.300000,1275.800000,307.100000,1275.900000C302.900000,1276,299.500000,1272.700000,299.400000,1268.500000C299.400000,1268.400000,299.400000,1268.400000,299.400000,1268.300000C299.400000,1264.300000,302.700000,1260.900000,306.800000,1260.800000Z" fill="rgb(220,238,255)" stroke="none" stroke-width="1"/><path id="car-list-both-path11" d="M154.700000,1248.900000C144.100000,1249.100000,135.600000,1257.800000,135.700000,1268.400000C135.700000,1275,139,1281.100000,144.600000,1284.700000C150.800000,1288.800000,158.800000,1288.800000,165,1284.700000C170.500000,1281.100000,173.900000,1274.900000,173.800000,1268.300000C173.900000,1257.700000,165.300000,1249,154.700000,1248.900000ZM154.700000,1260.800000C158.900000,1260.700000,162.300000,1264,162.400000,1268.200000C162.500000,1272.400000,159.200000,1275.800000,155,1275.900000C150.800000,1276,147.400000,1272.700000,147.300000,1268.500000C147.300000,1268.400000,147.300000,1268.400000,147.300000,1268.300000C147.300000,1264.300000,150.600000,1260.900000,154.700000,1260.800000Z" fill="rgb(220,238,255)" stroke="none" stroke-width="1"/></g></g><g id="car-list-both-g8"><g id="car-list-both-g9"><path id="car-list-both-path12" d="M372.300000,2123.600000L99.100000,2123.600000C69.500000,2123.600000,45.600000,2099.600000,45.600000,2070.100000L45.600000,1622.300000C45.600000,1592.700000,69.600000,1568.800000,99.100000,1568.800000L372.300000,1568.800000C401.900000,1568.800000,425.800000,1592.800000,425.800000,1622.300000L425.800000,2070.100000C425.800000,2099.600000,401.900000,2123.600000,372.300000,2123.600000Z" fill="rgb(236,246,255)" stroke="none" stroke-width="1"/><rect id="car-list-both-rect7" width="280.900000" height="21.100000" rx="0" ry="0" transform="matrix(1 0 0 1 87.09999999999999 1616.90000000000009)" fill="rgb(204,227,255)" stroke="none" stroke-width="1"/><rect id="car-list-both-rect8" width="219.100000" height="21.100000" rx="0" ry="0" transform="matrix(1 0 0 1 87.09999999999999 1648.29999999999995)" fill="rgb(204,227,255)" stroke="none" stroke-width="1"/><path id="car-list-both-path13" d="M377.100000,2000.900000L94.300000,2000.900000C84.300000,2000.900000,76.300000,1992.800000,76.300000,1982.900000L76.300000,1726.800000C76.300000,1716.800000,84.400000,1708.800000,94.300000,1708.800000L377.100000,1708.800000C387.100000,1708.800000,395.100000,1716.900000,395.100000,1726.800000L395.100000,1982.900000C395.100000,1992.800000,387,2000.900000,377.100000,2000.900000Z" fill="rgb(204,227,255)" stroke="none" stroke-width="1"/></g><g id="car-list-both-g10"><g id="car-list-both-g11"><path id="car-list-both-path14" d="M358.100000,1863.500000C356.800000,1858.400000,355.100000,1853.500000,353.200000,1848.600000C352,1847.200000,350.500000,1846.200000,348.800000,1845.500000C340.100000,1833.100000,318.900000,1814.600000,316.500000,1813.700000C302.400000,1808,269,1807.100000,258.100000,1807.100000C214.800000,1807.100000,197.500000,1815.600000,193.600000,1817.300000C182.800000,1820.600000,154.700000,1842.500000,153.200000,1843.800000C151.700000,1844.900000,150.200000,1846,148.600000,1846.900000L145.100000,1847.200000C143.300000,1847.200000,137.500000,1849.800000,127.300000,1854.600000C117,1859.300000,115.100000,1862.300000,114.900000,1862.800000C114.700000,1863.300000,113.800000,1866.800000,113.800000,1866.800000C112.700000,1867.800000,111.800000,1869,111,1870.300000C110.200000,1872,111.900000,1888.900000,111.900000,1888.900000L111.900000,1890.400000C113.100000,1891.700000,114.400000,1892.900000,115.800000,1894C122.400000,1896.600000,129.200000,1898.400000,136.200000,1899.400000L144.900000,1899.400000C136,1889.400000,136.900000,1874,147,1865.100000C151.300000,1861.300000,156.700000,1859.100000,162.500000,1859C175.700000,1859.200000,186.200000,1869.900000,186.100000,1883.100000C186.100000,1889.200000,183.800000,1895.100000,179.700000,1899.600000C203.600000,1899.600000,230.600000,1899.800000,241.800000,1899.800000C251.600000,1899.800000,274.500000,1899.200000,296.400000,1898.500000C292.900000,1894.200000,291,1888.700000,291,1883.100000C291,1870.100000,301.600000,1859.500000,314.600000,1859.500000C327.600000,1859.500000,338.200000,1870.100000,338.200000,1883.100000C338.200000,1888.100000,336.600000,1893.100000,333.700000,1897.200000C342,1896.900000,347.300000,1896.600000,347.400000,1896.600000C350.700000,1892.800000,360,1881,360.600000,1878.800000C361.100000,1876.500000,359.400000,1868.800000,358.100000,1863.500000Z" fill="rgb(236,246,255)" stroke="none" stroke-width="1"/><path id="car-list-both-path15" d="M314.500000,1863.600000C303.900000,1863.800000,295.400000,1872.500000,295.500000,1883.100000C295.500000,1889,298.100000,1894.500000,302.600000,1898.200000C309.800000,1904.300000,320.500000,1903.900000,327.300000,1897.300000C331.200000,1893.600000,333.500000,1888.400000,333.500000,1883C333.500000,1872.400000,325.100000,1863.700000,314.500000,1863.600000ZM314.500000,1875.500000C318.700000,1875.400000,322.100000,1878.700000,322.200000,1882.900000C322.300000,1887.100000,319,1890.500000,314.800000,1890.600000C310.600000,1890.700000,307.200000,1887.400000,307.100000,1883.200000C307.100000,1883.100000,307.100000,1883.100000,307.100000,1883C307.100000,1878.900000,310.300000,1875.600000,314.500000,1875.500000Z" fill="rgb(236,246,255)" stroke="none" stroke-width="1"/><path id="car-list-both-path16" d="M162.300000,1863.600000C151.700000,1863.800000,143.200000,1872.500000,143.300000,1883.100000C143.300000,1889.700000,146.600000,1895.800000,152.200000,1899.400000C158.400000,1903.500000,166.400000,1903.500000,172.600000,1899.400000C178.100000,1895.800000,181.500000,1889.600000,181.400000,1883C181.500000,1872.300000,173,1863.700000,162.300000,1863.600000ZM162.300000,1875.500000C166.500000,1875.400000,169.900000,1878.700000,170,1882.900000C170.100000,1887.100000,166.800000,1890.500000,162.600000,1890.600000C158.400000,1890.700000,155,1887.400000,154.900000,1883.200000C154.900000,1883.100000,154.900000,1883.100000,154.900000,1883C154.900000,1878.900000,158.200000,1875.600000,162.300000,1875.500000Z" fill="rgb(236,246,255)" stroke="none" stroke-width="1"/></g></g></g><g id="car-list-both-g12"><path id="car-list-both-path17" d="M363.400000,2749.900000L99.100000,2749.900000C69.500000,2749.900000,45.600000,2725.900000,45.600000,2696.400000L45.600000,2248.600000C45.600000,2219,69.600000,2195.100000,99.100000,2195.100000L363.500000,2195.100000C393.100000,2195.100000,417,2219.100000,417,2248.600000L417,2696.400000C417,2725.900000,393,2749.900000,363.400000,2749.900000Z" fill="rgb(236,246,255)" stroke="none" stroke-width="1"/><circle id="car-list-both-circle2" r="39.400000" transform="matrix(1 0 0 1 114.09999999999999 2267.59999999999991)" fill="rgb(204,227,255)" stroke="none" stroke-width="1"/><rect id="car-list-both-rect9" width="180.900000" height="21.100000" rx="0" ry="0" transform="matrix(1 0 0 1 184.40000000000001 2242.19999999999982)" fill="rgb(204,227,255)" stroke="none" stroke-width="1"/><rect id="car-list-both-rect10" width="270.900000" height="21.100000" rx="0" ry="0" transform="matrix(1 0 0 1 94.40000000000001 2652.19999999999982)" fill="rgb(204,227,255)" stroke="none" stroke-width="1"/><rect id="car-list-both-rect11" width="270.900000" height="21.100000" rx="0" ry="0" transform="matrix(1 0 0 1 94.40000000000001 2685.19999999999982)" fill="rgb(204,227,255)" stroke="none" stroke-width="1"/><line id="car-list-both-line2" x1="94.400000" y1="2662.200000" x2="365.300000" y2="2662.200000" fill="rgb(204,227,255)" stroke="none" stroke-width="1"/><rect id="car-list-both-rect12" width="119.100000" height="21.100000" rx="0" ry="0" transform="matrix(1 0 0 1 184.40000000000001 2273.69999999999982)" fill="rgb(204,227,255)" stroke="none" stroke-width="1"/><path id="car-list-both-path18" d="M392.400000,2355.400000L392.400000,2603.200000C392.400000,2613.200000,384.300000,2621.200000,374.400000,2621.200000L91.500000,2621.200000C81.500000,2621.200000,73.500000,2613.100000,73.500000,2603.200000L73.500000,2355.400000C73.500000,2345.400000,81.600000,2337.400000,91.500000,2337.400000L374.300000,2337.400000C384.300000,2337.400000,392.400000,2345.500000,392.400000,2355.400000Z" fill="rgb(204,227,255)" stroke="none" stroke-width="1"/><path id="car-list-both-path19" d="M180.700000,2371.200000C180.700000,2406.700000,151.900000,2435.500000,116.400000,2435.500000C99.900000,2435.500000,84.900000,2429.300000,73.500000,2419.100000L73.500000,2355.400000C73.500000,2345.400000,81.600000,2337.400000,91.500000,2337.400000L171,2337.400000C177.200000,2347.200000,180.700000,2358.800000,180.700000,2371.200000Z" fill="rgb(220,238,255)" stroke="none" stroke-width="1"/><g id="car-list-both-g13"><path id="car-list-both-path20" d="M350.400000,2501.400000C349.100000,2496.300000,347.400000,2491.400000,345.500000,2486.500000C344.300000,2485.100000,342.800000,2484.100000,341.100000,2483.400000C332.400000,2471,311.200000,2452.500000,308.800000,2451.600000C294.700000,2445.900000,261.300000,2445,250.400000,2445C207.100000,2445,189.800000,2453.500000,185.900000,2455.200000C175.100000,2458.500000,147,2480.400000,145.500000,2481.700000C144,2482.800000,142.500000,2483.900000,140.900000,2484.800000L137.400000,2485.100000C135.600000,2485.100000,129.800000,2487.700000,119.600000,2492.500000C109.300000,2497.200000,107.400000,2500.200000,107.200000,2500.700000C107,2501.100000,106.100000,2504.700000,106.100000,2504.700000C105,2505.700000,104.100000,2506.900000,103.300000,2508.200000C102.500000,2509.900000,104.200000,2526.800000,104.200000,2526.800000L104.200000,2528.300000C105.400000,2529.600000,106.700000,2530.800000,108.100000,2531.900000C114.700000,2534.500000,121.500000,2536.300000,128.500000,2537.300000L137.200000,2537.300000C128.300000,2527.300000,129.200000,2511.900000,139.300000,2503C143.600000,2499.200000,149,2497,154.800000,2496.900000C168,2497.100000,178.500000,2507.800000,178.400000,2521C178.400000,2527.100000,176.100000,2533,172,2537.500000C195.900000,2537.500000,222.900000,2537.700000,234.100000,2537.700000C243.900000,2537.700000,266.800000,2537.100000,288.700000,2536.400000C285.200000,2532.100000,283.300000,2526.600000,283.300000,2521C283.300000,2508,293.900000,2497.400000,306.900000,2497.400000C319.900000,2497.400000,330.500000,2508,330.500000,2521C330.500000,2526,328.900000,2531,326,2535.100000C334.300000,2534.800000,339.600000,2534.500000,339.700000,2534.500000C343,2530.700000,352.300000,2518.900000,352.900000,2516.700000C353.400000,2514.300000,351.700000,2506.600000,350.400000,2501.400000Z" fill="rgb(220,238,255)" stroke="none" stroke-width="1"/><path id="car-list-both-path21" d="M306.800000,2501.400000C296.200000,2501.600000,287.700000,2510.300000,287.800000,2520.900000C287.800000,2526.800000,290.400000,2532.300000,294.900000,2536C302.100000,2542.100000,312.800000,2541.700000,319.600000,2535.100000C323.500000,2531.400000,325.800000,2526.200000,325.800000,2520.800000C325.900000,2510.300000,317.400000,2501.600000,306.800000,2501.400000ZM306.800000,2513.300000C311,2513.200000,314.400000,2516.500000,314.500000,2520.700000C314.600000,2524.900000,311.300000,2528.300000,307.100000,2528.400000C302.900000,2528.500000,299.500000,2525.200000,299.400000,2521C299.400000,2520.900000,299.400000,2520.900000,299.400000,2520.800000C299.400000,2516.800000,302.700000,2513.400000,306.800000,2513.300000Z" fill="rgb(220,238,255)" stroke="none" stroke-width="1"/><path id="car-list-both-path22" d="M154.700000,2501.400000C144.100000,2501.600000,135.600000,2510.300000,135.700000,2520.900000C135.700000,2527.500000,139,2533.600000,144.600000,2537.200000C150.800000,2541.300000,158.800000,2541.300000,165,2537.200000C170.500000,2533.600000,173.900000,2527.400000,173.800000,2520.800000C173.900000,2510.200000,165.300000,2501.500000,154.700000,2501.400000ZM154.700000,2513.300000C158.900000,2513.200000,162.300000,2516.500000,162.400000,2520.700000C162.500000,2524.900000,159.200000,2528.300000,155,2528.400000C150.800000,2528.500000,147.400000,2525.200000,147.300000,2521C147.300000,2520.900000,147.300000,2520.900000,147.300000,2520.800000C147.300000,2516.800000,150.600000,2513.400000,154.700000,2513.300000Z" fill="rgb(220,238,255)" stroke="none" stroke-width="1"/></g></g></g></g><g id="car-list-both-g14_to" transform="translate(745.650012,1224.000093)"><g id="car-list-both-g14" transform="translate(-744.350037,-1537.049973)"><g id="car-list-both-g15"><path id="car-list-both-path23" d="M870.500000,1203L616.900000,1203C587.300000,1203,563.400000,1179,563.400000,1149.500000L563.400000,701.600000C563.400000,672,587.400000,648.100000,616.900000,648.100000L870.400000,648.100000C900,648.100000,923.900000,672.100000,923.900000,701.600000L923.900000,1149.400000C924,1179,900,1203,870.500000,1203Z" fill="rgb(236,246,255)" stroke="none" stroke-width="1"/><rect id="car-list-both-rect13" width="313.700000" height="53.700000" rx="0" ry="0" transform="matrix(1 0 0 1 588.20000000000005 697.89999999999998)" fill="rgb(204,227,255)" stroke="none" stroke-width="1"/><rect id="car-list-both-rect14" width="313.700000" height="23.700000" rx="0" ry="0" transform="matrix(1 0 0 1 588.20000000000005 1104.50000000000000)" fill="rgb(204,227,255)" stroke="none" stroke-width="1"/><rect id="car-list-both-rect15" width="313.700000" height="23.700000" rx="0" ry="0" transform="matrix(1 0 0 1 588.20000000000005 1144.50000000000000)" fill="rgb(204,227,255)" stroke="none" stroke-width="1"/><rect id="car-list-both-rect16" width="360.600000" height="294.600000" rx="0" ry="0" transform="matrix(1 0 0 1 563.39999999999998 792.20000000000005)" fill="rgb(220,238,255)" stroke="none" stroke-width="1"/></g><g id="car-list-both-g16"><path id="car-list-both-path24" d="M722.400000,879.500000C720.100000,879.500000,717.800000,880.700000,715.400000,881.200000C711.300000,882.900000,695.100000,897.400000,689.300000,900.900000L694.500000,905.500000C694.500000,906.100000,695.100000,906.100000,695.700000,906.100000L722.400000,906.100000C723,906.100000,723,905.500000,723,904.900000L722.400000,904.900000L722.400000,879.500000L722.400000,879.500000Z" fill="rgb(204,227,255)" stroke="none" stroke-width="1"/><path id="car-list-both-path25" d="M767.600000,878.900000C761.800000,878.300000,756,877.700000,750.800000,877.700000L750.800000,898L758.300000,898L771.600000,887.600000L768.100000,879.500000C768.200000,878.900000,767.600000,878.900000,767.600000,878.900000Z" fill="rgb(204,227,255)" stroke="none" stroke-width="1"/><path id="car-list-both-path26" d="M662.700000,932.200000C648.200000,932.200000,636,944.400000,636,958.900000C636,974,648.200000,985.600000,662.700000,985.600000C677.200000,985.600000,689.400000,973.400000,689.400000,958.900000C689.300000,944.400000,677.200000,932.200000,662.700000,932.200000ZM662.100000,970.500000C656,970.500000,651.100000,965.600000,651.100000,959.500000C651.100000,953.400000,656,948.500000,662.100000,948.500000C668.200000,948.500000,673.100000,953.400000,673.100000,959.500000C673.100000,965.600000,668.100000,970.500000,662.100000,970.500000Z" fill="rgb(204,227,255)" stroke="none" stroke-width="1"/><path id="car-list-both-path27" d="M831.300000,932.200000C816.800000,932.200000,804.600000,944.400000,804.600000,958.900000C804.600000,974,816.200000,985.600000,831.300000,985.600000C845.800000,985.600000,858,973.400000,858,958.900000C858,944.400000,845.800000,932.200000,831.300000,932.200000ZM830.900000,970.500000C824.800000,970.500000,819.900000,965.600000,819.900000,959.500000C819.900000,953.400000,824.800000,948.500000,830.900000,948.500000C837,948.500000,841.900000,953.400000,841.900000,959.500000C841.900000,965.600000,837,970.500000,830.900000,970.500000Z" fill="rgb(204,227,255)" stroke="none" stroke-width="1"/><path id="car-list-both-path28" d="M889.800000,901.500000C888.600000,900.300000,887.500000,899.800000,885.700000,899.800000L787.800000,898.100000L778.500000,875.500000C776.800000,871.400000,773.300000,868.500000,768.600000,868C751.200000,866.300000,727.500000,864.500000,711.800000,870.900000C706.600000,872.600000,704.300000,875.500000,685.100000,890C673.500000,898.700000,657.200000,892.900000,623.700000,904.500000C620.200000,906.200000,617.300000,909.700000,615.600000,913.800000C612.700000,923.100000,612.700000,932.900000,615.600000,945.100000C616.800000,949.200000,620.200000,953.200000,624.900000,954.400000C627.200000,935.900000,643.400000,921.400000,662.600000,921.400000C682.300000,921.400000,698.500000,935.900000,700.300000,955L793.100000,955C795.400000,935.900000,811.600000,921.400000,830.800000,921.400000C849.900000,921.400000,866.100000,935.900000,868.500000,954.400000C879.500000,951.500000,888.200000,942.200000,889.400000,930.100000L891.100000,905.800000C891.200000,903.900000,891,902.700000,889.800000,901.500000Z" fill="rgb(204,227,255)" stroke="none" stroke-width="1"/></g><g id="car-list-both-g17"><g id="car-list-both-g18"><path id="car-list-both-path29" d="M618.200000,591.500000L871.700000,591.500000C901.300000,591.500000,925.200000,567.500000,925.200000,538L925.200000,90.200000C925.200000,60.600000,901.200000,36.700000,871.700000,36.700000L618.200000,36.700000C588.600000,36.700000,564.700000,60.700000,564.700000,90.200000L564.700000,538C564.700000,567.500000,588.700000,591.500000,618.200000,591.500000Z" fill="rgb(236,246,255)" stroke="none" stroke-width="1"/><rect id="car-list-both-rect17" width="283.700000" height="23.700000" rx="0" ry="0" transform="matrix(1 0 0 1 602.79999999999995 79.50000000000000)" fill="rgb(204,227,255)" stroke="none" stroke-width="1"/><rect id="car-list-both-rect18" width="283.700000" height="23.700000" rx="0" ry="0" transform="matrix(1 0 0 1 602.79999999999995 117.50000000000000)" fill="rgb(204,227,255)" stroke="none" stroke-width="1"/><rect id="car-list-both-rect19" width="360.600000" height="294.600000" rx="0" ry="0" transform="matrix(1 0 0 1 564.70000000000005 175.19999999999999)" fill="rgb(220,238,255)" stroke="none" stroke-width="1"/></g><line id="car-list-both-line3" x1="880.300000" y1="492.300000" x2="609.400000" y2="492.300000" fill="none" stroke="none" stroke-width="1"/><rect id="car-list-both-rect20" width="270.900000" height="21.100000" rx="0" ry="0" transform="matrix(1 0 0 1 609.39999999999998 515.39999999999998)" fill="rgb(204,227,255)" stroke="none" stroke-width="1"/><g id="car-list-both-g19"><path id="car-list-both-path30" d="M874.500000,350.700000C873.900000,352.900000,864.600000,364.700000,861.300000,368.500000C861.200000,368.600000,855.900000,368.800000,847.600000,369.100000C850.500000,365,852.100000,360.100000,852.100000,355C852.100000,342,841.500000,331.400000,828.500000,331.400000C815.500000,331.400000,804.900000,342,804.900000,355C804.900000,360.600000,806.800000,366,810.300000,370.400000C788.400000,371.100000,765.500000,371.700000,755.700000,371.700000C744.500000,371.700000,717.500000,371.500000,693.600000,371.500000C697.700000,367,700,361.100000,700,355C700.100000,341.800000,689.500000,331.100000,676.400000,330.900000C670.700000,331.100000,665.200000,333.200000,660.900000,337C650.900000,345.900000,650,361.200000,658.800000,371.300000L650.100000,371.300000C643.100000,370.300000,636.300000,368.500000,629.700000,365.900000C628.300000,364.800000,627,363.600000,625.800000,362.300000L625.800000,360.800000C625.800000,360.800000,624.100000,343.900000,624.900000,342.200000C625.600000,340.900000,626.600000,339.700000,627.700000,338.700000C627.700000,338.700000,628.600000,335.100000,628.800000,334.700000C629,334.300000,630.900000,331.300000,641.200000,326.500000C651.500000,321.700000,657.200000,319.100000,659,319.100000L662.500000,318.800000C664.100000,317.900000,665.600000,316.800000,667.100000,315.700000C668.600000,314.400000,696.700000,292.500000,707.500000,289.200000C711.400000,287.500000,728.700000,279,772,279C782.900000,279,816.300000,280,830.400000,285.600000C832.700000,286.500000,854,305,862.700000,317.400000C864.400000,318.100000,865.900000,319.200000,867.100000,320.500000C869,325.300000,870.700000,330.300000,872,335.400000C873.400000,340.800000,875.100000,348.400000,874.500000,350.700000Z" fill="rgb(204,227,255)" stroke="none" stroke-width="1"/><path id="car-list-both-path31" d="M828.500000,335.600000C817.900000,335.800000,809.400000,344.500000,809.500000,355.100000C809.500000,361,812.100000,366.500000,816.600000,370.200000C823.800000,376.300000,834.500000,375.900000,841.300000,369.300000C845.200000,365.600000,847.500000,360.400000,847.500000,355C847.600000,344.400000,839.100000,335.700000,828.500000,335.600000ZM828.500000,347.500000C832.700000,347.400000,836.100000,350.700000,836.200000,354.900000C836.300000,359.100000,833,362.500000,828.800000,362.600000C824.600000,362.700000,821.200000,359.400000,821.100000,355.200000C821.100000,355.100000,821.100000,355.100000,821.100000,355C821.100000,350.900000,824.400000,347.600000,828.500000,347.500000Z" fill="rgb(204,227,255)" stroke="none" stroke-width="1"/><path id="car-list-both-path32" d="M676.400000,335.600000C665.800000,335.800000,657.300000,344.500000,657.400000,355.100000C657.400000,361.700000,660.700000,367.800000,666.300000,371.400000C672.500000,375.500000,680.500000,375.500000,686.700000,371.400000C692.200000,367.800000,695.600000,361.600000,695.500000,355C695.500000,344.300000,687,335.700000,676.400000,335.600000ZM676.400000,347.500000C680.600000,347.400000,684,350.700000,684.100000,354.900000C684.200000,359.100000,680.900000,362.500000,676.700000,362.600000C672.500000,362.700000,669.100000,359.400000,669,355.200000C669,355.100000,669,355.100000,669,355C669,350.900000,672.200000,347.600000,676.400000,347.500000Z" fill="rgb(204,227,255)" stroke="none" stroke-width="1"/></g></g><g id="car-list-both-g20"><g id="car-list-both-g21"><path id="car-list-both-path33" d="M618.200000,1814.500000L871.700000,1814.500000C901.300000,1814.500000,925.200000,1790.500000,925.200000,1761L925.200000,1313.200000C925.200000,1283.600000,901.200000,1259.700000,871.700000,1259.700000L618.200000,1259.700000C588.600000,1259.700000,564.700000,1283.700000,564.700000,1313.200000L564.700000,1761C564.700000,1790.500000,588.700000,1814.500000,618.200000,1814.500000Z" fill="rgb(236,246,255)" stroke="none" stroke-width="1"/><rect id="car-list-both-rect21" width="283.700000" height="23.700000" rx="0" ry="0" transform="matrix(1 0 0 1 602.79999999999995 1302.29999999999995)" fill="rgb(204,227,255)" stroke="none" stroke-width="1"/><rect id="car-list-both-rect22" width="283.700000" height="23.700000" rx="0" ry="0" transform="matrix(1 0 0 1 602.79999999999995 1340.29999999999995)" fill="rgb(204,227,255)" stroke="none" stroke-width="1"/><rect id="car-list-both-rect23" width="360.600000" height="294.600000" rx="0" ry="0" transform="matrix(1 0 0 1 564.70000000000005 1398.09999999999991)" fill="rgb(220,238,255)" stroke="none" stroke-width="1"/></g><line id="car-list-both-line4" x1="880.300000" y1="1715.300000" x2="609.400000" y2="1715.300000" fill="none" stroke="none" stroke-width="1"/><rect id="car-list-both-rect24" width="270.900000" height="21.100000" rx="0" ry="0" transform="matrix(1 0 0 1 609.39999999999998 1738.20000000000005)" fill="rgb(204,227,255)" stroke="none" stroke-width="1"/><g id="car-list-both-g22"><path id="car-list-both-path34" d="M874.500000,1573.600000C873.900000,1575.800000,864.600000,1587.600000,861.300000,1591.400000C861.200000,1591.500000,855.900000,1591.700000,847.600000,1592C850.500000,1587.900000,852.100000,1583,852.100000,1577.900000C852.100000,1564.900000,841.500000,1554.300000,828.500000,1554.300000C815.500000,1554.300000,804.900000,1564.900000,804.900000,1577.900000C804.900000,1583.500000,806.800000,1588.900000,810.300000,1593.300000C788.400000,1594,765.500000,1594.600000,755.700000,1594.600000C744.500000,1594.600000,717.500000,1594.400000,693.600000,1594.400000C697.700000,1589.900000,700,1584,700,1577.900000C700.100000,1564.700000,689.500000,1554,676.400000,1553.800000C670.700000,1554,665.200000,1556.100000,660.900000,1559.900000C650.900000,1568.800000,650,1584.100000,658.800000,1594.200000L650.100000,1594.200000C643.100000,1593.200000,636.300000,1591.400000,629.700000,1588.800000C628.300000,1587.700000,627,1586.500000,625.800000,1585.200000L625.800000,1583.700000C625.800000,1583.700000,624.100000,1566.800000,624.900000,1565.100000C625.600000,1563.800000,626.600000,1562.600000,627.700000,1561.600000C627.700000,1561.600000,628.600000,1558,628.800000,1557.600000C629,1557.200000,630.900000,1554.200000,641.200000,1549.400000C651.500000,1544.700000,657.200000,1542,659,1542L662.500000,1541.700000C664.100000,1540.800000,665.600000,1539.700000,667.100000,1538.600000C668.600000,1537.300000,696.700000,1515.400000,707.500000,1512.100000C711.400000,1510.400000,728.700000,1501.900000,772,1501.900000C782.900000,1501.900000,816.300000,1502.900000,830.400000,1508.500000C832.700000,1509.400000,854,1527.900000,862.700000,1540.300000C864.400000,1541,865.900000,1542.100000,867.100000,1543.400000C869,1548.200000,870.700000,1553.200000,872,1558.300000C873.400000,1563.700000,875.100000,1571.400000,874.500000,1573.600000Z" fill="rgb(204,227,255)" stroke="none" stroke-width="1"/><path id="car-list-both-path35" d="M828.500000,1558.500000C817.900000,1558.700000,809.400000,1567.400000,809.500000,1578C809.500000,1583.900000,812.100000,1589.400000,816.600000,1593.100000C823.800000,1599.200000,834.500000,1598.800000,841.300000,1592.200000C845.200000,1588.500000,847.500000,1583.300000,847.500000,1577.900000C847.600000,1567.400000,839.100000,1558.700000,828.500000,1558.500000ZM828.500000,1570.400000C832.700000,1570.300000,836.100000,1573.600000,836.200000,1577.800000C836.300000,1582,833,1585.400000,828.800000,1585.500000C824.600000,1585.600000,821.200000,1582.300000,821.100000,1578.100000C821.100000,1578,821.100000,1578,821.100000,1577.900000C821.100000,1573.900000,824.400000,1570.500000,828.500000,1570.400000Z" fill="rgb(204,227,255)" stroke="none" stroke-width="1"/><path id="car-list-both-path36" d="M676.400000,1558.500000C665.800000,1558.700000,657.300000,1567.400000,657.400000,1578C657.400000,1584.600000,660.700000,1590.700000,666.300000,1594.300000C672.500000,1598.400000,680.500000,1598.400000,686.700000,1594.300000C692.200000,1590.700000,695.600000,1584.500000,695.500000,1577.900000C695.500000,1567.300000,687,1558.600000,676.400000,1558.500000ZM676.400000,1570.400000C680.600000,1570.300000,684,1573.600000,684.100000,1577.800000C684.200000,1582,680.900000,1585.400000,676.700000,1585.500000C672.500000,1585.600000,669.100000,1582.300000,669,1578.100000C669,1578,669,1578,669,1577.900000C669,1573.900000,672.200000,1570.500000,676.400000,1570.400000Z" fill="rgb(204,227,255)" stroke="none" stroke-width="1"/></g></g><g id="car-list-both-g23"><path id="car-list-both-path37" d="M870.500000,2426L616.900000,2426C587.300000,2426,563.400000,2402,563.400000,2372.500000L563.400000,1924.600000C563.400000,1895,587.400000,1871.100000,616.900000,1871.100000L870.400000,1871.100000C900,1871.100000,923.900000,1895.100000,923.900000,1924.600000L923.900000,2372.400000C924,2402,900,2426,870.500000,2426Z" fill="rgb(236,246,255)" stroke="none" stroke-width="1"/><rect id="car-list-both-rect25" width="313.700000" height="53.700000" rx="0" ry="0" transform="matrix(1 0 0 1 588.20000000000005 1920.90000000000009)" fill="rgb(204,227,255)" stroke="none" stroke-width="1"/><rect id="car-list-both-rect26" width="313.700000" height="23.700000" rx="0" ry="0" transform="matrix(1 0 0 1 588.20000000000005 2327.50000000000000)" fill="rgb(204,227,255)" stroke="none" stroke-width="1"/><rect id="car-list-both-rect27" width="313.700000" height="23.700000" rx="0" ry="0" transform="matrix(1 0 0 1 588.20000000000005 2367.50000000000000)" fill="rgb(204,227,255)" stroke="none" stroke-width="1"/><rect id="car-list-both-rect28" width="360.600000" height="294.600000" rx="0" ry="0" transform="matrix(1 0 0 1 563.39999999999998 2015.20000000000005)" fill="rgb(220,238,255)" stroke="none" stroke-width="1"/></g><g id="car-list-both-g24"><path id="car-list-both-path38" d="M722.400000,2106.300000C720.100000,2106.300000,717.800000,2107.500000,715.400000,2108C711.300000,2109.700000,695.100000,2124.200000,689.300000,2127.700000L694.500000,2132.300000C694.500000,2132.900000,695.100000,2132.900000,695.700000,2132.900000L722.400000,2132.900000C723,2132.900000,723,2132.300000,723,2131.700000L722.400000,2131.700000L722.400000,2106.300000L722.400000,2106.300000Z" fill="rgb(204,227,255)" stroke="none" stroke-width="1"/><path id="car-list-both-path39" d="M767.600000,2105.700000C761.800000,2105.100000,756,2104.500000,750.800000,2104.500000L750.800000,2124.800000L758.300000,2124.800000L771.600000,2114.400000L768.100000,2106.300000C768.200000,2105.700000,767.600000,2105.700000,767.600000,2105.700000Z" fill="rgb(204,227,255)" stroke="none" stroke-width="1"/><path id="car-list-both-path40" d="M662.700000,2159C648.200000,2159,636,2171.200000,636,2185.700000C636,2200.800000,648.200000,2212.400000,662.700000,2212.400000C677.200000,2212.400000,689.400000,2200.200000,689.400000,2185.700000C689.300000,2171.200000,677.200000,2159,662.700000,2159ZM662.100000,2197.300000C656,2197.300000,651.100000,2192.400000,651.100000,2186.300000C651.100000,2180.200000,656,2175.300000,662.100000,2175.300000C668.200000,2175.300000,673.100000,2180.200000,673.100000,2186.300000C673.100000,2192.400000,668.100000,2197.300000,662.100000,2197.300000Z" fill="rgb(204,227,255)" stroke="none" stroke-width="1"/><path id="car-list-both-path41" d="M831.300000,2159C816.800000,2159,804.600000,2171.200000,804.600000,2185.700000C804.600000,2200.800000,816.200000,2212.400000,831.300000,2212.400000C845.800000,2212.400000,858,2200.200000,858,2185.700000C858,2171.200000,845.800000,2159,831.300000,2159ZM830.900000,2197.300000C824.800000,2197.300000,819.900000,2192.400000,819.900000,2186.300000C819.900000,2180.200000,824.800000,2175.300000,830.900000,2175.300000C837,2175.300000,841.900000,2180.200000,841.900000,2186.300000C841.900000,2192.400000,837,2197.300000,830.900000,2197.300000Z" fill="rgb(204,227,255)" stroke="none" stroke-width="1"/><path id="car-list-both-path42" d="M889.800000,2128.300000C888.600000,2127.100000,887.500000,2126.600000,885.700000,2126.600000L787.800000,2124.900000L778.500000,2102.300000C776.800000,2098.200000,773.300000,2095.300000,768.600000,2094.800000C751.200000,2093.100000,727.500000,2091.300000,711.800000,2097.700000C706.600000,2099.400000,704.300000,2102.300000,685.100000,2116.800000C673.500000,2125.500000,657.200000,2119.700000,623.700000,2131.300000C620.200000,2133,617.300000,2136.500000,615.600000,2140.600000C612.700000,2149.900000,612.700000,2159.700000,615.600000,2171.900000C616.800000,2176,620.200000,2180,624.900000,2181.200000C627.200000,2162.700000,643.400000,2148.200000,662.600000,2148.200000C682.300000,2148.200000,698.500000,2162.700000,700.300000,2181.800000L793.100000,2181.800000C795.400000,2162.700000,811.600000,2148.200000,830.800000,2148.200000C849.900000,2148.200000,866.100000,2162.700000,868.500000,2181.200000C879.500000,2178.300000,888.200000,2169,889.400000,2156.900000L891.100000,2132.600000C891.200000,2130.700000,891,2129.500000,889.800000,2128.300000Z" fill="rgb(204,227,255)" stroke="none" stroke-width="1"/></g><g id="car-list-both-g25"><g id="car-list-both-g26"><path id="car-list-both-path43" d="M618.200000,3037.400000L871.700000,3037.400000C901.300000,3037.400000,925.200000,3013.400000,925.200000,2983.900000L925.200000,2536.100000C925.200000,2506.500000,901.200000,2482.600000,871.700000,2482.600000L618.200000,2482.600000C588.600000,2482.600000,564.700000,2506.600000,564.700000,2536.100000L564.700000,2983.900000C564.700000,3013.400000,588.700000,3037.400000,618.200000,3037.400000Z" fill="rgb(236,246,255)" stroke="none" stroke-width="1"/><rect id="car-list-both-rect29" width="283.700000" height="23.700000" rx="0" ry="0" transform="matrix(1 0 0 1 602.79999999999995 2525.19999999999982)" fill="rgb(204,227,255)" stroke="none" stroke-width="1"/><rect id="car-list-both-rect30" width="283.700000" height="23.700000" rx="0" ry="0" transform="matrix(1 0 0 1 602.79999999999995 2563.19999999999982)" fill="rgb(204,227,255)" stroke="none" stroke-width="1"/><rect id="car-list-both-rect31" width="360.600000" height="294.600000" rx="0" ry="0" transform="matrix(1 0 0 1 564.70000000000005 2621)" fill="rgb(220,238,255)" stroke="none" stroke-width="1"/></g><line id="car-list-both-line5" x1="880.300000" y1="2938.200000" x2="609.400000" y2="2938.200000" fill="none" stroke="none" stroke-width="1"/><rect id="car-list-both-rect32" width="270.900000" height="21.100000" rx="0" ry="0" transform="matrix(1 0 0 1 609.39999999999998 2961.19999999999982)" fill="rgb(204,227,255)" stroke="none" stroke-width="1"/><g id="car-list-both-g27"><path id="car-list-both-path44" d="M874.500000,2796.500000C873.900000,2798.700000,864.600000,2810.500000,861.300000,2814.300000C861.200000,2814.400000,855.900000,2814.600000,847.600000,2814.900000C850.500000,2810.800000,852.100000,2805.900000,852.100000,2800.800000C852.100000,2787.800000,841.500000,2777.200000,828.500000,2777.200000C815.500000,2777.200000,804.900000,2787.800000,804.900000,2800.800000C804.900000,2806.400000,806.800000,2811.800000,810.300000,2816.200000C788.400000,2816.900000,765.500000,2817.500000,755.700000,2817.500000C744.500000,2817.500000,717.500000,2817.300000,693.600000,2817.300000C697.700000,2812.800000,700,2806.900000,700,2800.800000C700.100000,2787.600000,689.500000,2776.900000,676.400000,2776.700000C670.700000,2776.900000,665.200000,2779,660.900000,2782.800000C650.900000,2791.700000,650,2807,658.800000,2817.100000L650.100000,2817.100000C643.100000,2816.100000,636.300000,2814.300000,629.700000,2811.700000C628.300000,2810.600000,627,2809.400000,625.800000,2808.100000L625.800000,2806.600000C625.800000,2806.600000,624.100000,2789.700000,624.900000,2788C625.600000,2786.700000,626.600000,2785.500000,627.700000,2784.500000C627.700000,2784.500000,628.600000,2780.900000,628.800000,2780.500000C629,2780.100000,630.900000,2777.100000,641.200000,2772.300000C651.500000,2767.600000,657.200000,2764.900000,659,2764.900000L662.500000,2764.600000C664.100000,2763.700000,665.600000,2762.600000,667.100000,2761.500000C668.600000,2760.200000,696.700000,2738.300000,707.500000,2735C711.400000,2733.300000,728.700000,2724.800000,772,2724.800000C782.900000,2724.800000,816.300000,2725.800000,830.400000,2731.400000C832.700000,2732.300000,854,2750.800000,862.700000,2763.200000C864.400000,2763.900000,865.900000,2765,867.100000,2766.300000C869,2771.100000,870.700000,2776.100000,872,2781.200000C873.400000,2786.600000,875.100000,2794.300000,874.500000,2796.500000Z" fill="rgb(204,227,255)" stroke="none" stroke-width="1"/><path id="car-list-both-path45" d="M828.500000,2781.400000C817.900000,2781.600000,809.400000,2790.300000,809.500000,2800.900000C809.500000,2806.800000,812.100000,2812.300000,816.600000,2816C823.800000,2822.100000,834.500000,2821.700000,841.300000,2815.100000C845.200000,2811.400000,847.500000,2806.200000,847.500000,2800.800000C847.600000,2790.300000,839.100000,2781.600000,828.500000,2781.400000ZM828.500000,2793.300000C832.700000,2793.200000,836.100000,2796.500000,836.200000,2800.700000C836.300000,2804.900000,833,2808.300000,828.800000,2808.400000C824.600000,2808.500000,821.200000,2805.200000,821.100000,2801C821.100000,2800.900000,821.100000,2800.900000,821.100000,2800.800000C821.100000,2796.800000,824.400000,2793.400000,828.500000,2793.300000Z" fill="rgb(204,227,255)" stroke="none" stroke-width="1"/><path id="car-list-both-path46" d="M676.400000,2781.400000C665.800000,2781.600000,657.300000,2790.300000,657.400000,2800.900000C657.400000,2807.500000,660.700000,2813.600000,666.300000,2817.200000C672.500000,2821.300000,680.500000,2821.300000,686.700000,2817.200000C692.200000,2813.600000,695.600000,2807.400000,695.500000,2800.800000C695.500000,2790.200000,687,2781.500000,676.400000,2781.400000ZM676.400000,2793.300000C680.600000,2793.200000,684,2796.500000,684.100000,2800.700000C684.200000,2804.900000,680.900000,2808.300000,676.700000,2808.400000C672.500000,2808.500000,669.100000,2805.200000,669,2801C669,2800.900000,669,2800.900000,669,2800.800000C669,2796.800000,672.200000,2793.400000,676.400000,2793.300000Z" fill="rgb(204,227,255)" stroke="none" stroke-width="1"/></g></g></g></g></g></svg>