<svg id="car-list-both" xmlns="http://www.w3.org/2000/svg" xmlns:xlink="http://www.w3.org/1999/xlink" viewBox="0 0 981.900000 800" shape-rendering="geometricPrecision" text-rendering="geometricPrecision" width="981.900000" height="800"><style><![CDATA[#car-list-both-g1_to {animation: car-list-both-g1_to__to 12000ms linear infinite normal forwards}@keyframes car-list-both-g1_to__to { 0% {transform: translate(235.700005px,1259.727609px)} 100% {transform: translate(235.700006px,4.002712px)} }#car-list-both-g14_to {animation: car-list-both-g14_to__to 12000ms linear infinite normal forwards}@keyframes car-list-both-g14_to__to { 0% {transform: translate(746.281566px,1238.850001px)} 100% {transform: translate(745.650012px,-20.197239px)} }]]></style><g id="car-list-both-car-list-both"><g id="car-list-both-g1_to" transform="translate(235.700005,1259.727609)"><g id="car-list-both-g1" transform="translate(-235.700005,-1533.099915)"><g id="car-list-both-g2"><g id="car-list-both-g3"><path id="car-list-both-path1" d="M372.300000,871.100000L99.100000,871.100000C69.500000,871.100000,45.600000,847.100000,45.600000,817.600000L45.600000,369.800000C45.600000,340.200000,69.600000,316.300000,99.100000,316.300000L372.300000,316.300000C401.900000,316.300000,425.800000,340.300000,425.800000,369.800000L425.800000,817.600000C425.800000,847.100000,401.900000,871.100000,372.300000,871.100000Z" fill="rgb(236,246,255)" stroke="none" stroke-width="1"/><rect id="car-list-both-rect1" width="280.900000" height="21.100000" rx="0" ry="0" transform="matrix(1 0 0 1 87.09999999999999 364.39999999999998)" fill="rgb(204,227,255)" stroke="none" stroke-width="1"/><rect id="car-list-both-rect2" width="219.100000" height="21.100000" rx="0" ry="0" transform="matrix(1 0 0 1 87.09999999999999 395.80000000000001)" fill="rgb(204,227,255)" stroke="none" stroke-width="1"/><path id="car-list-both-path2" d="M377.100000,748.400000L94.300000,748.400000C84.300000,748.400000,76.300000,740.300000,76.300000,730.400000L76.300000,474.200000C76.300000,464.200000,84.400000,456.200000,94.300000,456.200000L377.100000,456.200000C387.100000,456.200000,395.100000,464.300000,395.100000,474.200000L395.100000,730.300000C395.100000,740.300000,387,748.400000,377.100000,748.400000Z" fill="rgb(204,227,255)" stroke="none" stroke-width="1"/></g><g id="car-list-both-g4"><g id="car-list-both-g5"><path id="car-list-both-path3" d="M358.100000,611C356.800000,605.900000,355.100000,601,353.200000,596.100000C352,594.700000,350.500000,593.700000,348.800000,593C340.100000,580.600000,318.900000,562.100000,316.500000,561.200000C302.400000,555.500000,269,554.600000,258.100000,554.600000C214.800000,554.600000,197.500000,563.100000,193.600000,564.800000C182.800000,568.100000,154.700000,590,153.200000,591.300000C151.700000,592.400000,150.200000,593.500000,148.600000,594.400000L145.100000,594.700000C143.300000,594.700000,137.500000,597.300000,127.300000,602.100000C117.100000,606.900000,115.100000,609.800000,114.900000,610.300000C114.700000,610.700000,113.800000,614.300000,113.800000,614.300000C112.700000,615.300000,111.800000,616.500000,111,617.800000C110.200000,619.500000,111.900000,636.400000,111.900000,636.400000L111.900000,637.900000C113.100000,639.200000,114.400000,640.400000,115.800000,641.500000C122.400000,644.100000,129.200000,645.900000,136.200000,646.900000L144.900000,646.900000C136,636.900000,136.900000,621.500000,147,612.600000C151.300000,608.800000,156.700000,606.600000,162.500000,606.500000C175.700000,606.700000,186.200000,617.400000,186.100000,630.600000C186.100000,636.700000,183.800000,642.600000,179.700000,647.100000C203.600000,647.100000,230.600000,647.300000,241.800000,647.300000C251.600000,647.300000,274.500000,646.700000,296.400000,646C292.900000,641.700000,291,636.200000,291,630.600000C291,617.600000,301.600000,607,314.600000,607C327.600000,607,338.200000,617.600000,338.200000,630.600000C338.200000,635.600000,336.600000,640.600000,333.700000,644.700000C342,644.400000,347.300000,644.100000,347.400000,644.100000C350.700000,640.300000,360,628.500000,360.600000,626.300000C361.100000,624,359.400000,616.300000,358.100000,611Z" fill="rgb(236,246,255)" stroke="none" stroke-width="1"/><path id="car-list-both-path4" d="M314.500000,611.100000C303.900000,611.300000,295.400000,620,295.500000,630.600000C295.500000,636.500000,298.100000,642,302.600000,645.700000C309.800000,651.800000,320.500000,651.400000,327.300000,644.800000C331.200000,641.100000,333.500000,635.900000,333.500000,630.500000C333.500000,619.900000,325.100000,611.200000,314.500000,611.100000ZM314.500000,623C318.700000,622.900000,322.100000,626.200000,322.200000,630.400000C322.300000,634.600000,319,638,314.800000,638.100000C310.600000,638.200000,307.200000,634.900000,307.100000,630.700000C307.100000,630.600000,307.100000,630.600000,307.100000,630.500000C307.100000,626.400000,310.300000,623.100000,314.500000,623Z" fill="rgb(236,246,255)" stroke="none" stroke-width="1"/><path id="car-list-both-path5" d="M162.300000,611.100000C151.700000,611.300000,143.200000,620,143.300000,630.600000C143.300000,637.200000,146.600000,643.300000,152.200000,646.900000C158.400000,651,166.400000,651,172.600000,646.900000C178.100000,643.300000,181.500000,637.100000,181.400000,630.500000C181.500000,619.800000,173,611.200000,162.300000,611.100000ZM162.300000,623C166.500000,622.900000,169.900000,626.200000,170,630.400000C170.100000,634.600000,166.800000,638,162.600000,638.100000C158.400000,638.200000,155,634.900000,154.900000,630.700000C154.900000,630.600000,154.900000,630.600000,154.900000,630.500000C154.900000,626.400000,158.200000,623.100000,162.300000,623Z" fill="rgb(236,246,255)" stroke="none" stroke-width="1"/></g></g></g><g id="car-list-both-g6"><path id="car-list-both-path6" d="M363.400000,1497.400000L99.100000,1497.400000C69.500000,1497.400000,45.600000,1473.400000,45.600000,1443.900000L45.600000,996C45.600000,966.400000,69.600000,942.500000,99.100000,942.500000L363.500000,942.500000C393.100000,942.500000,417,966.500000,417,996L417,1443.800000C417,1473.400000,393,1497.400000,363.400000,1497.400000Z" fill="rgb(236,246,255)" stroke="none" stroke-width="1"/><circle id="car-list-both-circle1" r="39.400000" transform="matrix(1 0 0 1 114.09999999999999 1015)" fill="rgb(204,227,255)" stroke="none" stroke-width="1"/><rect id="car-list-both-rect3" width="180.900000" height="21.100000" rx="0" ry="0" transform="matrix(1 0 0 1 184.40000000000001 989.70000000000005)" fill="rgb(204,227,255)" stroke="none" stroke-width="1"/><rect id="car-list-both-rect4" width="270.900000" height="21.100000" rx="0" ry="0" transform="matrix(1 0 0 1 94.40000000000001 1399.70000000000005)" fill="rgb(204,227,255)" stroke="none" stroke-width="1"/><rect id="car-list-both-rect5" width="270.900000" height="21.100000" rx="0" ry="0" transform="matrix(1 0 0 1 94.40000000000001 1432.70000000000005)" fill="rgb(204,227,255)" stroke="none" stroke-width="1"/><line id="car-list-both-line1" x1="94.400000" y1="1409.700000" x2="365.300000" y2="1409.700000" fill="rgb(204,227,255)" stroke="none" stroke-width="1"/><rect id="car-list-both-rect6" width="119.100000" height="21.100000" rx="0" ry="0" transform="matrix(1 0 0 1 184.40000000000001 1021.10000000000002)" fill="rgb(204,227,255)" stroke="none" stroke-width="1"/><path id="car-list-both-path7" d="M392.400000,1102.900000L392.400000,1350.700000C392.400000,1360.700000,384.300000,1368.700000,374.400000,1368.700000L91.500000,1368.700000C81.500000,1368.700000,73.500000,1360.600000,73.500000,1350.700000L73.500000,1102.900000C73.500000,1092.900000,81.600000,1084.900000,91.500000,1084.900000L374.300000,1084.900000C384.300000,1084.900000,392.400000,1093,392.400000,1102.900000Z" fill="rgb(204,227,255)" stroke="none" stroke-width="1"/><path id="car-list-both-path8" d="M180.700000,1118.700000C180.700000,1154.200000,151.900000,1183,116.400000,1183C99.900000,1183,84.900000,1176.800000,73.500000,1166.600000L73.500000,1102.900000C73.500000,1092.900000,81.600000,1084.900000,91.500000,1084.900000L171,1084.900000C177.200000,1094.700000,180.700000,1106.300000,180.700000,1118.700000Z" fill="rgb(220,238,255)" stroke="none" stroke-width="1"/><g id="car-list-both-g7"><path id="car-list-both-path9" d="M350.400000,1248.900000C349.100000,1243.800000,347.400000,1238.900000,345.500000,1234C344.300000,1232.600000,342.800000,1231.600000,341.100000,1230.900000C332.400000,1218.500000,311.200000,1200,308.800000,1199.100000C294.700000,1193.400000,261.300000,1192.500000,250.400000,1192.500000C207.100000,1192.500000,189.800000,1201,185.900000,1202.700000C175.100000,1206,147,1227.900000,145.500000,1229.200000C144,1230.300000,142.500000,1231.400000,140.900000,1232.300000L137.400000,1232.600000C135.600000,1232.600000,129.800000,1235.200000,119.600000,1240C109.300000,1244.700000,107.400000,1247.700000,107.200000,1248.200000C107,1248.600000,106.100000,1252.200000,106.100000,1252.200000C105,1253.200000,104.100000,1254.400000,103.300000,1255.700000C102.500000,1257.400000,104.200000,1274.300000,104.200000,1274.300000L104.200000,1275.800000C105.400000,1277.100000,106.700000,1278.300000,108.100000,1279.400000C114.700000,1282,121.500000,1283.800000,128.500000,1284.800000L137.200000,1284.800000C128.300000,1274.800000,129.200000,1259.400000,139.300000,1250.500000C143.600000,1246.700000,149,1244.500000,154.800000,1244.400000C168,1244.600000,178.500000,1255.300000,178.400000,1268.500000C178.400000,1274.600000,176.100000,1280.500000,172,1285C195.900000,1285,222.900000,1285.200000,234.100000,1285.200000C243.900000,1285.200000,266.800000,1284.600000,288.700000,1283.900000C285.200000,1279.600000,283.300000,1274.100000,283.300000,1268.500000C283.300000,1255.500000,293.900000,1244.900000,306.900000,1244.900000C319.900000,1244.900000,330.500000,1255.500000,330.500000,1268.500000C330.500000,1273.500000,328.900000,1278.500000,326,1282.600000C334.300000,1282.300000,339.600000,1282,339.700000,1282C343,1278.200000,352.300000,1266.400000,352.900000,1264.200000C353.500000,1262,351.700000,1254.100000,350.400000,1248.900000Z" fill="rgb(220,238,255)" stroke="none" stroke-width="1"/><path id="car-list-both-path10" d="M306.800000,1248.900000C296.200000,1249.100000,287.700000,1257.800000,287.800000,1268.400000C287.800000,1274.300000,290.400000,1279.800000,294.900000,1283.500000C302.100000,1289.600000,312.800000,1289.200000,319.600000,1282.600000C323.500000,1278.900000,325.800000,1273.700000,325.800000,1268.300000C325.900000,1257.800000,317.400000,1249.100000,306.800000,1248.900000ZM306.800000,1260.800000C311,1260.700000,314.400000,1264,314.500000,1268.200000C314.600000,1272.400000,311.300000,1275.800000,307.100000,1275.900000C302.900000,1276,299.500000,1272.700000,299.400000,1268.500000C299.400000,1268.400000,299.400000,1268.400000,299.400000,1268.300000C299.400000,1264.300000,302.700000,1260.900000,306.800000,1260.800000Z" fill="rgb(220,238,255)" stroke="none" stroke-width="1"/><path id="car-list-both-path11" d="M154.700000,1248.900000C144.100000,1249.100000,135.600000,1257.800000,135.700000,1268.400000C135.700000,1275,139,1281.100000,144.600000,1284.700000C150.800000,1288.800000,158.800000,1288.800000,165,1284.700000C170.500000,1281.100000,173.900000,1274.900000,173.800000,1268.300000C173.900000,1257.700000,165.300000,1249,154.700000,1248.900000ZM154.700000,1260.800000C158.900000,1260.700000,162.300000,1264,162.400000,1268.200000C162.500000,1272.400000,159.200000,1275.800000,155,1275.900000C150.800000,1276,147.400000,1272.700000,147.300000,1268.500000C147.300000,1268.400000,147.300000,1268.400000,147.300000,1268.300000C147.300000,1264.300000,150.600000,1260.900000,154.700000,1260.800000Z" fill="rgb(220,238,255)" stroke="none" stroke-width="1"/></g></g><g id="car-list-both-g8"><g id="car-list-both-g9"><path id="car-list-both-path12" d="M372.300000,2123.600000L99.100000,2123.600000C69.500000,2123.600000,45.600000,2099.600000,45.600000,2070.100000L45.600000,1622.300000C45.600000,1592.700000,69.600000,1568.800000,99.100000,1568.800000L372.300000,1568.800000C401.900000,1568.800000,425.800000,1592.800000,425.800000,1622.300000L425.800000,2070.100000C425.800000,2099.600000,401.900000,2123.600000,372.300000,2123.600000Z" fill="rgb(236,246,255)" stroke="none" stroke-width="1"/><rect id="car-list-both-rect7" width="280.900000" height="21.100000" rx="0" ry="0" transform="matrix(1 0 0 1 87.09999999999999 1616.90000000000009)" fill="rgb(204,227,255)" stroke="none" stroke-width="1"/><rect id="car-list-both-rect8" width="219.100000" height="21.100000" rx="0" ry="0" transform="matrix(1 0 0 1 87.09999999999999 1648.29999999999995)" fill="rgb(204,227,255)" stroke="none" stroke-width="1"/><path id="car-list-both-path13" d="M377.100000,2000.900000L94.300000,2000.900000C84.300000,2000.900000,76.300000,1992.800000,76.300000,1982.900000L76.300000,1726.800000C76.300000,1716.800000,84.400000,1708.800000,94.300000,1708.800000L377.100000,1708.800000C387.100000,1708.800000,395.100000,1716.900000,395.100000,1726.800000L395.100000,1982.900000C395.100000,1992.800000,387,2000.900000,377.100000,2000.900000Z" fill="rgb(204,227,255)" stroke="none" stroke-width="1"/></g><g id="car-list-both-g10"><g id="car-list-both-g11"><path id="car-list-both-path14" d="M358.100000,1863.500000C356.800000,1858.400000,355.100000,1853.500000,353.200000,1848.600000C352,1847.200000,350.500000,1846.200000,348.800000,1845.500000C340.100000,1833.100000,318.900000,1814.600000,316.500000,1813.700000C302.400000,1808,269,1807.100000,258.100000,1807.100000C214.800000,1807.100000,197.500000,1815.600000,193.600000,1817.300000C182.800000,1820.600000,154.700000,1842.500000,153.200000,1843.800000C151.700000,1844.900000,150.200000,1846,148.600000,1846.900000L145.100000,1847.200000C143.300000,1847.200000,137.500000,1849.800000,127.300000,1854.600000C117,1859.300000,115.100000,1862.300000,114.900000,1862.800000C114.700000,1863.300000,113.800000,1866.800000,113.800000,1866.800000C112.700000,1867.800000,111.800000,1869,111,1870.300000C110.200000,1872,111.900000,1888.900000,111.900000,1888.900000L111.900000,1890.400000C113.100000,1891.700000,114.400000,1892.900000,115.800000,1894C122.400000,1896.600000,129.200000,1898.400000,136.200000,1899.400000L144.900000,1899.400000C136,1889.400000,136.900000,1874,147,1865.100000C151.300000,1861.300000,156.700000,1859.100000,162.500000,1859C175.700000,1859.200000,186.200000,1869.900000,186.100000,1883.100000C186.100000,1889.200000,183.800000,1895.100000,179.700000,1899.600000C203.600000,1899.600000,230.600000,1899.800000,241.800000,1899.800000C251.600000,1899.800000,274.500000,1899.200000,296.400000,1898.500000C292.900000,1894.200000,291,1888.700000,291,1883.100000C291,1870.100000,301.600000,1859.500000,314.600000,1859.500000C327.600000,1859.500000,338.200000,1870.100000,338.200000,1883.100000C338.200000,1888.100000,336.600000,1893.100000,333.700000,1897.200000C342,1896.900000,347.300000,1896.600000,347.400000,1896.600000C350.700000,1892.800000,360,1881,360.600000,1878.800000C361.100000,1876.500000,359.400000,1868.800000,358.100000,1863.500000Z" fill="rgb(236,246,255)" stroke="none" stroke-width="1"/><path id="car-list-both-path15" d="M314.500000,1863.600000C303.900000,1863.800000,295.400000,1872.500000,295.500000,1883.100000C295.500000,1889,298.100000,1894.500000,302.600000,1898.200000C309.800000,1904.300000,320.500000,1903.900000,327.300000,1897.300000C331.200000,1893.600000,333.500000,1888.400000,333.500000,1883C333.500000,1872.400000,325.100000,1863.700000,314.500000,1863.600000ZM314.500000,1875.500000C318.700000,1875.400000,322.100000,1878.700000,322.200000,1882.900000C322.300000,1887.100000,319,1890.500000,314.800000,1890.600000C310.600000,1890.700000,307.200000,1887.400000,307.100000,1883.200000C307.100000,1883.100000,307.100000,1883.100000,307.100000,1883C307.100000,1878.900000,310.300000,1875.600000,314.500000,1875.500000Z" fill="rgb(236,246,255)" stroke="none" stroke-width="1"/><path id="car-list-both-path16" d="M162.300000,1863.600000C151.700000,1863.800000,143.200000,1872.500000,143.300000,1883.100000C143.300000,1889.700000,146.600000,1895.800000,152.200000,1899.400000C158.400000,1903.500000,166.400000,1903.500000,172.600000,1899.400000C178.100000,1895.800000,181.500000,1889.600000,181.400000,1883C181.500000,1872.300000,173,1863.700000,162.300000,1863.600000ZM162.300000,1875.500000C166.500000,1875.400000,169.900000,1878.700000,170,1882.900000C170.100000,1887.100000,166.800000,1890.500000,162.600000,1890.600000C158.400000,1890.700000,155,1887.400000,154.900000,1883.200000C154.900000,1883.100000,154.900000,1883.100000,154.900000,1883C154.900000,1878.900000,158.200000,1875.600000,162.300000,1875.500000Z" fill="rgb(236,246,255)" stroke="none" stroke-width="1"/></g></g></g><g id="car-list-both-g12"><path id="car-list-both-path17" d="M363.400000,2749.900000L99.100000,2749.900000C69.500000,2749.900000,45.600000,2725.900000,45.600000,2696.400000L45.600000,2248.600000C45.600000,2219,69.600000,2195.100000,99.100000,2195.100000L363.500000,2195.100000C393.100000,2195.100000,417,2219.100000,417,2248.600000L417,2696.400000C417,2725.900000,393,2749.900000,363.400000,2749.900000Z" fill="rgb(236,246,255)" stroke="none" stroke-width="1"/><circle id="car-list-both-circle2" r="39.400000" transform="matrix(1 0 0 1 114.09999999999999 2267.59999999999991)" fill="rgb(204,227,255)" stroke="none" stroke-width="1"/><rect id="car-list-both-rect9" width="180.900000" height="21.100000" rx="0" ry="0" transform="matrix(1 0 0 1 184.40000000000001 2242.19999999999982)" fill="rgb(204,227,255)" stroke="none" stroke-width="1"/><rect id="car-list-both-rect10" width="270.900000" height="21.100000" rx="0" ry="0" transform="matrix(1 0 0 1 94.40000000000001 2652.19999999999982)" fill="rgb(204,227,255)" stroke="none" stroke-width="1"/><rect id="car-list-both-rect11" width="270.900000" height="21.100000" rx="0" ry="0" transform="matrix(1 0 0 1 94.40000000000001 2685.19999999999982)" fill="rgb(204,227,255)" stroke="none" stroke-width="1"/><line id="car-list-both-line2" x1="94.400000" y1="2662.200000" x2="365.300000" y2="2662.200000" fill="rgb(204,227,255)" stroke="none" stroke-width="1"/><rect id="car-list-both-rect12" width="119.100000" height="21.100000" rx="0" ry="0" transform="matrix(1 0 0 1 184.40000000000001 2273.69999999999982)" fill="rgb(204,227,255)" stroke="none" stroke-width="1"/><path id="car-list-both-path18" d="M392.400000,2355.400000L392.400000,2603.200000C392.400000,2613.200000,384.300000,2621.200000,374.400000,2621.200000L91.500000,2621.200000C81.500000,2621.200000,73.500000,2613.100000,73.500000,2603.200000L73.500000,2355.400000C73.500000,2345.400000,81.600000,2337.400000,91.500000,2337.400000L374.300000,2337.400000C384.300000,2337.400000,392.400000,2345.500000,392.400000,2355.400000Z" fill="rgb(204,227,255)" stroke="none" stroke-width="1"/><path id="car-list-both-path19" d="M180.700000,2371.200000C180.700000,2406.700000,151.900000,2435.500000,116.400000,2435.500000C99.900000,2435.500000,84.900000,2429.300000,73.500000,2419.100000L73.500000,2355.400000C73.500000,2345.400000,81.600000,2337.400000,91.500000,2337.400000L171,2337.400000C177.200000,2347.200000,180.700000,2358.800000,180.700000,2371.200000Z" fill="rgb(220,238,255)" stroke="none" stroke-width="1"/><g id="car-list-both-g13"><path id="car-list-both-path20" d="M350.400000,2501.400000C349.100000,2496.300000,347.400000,2491.400000,345.500000,2486.500000C344.300000,2485.100000,342.800000,2484.100000,341.100000,2483.400000C332.400000,2471,311.200000,2452.500000,308.800000,2451.600000C294.700000,2445.900000,261.300000,2445,250.400000,2445C207.100000,2445,189.800000,2453.500000,185.900000,2455.200000C175.100000,2458.500000,147,2480.400000,145.500000,2481.700000C144,2482.800000,142.500000,2483.900000,140.900000,2484.800000L137.400000,2485.100000C135.600000,2485.100000,129.800000,2487.700000,119.600000,2492.500000C109.300000,2497.200000,107.400000,2500.200000,107.200000,2500.700000C107,2501.100000,106.100000,2504.700000,106.100000,2504.700000C105,2505.700000,104.100000,2506.900000,103.300000,2508.200000C102.500000,2509.900000,104.200000,2526.800000,104.200000,2526.800000L104.200000,2528.300000C105.400000,2529.600000,106.700000,2530.800000,108.100000,2531.900000C114.700000,2534.500000,121.500000,2536.300000,128.500000,2537.300000L137.200000,2537.300000C128.300000,2527.300000,129.200000,2511.900000,139.300000,2503C143.600000,2499.200000,149,2497,154.800000,2496.900000C168,2497.100000,178.500000,2507.800000,178.400000,2521C178.400000,2527.100000,176.100000,2533,172,2537.500000C195.900000,2537.500000,222.900000,2537.700000,234.100000,2537.700000C243.900000,2537.700000,266.800000,2537.100000,288.700000,2536.400000C285.200000,2532.100000,283.300000,2526.600000,283.300000,2521C283.300000,2508,293.900000,2497.400000,306.900000,2497.400000C319.900000,2497.400000,330.500000,2508,330.500000,2521C330.500000,2526,328.900000,2531,326,2535.100000C334.300000,2534.800000,339.600000,2534.500000,339.700000,2534.500000C343,2530.700000,352.300000,2518.900000,352.900000,2516.700000C353.400000,2514.300000,351.700000,2506.600000,350.400000,2501.400000Z" fill="rgb(220,238,255)" stroke="none" stroke-width="1"/><path id="car-list-both-path21" d="M306.800000,2501.400000C296.200000,2501.600000,287.700000,2510.300000,287.800000,2520.900000C287.800000,2526.800000,290.400000,2532.300000,294.900000,2536C302.100000,2542.100000,312.800000,2541.700000,319.600000,2535.100000C323.500000,2531.400000,325.800000,2526.200000,325.800000,2520.800000C325.900000,2510.300000,317.400000,2501.600000,306.800000,2501.400000ZM306.800000,2513.300000C311,2513.200000,314.400000,2516.500000,314.500000,2520.700000C314.600000,2524.900000,311.300000,2528.300000,307.100000,2528.400000C302.900000,2528.500000,299.500000,2525.200000,299.400000,2521C299.400000,2520.900000,299.400000,2520.900000,299.400000,2520.800000C299.400000,2516.800000,302.700000,2513.400000,306.800000,2513.300000Z" fill="rgb(220,238,255)" stroke="none" stroke-width="1"/><path id="car-list-both-path22" d="M154.700000,2501.400000C144.100000,2501.600000,135.600000,2510.300000,135.700000,2520.900000C135.700000,2527.500000,139,2533.600000,144.600000,2537.200000C150.800000,2541.300000,158.800000,2541.300000,165,2537.200000C170.500000,2533.600000,173.900000,2527.400000,173.800000,2520.800000C173.900000,2510.200000,165.300000,2501.500000,154.700000,2501.400000ZM154.700000,2513.300000C158.900000,2513.200000,162.300000,2516.500000,162.400000,2520.700000C162.500000,2524.900000,159.200000,2528.300000,155,2528.400000C150.800000,2528.500000,147.400000,2525.200000,147.300000,2521C147.300000,2520.900000,147.300000,2520.900000,147.300000,2520.800000C147.300000,2516.800000,150.600000,2513.400000,154.700000,2513.300000Z" fill="rgb(220,238,255)" stroke="none" stroke-width="1"/></g></g></g></g><g id="car-list-both-g14_to" transform="translate(746.281566,1238.850001)"><g id="car-list-both-g14" transform="translate(-744.350037,-1541.500050)"><g id="car-list-both-g15"><g id="car-list-both-g16"><path id="car-list-both-path23" d="M870.500000,1192.900000L616.900000,1192.900000C587.300000,1192.900000,563.400000,1168.900000,563.400000,1139.400000L563.400000,691.500000C563.400000,661.900000,587.400000,638,616.900000,638L870.400000,638C900,638,923.900000,662,923.900000,691.500000L923.900000,1139.300000C924,1168.900000,900,1192.900000,870.500000,1192.900000Z" fill="rgb(236,246,255)" stroke="none" stroke-width="1"/><rect id="car-list-both-rect13" width="313.700000" height="53.700000" rx="0" ry="0" transform="matrix(1 0 0 1 588.20000000000005 687.79999999999995)" fill="rgb(204,227,255)" stroke="none" stroke-width="1"/><rect id="car-list-both-rect14" width="313.700000" height="23.700000" rx="0" ry="0" transform="matrix(1 0 0 1 588.20000000000005 1094.40000000000009)" fill="rgb(204,227,255)" stroke="none" stroke-width="1"/><rect id="car-list-both-rect15" width="313.700000" height="23.700000" rx="0" ry="0" transform="matrix(1 0 0 1 588.20000000000005 1134.40000000000009)" fill="rgb(204,227,255)" stroke="none" stroke-width="1"/><rect id="car-list-both-rect16" width="360.600000" height="294.600000" rx="0" ry="0" transform="matrix(1 0 0 1 563.39999999999998 782.10000000000002)" fill="rgb(220,238,255)" stroke="none" stroke-width="1"/></g><g id="car-list-both-g17" transform="matrix(1 0 0 1 -10 29)"><path id="car-list-both-path24" d="M722.400000,852.500000C720.100000,852.500000,717.800000,853.700000,715.400000,854.200000C711.300000,855.900000,695.100000,870.400000,689.300000,873.900000L694.500000,878.500000C694.500000,879.100000,695.100000,879.100000,695.700000,879.100000L722.400000,879.100000C723,879.100000,723,878.500000,723,877.900000L722.400000,877.900000L722.400000,852.500000L722.400000,852.500000Z" fill="rgb(204,227,255)" stroke="none" stroke-width="1"/><path id="car-list-both-path25" d="M767.600000,851.900000C761.800000,851.300000,756,850.700000,750.800000,850.700000L750.800000,871L758.300000,871L771.600000,860.600000L768.100000,852.500000C768.200000,851.900000,767.600000,851.900000,767.600000,851.900000Z" fill="rgb(204,227,255)" stroke="none" stroke-width="1"/><path id="car-list-both-path26" d="M662.700000,905.200000C648.200000,905.200000,636,917.400000,636,931.900000C636,947,648.200000,958.600000,662.700000,958.600000C677.200000,958.600000,689.400000,946.400000,689.400000,931.900000C689.300000,917.400000,677.200000,905.200000,662.700000,905.200000ZM662.100000,943.500000C656,943.500000,651.100000,938.600000,651.100000,932.500000C651.100000,926.400000,656,921.500000,662.100000,921.500000C668.200000,921.500000,673.100000,926.400000,673.100000,932.500000C673.100000,938.600000,668.100000,943.500000,662.100000,943.500000Z" fill="rgb(204,227,255)" stroke="none" stroke-width="1"/><path id="car-list-both-path27" d="M831.300000,905.200000C816.800000,905.200000,804.600000,917.400000,804.600000,931.900000C804.600000,947,816.200000,958.600000,831.300000,958.600000C845.800000,958.600000,858,946.400000,858,931.900000C858,917.400000,845.800000,905.200000,831.300000,905.200000ZM830.900000,943.500000C824.800000,943.500000,819.900000,938.600000,819.900000,932.500000C819.900000,926.400000,824.800000,921.500000,830.900000,921.500000C837,921.500000,841.900000,926.400000,841.900000,932.500000C841.900000,938.600000,837,943.500000,830.900000,943.500000Z" fill="rgb(204,227,255)" stroke="none" stroke-width="1"/><path id="car-list-both-path28" d="M889.800000,874.500000C888.600000,873.300000,887.500000,872.800000,885.700000,872.800000L787.800000,871.100000L778.500000,848.500000C776.800000,844.400000,773.300000,841.500000,768.600000,841C751.200000,839.300000,727.500000,837.500000,711.800000,843.900000C706.600000,845.600000,704.300000,848.500000,685.100000,863C673.500000,871.700000,657.200000,865.900000,623.700000,877.500000C620.200000,879.200000,617.300000,882.700000,615.600000,886.800000C612.700000,896.100000,612.700000,905.900000,615.600000,918.100000C616.800000,922.200000,620.200000,926.200000,624.900000,927.400000C627.200000,908.900000,643.400000,894.400000,662.600000,894.400000C682.300000,894.400000,698.500000,908.900000,700.300000,928L793.100000,928C795.400000,908.900000,811.600000,894.400000,830.800000,894.400000C849.900000,894.400000,866.100000,908.900000,868.500000,927.400000C879.500000,924.500000,888.200000,915.200000,889.400000,903.100000L891.100000,878.800000C891.200000,876.900000,891,875.700000,889.800000,874.500000Z" fill="rgb(204,227,255)" stroke="none" stroke-width="1"/></g></g><g id="car-list-both-g18"><g id="car-list-both-g19"><path id="car-list-both-path29" d="M618.200000,564.500000L871.700000,564.500000C901.300000,564.500000,925.200000,540.500000,925.200000,511L925.200000,63.200000C925.200000,33.600000,901.200000,9.700000,871.700000,9.700000L618.200000,9.700000C588.600000,9.700000,564.700000,33.700000,564.700000,63.200000L564.700000,511C564.700000,540.500000,588.700000,564.500000,618.200000,564.500000Z" fill="rgb(236,246,255)" stroke="none" stroke-width="1"/><rect id="car-list-both-rect17" width="283.700000" height="23.700000" rx="0" ry="0" transform="matrix(1 0 0 1 602.79999999999995 52.50000000000000)" fill="rgb(204,227,255)" stroke="none" stroke-width="1"/><rect id="car-list-both-rect18" width="283.700000" height="23.700000" rx="0" ry="0" transform="matrix(1 0 0 1 602.79999999999995 90.50000000000000)" fill="rgb(204,227,255)" stroke="none" stroke-width="1"/><rect id="car-list-both-rect19" width="360.600000" height="294.600000" rx="0" ry="0" transform="matrix(1 0 0 1 564.70000000000005 148.19999999999999)" fill="rgb(220,238,255)" stroke="none" stroke-width="1"/></g><line id="car-list-both-line3" x1="880.300000" y1="465.300000" x2="609.400000" y2="465.300000" fill="none" stroke="none" stroke-width="1"/><rect id="car-list-both-rect20" width="270.900000" height="21.100000" rx="0" ry="0" transform="matrix(1 0 0 1 609.39999999999998 488.39999999999998)" fill="rgb(204,227,255)" stroke="none" stroke-width="1"/><g id="car-list-both-g20"><path id="car-list-both-path30" d="M874.500000,323.700000C873.900000,325.900000,864.600000,337.700000,861.300000,341.500000C861.200000,341.600000,855.900000,341.800000,847.600000,342.100000C850.500000,338,852.100000,333.100000,852.100000,328C852.100000,315,841.500000,304.400000,828.500000,304.400000C815.500000,304.400000,804.900000,315,804.900000,328C804.900000,333.600000,806.800000,339,810.300000,343.400000C788.400000,344.100000,765.500000,344.700000,755.700000,344.700000C744.500000,344.700000,717.500000,344.500000,693.600000,344.500000C697.700000,340,700,334.100000,700,328C700.100000,314.800000,689.500000,304.100000,676.400000,303.900000C670.700000,304.100000,665.200000,306.200000,660.900000,310C650.900000,318.900000,650,334.200000,658.800000,344.300000L650.100000,344.300000C643.100000,343.300000,636.300000,341.500000,629.700000,338.900000C628.300000,337.800000,627,336.600000,625.800000,335.300000L625.800000,333.800000C625.800000,333.800000,624.100000,316.900000,624.900000,315.200000C625.600000,313.900000,626.600000,312.700000,627.700000,311.700000C627.700000,311.700000,628.600000,308.100000,628.800000,307.700000C629,307.300000,630.900000,304.300000,641.200000,299.500000C651.500000,294.700000,657.200000,292.100000,659,292.100000L662.500000,291.800000C664.100000,290.900000,665.600000,289.800000,667.100000,288.700000C668.600000,287.400000,696.700000,265.500000,707.500000,262.200000C711.400000,260.500000,728.700000,252,772,252C782.900000,252,816.300000,253,830.400000,258.600000C832.700000,259.500000,854,278,862.700000,290.400000C864.400000,291.100000,865.900000,292.200000,867.100000,293.500000C869,298.300000,870.700000,303.300000,872,308.400000C873.400000,313.800000,875.100000,321.400000,874.500000,323.700000Z" fill="rgb(204,227,255)" stroke="none" stroke-width="1"/><path id="car-list-both-path31" d="M828.500000,308.600000C817.900000,308.800000,809.400000,317.500000,809.500000,328.100000C809.500000,334,812.100000,339.500000,816.600000,343.200000C823.800000,349.300000,834.500000,348.900000,841.300000,342.300000C845.200000,338.600000,847.500000,333.400000,847.500000,328C847.600000,317.400000,839.100000,308.700000,828.500000,308.600000ZM828.500000,320.500000C832.700000,320.400000,836.100000,323.700000,836.200000,327.900000C836.300000,332.100000,833,335.500000,828.800000,335.600000C824.600000,335.700000,821.200000,332.400000,821.100000,328.200000C821.100000,328.100000,821.100000,328.100000,821.100000,328C821.100000,323.900000,824.400000,320.600000,828.500000,320.500000Z" fill="rgb(204,227,255)" stroke="none" stroke-width="1"/><path id="car-list-both-path32" d="M676.400000,308.600000C665.800000,308.800000,657.300000,317.500000,657.400000,328.100000C657.400000,334.700000,660.700000,340.800000,666.300000,344.400000C672.500000,348.500000,680.500000,348.500000,686.700000,344.400000C692.200000,340.800000,695.600000,334.600000,695.500000,328C695.500000,317.300000,687,308.700000,676.400000,308.600000ZM676.400000,320.500000C680.600000,320.400000,684,323.700000,684.100000,327.900000C684.200000,332.100000,680.900000,335.500000,676.700000,335.600000C672.500000,335.700000,669.100000,332.400000,669,328.200000C669,328.100000,669,328.100000,669,328C669,323.900000,672.200000,320.600000,676.400000,320.500000Z" fill="rgb(204,227,255)" stroke="none" stroke-width="1"/></g></g><g id="car-list-both-g21"><g id="car-list-both-g22"><path id="car-list-both-path33" d="M618.200000,1821.700000L871.700000,1821.700000C901.300000,1821.700000,925.200000,1797.700000,925.200000,1768.200000L925.200000,1320.400000C925.200000,1290.800000,901.200000,1266.900000,871.700000,1266.900000L618.200000,1266.900000C588.600000,1266.900000,564.700000,1290.900000,564.700000,1320.400000L564.700000,1768.200000C564.700000,1797.700000,588.700000,1821.700000,618.200000,1821.700000Z" fill="rgb(236,246,255)" stroke="none" stroke-width="1"/><rect id="car-list-both-rect21" width="283.700000" height="23.700000" rx="0" ry="0" transform="matrix(1 0 0 1 602.79999999999995 1309.50000000000000)" fill="rgb(204,227,255)" stroke="none" stroke-width="1"/><rect id="car-list-both-rect22" width="283.700000" height="23.700000" rx="0" ry="0" transform="matrix(1 0 0 1 602.79999999999995 1347.50000000000000)" fill="rgb(204,227,255)" stroke="none" stroke-width="1"/><rect id="car-list-both-rect23" width="360.600000" height="294.600000" rx="0" ry="0" transform="matrix(1 0 0 1 564.70000000000005 1405.29999999999995)" fill="rgb(220,238,255)" stroke="none" stroke-width="1"/></g><line id="car-list-both-line4" x1="880.300000" y1="1722.500000" x2="609.400000" y2="1722.500000" fill="none" stroke="none" stroke-width="1"/><rect id="car-list-both-rect24" width="270.900000" height="21.100000" rx="0" ry="0" transform="matrix(1 0 0 1 609.39999999999998 1745.40000000000009)" fill="rgb(204,227,255)" stroke="none" stroke-width="1"/><g id="car-list-both-g23"><path id="car-list-both-path34" d="M874.500000,1580.800000C873.900000,1583,864.600000,1594.800000,861.300000,1598.600000C861.200000,1598.700000,855.900000,1598.900000,847.600000,1599.200000C850.500000,1595.100000,852.100000,1590.200000,852.100000,1585.100000C852.100000,1572.100000,841.500000,1561.500000,828.500000,1561.500000C815.500000,1561.500000,804.900000,1572.100000,804.900000,1585.100000C804.900000,1590.700000,806.800000,1596.100000,810.300000,1600.500000C788.400000,1601.200000,765.500000,1601.800000,755.700000,1601.800000C744.500000,1601.800000,717.500000,1601.600000,693.600000,1601.600000C697.700000,1597.100000,700,1591.200000,700,1585.100000C700.100000,1571.900000,689.500000,1561.200000,676.400000,1561C670.700000,1561.200000,665.200000,1563.300000,660.900000,1567.100000C650.900000,1576,650,1591.300000,658.800000,1601.400000L650.100000,1601.400000C643.100000,1600.400000,636.300000,1598.600000,629.700000,1596C628.300000,1594.900000,627,1593.700000,625.800000,1592.400000L625.800000,1590.900000C625.800000,1590.900000,624.100000,1574,624.900000,1572.300000C625.600000,1571,626.600000,1569.800000,627.700000,1568.800000C627.700000,1568.800000,628.600000,1565.200000,628.800000,1564.800000C629,1564.400000,630.900000,1561.400000,641.200000,1556.600000C651.500000,1551.900000,657.200000,1549.200000,659,1549.200000L662.500000,1548.900000C664.100000,1548,665.600000,1546.900000,667.100000,1545.800000C668.600000,1544.500000,696.700000,1522.600000,707.500000,1519.300000C711.400000,1517.600000,728.700000,1509.100000,772,1509.100000C782.900000,1509.100000,816.300000,1510.100000,830.400000,1515.700000C832.700000,1516.600000,854,1535.100000,862.700000,1547.500000C864.400000,1548.200000,865.900000,1549.300000,867.100000,1550.600000C869,1555.400000,870.700000,1560.400000,872,1565.500000C873.400000,1570.900000,875.100000,1578.600000,874.500000,1580.800000Z" fill="rgb(204,227,255)" stroke="none" stroke-width="1"/><path id="car-list-both-path35" d="M828.500000,1565.700000C817.900000,1565.900000,809.400000,1574.600000,809.500000,1585.200000C809.500000,1591.100000,812.100000,1596.600000,816.600000,1600.300000C823.800000,1606.400000,834.500000,1606,841.300000,1599.400000C845.200000,1595.700000,847.500000,1590.500000,847.500000,1585.100000C847.600000,1574.600000,839.100000,1565.900000,828.500000,1565.700000ZM828.500000,1577.600000C832.700000,1577.500000,836.100000,1580.800000,836.200000,1585C836.300000,1589.200000,833,1592.600000,828.800000,1592.700000C824.600000,1592.800000,821.200000,1589.500000,821.100000,1585.300000C821.100000,1585.200000,821.100000,1585.200000,821.100000,1585.100000C821.100000,1581.100000,824.400000,1577.700000,828.500000,1577.600000Z" fill="rgb(204,227,255)" stroke="none" stroke-width="1"/><path id="car-list-both-path36" d="M676.400000,1565.700000C665.800000,1565.900000,657.300000,1574.600000,657.400000,1585.200000C657.400000,1591.800000,660.700000,1597.900000,666.300000,1601.500000C672.500000,1605.600000,680.500000,1605.600000,686.700000,1601.500000C692.200000,1597.900000,695.600000,1591.700000,695.500000,1585.100000C695.500000,1574.500000,687,1565.800000,676.400000,1565.700000ZM676.400000,1577.600000C680.600000,1577.500000,684,1580.800000,684.100000,1585C684.200000,1589.200000,680.900000,1592.600000,676.700000,1592.700000C672.500000,1592.800000,669.100000,1589.500000,669,1585.300000C669,1585.200000,669,1585.200000,669,1585.100000C669,1581.100000,672.200000,1577.700000,676.400000,1577.600000Z" fill="rgb(204,227,255)" stroke="none" stroke-width="1"/></g></g><g id="car-list-both-g24"><g id="car-list-both-g25"><path id="car-list-both-path37" d="M618.200000,3073.300000L871.700000,3073.300000C901.300000,3073.300000,925.200000,3049.300000,925.200000,3019.800000L925.200000,2572C925.200000,2542.400000,901.200000,2518.500000,871.700000,2518.500000L618.200000,2518.500000C588.600000,2518.500000,564.700000,2542.500000,564.700000,2572L564.700000,3019.800000C564.700000,3049.300000,588.700000,3073.300000,618.200000,3073.300000Z" fill="rgb(236,246,255)" stroke="none" stroke-width="1"/><rect id="car-list-both-rect25" width="283.700000" height="23.700000" rx="0" ry="0" transform="matrix(1 0 0 1 602.79999999999995 2561.09999999999991)" fill="rgb(204,227,255)" stroke="none" stroke-width="1"/><rect id="car-list-both-rect26" width="283.700000" height="23.700000" rx="0" ry="0" transform="matrix(1 0 0 1 602.79999999999995 2599.09999999999991)" fill="rgb(204,227,255)" stroke="none" stroke-width="1"/><rect id="car-list-both-rect27" width="360.600000" height="294.600000" rx="0" ry="0" transform="matrix(1 0 0 1 564.70000000000005 2657)" fill="rgb(220,238,255)" stroke="none" stroke-width="1"/></g><line id="car-list-both-line5" x1="880.300000" y1="2974.100000" x2="609.400000" y2="2974.100000" fill="none" stroke="none" stroke-width="1"/><rect id="car-list-both-rect28" width="270.900000" height="21.100000" rx="0" ry="0" transform="matrix(1 0 0 1 609.39999999999998 2997.09999999999991)" fill="rgb(204,227,255)" stroke="none" stroke-width="1"/><g id="car-list-both-g26"><path id="car-list-both-path38" d="M874.500000,2832.400000C873.900000,2834.600000,864.600000,2846.400000,861.300000,2850.200000C861.200000,2850.300000,855.900000,2850.500000,847.600000,2850.800000C850.500000,2846.700000,852.100000,2841.800000,852.100000,2836.700000C852.100000,2823.700000,841.500000,2813.100000,828.500000,2813.100000C815.500000,2813.100000,804.900000,2823.700000,804.900000,2836.700000C804.900000,2842.300000,806.800000,2847.700000,810.300000,2852.100000C788.400000,2852.800000,765.500000,2853.400000,755.700000,2853.400000C744.500000,2853.400000,717.500000,2853.200000,693.600000,2853.200000C697.700000,2848.700000,700,2842.800000,700,2836.700000C700.100000,2823.500000,689.500000,2812.800000,676.400000,2812.600000C670.700000,2812.800000,665.200000,2814.900000,660.900000,2818.700000C650.900000,2827.600000,650,2842.900000,658.800000,2853L650.100000,2853C643.100000,2852,636.300000,2850.200000,629.700000,2847.600000C628.300000,2846.500000,627,2845.300000,625.800000,2844L625.800000,2842.500000C625.800000,2842.500000,624.100000,2825.600000,624.900000,2823.900000C625.600000,2822.600000,626.600000,2821.400000,627.700000,2820.400000C627.700000,2820.400000,628.600000,2816.800000,628.800000,2816.400000C629,2816,630.900000,2813,641.200000,2808.200000C651.500000,2803.500000,657.200000,2800.800000,659,2800.800000L662.500000,2800.500000C664.100000,2799.600000,665.600000,2798.500000,667.100000,2797.400000C668.600000,2796.100000,696.700000,2774.200000,707.500000,2770.900000C711.400000,2769.200000,728.700000,2760.700000,772,2760.700000C782.900000,2760.700000,816.300000,2761.700000,830.400000,2767.300000C832.700000,2768.200000,854,2786.700000,862.700000,2799.100000C864.400000,2799.800000,865.900000,2800.900000,867.100000,2802.200000C869,2807,870.700000,2812,872,2817.100000C873.400000,2822.500000,875.100000,2830.200000,874.500000,2832.400000Z" fill="rgb(204,227,255)" stroke="none" stroke-width="1"/><path id="car-list-both-path39" d="M828.500000,2817.300000C817.900000,2817.500000,809.400000,2826.200000,809.500000,2836.800000C809.500000,2842.700000,812.100000,2848.200000,816.600000,2851.900000C823.800000,2858,834.500000,2857.600000,841.300000,2851C845.200000,2847.300000,847.500000,2842.100000,847.500000,2836.700000C847.600000,2826.200000,839.100000,2817.500000,828.500000,2817.300000ZM828.500000,2829.200000C832.700000,2829.100000,836.100000,2832.400000,836.200000,2836.600000C836.300000,2840.800000,833,2844.200000,828.800000,2844.300000C824.600000,2844.400000,821.200000,2841.100000,821.100000,2836.900000C821.100000,2836.800000,821.100000,2836.800000,821.100000,2836.700000C821.100000,2832.700000,824.400000,2829.300000,828.500000,2829.200000Z" fill="rgb(204,227,255)" stroke="none" stroke-width="1"/><path id="car-list-both-path40" d="M676.400000,2817.300000C665.800000,2817.500000,657.300000,2826.200000,657.400000,2836.800000C657.400000,2843.400000,660.700000,2849.500000,666.300000,2853.100000C672.500000,2857.200000,680.500000,2857.200000,686.700000,2853.100000C692.200000,2849.500000,695.600000,2843.300000,695.500000,2836.700000C695.500000,2826.100000,687,2817.400000,676.400000,2817.300000ZM676.400000,2829.200000C680.600000,2829.100000,684,2832.400000,684.100000,2836.600000C684.200000,2840.800000,680.900000,2844.200000,676.700000,2844.300000C672.500000,2844.400000,669.100000,2841.100000,669,2836.900000C669,2836.800000,669,2836.800000,669,2836.700000C669,2832.700000,672.200000,2829.300000,676.400000,2829.200000Z" fill="rgb(204,227,255)" stroke="none" stroke-width="1"/></g></g><g id="car-list-both-g27"><g id="car-list-both-g28"><path id="car-list-both-path41" d="M871.100000,2449.700000L617.500000,2449.700000C587.900000,2449.700000,564,2425.700000,564,2396.200000L564,1948.300000C564,1918.700000,588,1894.800000,617.500000,1894.800000L871,1894.800000C900.600000,1894.800000,924.500000,1918.800000,924.500000,1948.300000L924.500000,2396.100000C924.600000,2425.700000,900.600000,2449.700000,871.100000,2449.700000Z" fill="rgb(236,246,255)" stroke="none" stroke-width="1"/><rect id="car-list-both-rect29" width="313.700000" height="53.700000" rx="0" ry="0" transform="matrix(1 0 0 1 588.79999999999995 1944.59999999999991)" fill="rgb(204,227,255)" stroke="none" stroke-width="1"/><rect id="car-list-both-rect30" width="313.700000" height="23.700000" rx="0" ry="0" transform="matrix(1 0 0 1 588.79999999999995 2351.19999999999982)" fill="rgb(204,227,255)" stroke="none" stroke-width="1"/><rect id="car-list-both-rect31" width="313.700000" height="23.700000" rx="0" ry="0" transform="matrix(1 0 0 1 588.79999999999995 2391.19999999999982)" fill="rgb(204,227,255)" stroke="none" stroke-width="1"/><rect id="car-list-both-rect32" width="360.600000" height="294.600000" rx="0" ry="0" transform="matrix(1 0 0 1 564 2038.90000000000009)" fill="rgb(220,238,255)" stroke="none" stroke-width="1"/></g><g id="car-list-both-g29" transform="matrix(1 0 0 1 -10 30)"><path id="car-list-both-path42" d="M723,2109.300000C720.700000,2109.300000,718.400000,2110.500000,716,2111C711.900000,2112.700000,695.700000,2127.200000,689.900000,2130.700000L695.100000,2135.300000C695.100000,2135.900000,695.700000,2135.900000,696.300000,2135.900000L723,2135.900000C723.600000,2135.900000,723.600000,2135.300000,723.600000,2134.700000L723,2134.700000L723,2109.300000L723,2109.300000Z" fill="rgb(204,227,255)" stroke="none" stroke-width="1"/><path id="car-list-both-path43" d="M768.200000,2108.700000C762.400000,2108.100000,756.600000,2107.500000,751.400000,2107.500000L751.400000,2127.800000L758.900000,2127.800000L772.200000,2117.400000L768.700000,2109.300000C768.800000,2108.700000,768.200000,2108.700000,768.200000,2108.700000Z" fill="rgb(204,227,255)" stroke="none" stroke-width="1"/><path id="car-list-both-path44" d="M663.300000,2162C648.800000,2162,636.600000,2174.200000,636.600000,2188.700000C636.600000,2203.800000,648.800000,2215.400000,663.300000,2215.400000C677.800000,2215.400000,690,2203.200000,690,2188.700000C689.900000,2174.200000,677.800000,2162,663.300000,2162ZM662.700000,2200.300000C656.600000,2200.300000,651.700000,2195.400000,651.700000,2189.300000C651.700000,2183.200000,656.600000,2178.300000,662.700000,2178.300000C668.800000,2178.300000,673.700000,2183.200000,673.700000,2189.300000C673.700000,2195.400000,668.700000,2200.300000,662.700000,2200.300000Z" fill="rgb(204,227,255)" stroke="none" stroke-width="1"/><path id="car-list-both-path45" d="M831.900000,2162C817.400000,2162,805.200000,2174.200000,805.200000,2188.700000C805.200000,2203.800000,816.800000,2215.400000,831.900000,2215.400000C846.400000,2215.400000,858.600000,2203.200000,858.600000,2188.700000C858.600000,2174.200000,846.400000,2162,831.900000,2162ZM831.500000,2200.300000C825.400000,2200.300000,820.500000,2195.400000,820.500000,2189.300000C820.500000,2183.200000,825.400000,2178.300000,831.500000,2178.300000C837.600000,2178.300000,842.500000,2183.200000,842.500000,2189.300000C842.500000,2195.400000,837.600000,2200.300000,831.500000,2200.300000Z" fill="rgb(204,227,255)" stroke="none" stroke-width="1"/><path id="car-list-both-path46" d="M890.400000,2131.300000C889.200000,2130.100000,888.100000,2129.600000,886.300000,2129.600000L788.400000,2127.900000L779.100000,2105.300000C777.400000,2101.200000,773.900000,2098.300000,769.200000,2097.800000C751.800000,2096.100000,728.100000,2094.300000,712.400000,2100.700000C707.200000,2102.400000,704.900000,2105.300000,685.700000,2119.800000C674.100000,2128.500000,657.800000,2122.700000,624.300000,2134.300000C620.800000,2136,617.900000,2139.500000,616.200000,2143.600000C613.300000,2152.900000,613.300000,2162.700000,616.200000,2174.900000C617.400000,2179,620.800000,2183,625.500000,2184.200000C627.800000,2165.700000,644,2151.200000,663.200000,2151.200000C682.900000,2151.200000,699.100000,2165.700000,700.900000,2184.800000L793.700000,2184.800000C796,2165.700000,812.200000,2151.200000,831.400000,2151.200000C850.500000,2151.200000,866.700000,2165.700000,869.100000,2184.200000C880.100000,2181.300000,888.800000,2172,890,2159.900000L891.700000,2135.600000C891.800000,2133.700000,891.600000,2132.500000,890.400000,2131.300000Z" fill="rgb(204,227,255)" stroke="none" stroke-width="1"/></g></g></g></g></g></svg>