<svg id="car-list-both" xmlns="http://www.w3.org/2000/svg" xmlns:xlink="http://www.w3.org/1999/xlink" viewBox="0 0 981.900000 1268.470000" shape-rendering="geometricPrecision" text-rendering="geometricPrecision" width="981.900000" height="1268.470000"><style><![CDATA[#car-list-both-g1_to {animation: car-list-both-g1_to__to 3000ms linear infinite normal forwards}@keyframes car-list-both-g1_to__to { 0% {transform: translate(235.700005px,1263.099915px)} 100% {transform: translate(235.410833px,11.200073px)} }#car-list-both-g16_to {animation: car-list-both-g16_to__to 3000ms linear infinite normal forwards}@keyframes car-list-both-g16_to__to { 0% {transform: translate(744.350037px,1267.049973px)} 100% {transform: translate(745.650012px,48.082170px)} }]]></style><g id="car-list-both-g1_to" transform="translate(235.700005,1263.099915)"><g id="car-list-both-g1" transform="translate(-235.700005,-1533.099915)"><g id="car-list-both-g2"><g id="car-list-both-g3"><g id="car-list-both-g4"><path id="car-list-both-path1" d="M372.300000,871.100000L99.100000,871.100000C69.500000,871.100000,45.600000,847.100000,45.600000,817.600000L45.600000,369.800000C45.600000,340.200000,69.600000,316.300000,99.100000,316.300000L372.300000,316.300000C401.900000,316.300000,425.800000,340.300000,425.800000,369.800000L425.800000,817.600000C425.800000,847.100000,401.900000,871.100000,372.300000,871.100000Z" fill="rgb(236,246,255)" stroke="none" stroke-width="1"/><rect id="car-list-both-rect1" width="280.900000" height="21.100000" rx="0" ry="0" transform="matrix(1 0 0 1 87.09999999999999 364.39999999999998)" fill="rgb(204,227,255)" stroke="none" stroke-width="1"/><rect id="car-list-both-rect2" width="219.100000" height="21.100000" rx="0" ry="0" transform="matrix(1 0 0 1 87.09999999999999 395.80000000000001)" fill="rgb(204,227,255)" stroke="none" stroke-width="1"/><path id="car-list-both-path2" d="M377.100000,748.400000L94.300000,748.400000C84.300000,748.400000,76.300000,740.300000,76.300000,730.400000L76.300000,474.200000C76.300000,464.200000,84.400000,456.200000,94.300000,456.200000L377.100000,456.200000C387.100000,456.200000,395.100000,464.300000,395.100000,474.200000L395.100000,730.300000C395.100000,740.300000,387,748.400000,377.100000,748.400000Z" fill="rgb(204,227,255)" stroke="none" stroke-width="1"/></g><g id="car-list-both-g5"><g id="car-list-both-g6"><path id="car-list-both-path3" d="M358.100000,611C356.800000,605.900000,355.100000,601,353.200000,596.100000C352,594.700000,350.500000,593.700000,348.800000,593C340.100000,580.600000,318.900000,562.100000,316.500000,561.200000C302.400000,555.500000,269,554.600000,258.100000,554.600000C214.800000,554.600000,197.500000,563.100000,193.600000,564.800000C182.800000,568.100000,154.700000,590,153.200000,591.300000C151.700000,592.400000,150.200000,593.500000,148.600000,594.400000L145.100000,594.700000C143.300000,594.700000,137.500000,597.300000,127.300000,602.100000C117.100000,606.900000,115.100000,609.800000,114.900000,610.300000C114.700000,610.700000,113.800000,614.300000,113.800000,614.300000C112.700000,615.300000,111.800000,616.500000,111,617.800000C110.200000,619.500000,111.900000,636.400000,111.900000,636.400000L111.900000,637.900000C113.100000,639.200000,114.400000,640.400000,115.800000,641.500000C122.400000,644.100000,129.200000,645.900000,136.200000,646.900000L144.900000,646.900000C136,636.900000,136.900000,621.500000,147,612.600000C151.300000,608.800000,156.700000,606.600000,162.500000,606.500000C175.700000,606.700000,186.200000,617.400000,186.100000,630.600000C186.100000,636.700000,183.800000,642.600000,179.700000,647.100000C203.600000,647.100000,230.600000,647.300000,241.800000,647.300000C251.600000,647.300000,274.500000,646.700000,296.400000,646C292.900000,641.700000,291,636.200000,291,630.600000C291,617.600000,301.600000,607,314.600000,607C327.600000,607,338.200000,617.600000,338.200000,630.600000C338.200000,635.600000,336.600000,640.600000,333.700000,644.700000C342,644.400000,347.300000,644.100000,347.400000,644.100000C350.700000,640.300000,360,628.500000,360.600000,626.300000C361.100000,624,359.400000,616.300000,358.100000,611Z" fill="rgb(236,246,255)" stroke="none" stroke-width="1"/><path id="car-list-both-path4" d="M314.500000,611.100000C303.900000,611.300000,295.400000,620,295.500000,630.600000C295.500000,636.500000,298.100000,642,302.600000,645.700000C309.800000,651.800000,320.500000,651.400000,327.300000,644.800000C331.200000,641.100000,333.500000,635.900000,333.500000,630.500000C333.500000,619.900000,325.100000,611.200000,314.500000,611.100000ZM314.500000,623C318.700000,622.900000,322.100000,626.200000,322.200000,630.400000C322.300000,634.600000,319,638,314.800000,638.100000C310.600000,638.200000,307.200000,634.900000,307.100000,630.700000C307.100000,630.600000,307.100000,630.600000,307.100000,630.500000C307.100000,626.400000,310.300000,623.100000,314.500000,623Z" fill="rgb(236,246,255)" stroke="none" stroke-width="1"/><path id="car-list-both-path5" d="M162.300000,611.100000C151.700000,611.300000,143.200000,620,143.300000,630.600000C143.300000,637.200000,146.600000,643.300000,152.200000,646.900000C158.400000,651,166.400000,651,172.600000,646.900000C178.100000,643.300000,181.500000,637.100000,181.400000,630.500000C181.500000,619.800000,173,611.200000,162.300000,611.100000ZM162.300000,623C166.500000,622.900000,169.900000,626.200000,170,630.400000C170.100000,634.600000,166.800000,638,162.600000,638.100000C158.400000,638.200000,155,634.900000,154.900000,630.700000C154.900000,630.600000,154.900000,630.600000,154.900000,630.500000C154.900000,626.400000,158.200000,623.100000,162.300000,623Z" fill="rgb(236,246,255)" stroke="none" stroke-width="1"/></g></g></g><g id="car-list-both-g7"><path id="car-list-both-path6" d="M363.400000,1502.500000L99.100000,1502.500000C69.500000,1502.500000,45.600000,1478.500000,45.600000,1449L45.600000,1001.200000C45.600000,971.600000,69.600000,947.700000,99.100000,947.700000L363.500000,947.700000C393.100000,947.700000,417,971.700000,417,1001.200000L417,1449C417,1478.500000,393,1502.500000,363.400000,1502.500000Z" fill="rgb(236,246,255)" stroke="none" stroke-width="1"/><circle id="car-list-both-circle1" r="39.400000" transform="matrix(1 0 0 1 114.09999999999999 1020.20000000000005)" fill="rgb(204,227,255)" stroke="none" stroke-width="1"/><rect id="car-list-both-rect3" width="180.900000" height="21.100000" rx="0" ry="0" transform="matrix(1 0 0 1 184.40000000000001 994.89999999999998)" fill="rgb(204,227,255)" stroke="none" stroke-width="1"/><rect id="car-list-both-rect4" width="270.900000" height="21.100000" rx="0" ry="0" transform="matrix(1 0 0 1 94.40000000000001 1404.90000000000009)" fill="rgb(204,227,255)" stroke="none" stroke-width="1"/><rect id="car-list-both-rect5" width="270.900000" height="21.100000" rx="0" ry="0" transform="matrix(1 0 0 1 94.40000000000001 1437.90000000000009)" fill="rgb(204,227,255)" stroke="none" stroke-width="1"/><line id="car-list-both-line1" x1="94.400000" y1="1414.900000" x2="365.300000" y2="1414.900000" fill="rgb(204,227,255)" stroke="none" stroke-width="1"/><rect id="car-list-both-rect6" width="119.100000" height="21.100000" rx="0" ry="0" transform="matrix(1 0 0 1 184.40000000000001 1026.29999999999995)" fill="rgb(204,227,255)" stroke="none" stroke-width="1"/><path id="car-list-both-path7" d="M392.400000,1108.100000L392.400000,1355.900000C392.400000,1365.900000,384.300000,1373.900000,374.400000,1373.900000L91.500000,1373.900000C81.500000,1373.900000,73.500000,1365.800000,73.500000,1355.900000L73.500000,1108.100000C73.500000,1098.100000,81.600000,1090.100000,91.500000,1090.100000L374.300000,1090.100000C384.300000,1090,392.400000,1098.100000,392.400000,1108.100000Z" fill="rgb(204,227,255)" stroke="none" stroke-width="1"/><path id="car-list-both-path8" d="M180.700000,1123.900000C180.700000,1159.400000,151.900000,1188.200000,116.400000,1188.200000C99.900000,1188.200000,84.900000,1182,73.500000,1171.800000L73.500000,1108.100000C73.500000,1098.100000,81.600000,1090.100000,91.500000,1090.100000L171,1090.100000C177.200000,1099.900000,180.700000,1111.500000,180.700000,1123.900000Z" fill="rgb(220,238,255)" stroke="none" stroke-width="1"/><g id="car-list-both-g8"><path id="car-list-both-path9" d="M350.400000,1254C349.100000,1248.900000,347.400000,1244,345.500000,1239.100000C344.300000,1237.700000,342.800000,1236.700000,341.100000,1236C332.400000,1223.600000,311.200000,1205.100000,308.800000,1204.200000C294.700000,1198.500000,261.300000,1197.600000,250.400000,1197.600000C207.100000,1197.600000,189.800000,1206.100000,185.900000,1207.800000C175.100000,1211.100000,147,1233,145.500000,1234.300000C144,1235.400000,142.500000,1236.500000,140.900000,1237.400000L137.400000,1237.700000C135.600000,1237.700000,129.800000,1240.300000,119.600000,1245.100000C109.300000,1249.800000,107.400000,1252.800000,107.200000,1253.300000C107,1253.700000,106.100000,1257.300000,106.100000,1257.300000C105,1258.300000,104.100000,1259.500000,103.300000,1260.800000C102.500000,1262.500000,104.200000,1279.400000,104.200000,1279.400000L104.200000,1280.900000C105.400000,1282.200000,106.700000,1283.400000,108.100000,1284.500000C114.700000,1287.100000,121.500000,1288.900000,128.500000,1289.900000L137.200000,1289.900000C128.300000,1279.900000,129.200000,1264.500000,139.300000,1255.600000C143.600000,1251.800000,149,1249.600000,154.800000,1249.500000C168,1249.700000,178.500000,1260.400000,178.400000,1273.600000C178.400000,1279.700000,176.100000,1285.600000,172,1290.100000C195.900000,1290.100000,222.900000,1290.300000,234.100000,1290.300000C243.900000,1290.300000,266.800000,1289.700000,288.700000,1289C285.200000,1284.700000,283.300000,1279.200000,283.300000,1273.600000C283.300000,1260.600000,293.900000,1250,306.900000,1250C319.900000,1250,330.500000,1260.600000,330.500000,1273.600000C330.500000,1278.600000,328.900000,1283.600000,326,1287.700000C334.300000,1287.400000,339.600000,1287.100000,339.700000,1287.100000C343,1283.300000,352.300000,1271.500000,352.900000,1269.300000C353.500000,1267.100000,351.700000,1259.200000,350.400000,1254Z" fill="rgb(220,238,255)" stroke="none" stroke-width="1"/><path id="car-list-both-path10" d="M306.800000,1254C296.200000,1254.200000,287.700000,1262.900000,287.800000,1273.500000C287.800000,1279.400000,290.400000,1284.900000,294.900000,1288.600000C302.100000,1294.700000,312.800000,1294.300000,319.600000,1287.700000C323.500000,1284,325.800000,1278.800000,325.800000,1273.400000C325.900000,1262.900000,317.400000,1254.200000,306.800000,1254ZM306.800000,1265.900000C311,1265.800000,314.400000,1269.100000,314.500000,1273.300000C314.600000,1277.500000,311.300000,1280.900000,307.100000,1281C302.900000,1281.100000,299.500000,1277.800000,299.400000,1273.600000C299.400000,1273.500000,299.400000,1273.500000,299.400000,1273.400000C299.400000,1269.400000,302.700000,1266,306.800000,1265.900000Z" fill="rgb(220,238,255)" stroke="none" stroke-width="1"/><path id="car-list-both-path11" d="M154.700000,1254C144.100000,1254.200000,135.600000,1262.900000,135.700000,1273.500000C135.700000,1280.100000,139,1286.200000,144.600000,1289.800000C150.800000,1293.900000,158.800000,1293.900000,165,1289.800000C170.500000,1286.200000,173.900000,1280,173.800000,1273.400000C173.900000,1262.800000,165.300000,1254.100000,154.700000,1254ZM154.700000,1265.900000C158.900000,1265.800000,162.300000,1269.100000,162.400000,1273.300000C162.500000,1277.500000,159.200000,1280.900000,155,1281C150.800000,1281.100000,147.400000,1277.800000,147.300000,1273.600000C147.300000,1273.500000,147.300000,1273.500000,147.300000,1273.400000C147.300000,1269.400000,150.600000,1266,154.700000,1265.900000Z" fill="rgb(220,238,255)" stroke="none" stroke-width="1"/></g></g></g><g id="car-list-both-g9"><g id="car-list-both-g10"><g id="car-list-both-g11"><path id="car-list-both-path12" d="M372.300000,2118.500000L99.100000,2118.500000C69.500000,2118.500000,45.600000,2094.500000,45.600000,2065L45.600000,1617.200000C45.600000,1587.600000,69.600000,1563.700000,99.100000,1563.700000L372.300000,1563.700000C401.900000,1563.700000,425.800000,1587.700000,425.800000,1617.200000L425.800000,2065C425.800000,2094.500000,401.900000,2118.500000,372.300000,2118.500000Z" fill="rgb(236,246,255)" stroke="none" stroke-width="1"/><rect id="car-list-both-rect7" width="280.900000" height="21.100000" rx="0" ry="0" transform="matrix(1 0 0 1 87.09999999999999 1611.79999999999995)" fill="rgb(204,227,255)" stroke="none" stroke-width="1"/><rect id="car-list-both-rect8" width="219.100000" height="21.100000" rx="0" ry="0" transform="matrix(1 0 0 1 87.09999999999999 1643.20000000000005)" fill="rgb(204,227,255)" stroke="none" stroke-width="1"/><path id="car-list-both-path13" d="M377.100000,1995.800000L94.300000,1995.800000C84.300000,1995.800000,76.300000,1987.700000,76.300000,1977.800000L76.300000,1721.700000C76.300000,1711.700000,84.400000,1703.700000,94.300000,1703.700000L377.100000,1703.700000C387.100000,1703.700000,395.100000,1711.800000,395.100000,1721.700000L395.100000,1977.800000C395.100000,1987.700000,387,1995.800000,377.100000,1995.800000Z" fill="rgb(204,227,255)" stroke="none" stroke-width="1"/></g><g id="car-list-both-g12"><g id="car-list-both-g13"><path id="car-list-both-path14" d="M358.100000,1858.400000C356.800000,1853.300000,355.100000,1848.400000,353.200000,1843.500000C352,1842.100000,350.500000,1841.100000,348.800000,1840.400000C340.100000,1828,318.900000,1809.500000,316.500000,1808.600000C302.400000,1802.900000,269,1802,258.100000,1802C214.800000,1802,197.500000,1810.500000,193.600000,1812.200000C182.800000,1815.500000,154.700000,1837.400000,153.200000,1838.700000C151.700000,1839.800000,150.200000,1840.900000,148.600000,1841.800000L145.100000,1842.100000C143.300000,1842.100000,137.500000,1844.700000,127.300000,1849.500000C117,1854.200000,115.100000,1857.200000,114.900000,1857.700000C114.700000,1858.100000,113.800000,1861.700000,113.800000,1861.700000C112.700000,1862.700000,111.800000,1863.900000,111,1865.200000C110.200000,1866.900000,111.900000,1883.800000,111.900000,1883.800000L111.900000,1885.300000C113.100000,1886.600000,114.400000,1887.800000,115.800000,1888.900000C122.400000,1891.500000,129.200000,1893.300000,136.200000,1894.300000L144.900000,1894.300000C136,1884.300000,136.900000,1868.900000,147,1860C151.300000,1856.200000,156.700000,1854,162.500000,1853.900000C175.700000,1854.100000,186.200000,1864.800000,186.100000,1878C186.100000,1884.100000,183.800000,1890,179.700000,1894.500000C203.600000,1894.500000,230.600000,1894.700000,241.800000,1894.700000C251.600000,1894.700000,274.500000,1894.100000,296.400000,1893.400000C292.900000,1889.100000,291,1883.600000,291,1878C291,1865,301.600000,1854.400000,314.600000,1854.400000C327.600000,1854.400000,338.200000,1865,338.200000,1878C338.200000,1883,336.600000,1888,333.700000,1892.100000C342,1891.800000,347.300000,1891.500000,347.400000,1891.500000C350.700000,1887.700000,360,1875.900000,360.600000,1873.700000C361.200000,1871.500000,359.400000,1863.600000,358.100000,1858.400000Z" fill="rgb(236,246,255)" stroke="none" stroke-width="1"/><path id="car-list-both-path15" d="M314.500000,1858.500000C303.900000,1858.700000,295.400000,1867.400000,295.500000,1878C295.500000,1883.900000,298.100000,1889.400000,302.600000,1893.100000C309.800000,1899.200000,320.500000,1898.800000,327.300000,1892.200000C331.200000,1888.500000,333.500000,1883.300000,333.500000,1877.900000C333.500000,1867.300000,325.100000,1858.600000,314.500000,1858.500000ZM314.500000,1870.300000C318.700000,1870.200000,322.100000,1873.500000,322.200000,1877.700000C322.300000,1881.900000,319,1885.300000,314.800000,1885.400000C310.600000,1885.500000,307.200000,1882.200000,307.100000,1878C307.100000,1877.900000,307.100000,1877.900000,307.100000,1877.800000C307.100000,1873.800000,310.300000,1870.400000,314.500000,1870.300000Z" fill="rgb(236,246,255)" stroke="none" stroke-width="1"/><path id="car-list-both-path16" d="M162.300000,1858.500000C151.700000,1858.700000,143.200000,1867.400000,143.300000,1878C143.300000,1884.600000,146.600000,1890.700000,152.200000,1894.300000C158.400000,1898.400000,166.400000,1898.400000,172.600000,1894.300000C178.100000,1890.700000,181.500000,1884.500000,181.400000,1877.900000C181.500000,1867.200000,173,1858.500000,162.300000,1858.500000ZM162.300000,1870.300000C166.500000,1870.200000,169.900000,1873.500000,170,1877.700000C170.100000,1881.900000,166.800000,1885.300000,162.600000,1885.400000C158.400000,1885.500000,155,1882.200000,154.900000,1878C154.900000,1877.900000,154.900000,1877.900000,154.900000,1877.800000C154.900000,1873.800000,158.200000,1870.400000,162.300000,1870.300000Z" fill="rgb(236,246,255)" stroke="none" stroke-width="1"/></g></g></g><g id="car-list-both-g14"><path id="car-list-both-path17" d="M363.400000,2749.900000L99.100000,2749.900000C69.500000,2749.900000,45.600000,2725.900000,45.600000,2696.400000L45.600000,2248.600000C45.600000,2219,69.600000,2195.100000,99.100000,2195.100000L363.500000,2195.100000C393.100000,2195.100000,417,2219.100000,417,2248.600000L417,2696.400000C417,2725.900000,393,2749.900000,363.400000,2749.900000Z" fill="rgb(236,246,255)" stroke="none" stroke-width="1"/><circle id="car-list-both-circle2" r="39.400000" transform="matrix(1 0 0 1 114.09999999999999 2267.59999999999991)" fill="rgb(204,227,255)" stroke="none" stroke-width="1"/><rect id="car-list-both-rect9" width="180.900000" height="21.100000" rx="0" ry="0" transform="matrix(1 0 0 1 184.40000000000001 2242.19999999999982)" fill="rgb(204,227,255)" stroke="none" stroke-width="1"/><rect id="car-list-both-rect10" width="270.900000" height="21.100000" rx="0" ry="0" transform="matrix(1 0 0 1 94.40000000000001 2652.19999999999982)" fill="rgb(204,227,255)" stroke="none" stroke-width="1"/><rect id="car-list-both-rect11" width="270.900000" height="21.100000" rx="0" ry="0" transform="matrix(1 0 0 1 94.40000000000001 2685.19999999999982)" fill="rgb(204,227,255)" stroke="none" stroke-width="1"/><line id="car-list-both-line2" x1="94.400000" y1="2662.200000" x2="365.300000" y2="2662.200000" fill="rgb(204,227,255)" stroke="none" stroke-width="1"/><rect id="car-list-both-rect12" width="119.100000" height="21.100000" rx="0" ry="0" transform="matrix(1 0 0 1 184.40000000000001 2273.69999999999982)" fill="rgb(204,227,255)" stroke="none" stroke-width="1"/><path id="car-list-both-path18" d="M392.400000,2355.400000L392.400000,2603.200000C392.400000,2613.200000,384.300000,2621.200000,374.400000,2621.200000L91.500000,2621.200000C81.500000,2621.200000,73.500000,2613.100000,73.500000,2603.200000L73.500000,2355.400000C73.500000,2345.400000,81.600000,2337.400000,91.500000,2337.400000L374.300000,2337.400000C384.300000,2337.400000,392.400000,2345.500000,392.400000,2355.400000Z" fill="rgb(204,227,255)" stroke="none" stroke-width="1"/><path id="car-list-both-path19" d="M180.700000,2371.200000C180.700000,2406.700000,151.900000,2435.500000,116.400000,2435.500000C99.900000,2435.500000,84.900000,2429.300000,73.500000,2419.100000L73.500000,2355.400000C73.500000,2345.400000,81.600000,2337.400000,91.500000,2337.400000L171,2337.400000C177.200000,2347.200000,180.700000,2358.800000,180.700000,2371.200000Z" fill="rgb(220,238,255)" stroke="none" stroke-width="1"/><g id="car-list-both-g15"><path id="car-list-both-path20" d="M350.400000,2501.400000C349.100000,2496.300000,347.400000,2491.400000,345.500000,2486.500000C344.300000,2485.100000,342.800000,2484.100000,341.100000,2483.400000C332.400000,2471,311.200000,2452.500000,308.800000,2451.600000C294.700000,2445.900000,261.300000,2445,250.400000,2445C207.100000,2445,189.800000,2453.500000,185.900000,2455.200000C175.100000,2458.500000,147,2480.400000,145.500000,2481.700000C144,2482.800000,142.500000,2483.900000,140.900000,2484.800000L137.400000,2485.100000C135.600000,2485.100000,129.800000,2487.700000,119.600000,2492.500000C109.300000,2497.200000,107.400000,2500.200000,107.200000,2500.700000C107,2501.100000,106.100000,2504.700000,106.100000,2504.700000C105,2505.700000,104.100000,2506.900000,103.300000,2508.200000C102.500000,2509.900000,104.200000,2526.800000,104.200000,2526.800000L104.200000,2528.300000C105.400000,2529.600000,106.700000,2530.800000,108.100000,2531.900000C114.700000,2534.500000,121.500000,2536.300000,128.500000,2537.300000L137.200000,2537.300000C128.300000,2527.300000,129.200000,2511.900000,139.300000,2503C143.600000,2499.200000,149,2497,154.800000,2496.900000C168,2497.100000,178.500000,2507.800000,178.400000,2521C178.400000,2527.100000,176.100000,2533,172,2537.500000C195.900000,2537.500000,222.900000,2537.700000,234.100000,2537.700000C243.900000,2537.700000,266.800000,2537.100000,288.700000,2536.400000C285.200000,2532.100000,283.300000,2526.600000,283.300000,2521C283.300000,2508,293.900000,2497.400000,306.900000,2497.400000C319.900000,2497.400000,330.500000,2508,330.500000,2521C330.500000,2526,328.900000,2531,326,2535.100000C334.300000,2534.800000,339.600000,2534.500000,339.700000,2534.500000C343,2530.700000,352.300000,2518.900000,352.900000,2516.700000C353.400000,2514.300000,351.700000,2506.600000,350.400000,2501.400000Z" fill="rgb(220,238,255)" stroke="none" stroke-width="1"/><path id="car-list-both-path21" d="M306.800000,2501.400000C296.200000,2501.600000,287.700000,2510.300000,287.800000,2520.900000C287.800000,2526.800000,290.400000,2532.300000,294.900000,2536C302.100000,2542.100000,312.800000,2541.700000,319.600000,2535.100000C323.500000,2531.400000,325.800000,2526.200000,325.800000,2520.800000C325.900000,2510.300000,317.400000,2501.600000,306.800000,2501.400000ZM306.800000,2513.300000C311,2513.200000,314.400000,2516.500000,314.500000,2520.700000C314.600000,2524.900000,311.300000,2528.300000,307.100000,2528.400000C302.900000,2528.500000,299.500000,2525.200000,299.400000,2521C299.400000,2520.900000,299.400000,2520.900000,299.400000,2520.800000C299.400000,2516.800000,302.700000,2513.400000,306.800000,2513.300000Z" fill="rgb(220,238,255)" stroke="none" stroke-width="1"/><path id="car-list-both-path22" d="M154.700000,2501.400000C144.100000,2501.600000,135.600000,2510.300000,135.700000,2520.900000C135.700000,2527.500000,139,2533.600000,144.600000,2537.200000C150.800000,2541.300000,158.800000,2541.300000,165,2537.200000C170.500000,2533.600000,173.900000,2527.400000,173.800000,2520.800000C173.900000,2510.200000,165.300000,2501.500000,154.700000,2501.400000ZM154.700000,2513.300000C158.900000,2513.200000,162.300000,2516.500000,162.400000,2520.700000C162.500000,2524.900000,159.200000,2528.300000,155,2528.400000C150.800000,2528.500000,147.400000,2525.200000,147.300000,2521C147.300000,2520.900000,147.300000,2520.900000,147.300000,2520.800000C147.300000,2516.800000,150.600000,2513.400000,154.700000,2513.300000Z" fill="rgb(220,238,255)" stroke="none" stroke-width="1"/></g></g></g></g></g><g id="car-list-both-g16_to" transform="translate(744.350037,1267.049973)"><g id="car-list-both-g16" transform="translate(-744.350037,-1537.049973)"><g id="car-list-both-g17"><path id="car-list-both-path23" d="M870.500000,1195.700000L616.900000,1195.700000C587.300000,1195.700000,563.400000,1171.700000,563.400000,1142.200000L563.400000,694.300000C563.400000,664.700000,587.400000,640.800000,616.900000,640.800000L870.400000,640.800000C900,640.800000,923.900000,664.800000,923.900000,694.300000L923.900000,1142.100000C924,1171.700000,900,1195.700000,870.500000,1195.700000Z" fill="rgb(236,246,255)" stroke="none" stroke-width="1"/><rect id="car-list-both-rect13" width="313.700000" height="53.700000" rx="0" ry="0" transform="matrix(1 0 0 1 588.20000000000005 690.60000000000002)" fill="rgb(204,227,255)" stroke="none" stroke-width="1"/><rect id="car-list-both-rect14" width="313.700000" height="23.700000" rx="0" ry="0" transform="matrix(1 0 0 1 588.20000000000005 1097.20000000000005)" fill="rgb(204,227,255)" stroke="none" stroke-width="1"/><rect id="car-list-both-rect15" width="313.700000" height="23.700000" rx="0" ry="0" transform="matrix(1 0 0 1 588.20000000000005 1137.20000000000005)" fill="rgb(204,227,255)" stroke="none" stroke-width="1"/><rect id="car-list-both-rect16" width="360.600000" height="294.600000" rx="0" ry="0" transform="matrix(1 0 0 1 563.39999999999998 784.89999999999998)" fill="rgb(220,238,255)" stroke="none" stroke-width="1"/></g><g id="car-list-both-g18"><path id="car-list-both-path24" d="M722.400000,879.500000C720.100000,879.500000,717.800000,880.700000,715.400000,881.200000C711.300000,882.900000,695.100000,897.400000,689.300000,900.900000L694.500000,905.500000C694.500000,906.100000,695.100000,906.100000,695.700000,906.100000L722.400000,906.100000C723,906.100000,723,905.500000,723,904.900000L722.400000,904.900000L722.400000,879.500000L722.400000,879.500000Z" fill="rgb(204,227,255)" stroke="none" stroke-width="1"/><path id="car-list-both-path25" d="M767.600000,878.900000C761.800000,878.300000,756,877.700000,750.800000,877.700000L750.800000,898L758.300000,898L771.600000,887.600000L768.100000,879.500000C768.200000,878.900000,767.600000,878.900000,767.600000,878.900000Z" fill="rgb(204,227,255)" stroke="none" stroke-width="1"/><path id="car-list-both-path26" d="M662.700000,932.200000C648.200000,932.200000,636,944.400000,636,958.900000C636,974,648.200000,985.600000,662.700000,985.600000C677.200000,985.600000,689.400000,973.400000,689.400000,958.900000C689.300000,944.400000,677.200000,932.200000,662.700000,932.200000ZM662.100000,970.500000C656,970.500000,651.100000,965.600000,651.100000,959.500000C651.100000,953.400000,656,948.500000,662.100000,948.500000C668.200000,948.500000,673.100000,953.400000,673.100000,959.500000C673.100000,965.600000,668.100000,970.500000,662.100000,970.500000Z" fill="rgb(204,227,255)" stroke="none" stroke-width="1"/><path id="car-list-both-path27" d="M831.300000,932.200000C816.800000,932.200000,804.600000,944.400000,804.600000,958.900000C804.600000,974,816.200000,985.600000,831.300000,985.600000C845.800000,985.600000,858,973.400000,858,958.900000C858,944.400000,845.800000,932.200000,831.300000,932.200000ZM830.900000,970.500000C824.800000,970.500000,819.900000,965.600000,819.900000,959.500000C819.900000,953.400000,824.800000,948.500000,830.900000,948.500000C837,948.500000,841.900000,953.400000,841.900000,959.500000C841.900000,965.600000,837,970.500000,830.900000,970.500000Z" fill="rgb(204,227,255)" stroke="none" stroke-width="1"/><path id="car-list-both-path28" d="M889.800000,901.500000C888.600000,900.300000,887.500000,899.800000,885.700000,899.800000L787.800000,898.100000L778.500000,875.500000C776.800000,871.400000,773.300000,868.500000,768.600000,868C751.200000,866.300000,727.500000,864.500000,711.800000,870.900000C706.600000,872.600000,704.300000,875.500000,685.100000,890C673.500000,898.700000,657.200000,892.900000,623.700000,904.500000C620.200000,906.200000,617.300000,909.700000,615.600000,913.800000C612.700000,923.100000,612.700000,932.900000,615.600000,945.100000C616.800000,949.200000,620.200000,953.200000,624.900000,954.400000C627.200000,935.900000,643.400000,921.400000,662.600000,921.400000C682.300000,921.400000,698.500000,935.900000,700.300000,955L793.100000,955C795.400000,935.900000,811.600000,921.400000,830.800000,921.400000C849.900000,921.400000,866.100000,935.900000,868.500000,954.400000C879.500000,951.500000,888.200000,942.200000,889.400000,930.100000L891.100000,905.800000C891.200000,903.900000,891,902.700000,889.800000,901.500000Z" fill="rgb(204,227,255)" stroke="none" stroke-width="1"/></g><g id="car-list-both-g19"><g id="car-list-both-g20"><path id="car-list-both-path29" d="M618.200000,591.500000L871.700000,591.500000C901.300000,591.500000,925.200000,567.500000,925.200000,538L925.200000,90.200000C925.200000,60.600000,901.200000,36.700000,871.700000,36.700000L618.200000,36.700000C588.600000,36.700000,564.700000,60.700000,564.700000,90.200000L564.700000,538C564.700000,567.500000,588.700000,591.500000,618.200000,591.500000Z" fill="rgb(236,246,255)" stroke="none" stroke-width="1"/><rect id="car-list-both-rect17" width="283.700000" height="23.700000" rx="0" ry="0" transform="matrix(1 0 0 1 602.79999999999995 79.50000000000000)" fill="rgb(204,227,255)" stroke="none" stroke-width="1"/><rect id="car-list-both-rect18" width="283.700000" height="23.700000" rx="0" ry="0" transform="matrix(1 0 0 1 602.79999999999995 117.50000000000000)" fill="rgb(204,227,255)" stroke="none" stroke-width="1"/><rect id="car-list-both-rect19" width="360.600000" height="294.600000" rx="0" ry="0" transform="matrix(1 0 0 1 564.70000000000005 175.19999999999999)" fill="rgb(220,238,255)" stroke="none" stroke-width="1"/></g><line id="car-list-both-line3" x1="880.300000" y1="492.300000" x2="609.400000" y2="492.300000" fill="none" stroke="none" stroke-width="1"/><rect id="car-list-both-rect20" width="270.900000" height="21.100000" rx="0" ry="0" transform="matrix(1 0 0 1 609.39999999999998 515.39999999999998)" fill="rgb(204,227,255)" stroke="none" stroke-width="1"/><g id="car-list-both-g21"><path id="car-list-both-path30" d="M874.500000,350.700000C873.900000,352.900000,864.600000,364.700000,861.300000,368.500000C861.200000,368.600000,855.900000,368.800000,847.600000,369.100000C850.500000,365,852.100000,360.100000,852.100000,355C852.100000,342,841.500000,331.400000,828.500000,331.400000C815.500000,331.400000,804.900000,342,804.900000,355C804.900000,360.600000,806.800000,366,810.300000,370.400000C788.400000,371.100000,765.500000,371.700000,755.700000,371.700000C744.500000,371.700000,717.500000,371.500000,693.600000,371.500000C697.700000,367,700,361.100000,700,355C700.100000,341.800000,689.500000,331.100000,676.400000,330.900000C670.700000,331.100000,665.200000,333.200000,660.900000,337C650.900000,345.900000,650,361.200000,658.800000,371.300000L650.100000,371.300000C643.100000,370.300000,636.300000,368.500000,629.700000,365.900000C628.300000,364.800000,627,363.600000,625.800000,362.300000L625.800000,360.800000C625.800000,360.800000,624.100000,343.900000,624.900000,342.200000C625.600000,340.900000,626.600000,339.700000,627.700000,338.700000C627.700000,338.700000,628.600000,335.100000,628.800000,334.700000C629,334.300000,630.900000,331.300000,641.200000,326.500000C651.500000,321.700000,657.200000,319.100000,659,319.100000L662.500000,318.800000C664.100000,317.900000,665.600000,316.800000,667.100000,315.700000C668.600000,314.400000,696.700000,292.500000,707.500000,289.200000C711.400000,287.500000,728.700000,279,772,279C782.900000,279,816.300000,280,830.400000,285.600000C832.700000,286.500000,854,305,862.700000,317.400000C864.400000,318.100000,865.900000,319.200000,867.100000,320.500000C869,325.300000,870.700000,330.300000,872,335.400000C873.400000,340.800000,875.100000,348.400000,874.500000,350.700000Z" fill="rgb(204,227,255)" stroke="none" stroke-width="1"/><path id="car-list-both-path31" d="M828.500000,335.600000C817.900000,335.800000,809.400000,344.500000,809.500000,355.100000C809.500000,361,812.100000,366.500000,816.600000,370.200000C823.800000,376.300000,834.500000,375.900000,841.300000,369.300000C845.200000,365.600000,847.500000,360.400000,847.500000,355C847.600000,344.400000,839.100000,335.700000,828.500000,335.600000ZM828.500000,347.500000C832.700000,347.400000,836.100000,350.700000,836.200000,354.900000C836.300000,359.100000,833,362.500000,828.800000,362.600000C824.600000,362.700000,821.200000,359.400000,821.100000,355.200000C821.100000,355.100000,821.100000,355.100000,821.100000,355C821.100000,350.900000,824.400000,347.600000,828.500000,347.500000Z" fill="rgb(204,227,255)" stroke="none" stroke-width="1"/><path id="car-list-both-path32" d="M676.400000,335.600000C665.800000,335.800000,657.300000,344.500000,657.400000,355.100000C657.400000,361.700000,660.700000,367.800000,666.300000,371.400000C672.500000,375.500000,680.500000,375.500000,686.700000,371.400000C692.200000,367.800000,695.600000,361.600000,695.500000,355C695.500000,344.300000,687,335.700000,676.400000,335.600000ZM676.400000,347.500000C680.600000,347.400000,684,350.700000,684.100000,354.900000C684.200000,359.100000,680.900000,362.500000,676.700000,362.600000C672.500000,362.700000,669.100000,359.400000,669,355.200000C669,355.100000,669,355.100000,669,355C669,350.900000,672.200000,347.600000,676.400000,347.500000Z" fill="rgb(204,227,255)" stroke="none" stroke-width="1"/></g></g><g id="car-list-both-g22"><g id="car-list-both-g23"><path id="car-list-both-path33" d="M618.200000,1810.600000L871.700000,1810.600000C901.300000,1810.600000,925.200000,1786.600000,925.200000,1757.100000L925.200000,1309.300000C925.200000,1279.700000,901.200000,1255.800000,871.700000,1255.800000L618.200000,1255.800000C588.600000,1255.800000,564.700000,1279.800000,564.700000,1309.300000L564.700000,1757.100000C564.700000,1786.600000,588.700000,1810.600000,618.200000,1810.600000Z" fill="rgb(236,246,255)" stroke="none" stroke-width="1"/><rect id="car-list-both-rect21" width="283.700000" height="23.700000" rx="0" ry="0" transform="matrix(1 0 0 1 602.79999999999995 1298.40000000000009)" fill="rgb(204,227,255)" stroke="none" stroke-width="1"/><rect id="car-list-both-rect22" width="283.700000" height="23.700000" rx="0" ry="0" transform="matrix(1 0 0 1 602.79999999999995 1336.40000000000009)" fill="rgb(204,227,255)" stroke="none" stroke-width="1"/><rect id="car-list-both-rect23" width="360.600000" height="294.600000" rx="0" ry="0" transform="matrix(1 0 0 1 564.70000000000005 1394.29999999999995)" fill="rgb(220,238,255)" stroke="none" stroke-width="1"/></g><line id="car-list-both-line4" x1="880.300000" y1="1711.400000" x2="609.400000" y2="1711.400000" fill="none" stroke="none" stroke-width="1"/><rect id="car-list-both-rect24" width="270.900000" height="21.100000" rx="0" ry="0" transform="matrix(1 0 0 1 609.39999999999998 1734.40000000000009)" fill="rgb(204,227,255)" stroke="none" stroke-width="1"/><g id="car-list-both-g24"><path id="car-list-both-path34" d="M874.500000,1569.700000C873.900000,1571.900000,864.600000,1583.700000,861.300000,1587.500000C861.200000,1587.600000,855.900000,1587.800000,847.600000,1588.100000C850.500000,1584,852.100000,1579.100000,852.100000,1574C852.100000,1561,841.500000,1550.400000,828.500000,1550.400000C815.500000,1550.400000,804.900000,1561,804.900000,1574C804.900000,1579.600000,806.800000,1585,810.300000,1589.400000C788.400000,1590.100000,765.500000,1590.700000,755.700000,1590.700000C744.500000,1590.700000,717.500000,1590.500000,693.600000,1590.500000C697.700000,1586,700,1580.100000,700,1574C700.100000,1560.800000,689.500000,1550.100000,676.400000,1549.900000C670.700000,1550.100000,665.200000,1552.200000,660.900000,1556C650.900000,1564.900000,650,1580.200000,658.800000,1590.300000L650.100000,1590.300000C643.100000,1589.300000,636.300000,1587.500000,629.700000,1584.900000C628.300000,1583.800000,627,1582.600000,625.800000,1581.300000L625.800000,1579.800000C625.800000,1579.800000,624.100000,1562.900000,624.900000,1561.200000C625.600000,1559.900000,626.600000,1558.700000,627.700000,1557.700000C627.700000,1557.700000,628.600000,1554.100000,628.800000,1553.700000C629,1553.300000,630.900000,1550.300000,641.200000,1545.500000C651.500000,1540.800000,657.200000,1538.100000,659,1538.100000L662.500000,1537.800000C664.100000,1536.900000,665.600000,1535.800000,667.100000,1534.700000C668.600000,1533.400000,696.700000,1511.500000,707.500000,1508.200000C711.400000,1506.500000,728.700000,1498,772,1498C782.900000,1498,816.300000,1499,830.400000,1504.600000C832.700000,1505.500000,854,1524,862.700000,1536.400000C864.400000,1537.100000,865.900000,1538.200000,867.100000,1539.500000C869,1544.300000,870.700000,1549.300000,872,1554.400000C873.400000,1559.800000,875.100000,1567.500000,874.500000,1569.700000Z" fill="rgb(204,227,255)" stroke="none" stroke-width="1"/><path id="car-list-both-path35" d="M828.500000,1554.600000C817.900000,1554.800000,809.400000,1563.500000,809.500000,1574.100000C809.500000,1580,812.100000,1585.500000,816.600000,1589.200000C823.800000,1595.300000,834.500000,1594.900000,841.300000,1588.300000C845.200000,1584.600000,847.500000,1579.400000,847.500000,1574C847.600000,1563.500000,839.100000,1554.800000,828.500000,1554.600000ZM828.500000,1566.500000C832.700000,1566.400000,836.100000,1569.700000,836.200000,1573.900000C836.300000,1578.100000,833,1581.500000,828.800000,1581.600000C824.600000,1581.700000,821.200000,1578.400000,821.100000,1574.200000C821.100000,1574.100000,821.100000,1574.100000,821.100000,1574C821.100000,1570,824.400000,1566.600000,828.500000,1566.500000Z" fill="rgb(204,227,255)" stroke="none" stroke-width="1"/><path id="car-list-both-path36" d="M676.400000,1554.600000C665.800000,1554.800000,657.300000,1563.500000,657.400000,1574.100000C657.400000,1580.700000,660.700000,1586.800000,666.300000,1590.400000C672.500000,1594.500000,680.500000,1594.500000,686.700000,1590.400000C692.200000,1586.800000,695.600000,1580.600000,695.500000,1574C695.500000,1563.400000,687,1554.700000,676.400000,1554.600000ZM676.400000,1566.500000C680.600000,1566.400000,684,1569.700000,684.100000,1573.900000C684.200000,1578.100000,680.900000,1581.500000,676.700000,1581.600000C672.500000,1581.700000,669.100000,1578.400000,669,1574.200000C669,1574.100000,669,1574.100000,669,1574C669,1570,672.200000,1566.600000,676.400000,1566.500000Z" fill="rgb(204,227,255)" stroke="none" stroke-width="1"/></g></g><g id="car-list-both-g25"><path id="car-list-both-path37" d="M870.500000,2422.500000L616.900000,2422.500000C587.300000,2422.500000,563.400000,2398.500000,563.400000,2369L563.400000,1921.100000C563.400000,1891.500000,587.400000,1867.600000,616.900000,1867.600000L870.400000,1867.600000C900,1867.600000,923.900000,1891.600000,923.900000,1921.100000L923.900000,2368.900000C924,2398.500000,900,2422.500000,870.500000,2422.500000Z" fill="rgb(236,246,255)" stroke="none" stroke-width="1"/><rect id="car-list-both-rect25" width="313.700000" height="53.700000" rx="0" ry="0" transform="matrix(1 0 0 1 588.20000000000005 1917.40000000000009)" fill="rgb(204,227,255)" stroke="none" stroke-width="1"/><rect id="car-list-both-rect26" width="313.700000" height="23.700000" rx="0" ry="0" transform="matrix(1 0 0 1 588.20000000000005 2324)" fill="rgb(204,227,255)" stroke="none" stroke-width="1"/><rect id="car-list-both-rect27" width="313.700000" height="23.700000" rx="0" ry="0" transform="matrix(1 0 0 1 588.20000000000005 2364)" fill="rgb(204,227,255)" stroke="none" stroke-width="1"/><rect id="car-list-both-rect28" width="360.600000" height="294.600000" rx="0" ry="0" transform="matrix(1 0 0 1 563.39999999999998 2011.70000000000005)" fill="rgb(220,238,255)" stroke="none" stroke-width="1"/></g><g id="car-list-both-g26"><path id="car-list-both-path38" d="M722.400000,2106.300000C720.100000,2106.300000,717.800000,2107.500000,715.400000,2108C711.300000,2109.700000,695.100000,2124.200000,689.300000,2127.700000L694.500000,2132.300000C694.500000,2132.900000,695.100000,2132.900000,695.700000,2132.900000L722.400000,2132.900000C723,2132.900000,723,2132.300000,723,2131.700000L722.400000,2131.700000L722.400000,2106.300000L722.400000,2106.300000Z" fill="rgb(204,227,255)" stroke="none" stroke-width="1"/><path id="car-list-both-path39" d="M767.600000,2105.700000C761.800000,2105.100000,756,2104.500000,750.800000,2104.500000L750.800000,2124.800000L758.300000,2124.800000L771.600000,2114.400000L768.100000,2106.300000C768.200000,2105.700000,767.600000,2105.700000,767.600000,2105.700000Z" fill="rgb(204,227,255)" stroke="none" stroke-width="1"/><path id="car-list-both-path40" d="M662.700000,2159C648.200000,2159,636,2171.200000,636,2185.700000C636,2200.800000,648.200000,2212.400000,662.700000,2212.400000C677.200000,2212.400000,689.400000,2200.200000,689.400000,2185.700000C689.300000,2171.200000,677.200000,2159,662.700000,2159ZM662.100000,2197.300000C656,2197.300000,651.100000,2192.400000,651.100000,2186.300000C651.100000,2180.200000,656,2175.300000,662.100000,2175.300000C668.200000,2175.300000,673.100000,2180.200000,673.100000,2186.300000C673.100000,2192.400000,668.100000,2197.300000,662.100000,2197.300000Z" fill="rgb(204,227,255)" stroke="none" stroke-width="1"/><path id="car-list-both-path41" d="M831.300000,2159C816.800000,2159,804.600000,2171.200000,804.600000,2185.700000C804.600000,2200.800000,816.200000,2212.400000,831.300000,2212.400000C845.800000,2212.400000,858,2200.200000,858,2185.700000C858,2171.200000,845.800000,2159,831.300000,2159ZM830.900000,2197.300000C824.800000,2197.300000,819.900000,2192.400000,819.900000,2186.300000C819.900000,2180.200000,824.800000,2175.300000,830.900000,2175.300000C837,2175.300000,841.900000,2180.200000,841.900000,2186.300000C841.900000,2192.400000,837,2197.300000,830.900000,2197.300000Z" fill="rgb(204,227,255)" stroke="none" stroke-width="1"/><path id="car-list-both-path42" d="M889.800000,2128.300000C888.600000,2127.100000,887.500000,2126.600000,885.700000,2126.600000L787.800000,2124.900000L778.500000,2102.300000C776.800000,2098.200000,773.300000,2095.300000,768.600000,2094.800000C751.200000,2093.100000,727.500000,2091.300000,711.800000,2097.700000C706.600000,2099.400000,704.300000,2102.300000,685.100000,2116.800000C673.500000,2125.500000,657.200000,2119.700000,623.700000,2131.300000C620.200000,2133,617.300000,2136.500000,615.600000,2140.600000C612.700000,2149.900000,612.700000,2159.700000,615.600000,2171.900000C616.800000,2176,620.200000,2180,624.900000,2181.200000C627.200000,2162.700000,643.400000,2148.200000,662.600000,2148.200000C682.300000,2148.200000,698.500000,2162.700000,700.300000,2181.800000L793.100000,2181.800000C795.400000,2162.700000,811.600000,2148.200000,830.800000,2148.200000C849.900000,2148.200000,866.100000,2162.700000,868.500000,2181.200000C879.500000,2178.300000,888.200000,2169,889.400000,2156.900000L891.100000,2132.600000C891.200000,2130.700000,891,2129.500000,889.800000,2128.300000Z" fill="rgb(204,227,255)" stroke="none" stroke-width="1"/></g><g id="car-list-both-g27"><g id="car-list-both-g28"><path id="car-list-both-path43" d="M618.200000,3037.400000L871.700000,3037.400000C901.300000,3037.400000,925.200000,3013.400000,925.200000,2983.900000L925.200000,2536.100000C925.200000,2506.500000,901.200000,2482.600000,871.700000,2482.600000L618.200000,2482.600000C588.600000,2482.600000,564.700000,2506.600000,564.700000,2536.100000L564.700000,2983.900000C564.700000,3013.400000,588.700000,3037.400000,618.200000,3037.400000Z" fill="rgb(236,246,255)" stroke="none" stroke-width="1"/><rect id="car-list-both-rect29" width="283.700000" height="23.700000" rx="0" ry="0" transform="matrix(1 0 0 1 602.79999999999995 2525.19999999999982)" fill="rgb(204,227,255)" stroke="none" stroke-width="1"/><rect id="car-list-both-rect30" width="283.700000" height="23.700000" rx="0" ry="0" transform="matrix(1 0 0 1 602.79999999999995 2563.19999999999982)" fill="rgb(204,227,255)" stroke="none" stroke-width="1"/><rect id="car-list-both-rect31" width="360.600000" height="294.600000" rx="0" ry="0" transform="matrix(1 0 0 1 564.70000000000005 2621)" fill="rgb(220,238,255)" stroke="none" stroke-width="1"/></g><line id="car-list-both-line5" x1="880.300000" y1="2938.200000" x2="609.400000" y2="2938.200000" fill="none" stroke="none" stroke-width="1"/><rect id="car-list-both-rect32" width="270.900000" height="21.100000" rx="0" ry="0" transform="matrix(1 0 0 1 609.39999999999998 2961.19999999999982)" fill="rgb(204,227,255)" stroke="none" stroke-width="1"/><g id="car-list-both-g29"><path id="car-list-both-path44" d="M874.500000,2796.500000C873.900000,2798.700000,864.600000,2810.500000,861.300000,2814.300000C861.200000,2814.400000,855.900000,2814.600000,847.600000,2814.900000C850.500000,2810.800000,852.100000,2805.900000,852.100000,2800.800000C852.100000,2787.800000,841.500000,2777.200000,828.500000,2777.200000C815.500000,2777.200000,804.900000,2787.800000,804.900000,2800.800000C804.900000,2806.400000,806.800000,2811.800000,810.300000,2816.200000C788.400000,2816.900000,765.500000,2817.500000,755.700000,2817.500000C744.500000,2817.500000,717.500000,2817.300000,693.600000,2817.300000C697.700000,2812.800000,700,2806.900000,700,2800.800000C700.100000,2787.600000,689.500000,2776.900000,676.400000,2776.700000C670.700000,2776.900000,665.200000,2779,660.900000,2782.800000C650.900000,2791.700000,650,2807,658.800000,2817.100000L650.100000,2817.100000C643.100000,2816.100000,636.300000,2814.300000,629.700000,2811.700000C628.300000,2810.600000,627,2809.400000,625.800000,2808.100000L625.800000,2806.600000C625.800000,2806.600000,624.100000,2789.700000,624.900000,2788C625.600000,2786.700000,626.600000,2785.500000,627.700000,2784.500000C627.700000,2784.500000,628.600000,2780.900000,628.800000,2780.500000C629,2780.100000,630.900000,2777.100000,641.200000,2772.300000C651.500000,2767.600000,657.200000,2764.900000,659,2764.900000L662.500000,2764.600000C664.100000,2763.700000,665.600000,2762.600000,667.100000,2761.500000C668.600000,2760.200000,696.700000,2738.300000,707.500000,2735C711.400000,2733.300000,728.700000,2724.800000,772,2724.800000C782.900000,2724.800000,816.300000,2725.800000,830.400000,2731.400000C832.700000,2732.300000,854,2750.800000,862.700000,2763.200000C864.400000,2763.900000,865.900000,2765,867.100000,2766.300000C869,2771.100000,870.700000,2776.100000,872,2781.200000C873.400000,2786.600000,875.100000,2794.300000,874.500000,2796.500000Z" fill="rgb(204,227,255)" stroke="none" stroke-width="1"/><path id="car-list-both-path45" d="M828.500000,2781.400000C817.900000,2781.600000,809.400000,2790.300000,809.500000,2800.900000C809.500000,2806.800000,812.100000,2812.300000,816.600000,2816C823.800000,2822.100000,834.500000,2821.700000,841.300000,2815.100000C845.200000,2811.400000,847.500000,2806.200000,847.500000,2800.800000C847.600000,2790.300000,839.100000,2781.600000,828.500000,2781.400000ZM828.500000,2793.300000C832.700000,2793.200000,836.100000,2796.500000,836.200000,2800.700000C836.300000,2804.900000,833,2808.300000,828.800000,2808.400000C824.600000,2808.500000,821.200000,2805.200000,821.100000,2801C821.100000,2800.900000,821.100000,2800.900000,821.100000,2800.800000C821.100000,2796.800000,824.400000,2793.400000,828.500000,2793.300000Z" fill="rgb(204,227,255)" stroke="none" stroke-width="1"/><path id="car-list-both-path46" d="M676.400000,2781.400000C665.800000,2781.600000,657.300000,2790.300000,657.400000,2800.900000C657.400000,2807.500000,660.700000,2813.600000,666.300000,2817.200000C672.500000,2821.300000,680.500000,2821.300000,686.700000,2817.200000C692.200000,2813.600000,695.600000,2807.400000,695.500000,2800.800000C695.500000,2790.200000,687,2781.500000,676.400000,2781.400000ZM676.400000,2793.300000C680.600000,2793.200000,684,2796.500000,684.100000,2800.700000C684.200000,2804.900000,680.900000,2808.300000,676.700000,2808.400000C672.500000,2808.500000,669.100000,2805.200000,669,2801C669,2800.900000,669,2800.900000,669,2800.800000C669,2796.800000,672.200000,2793.400000,676.400000,2793.300000Z" fill="rgb(204,227,255)" stroke="none" stroke-width="1"/></g></g></g></g></svg>