<?xml version="1.0" encoding="utf-8"?>
<!-- Generator: Adobe Illustrator 26.0.3, SVG Export Plug-In . SVG Version: 6.00 Build 0)  -->
<svg version="1.1" id="Layer_1" xmlns="http://www.w3.org/2000/svg" xmlns:xlink="http://www.w3.org/1999/xlink" x="0px" y="0px"
	 viewBox="0 0 2400 907.7" style="enable-background:new 0 0 2400 907.7;" xml:space="preserve">
<style type="text/css">
	.st0{fill:#ECF3FA;}
	.st1{opacity:0.6;}
	.st2{fill:#B6D4FF;}
	.st3{fill:#CCE3FF;}
	.st4{fill:none;stroke:#CCE3FF;stroke-width:8;stroke-miterlimit:10;}
	.st5{fill:#DCEEFF;}
	.st6{fill:#ECF6FF;}
	.st7{opacity:0.51;fill:#B6D4FF;}
	.st8{fill:#ECF6FF;stroke:#DCEEFF;stroke-width:20;stroke-linecap:round;stroke-miterlimit:10;}
	.st9{fill:#F3FAFF;}
	.st10{fill:#E3F2FF;}
	.st11{fill:#D7EDFF;}
	.st12{fill:#D9EFFF;}
	.st13{fill-rule:evenodd;clip-rule:evenodd;fill:#FFFFFF;}
</style>
<rect class="st0" width="2400" height="906.5"/>
<g class="st1">
	<g>
		<polygon class="st2" points="1211.4,699.1 1148.7,699.1 1148.7,569 1211.4,517.1 		"/>
		<rect x="1526.3" y="666.2" class="st3" width="69.7" height="226.6"/>
		<rect x="1486.3" y="521.3" class="st3" width="69.7" height="226.6"/>
		<rect x="1173" y="661.8" class="st2" width="169.1" height="234.4"/>
		<rect x="1051" y="658.1" class="st2" width="169.1" height="234.4"/>
		<rect x="941.4" y="815.9" class="st2" width="169.1" height="79.8"/>
		<rect x="1328.7" y="763.6" class="st2" width="169.1" height="131.1"/>
		<line class="st4" x1="1610.4" y1="394.8" x2="1610.4" y2="447.6"/>
		<rect x="1869.1" y="599.4" class="st2" width="93.9" height="296.4"/>
		<rect x="1918.8" y="542.2" class="st2" width="80.9" height="209.2"/>
		<rect x="1940.3" y="532.6" class="st2" width="36.3" height="15.9"/>
		<polygon class="st2" points="1732.5,516.6 1732.5,898.6 1585.2,898.6 1585.2,408.8 1643,451.1 1643,513.4 1693.3,513.4 
			1693.3,487.9 		"/>
	</g>
	<g>
		<line class="st4" x1="1805.7" y1="527.8" x2="1805.7" y2="579.9"/>
		<rect x="1627.5" y="560" class="st5" width="126.7" height="335.7"/>
		<rect x="1754.2" y="560" class="st3" width="80.3" height="335.7"/>
		<rect x="1627.5" y="587.9" class="st2" width="30.1" height="15.6"/>
		<rect x="1657.6" y="603.3" class="st2" width="30.1" height="15.6"/>
		<rect x="1687.7" y="587.9" class="st2" width="30.1" height="15.6"/>
		<rect x="1627.5" y="603.3" class="st6" width="30.1" height="15.6"/>
		<rect x="1657.6" y="708.8" class="st6" width="30.1" height="15.6"/>
		<rect x="1764.5" y="603.3" class="st6" width="23.3" height="15.6"/>
		<rect x="1717.9" y="787.6" class="st6" width="30.1" height="15.6"/>
		<rect x="1717.9" y="619" class="st2" width="30.1" height="15.6"/>
		<rect x="1657.6" y="693.2" class="st2" width="30.1" height="15.6"/>
		<rect x="1717.9" y="708.8" class="st2" width="30.1" height="15.6"/>
		<rect x="1764.5" y="587.9" class="st2" width="23.3" height="15.6"/>
		<rect x="1811.2" y="603.5" class="st2" width="23.3" height="15.6"/>
		<rect x="1764.5" y="663.8" class="st2" width="23.3" height="15.6"/>
		<rect x="1687.7" y="787.6" class="st2" width="30.1" height="15.6"/>
		<rect x="1627.5" y="827.7" class="st2" width="30.1" height="15.6"/>
		<rect x="1657.6" y="843.3" class="st2" width="30.1" height="15.6"/>
		<rect x="1627.5" y="619" class="st2" width="30.1" height="15.6"/>
	</g>
	<rect x="1376.2" y="608.1" class="st6" width="12.3" height="22"/>
	<rect x="1376.2" y="564.2" class="st6" width="12.3" height="22"/>
	<g>
		<rect x="1364.1" y="331.1" class="st5" width="105.9" height="564.6"/>
		<rect x="1470" y="331.1" class="st2" width="67.1" height="564.6"/>
		<rect x="1364.1" y="292.3" class="st5" width="105.9" height="25.8"/>
		<rect x="1383.3" y="282" class="st5" width="42.7" height="25.8"/>
		<rect x="1480.3" y="282" class="st5" width="42.7" height="25.8"/>
		<rect x="1470" y="292.3" class="st2" width="67.1" height="25.8"/>
		<rect x="1354.3" y="318.1" class="st5" width="117.8" height="13"/>
		<rect x="1472.2" y="318.1" class="st3" width="74.7" height="13"/>
		<rect x="1376.2" y="343.9" class="st3" width="12.3" height="551.8"/>
		<rect x="1444.9" y="343.9" class="st3" width="12.3" height="551.8"/>
		<rect x="1422" y="343.9" class="st3" width="12.3" height="551.8"/>
		<rect x="1399.1" y="343.9" class="st3" width="12.3" height="551.8"/>
	</g>
	<rect x="1399.1" y="586.1" class="st6" width="12.3" height="22"/>
	<rect x="1422" y="788.3" class="st6" width="12.3" height="22"/>
	<rect x="1422" y="766.4" class="st6" width="12.3" height="22"/>
	<rect x="1444.9" y="700.5" class="st7" width="12.3" height="22"/>
	<rect x="1376.2" y="722.8" class="st2" width="12.3" height="22"/>
	<rect x="1444.9" y="519.1" class="st2" width="12.3" height="22"/>
	<rect x="1376.2" y="484.6" class="st2" width="12.3" height="22"/>
	<rect x="1422" y="722.5" class="st7" width="12.3" height="22"/>
	<rect x="1376.2" y="813.6" class="st6" width="12.3" height="22"/>
	<rect x="1422" y="564.2" class="st6" width="12.3" height="22"/>
	<rect x="1376.2" y="630" class="st6" width="12.3" height="22"/>
	<rect x="1444.9" y="436.6" class="st6" width="12.3" height="22"/>
	<rect x="1376.2" y="402.5" class="st6" width="12.3" height="22"/>
	<rect x="1376.2" y="424.5" class="st6" width="12.3" height="22"/>
	<rect x="1422" y="542.2" class="st6" width="12.3" height="22"/>
	<g>
		<rect x="2138.1" y="784.9" class="st2" width="87.1" height="108"/>
		<rect x="2173.6" y="797.1" class="st5" width="12.1" height="101.4"/>
		<rect x="2196.4" y="797.1" class="st5" width="12.1" height="101.4"/>
		<line class="st4" x1="2126.9" y1="619.8" x2="2126.9" y2="674.5"/>
		<rect x="2020.5" y="652.1" class="st3" width="89.3" height="250.6"/>
		<rect x="2032.2" y="668" class="st2" width="14" height="227.7"/>
		<rect x="2058.2" y="668" class="st2" width="14" height="227.7"/>
		<rect x="2084.2" y="668" class="st2" width="14" height="227.7"/>
		<rect x="2109.8" y="652.1" class="st2" width="56.6" height="250.6"/>
		<rect x="2120.8" y="668" class="st5" width="12.1" height="227.7"/>
		<rect x="2144" y="668" class="st5" width="12.1" height="227.7"/>
		<rect x="2144" y="770.6" class="st3" width="12.1" height="21.1"/>
		<rect x="2144" y="708.8" class="st3" width="12.1" height="21.1"/>
		<rect x="2120.8" y="708.8" class="st3" width="12.1" height="21.1"/>
		<rect x="2120.8" y="729.9" class="st3" width="12.1" height="21.1"/>
		<rect x="2173.6" y="830.2" class="st3" width="12.1" height="21.1"/>
		<rect x="2196.4" y="851.3" class="st3" width="12.1" height="21.1"/>
		<rect x="2120.8" y="791.7" class="st3" width="12.1" height="21.1"/>
		<rect x="2144" y="791.7" class="st3" width="12.1" height="21.1"/>
	</g>
	<g>
		<line class="st4" x1="1262.9" y1="568.9" x2="1262.9" y2="612.3"/>
		<rect x="1129" y="598.1" class="st3" width="37.5" height="32"/>
		<rect x="1092.9" y="612.3" class="st5" width="134.1" height="283.5"/>
		<rect x="1106.6" y="626.3" class="st2" width="15.5" height="269.5"/>
		<rect x="1135.6" y="626.3" class="st2" width="15.5" height="269.5"/>
		<rect x="1164.5" y="626.3" class="st2" width="15.5" height="269.5"/>
		<rect x="1193.4" y="626.3" class="st2" width="15.5" height="269.5"/>
		<rect x="1241.1" y="598.1" class="st3" width="37.5" height="32"/>
		<rect x="1227" y="612.3" class="st3" width="85" height="283.5"/>
		<rect x="1255.6" y="705.8" class="st5" width="15.5" height="190"/>
		<rect x="1284.5" y="705.8" class="st5" width="15.5" height="190"/>
	</g>
	<g>
		<rect x="990.1" y="738.2" class="st5" width="116" height="159.5"/>
		<rect x="1106.2" y="738.2" class="st3" width="73.6" height="159.5"/>
		<rect x="990.1" y="863.3" class="st7" width="166.8" height="13.8"/>
		<rect x="990.1" y="839.6" class="st7" width="166.8" height="13.8"/>
		<rect x="990.1" y="815.9" class="st7" width="166.8" height="13.8"/>
		<rect x="990.1" y="792.2" class="st7" width="166.8" height="13.8"/>
		<rect x="990.1" y="768.4" class="st7" width="166.8" height="13.8"/>
		<rect x="990.1" y="744.7" class="st7" width="166.8" height="13.8"/>
		<rect x="1061.6" y="863.3" class="st6" width="24.6" height="13.8"/>
		<rect x="1061.6" y="839.6" class="st6" width="24.6" height="13.8"/>
		<rect x="1037" y="863.3" class="st6" width="24.6" height="13.8"/>
		<rect x="1061.2" y="792.2" class="st6" width="24.6" height="13.8"/>
		<rect x="1001.4" y="768.4" class="st6" width="24.6" height="13.8"/>
		<rect x="1025.9" y="768.4" class="st6" width="24.6" height="13.8"/>
	</g>
	<g>
		<rect x="1939.7" y="726.4" class="st5" width="120" height="169.3"/>
		<rect x="1805.7" y="726.4" class="st6" width="134" height="169.3"/>
		<rect x="1950.1" y="710.8" class="st3" width="132.8" height="33.9"/>
		<rect x="1805.7" y="744.7" class="st2" width="254" height="8.4"/>
		<rect x="1805.7" y="759.9" class="st3" width="254" height="8.4"/>
		<rect x="1805.7" y="839.6" class="st2" width="254" height="8.4"/>
		<rect x="1805.7" y="854.8" class="st3" width="254" height="8.4"/>
		<rect x="1781" y="710.8" class="st5" width="169.1" height="33.9"/>
		<rect x="1950.1" y="782.4" class="st3" width="132.8" height="57.3"/>
		<rect x="1781" y="782.4" class="st5" width="169.1" height="57.3"/>
	</g>
	<line class="st8" x1="2239.2" y1="897.7" x2="938.8" y2="897.7"/>
</g>
<g>
	<g>
		<g>
			<g>
				<path class="st5" d="M585.6,761.8c-1.9-5.1-12.2-4.3-12.2-18.6c0-21.6,32.5-19.1,34.4-35.3c1.9-16.2-19-15.9-19.6-29.6
					c-0.6-13.7,15.2-42,39.4-42c19,0,3.3,21.8,18.6,31.6c15.3,9.8,32.9-2.7,41.5,12.6c11.9,21.1-18.6,46.5-15.6,62.7
					c3,16.2,20.9,12.4,21.5,30.2s-25.5,20.9-23,36.2c1.5,9.6,18,6.4,18.9,25.4c0.7,16.1-55.8,35.9-98.3,3.3S592.8,781.4,585.6,761.8
					z"/>
			</g>
		</g>
		<g>
			<g>
				<rect x="629.7" y="719.5" class="st6" width="4.9" height="177.8"/>
			</g>
		</g>
		<g>
			<g>
				
					<rect x="644.8" y="815.2" transform="matrix(0.7245 -0.6892 0.6892 0.7245 -382.8831 676.2092)" class="st6" width="19.5" height="3.9"/>
			</g>
		</g>
		<g>
			<g>
				
					<rect x="641.3" y="757.4" transform="matrix(0.7245 -0.6892 0.6892 0.7245 -344.0227 657.9269)" class="st6" width="19.5" height="3.9"/>
			</g>
		</g>
		<g>
			<g>
				<circle class="st6" cx="702.2" cy="839.6" r="38.7"/>
			</g>
		</g>
		<g>
			<g>
				
					<rect x="641.3" y="728.5" transform="matrix(0.7245 -0.6892 0.6892 0.7245 -324.1184 649.972)" class="st6" width="19.5" height="3.9"/>
			</g>
		</g>
		<g>
			<g>
				
					<rect x="608.2" y="725.8" transform="matrix(0.7071 -0.7071 0.7071 0.7071 -341.5586 646.9609)" class="st6" width="3.9" height="19.9"/>
			</g>
		</g>
		<g>
			<g>
				<path class="st5" d="M233.9,797.6c0,32.5,24.1,50.6,55.5,50.6c31.4,0,55.5-18.1,55.5-50.6c0-68.4-35.4-147.2-55.5-147.2
					S233.9,729.2,233.9,797.6z"/>
			</g>
		</g>
		<g>
			<g>
				<rect x="286.9" y="722" class="st6" width="4.9" height="175.3"/>
			</g>
		</g>
		<g>
			<g>
				
					<rect x="266.4" y="753.4" transform="matrix(0.7242 -0.6896 0.6896 0.7242 -452.8505 395.5402)" class="st6" width="3.3" height="21.1"/>
			</g>
		</g>
		<g>
			<g>
				
					<rect x="266.4" y="732.6" transform="matrix(0.7242 -0.6896 0.6896 0.7242 -438.502 389.7985)" class="st6" width="3.3" height="21.1"/>
			</g>
		</g>
		<g>
			<g>
				<circle class="st9" cx="359.9" cy="799.6" r="58.9"/>
			</g>
		</g>
		<g>
			<g>
				<rect x="357.4" y="785.7" class="st10" width="4.9" height="113.4"/>
			</g>
		</g>
		<g>
			<g>
				
					<rect x="369.4" y="790.3" transform="matrix(0.7071 -0.7071 0.7071 0.7071 -449.7282 499.8754)" class="st10" width="18.2" height="4.9"/>
			</g>
		</g>
		<g>
			<g>
				
					<rect x="338.7" y="805.8" transform="matrix(0.7071 -0.7071 0.7071 0.7071 -476.2698 479.9456)" class="st10" width="4.9" height="18.2"/>
			</g>
		</g>
		<g>
			<g>
				
					<rect x="338.7" y="784.7" transform="matrix(0.7071 -0.7071 0.7071 0.7071 -461.3458 473.7639)" class="st10" width="4.9" height="18.2"/>
			</g>
		</g>
		<g>
			<g>
				<rect x="699.7" y="839.4" class="st5" width="4.9" height="58"/>
			</g>
		</g>
		<g>
			<g>
				
					<rect x="708.7" y="842.4" transform="matrix(0.713 -0.7011 0.7011 0.713 -386.277 743.9304)" class="st5" width="14.1" height="3"/>
			</g>
		</g>
		<g>
			<g>
				
					<rect x="687.2" y="843.5" transform="matrix(0.6702 -0.7422 0.7422 0.6702 -404.8504 792.0257)" class="st5" width="3" height="16"/>
			</g>
		</g>
		<g>
			<g>
				<path class="st9" d="M610.8,827.9c0,33.6-22,48.7-48.9,48.7c-27,0-48.9-15.1-48.9-48.7c0-62.6,26.7-121.1,48.9-121.1
					C584.1,706.7,610.8,765.2,610.8,827.9z"/>
			</g>
		</g>
		<g>
			<g>
				<rect x="559.4" y="771" class="st5" width="4.9" height="126.3"/>
			</g>
		</g>
		<g>
			<g>
				
					<rect x="568" y="833" transform="matrix(0.7071 -0.7071 0.7071 0.7071 -421.3506 653.77)" class="st5" width="20.9" height="4.9"/>
			</g>
		</g>
		<g>
			<g>
				
					<rect x="568" y="778.8" transform="matrix(0.7071 -0.7071 0.7071 0.7071 -383.0253 637.8951)" class="st5" width="20.9" height="4.9"/>
			</g>
		</g>
		<g>
			<g>
				
					<rect x="540.4" y="775.2" transform="matrix(0.7071 -0.7071 0.7071 0.7071 -396.5745 614.0105)" class="st5" width="4.9" height="21.1"/>
			</g>
		</g>
		<g>
			<g>
				<path class="st6" d="M274.8,822.4c0,26.1-12.6,49.7-41.1,49.7s-41.1-23.7-41.1-49.7c0-30.6,21.5-60.9,41.1-60.9
					S274.8,791.9,274.8,822.4z"/>
			</g>
		</g>
		<g>
			<g>
				<rect x="231.2" y="814" class="st5" width="4.9" height="83.3"/>
			</g>
		</g>
		<g>
			<g>
				
					<rect x="240.3" y="818.7" transform="matrix(0.6651 -0.7467 0.7467 0.6651 -529.0521 461.0621)" class="st5" width="18.4" height="3.3"/>
			</g>
		</g>
		<g>
			<g>
				
					<rect x="216.2" y="834.4" transform="matrix(0.7468 -0.6651 0.6651 0.7468 -505.8812 358.4916)" class="st5" width="3.3" height="18.4"/>
			</g>
		</g>
		<g>
			<g>
				
					<rect x="216.2" y="811.6" transform="matrix(0.7468 -0.6651 0.6651 0.7468 -490.7558 352.7328)" class="st5" width="3.3" height="18.4"/>
			</g>
		</g>
	</g>
	<g>
		<g>
			<path class="st5" d="M346,879.7c-0.2,0.3-4.4,10.3-3.9,19.9h-14.8c-0.3-5.2-3.5-8.8-3.5-8.8s6.5-1.2,10.9,6.7
				C334.7,897.6,338,883.4,346,879.7z"/>
		</g>
		<g>
			<path class="st5" d="M327,879.4c0.2,0.3,5.5,10.3,4.8,19.9h18.3c0.3-5.2,4.3-12.7,4.3-12.7s-8.1,2.8-13.5,10.6
				C340.9,897.2,336.8,883,327,879.4z"/>
		</g>
		<g>
			<path class="st5" d="M614,881.5c0.2,0.3,6.5,8.6,7.2,16.3h11C627.1,887.5,614.3,881.7,614,881.5z"/>
		</g>
		<g>
			<path class="st5" d="M642.5,885.9c-0.1,0.2-4.6,6.3-5.1,11.9h-7.8C633.2,890.3,642.3,886,642.5,885.9z"/>
		</g>
		<g>
			<path class="st5" d="M714,886.5c-0.1,0.2-4.6,6.3-5.1,11.9h-7.8C704.7,890.9,713.8,886.6,714,886.5z"/>
		</g>
		<g>
			<path class="st5" d="M597.2,885.9c-0.1,0.2-4.6,6.3-5.1,11.9h-7.8C587.9,890.3,597,886,597.2,885.9z"/>
		</g>
		<g>
			<path class="st5" d="M675.3,897.8h-11.6c-0.1-8.4-4.4-19.3-4.4-19.3S672.1,889,675.3,897.8z"/>
		</g>
		<g>
			<path class="st5" d="M678.8,897.8c2.8-6,3-10.8,3-10.8s5.5,6,7.9,10.8H678.8z"/>
		</g>
		<g>
			<path class="st5" d="M201,897.8c2.8-6,3-10.8,3-10.8s5.5,6,7.9,10.8H201z"/>
		</g>
		<g>
			<path class="st5" d="M275.7,878.7c0.2,0.3,5.5,10.3,4.8,19.9h18.3c0.3-5.2,4.3-12.7,4.3-12.7s-8.1,2.8-13.5,10.6
				C289.6,896.5,285.5,882.3,275.7,878.7z"/>
		</g>
		<g>
			<path class="st5" d="M250.2,880.3c-0.2,0.4-4.6,8.1-5.8,17l-17.5,1.8c-1.2-8-3.8-12.4-3.8-12.4s7.3,2.1,11.3,8.4
				C234.5,895.1,239,885.5,250.2,880.3z"/>
		</g>
	</g>
	<g>
		<g>
			<g>
				<path class="st2" d="M422.1,748.3h79.1v0c0,10.5-8.5,19-19,19h-41.1C430.6,767.2,422.1,758.7,422.1,748.3L422.1,748.3z"/>
			</g>
		</g>
		<g>
			<g>
				<path class="st3" d="M422.1,861.1h79.1v0c0,3-2.4,5.5-5.5,5.5h-68.1C424.5,866.5,422.1,864.1,422.1,861.1L422.1,861.1z"/>
			</g>
		</g>
		<g>
			<g>
				<path class="st11" d="M545.9,821.2H377.3l0,0c0-10.3,8.4-18.7,18.7-18.7h131.2C537.6,802.6,545.9,810.9,545.9,821.2L545.9,821.2
					z"/>
			</g>
		</g>
		<g>
			<g>
				<path class="st2" d="M396.5,821.2h130.3v0c0,13.6-11,24.7-24.7,24.7h-80.9C407.5,845.9,396.5,834.9,396.5,821.2L396.5,821.2z"/>
			</g>
		</g>
		<g>
			<g>
				<path class="st3" d="M501.9,802.6h-80.6c15-0.1,27.2-15.9,27.2-35.3h26.3C474.8,786.7,486.9,802.5,501.9,802.6z"/>
			</g>
		</g>
		<g>
			<g>
				<path class="st3" d="M488,729.3h-52.8c15-0.1,19-11.6,19-25.9H469C469,717.7,473,729.2,488,729.3z"/>
			</g>
		</g>
		<g>
			<g>
				<path class="st11" d="M513.2,748.3H410l0,0c0-10.5,8.5-19,19-19h65.3C504.7,729.3,513.2,737.8,513.2,748.3L513.2,748.3z"/>
			</g>
		</g>
		<g>
			<g>
				<polygon class="st3" points="585.6,898.3 337.6,898.3 336.4,873.5 586.9,873.5 				"/>
			</g>
		</g>
		<g>
			<g>
				<path class="st5" d="M588,873.5H335.3c-3.9,0-7-3.2-7-7l0,0H595l0,0C595,870.3,591.8,873.5,588,873.5z"/>
			</g>
		</g>
		<g>
			<g>
				<path class="st5" d="M339.6,890.3h244.1c3.9,0,7,3.2,7,7l0,0H332.5l0,0C332.5,893.4,335.7,890.3,339.6,890.3z"/>
			</g>
		</g>
		<g>
			<g>
				<rect x="377.2" y="821.3" class="st12" width="2.6" height="31.5"/>
			</g>
		</g>
		<g>
			<g>
				<rect x="377.2" y="857.7" class="st12" width="2.6" height="7.1"/>
			</g>
		</g>
		<g>
			<g>
				<rect x="390.9" y="821.3" class="st12" width="2.6" height="31.5"/>
			</g>
		</g>
		<g>
			<g>
				<rect x="390.9" y="857.6" class="st12" width="2.6" height="7.2"/>
			</g>
		</g>
		<g>
			<g>
				<rect x="405.3" y="846.3" class="st12" width="2.6" height="7.2"/>
			</g>
		</g>
		<g>
			<g>
				<rect x="432.4" y="769.4" class="st12" width="2.6" height="15.1"/>
			</g>
		</g>
		<g>
			<g>
				<rect x="487.6" y="768.5" class="st12" width="2.6" height="6.4"/>
			</g>
		</g>
		<g>
			<g>
				<rect x="398.4" y="839.2" class="st12" width="2.6" height="22.9"/>
			</g>
		</g>
		<g>
			<g>
				<rect x="384" y="821.3" class="st12" width="2.6" height="10.3"/>
			</g>
		</g>
		<g>
			<g>
				<rect x="384" y="836.9" class="st12" width="2.6" height="25.1"/>
			</g>
		</g>
		<g>
			<g>
				<rect x="424.7" y="774.1" class="st12" width="2.6" height="25.4"/>
			</g>
		</g>
		<g>
			<g>
				<rect x="424.7" y="763.8" class="st12" width="2.6" height="7"/>
			</g>
		</g>
		<g>
			<g>
				<rect x="410.1" y="774.1" class="st12" width="2.6" height="26.4"/>
			</g>
		</g>
		<g>
			<g>
				<rect x="410.1" y="763" class="st12" width="2.6" height="7.1"/>
			</g>
		</g>
		<g>
			<g>
				<rect x="410.1" y="748.2" class="st12" width="2.6" height="12"/>
			</g>
		</g>
		<g>
			<g>
				<rect x="417.5" y="791.9" class="st12" width="2.6" height="6.5"/>
			</g>
		</g>
		<g>
			<g>
				<rect x="417.5" y="768.1" class="st12" width="2.6" height="20.4"/>
			</g>
		</g>
		<g>
			<g>
				<rect x="417.5" y="748.2" class="st12" width="2.6" height="16.4"/>
			</g>
		</g>
		<g>
			<g>
				<rect x="522.1" y="856.6" class="st12" width="2.6" height="7.4"/>
			</g>
		</g>
		<g>
			<g>
				<rect x="522.1" y="839.6" class="st12" width="2.6" height="13.6"/>
			</g>
		</g>
		<g>
			<g>
				<rect x="536.1" y="821.2" class="st12" width="2.6" height="14"/>
			</g>
		</g>
		<g>
			<g>
				<rect x="536.1" y="838.3" class="st12" width="2.6" height="26.8"/>
			</g>
		</g>
		<g>
			<g>
				<rect x="543.6" y="821.2" class="st12" width="2.6" height="20.6"/>
			</g>
		</g>
		<g>
			<g>
				<rect x="543.6" y="847" class="st12" width="2.6" height="17.3"/>
			</g>
		</g>
		<g>
			<g>
				<rect x="529" y="821.2" class="st12" width="2.6" height="10.3"/>
			</g>
		</g>
		<g>
			<g>
				<rect x="514.9" y="845.5" class="st12" width="2.6" height="10.3"/>
			</g>
		</g>
		<g>
			<g>
				<rect x="529" y="834.9" class="st12" width="2.6" height="27.4"/>
			</g>
		</g>
		<g>
			<g>
				<rect x="503.2" y="748" class="st12" width="2.6" height="19.3"/>
			</g>
		</g>
		<g>
			<g>
				<rect x="503.2" y="771.1" class="st12" width="2.6" height="11"/>
			</g>
		</g>
		<g>
			<g>
				<rect x="503.2" y="785" class="st12" width="2.6" height="11.6"/>
			</g>
		</g>
		<g>
			<g>
				<rect x="510.6" y="748" class="st12" width="2.6" height="16.6"/>
			</g>
		</g>
		<g>
			<g>
				<rect x="510.6" y="768" class="st12" width="2.6" height="10.3"/>
			</g>
		</g>
		<g>
			<g>
				<rect x="510.6" y="782" class="st12" width="2.6" height="16.4"/>
			</g>
		</g>
		<g>
			<g>
				<rect x="495.8" y="766.6" class="st12" width="2.6" height="12.6"/>
			</g>
		</g>
		<g>
			<g>
				<rect x="495.8" y="782.6" class="st12" width="2.6" height="15.8"/>
			</g>
		</g>
		<g>
			<g>
				<rect x="426.8" y="715.1" class="st12" width="2.6" height="11.9"/>
			</g>
		</g>
		<g>
			<g>
				<rect x="426.8" y="705.6" class="st12" width="2.6" height="5.3"/>
			</g>
		</g>
		<g>
			<g>
				<rect x="426.8" y="683.5" class="st12" width="2.6" height="18.6"/>
			</g>
		</g>
		<g>
			<g>
				<rect x="433.1" y="703.9" class="st12" width="2.6" height="19.9"/>
			</g>
		</g>
		<g>
			<g>
				<rect x="487.3" y="695.3" class="st12" width="2.6" height="24.3"/>
			</g>
		</g>
		<g>
			<g>
				<rect x="433.1" y="694.4" class="st12" width="2.6" height="5.3"/>
			</g>
		</g>
		<g>
			<g>
				<path class="st12" d="M429.4,678.2h-2.6v-12c0-2.8,0.6-5.4,1.7-7.9l2.4,1.1c-1,2.1-1.5,4.4-1.5,6.8V678.2z"/>
			</g>
		</g>
		<g>
			<g>
				<path class="st12" d="M433.1,655.8l-2-1.7c1-1.2,2.1-2.2,3.3-3.1l1.6,2.1C434.9,653.9,433.9,654.8,433.1,655.8z"/>
			</g>
		</g>
		<g>
			<g>
				<path class="st12" d="M462.9,678.2h-2.6v-12c0-8.8-6.9-16-15.5-16c-2.3,0-4.5,0.5-6.6,1.5l-1.2-2.4c2.4-1.2,5-1.8,7.7-1.8
					c10,0,18.1,8.4,18.1,18.6V678.2z"/>
			</g>
		</g>
		<g>
			<g>
				<rect x="493.9" y="701.3" class="st12" width="2.6" height="25.7"/>
			</g>
		</g>
		<g>
			<g>
				<rect x="493.9" y="683.5" class="st12" width="2.6" height="10.3"/>
			</g>
		</g>
		<g>
			<g>
				<rect x="481.2" y="702" class="st12" width="2.6" height="10.3"/>
			</g>
		</g>
		<g>
			<g>
				<rect x="493.9" y="672.7" class="st12" width="2.6" height="6.3"/>
			</g>
		</g>
		<g>
			<g>
				<rect x="439.4" y="701.9" class="st12" width="2.6" height="6.3"/>
			</g>
		</g>
		<g>
			<g>
				<path class="st12" d="M496.5,666.2h-2.6c0-3.3-1-6.5-2.8-9.2l2.2-1.5C495.3,658.7,496.5,662.4,496.5,666.2z"/>
			</g>
		</g>
		<g>
			<g>
				<path class="st12" d="M462.9,678.2h-2.6v-12c0-10.3,8.1-18.6,18.1-18.6c3.7,0,7.3,1.2,10.4,3.4l-1.5,2.1
					c-2.6-1.9-5.7-2.9-8.8-2.9c-8.5,0-15.5,7.2-15.5,16V678.2z"/>
			</g>
		</g>
		<g>
			<g>
				<path class="st12" d="M448.9,680.8h-2.6v-4.6c0-3-2.3-5.4-5.2-5.4c-0.8,0-1.5,0.2-2.2,0.5l-1.2-2.4c1.1-0.5,2.2-0.8,3.3-0.8
					c4.3,0,7.8,3.6,7.8,8V680.8z"/>
			</g>
		</g>
		<g>
			<g>
				<path class="st12" d="M477.5,680.8h-2.6v-4.6c0-4.4,3.5-8,7.8-8c1.6,0,3.2,0.5,4.5,1.5l-1.5,2.1c-0.9-0.6-1.9-1-2.9-1
					c-2.8,0-5.2,2.4-5.2,5.4V680.8z"/>
			</g>
		</g>
		<g>
			<g>
				<path class="st12" d="M439.5,661.7l-1.2-2.4c1.4-0.7,2.9-1.1,4.4-1.2l0.2,2.6C441.8,660.9,440.6,661.2,439.5,661.7z"/>
			</g>
		</g>
		<g>
			<g>
				<path class="st12" d="M455.6,678.2h-2.6v-7.7c0-4.1-2.5-7.8-6.3-9.2l0.9-2.5c4.8,1.8,8,6.5,8,11.6V678.2z"/>
			</g>
		</g>
		<g>
			<g>
				<path class="st12" d="M471.8,664.7l-2.1-1.5c2.3-3.1,5.9-5,9.6-5c2.5,0,4.9,0.8,6.9,2.3l-1.5,2.1c-1.6-1.2-3.4-1.8-5.4-1.8
					C476.4,660.8,473.7,662.2,471.8,664.7z"/>
			</g>
		</g>
		<g>
			<g>
				<path class="st12" d="M469.9,678.2h-2.6v-7.7c0-1.3,0.2-2.6,0.6-3.9l2.5,0.8c-0.3,1-0.5,2-0.5,3.1V678.2z"/>
			</g>
		</g>
		<g>
			<g>
				<path class="st12" d="M452.1,631.3c-2.2-1.9-4.8-2.9-7.3-2.9v-2.6c3.2,0,6.3,1.2,9,3.5L452.1,631.3z"/>
			</g>
		</g>
		<g>
			<g>
				<path class="st12" d="M462.9,669.5h-2.6v-17.4c0-6.4-1.7-12.5-4.8-17l2.2-1.5c3.4,5,5.2,11.5,5.2,18.5V669.5z"/>
			</g>
		</g>
		<g>
			<g>
				<path class="st12" d="M475.2,628.9l-0.8-2.5c1.3-0.4,2.6-0.6,4-0.6v2.6C477.3,628.4,476.3,628.6,475.2,628.9z"/>
			</g>
		</g>
		<g>
			<g>
				<path class="st12" d="M462.9,669.5h-2.6v-17.4c0-9.8,3.7-18.8,9.7-23.3l1.6,2.1c-5.3,4-8.6,12.4-8.6,21.2V669.5z"/>
			</g>
		</g>
		<g>
			<g>
				<path class="st11" d="M487.8,690h-52.4l0,0c0-6.5,5.3-11.8,11.8-11.8H476C482.5,678.2,487.8,683.5,487.8,690L487.8,690z"/>
			</g>
		</g>
		<g>
			<g>
				<path class="st2" d="M491,861.2h-58.8v0c0-8.4,6.8-15.3,15.3-15.3h28.3C484.2,845.9,491,852.7,491,861.2L491,861.2z"/>
			</g>
		</g>
		<g>
			<g>
				<path class="st2" d="M440.7,690h41.9l0,0c0,7.4-6,13.4-13.4,13.4h-15.1C446.7,703.4,440.7,697.4,440.7,690L440.7,690z"/>
			</g>
		</g>
		<g>
			<g>
				<path class="st3" d="M427.2,880.6"/>
			</g>
		</g>
		<g>
			<g>
				<rect x="377.3" y="818.8" class="st3" width="168.6" height="4.9"/>
			</g>
		</g>
		<g>
			<g>
				<path class="st12" d="M588.9,885.9h-2.5c-5.3,0-8-1.1-10.5-2c-2.3-0.9-4.4-1.7-8.7-1.7c-4.3,0-6.4,0.8-8.7,1.7
					c-2.4,1-5.2,2-10.5,2c-5.3,0-8-1.1-10.5-2c-2.3-0.9-4.4-1.7-8.7-1.7c-4.3,0-6.4,0.8-8.7,1.7c-2.4,1-5.2,2-10.5,2
					c-5.3,0-8-1.1-10.5-2c-2.3-0.9-4.4-1.7-8.7-1.7c-4.3,0-6.4,0.8-8.7,1.7c-2.4,1-5.2,2-10.5,2c-5.3,0-8-1.1-10.5-2
					c-2.3-0.9-4.4-1.7-8.7-1.7c-4.3,0-6.4,0.8-8.7,1.7c-2.4,1-5.2,2-10.5,2c-5.3,0-8-1.1-10.5-2c-2.3-0.9-4.4-1.7-8.7-1.7
					c-4.3,0-6.4,0.8-8.7,1.7c-2.4,1-5.2,2-10.5,2c-5.3,0-8-1.1-10.5-2c-2.3-0.9-4.4-1.7-8.7-1.7c-4.3,0-6.4,0.8-8.7,1.7
					c-2.4,1-5.2,2-10.5,2s-8-1.1-10.5-2c-2.3-0.9-4.4-1.7-8.7-1.7h-2.5v-4.9h2.5c5.3,0,8,1.1,10.5,2c2.3,0.9,4.4,1.7,8.7,1.7
					c4.3,0,6.4-0.8,8.7-1.7c2.4-1,5.2-2,10.5-2c5.3,0,8,1.1,10.5,2c2.3,0.9,4.4,1.7,8.7,1.7c4.3,0,6.4-0.8,8.7-1.7
					c2.4-1,5.2-2,10.5-2c5.3,0,8,1.1,10.5,2c2.3,0.9,4.4,1.7,8.7,1.7c4.3,0,6.4-0.8,8.7-1.7c2.4-1,5.2-2,10.5-2c5.3,0,8,1.1,10.5,2
					c2.3,0.9,4.4,1.7,8.7,1.7c4.3,0,6.4-0.8,8.7-1.7c2.4-1,5.2-2,10.5-2c5.3,0,8,1.1,10.5,2c2.3,0.9,4.4,1.7,8.7,1.7
					c4.3,0,6.4-0.8,8.7-1.7c2.4-1,5.2-2,10.5-2c5.3,0,8,1.1,10.5,2c2.3,0.9,4.4,1.7,8.7,1.7c4.3,0,6.4-0.8,8.7-1.7
					c2.4-1,5.2-2,10.5-2c5.3,0,8,1.1,10.5,2c2.3,0.9,4.4,1.7,8.7,1.7h2.5V885.9z"/>
			</g>
		</g>
		<g>
			<g>
				<path class="st3" d="M544.9,815.7c-5.1,0-7.7-1.2-10.1-2.2c-2.2-0.9-4.1-1.8-8.1-1.8c-4,0-5.9,0.8-8.1,1.8
					c-2.4,1-5,2.2-10.1,2.2c-5.1,0-7.7-1.2-10.1-2.2c-2.2-0.9-4.1-1.8-8.1-1.8s-5.9,0.8-8.1,1.8c-2.4,1-5,2.2-10.1,2.2
					c-5.1,0-7.7-1.2-10.1-2.2c-2.2-0.9-4.1-1.8-8.1-1.8s-5.9,0.8-8.1,1.8c-2.4,1-5,2.2-10.1,2.2s-7.7-1.2-10.1-2.2
					c-2.2-0.9-4.1-1.8-8.1-1.8c-4,0-5.9,0.8-8.1,1.8c-2.4,1-5,2.2-10.1,2.2c-5.1,0-7.7-1.2-10.1-2.2c-2.2-0.9-4.1-1.8-8.1-1.8v-4.9
					c5.1,0,7.7,1.2,10.1,2.2c2.2,0.9,4.1,1.8,8.1,1.8c4,0,5.9-0.8,8.1-1.8c2.4-1,5-2.2,10.1-2.2c5.1,0,7.7,1.2,10.1,2.2
					c2.2,0.9,4.1,1.8,8.1,1.8c4,0,5.9-0.8,8.1-1.8c2.4-1,5-2.2,10.1-2.2s7.7,1.2,10.1,2.2c2.2,0.9,4.1,1.8,8.1,1.8
					c4,0,5.9-0.8,8.1-1.8c2.4-1,5-2.2,10.1-2.2s7.7,1.2,10.1,2.2c2.2,0.9,4.1,1.8,8.1,1.8c4,0,5.9-0.8,8.1-1.8c2.4-1,5-2.2,10.1-2.2
					c5.1,0,7.7,1.2,10.1,2.2c2.2,0.9,4.1,1.8,8.1,1.8V815.7z"/>
			</g>
		</g>
		<g>
			<g>
				<rect x="410" y="745.8" class="st3" width="103.2" height="4.9"/>
			</g>
		</g>
		<g>
			<g>
				<path class="st3" d="M411.7,742.3v-4.9c3.6,0,5.3-0.8,7.3-1.6c2.2-1,4.6-2.1,9.3-2.1s7.1,1.1,9.3,2.1c2,0.9,3.7,1.6,7.3,1.6
					c3.6,0,5.3-0.8,7.3-1.6c2.2-1,4.6-2.1,9.3-2.1c4.7,0,7.1,1.1,9.3,2.1c2,0.9,3.7,1.6,7.3,1.6c3.6,0,5.3-0.8,7.3-1.6
					c2.2-1,4.6-2.1,9.3-2.1c4.7,0,7.1,1.1,9.3,2.1c2,0.9,3.7,1.6,7.3,1.6v4.9c-4.7,0-7.1-1.1-9.3-2.1c-2-0.9-3.7-1.6-7.3-1.6
					c-3.6,0-5.3,0.8-7.3,1.6c-2.2,1-4.6,2.1-9.3,2.1c-4.7,0-7.1-1.1-9.3-2.1c-2-0.9-3.7-1.6-7.3-1.6c-3.6,0-5.3,0.8-7.3,1.6
					c-2.2,1-4.6,2.1-9.3,2.1c-4.7,0-7.1-1.1-9.3-2.1c-2-0.9-3.7-1.6-7.3-1.6c-3.6,0-5.3,0.8-7.3,1.6
					C418.8,741.2,416.4,742.3,411.7,742.3z"/>
			</g>
		</g>
		<g>
			<g>
				<rect x="435.4" y="687.5" class="st3" width="52.4" height="4.9"/>
			</g>
		</g>
	</g>
	<g>
		<line class="st6" x1="749" y1="899.8" x2="174.3" y2="899.8"/>
		<path class="st5" d="M749,903.1H174.3c-1.8,0-3.3-1.5-3.3-3.3c0-1.8,1.5-3.3,3.3-3.3H749c1.8,0,3.3,1.5,3.3,3.3
			C752.2,901.6,750.8,903.1,749,903.1z"/>
	</g>
</g>
<path class="st13" d="M28.5,284.9c0,0,18.2-48.8,86.9-51c68.7-2.2,100.9-52.6,159.1-54.8s80,62.9,156.7,59.6
	c76.7-3.3,108.3,46.2,108.3,46.2H28.5z"/>
<path class="st13" d="M1800.4,207.2c0,0,29.6-68.2,76.8-68.2c38.3,0,42.6,48.3,77.7,47.1c35.1-1.2,52.9-23.2,84.6-23.2
	c40,0,72.9,44.3,72.9,44.3H1800.4z"/>
<path class="st13" d="M2123.8,353.6h-189c0,0,12.3-47.3,37.8-47.3c16,0,22.4,16.7,37.3,16.7c14.9,0,33.8-41.6,58.1-41.6
	C2106,281.5,2123.8,353.6,2123.8,353.6"/>
</svg>
