<svg id="e6CRaZ4SkgU1" xmlns="http://www.w3.org/2000/svg" xmlns:xlink="http://www.w3.org/1999/xlink" viewBox="0 0 2400 907.7" shape-rendering="geometricPrecision" text-rendering="geometricPrecision"><style><![CDATA[#e6CRaZ4SkgU486_to {animation: e6CRaZ4SkgU486_to__to 60000ms linear infinite normal forwards}@keyframes e6CRaZ4SkgU486_to__to { 0% {transform: translate(-322.825744px,231.972717px)} 14.333333% {transform: translate(-322.825744px,231.972717px)} 44.333333% {transform: translate(2689.770456px,231.972717px)} 100% {transform: translate(2689.770456px,231.972717px)}} #e6CRaZ4SkgU487_to {animation: e6CRaZ4SkgU487_to__to 60000ms linear infinite normal forwards}@keyframes e6CRaZ4SkgU487_to__to { 0% {transform: translate(-189.022671px,173.100006px)} 36.333333% {transform: translate(-189.022671px,173.100006px)} 62% {transform: translate(2580.843231px,173.100006px)} 100% {transform: translate(2580.843231px,173.100006px)}} #e6CRaZ4SkgU488_to {animation: e6CRaZ4SkgU488_to__to 60000ms linear infinite normal forwards}@keyframes e6CRaZ4SkgU488_to__to { 0% {transform: translate(-228.325695px,317.500015px)} 25.5% {transform: translate(2642.343317px,317.500015px)} 100% {transform: translate(2642.343317px,317.500015px)}}]]></style><rect width="2400" height="906.5" rx="0" ry="0" fill="#ecf3fa"/><g opacity="0.6"><g><polygon points="1211.4,699.1 1148.7,699.1 1148.7,569 1211.4,517.1" fill="#b6d4ff"/><rect width="69.7" height="226.6" rx="0" ry="0" transform="translate(1526.3 666.2)" fill="#cce3ff"/><rect width="69.7" height="226.6" rx="0" ry="0" transform="translate(1486.3 521.3)" fill="#cce3ff"/><rect width="169.1" height="234.4" rx="0" ry="0" transform="translate(1173 661.8)" fill="#b6d4ff"/><rect width="169.1" height="234.4" rx="0" ry="0" transform="translate(1051 658.1)" fill="#b6d4ff"/><rect width="169.1" height="79.8" rx="0" ry="0" transform="translate(941.4 815.9)" fill="#b6d4ff"/><rect width="169.1" height="131.1" rx="0" ry="0" transform="translate(1328.7 763.6)" fill="#b6d4ff"/><line x1="1610.4" y1="394.8" x2="1610.4" y2="447.6" fill="none" stroke="#cce3ff" stroke-width="8" stroke-miterlimit="10"/><rect width="93.9" height="296.4" rx="0" ry="0" transform="translate(1869.1 599.4)" fill="#b6d4ff"/><rect width="80.9" height="209.2" rx="0" ry="0" transform="translate(1918.8 542.2)" fill="#b6d4ff"/><rect width="36.3" height="15.9" rx="0" ry="0" transform="translate(1940.3 532.6)" fill="#b6d4ff"/><polygon points="1732.5,516.6 1732.5,898.6 1585.2,898.6 1585.2,408.8 1643,451.1 1643,513.4 1693.3,513.4 1693.3,487.9" fill="#b6d4ff"/></g><g><line x1="1805.7" y1="527.8" x2="1805.7" y2="579.9" fill="none" stroke="#cce3ff" stroke-width="8" stroke-miterlimit="10"/><rect width="126.7" height="335.7" rx="0" ry="0" transform="translate(1627.5 560)" fill="#dceeff"/><rect width="80.3" height="335.7" rx="0" ry="0" transform="translate(1754.2 560)" fill="#cce3ff"/><rect width="30.1" height="15.6" rx="0" ry="0" transform="translate(1627.5 587.9)" fill="#b6d4ff"/><rect width="30.1" height="15.6" rx="0" ry="0" transform="translate(1657.6 603.3)" fill="#b6d4ff"/><rect width="30.1" height="15.6" rx="0" ry="0" transform="translate(1687.7 587.9)" fill="#b6d4ff"/><rect width="30.1" height="15.6" rx="0" ry="0" transform="translate(1627.5 603.3)" fill="#ecf6ff"/><rect width="30.1" height="15.6" rx="0" ry="0" transform="translate(1657.6 708.8)" fill="#ecf6ff"/><rect width="23.3" height="15.6" rx="0" ry="0" transform="translate(1764.5 603.3)" fill="#ecf6ff"/><rect width="30.1" height="15.6" rx="0" ry="0" transform="translate(1717.9 787.6)" fill="#ecf6ff"/><rect width="30.1" height="15.6" rx="0" ry="0" transform="translate(1717.9 619)" fill="#b6d4ff"/><rect width="30.1" height="15.6" rx="0" ry="0" transform="translate(1657.6 693.2)" fill="#b6d4ff"/><rect width="30.1" height="15.6" rx="0" ry="0" transform="translate(1717.9 708.8)" fill="#b6d4ff"/><rect width="23.3" height="15.6" rx="0" ry="0" transform="translate(1764.5 587.9)" fill="#b6d4ff"/><rect width="23.3" height="15.6" rx="0" ry="0" transform="translate(1811.2 603.5)" fill="#b6d4ff"/><rect width="23.3" height="15.6" rx="0" ry="0" transform="translate(1764.5 663.8)" fill="#b6d4ff"/><rect width="30.1" height="15.6" rx="0" ry="0" transform="translate(1687.7 787.6)" fill="#b6d4ff"/><rect width="30.1" height="15.6" rx="0" ry="0" transform="translate(1627.5 827.7)" fill="#b6d4ff"/><rect width="30.1" height="15.6" rx="0" ry="0" transform="translate(1657.6 843.3)" fill="#b6d4ff"/><rect width="30.1" height="15.6" rx="0" ry="0" transform="translate(1627.5 619)" fill="#b6d4ff"/></g><rect width="12.3" height="22" rx="0" ry="0" transform="translate(1376.2 608.1)" fill="#ecf6ff"/><rect width="12.3" height="22" rx="0" ry="0" transform="translate(1376.2 564.2)" fill="#ecf6ff"/><g><rect width="105.9" height="564.6" rx="0" ry="0" transform="translate(1364.1 331.1)" fill="#dceeff"/><rect width="67.1" height="564.6" rx="0" ry="0" transform="translate(1470 331.1)" fill="#b6d4ff"/><rect width="105.9" height="25.8" rx="0" ry="0" transform="translate(1364.1 292.3)" fill="#dceeff"/><rect width="42.7" height="25.8" rx="0" ry="0" transform="translate(1383.3 282)" fill="#dceeff"/><rect width="42.7" height="25.8" rx="0" ry="0" transform="translate(1480.3 282)" fill="#dceeff"/><rect width="67.1" height="25.8" rx="0" ry="0" transform="translate(1470 292.3)" fill="#b6d4ff"/><rect width="117.8" height="13" rx="0" ry="0" transform="translate(1354.3 318.1)" fill="#dceeff"/><rect width="74.7" height="13" rx="0" ry="0" transform="translate(1472.2 318.1)" fill="#cce3ff"/><rect width="12.3" height="551.8" rx="0" ry="0" transform="translate(1376.2 343.9)" fill="#cce3ff"/><rect width="12.3" height="551.8" rx="0" ry="0" transform="translate(1444.9 343.9)" fill="#cce3ff"/><rect width="12.3" height="551.8" rx="0" ry="0" transform="translate(1422 343.9)" fill="#cce3ff"/><rect width="12.3" height="551.8" rx="0" ry="0" transform="translate(1399.1 343.9)" fill="#cce3ff"/></g><rect width="12.3" height="22" rx="0" ry="0" transform="translate(1399.1 586.1)" fill="#ecf6ff"/><rect width="12.3" height="22" rx="0" ry="0" transform="translate(1422 788.3)" fill="#ecf6ff"/><rect width="12.3" height="22" rx="0" ry="0" transform="translate(1422 766.4)" fill="#ecf6ff"/><rect width="12.3" height="22" rx="0" ry="0" transform="translate(1444.9 700.5)" opacity="0.51" fill="#b6d4ff"/><rect width="12.3" height="22" rx="0" ry="0" transform="translate(1376.2 722.8)" fill="#b6d4ff"/><rect width="12.3" height="22" rx="0" ry="0" transform="translate(1444.9 519.1)" fill="#b6d4ff"/><rect width="12.3" height="22" rx="0" ry="0" transform="translate(1376.2 484.6)" fill="#b6d4ff"/><rect width="12.3" height="22" rx="0" ry="0" transform="translate(1422 722.5)" opacity="0.51" fill="#b6d4ff"/><rect width="12.3" height="22" rx="0" ry="0" transform="translate(1376.2 813.6)" fill="#ecf6ff"/><rect width="12.3" height="22" rx="0" ry="0" transform="translate(1422 564.2)" fill="#ecf6ff"/><rect width="12.3" height="22" rx="0" ry="0" transform="translate(1376.2 630)" fill="#ecf6ff"/><rect width="12.3" height="22" rx="0" ry="0" transform="translate(1444.9 436.6)" fill="#ecf6ff"/><rect width="12.3" height="22" rx="0" ry="0" transform="translate(1376.2 402.5)" fill="#ecf6ff"/><rect width="12.3" height="22" rx="0" ry="0" transform="translate(1376.2 424.5)" fill="#ecf6ff"/><rect width="12.3" height="22" rx="0" ry="0" transform="translate(1422 542.2)" fill="#ecf6ff"/><g><rect width="87.1" height="108" rx="0" ry="0" transform="translate(2138.1 784.9)" fill="#b6d4ff"/><rect width="12.1" height="101.4" rx="0" ry="0" transform="translate(2173.6 797.1)" fill="#dceeff"/><rect width="12.1" height="101.4" rx="0" ry="0" transform="translate(2196.4 797.1)" fill="#dceeff"/><line x1="2126.9" y1="619.8" x2="2126.9" y2="674.5" fill="none" stroke="#cce3ff" stroke-width="8" stroke-miterlimit="10"/><rect width="89.3" height="250.6" rx="0" ry="0" transform="translate(2020.5 652.1)" fill="#cce3ff"/><rect width="14" height="227.7" rx="0" ry="0" transform="translate(2032.2 668)" fill="#b6d4ff"/><rect width="14" height="227.7" rx="0" ry="0" transform="translate(2058.2 668)" fill="#b6d4ff"/><rect width="14" height="227.7" rx="0" ry="0" transform="translate(2084.2 668)" fill="#b6d4ff"/><rect width="56.6" height="250.6" rx="0" ry="0" transform="translate(2109.8 652.1)" fill="#b6d4ff"/><rect width="12.1" height="227.7" rx="0" ry="0" transform="translate(2120.8 668)" fill="#dceeff"/><rect width="12.1" height="227.7" rx="0" ry="0" transform="translate(2144 668)" fill="#dceeff"/><rect width="12.1" height="21.1" rx="0" ry="0" transform="translate(2144 770.6)" fill="#cce3ff"/><rect width="12.1" height="21.1" rx="0" ry="0" transform="translate(2144 708.8)" fill="#cce3ff"/><rect width="12.1" height="21.1" rx="0" ry="0" transform="translate(2120.8 708.8)" fill="#cce3ff"/><rect width="12.1" height="21.1" rx="0" ry="0" transform="translate(2120.8 729.9)" fill="#cce3ff"/><rect width="12.1" height="21.1" rx="0" ry="0" transform="translate(2173.6 830.2)" fill="#cce3ff"/><rect width="12.1" height="21.1" rx="0" ry="0" transform="translate(2196.4 851.3)" fill="#cce3ff"/><rect width="12.1" height="21.1" rx="0" ry="0" transform="translate(2120.8 791.7)" fill="#cce3ff"/><rect width="12.1" height="21.1" rx="0" ry="0" transform="translate(2144 791.7)" fill="#cce3ff"/></g><g><line x1="1262.9" y1="568.9" x2="1262.9" y2="612.3" fill="none" stroke="#cce3ff" stroke-width="8" stroke-miterlimit="10"/><rect width="37.5" height="32" rx="0" ry="0" transform="translate(1129 598.1)" fill="#cce3ff"/><rect width="134.1" height="283.5" rx="0" ry="0" transform="translate(1092.9 612.3)" fill="#dceeff"/><rect width="15.5" height="269.5" rx="0" ry="0" transform="translate(1106.6 626.3)" fill="#b6d4ff"/><rect width="15.5" height="269.5" rx="0" ry="0" transform="translate(1135.6 626.3)" fill="#b6d4ff"/><rect width="15.5" height="269.5" rx="0" ry="0" transform="translate(1164.5 626.3)" fill="#b6d4ff"/><rect width="15.5" height="269.5" rx="0" ry="0" transform="translate(1193.4 626.3)" fill="#b6d4ff"/><rect width="37.5" height="32" rx="0" ry="0" transform="translate(1241.1 598.1)" fill="#cce3ff"/><rect width="85" height="283.5" rx="0" ry="0" transform="translate(1227 612.3)" fill="#cce3ff"/><rect width="15.5" height="190" rx="0" ry="0" transform="translate(1255.6 705.8)" fill="#dceeff"/><rect width="15.5" height="190" rx="0" ry="0" transform="translate(1284.5 705.8)" fill="#dceeff"/></g><g><rect width="116" height="159.5" rx="0" ry="0" transform="translate(990.1 738.2)" fill="#dceeff"/><rect width="73.6" height="159.5" rx="0" ry="0" transform="translate(1106.2 738.2)" fill="#cce3ff"/><rect width="166.8" height="13.8" rx="0" ry="0" transform="translate(990.1 863.3)" opacity="0.51" fill="#b6d4ff"/><rect width="166.8" height="13.8" rx="0" ry="0" transform="translate(990.1 839.6)" opacity="0.51" fill="#b6d4ff"/><rect width="166.8" height="13.8" rx="0" ry="0" transform="translate(990.1 815.9)" opacity="0.51" fill="#b6d4ff"/><rect width="166.8" height="13.8" rx="0" ry="0" transform="translate(990.1 792.2)" opacity="0.51" fill="#b6d4ff"/><rect width="166.8" height="13.8" rx="0" ry="0" transform="translate(990.1 768.4)" opacity="0.51" fill="#b6d4ff"/><rect width="166.8" height="13.8" rx="0" ry="0" transform="translate(990.1 744.7)" opacity="0.51" fill="#b6d4ff"/><rect width="24.6" height="13.8" rx="0" ry="0" transform="translate(1061.6 863.3)" fill="#ecf6ff"/><rect width="24.6" height="13.8" rx="0" ry="0" transform="translate(1061.6 839.6)" fill="#ecf6ff"/><rect width="24.6" height="13.8" rx="0" ry="0" transform="translate(1037 863.3)" fill="#ecf6ff"/><rect width="24.6" height="13.8" rx="0" ry="0" transform="translate(1061.2 792.2)" fill="#ecf6ff"/><rect width="24.6" height="13.8" rx="0" ry="0" transform="translate(1001.4 768.4)" fill="#ecf6ff"/><rect width="24.6" height="13.8" rx="0" ry="0" transform="translate(1025.9 768.4)" fill="#ecf6ff"/></g><g><rect width="120" height="169.3" rx="0" ry="0" transform="translate(1939.7 726.4)" fill="#dceeff"/><rect width="134" height="169.3" rx="0" ry="0" transform="translate(1805.7 726.4)" fill="#ecf6ff"/><rect width="132.8" height="33.9" rx="0" ry="0" transform="translate(1950.1 710.8)" fill="#cce3ff"/><rect width="254" height="8.4" rx="0" ry="0" transform="translate(1805.7 744.7)" fill="#b6d4ff"/><rect width="254" height="8.4" rx="0" ry="0" transform="translate(1805.7 759.9)" fill="#cce3ff"/><rect width="254" height="8.4" rx="0" ry="0" transform="translate(1805.7 839.6)" fill="#b6d4ff"/><rect width="254" height="8.4" rx="0" ry="0" transform="translate(1805.7 854.8)" fill="#cce3ff"/><rect width="169.1" height="33.9" rx="0" ry="0" transform="translate(1781 710.8)" fill="#dceeff"/><rect width="132.8" height="57.3" rx="0" ry="0" transform="translate(1950.1 782.4)" fill="#cce3ff"/><rect width="169.1" height="57.3" rx="0" ry="0" transform="translate(1781 782.4)" fill="#dceeff"/></g><line x1="2239.2" y1="897.7" x2="938.8" y2="897.7" fill="#ecf6ff" stroke="#dceeff" stroke-width="20" stroke-linecap="round" stroke-miterlimit="10"/></g><g><g><g><g><path d="M585.6,761.8c-1.9-5.1-12.2-4.3-12.2-18.6c0-21.6,32.5-19.1,34.4-35.3s-19-15.9-19.6-29.6s15.2-42,39.4-42c19,0,3.3,21.8,18.6,31.6s32.9-2.7,41.5,12.6c11.9,21.1-18.6,46.5-15.6,62.7s20.9,12.4,21.5,30.2-25.5,20.9-23,36.2c1.5,9.6,18,6.4,18.9,25.4.7,16.1-55.8,35.9-98.3,3.3s1.6-56.9-5.6-76.5Z" fill="#dceeff"/></g></g><g><g><rect width="4.9" height="177.8" rx="0" ry="0" transform="translate(629.7 719.5)" fill="#ecf6ff"/></g></g><g><g><rect width="19.5" height="3.9" rx="0" ry="0" transform="matrix(.7245-.6892 0.6892 0.7245 646.109896 822.425408)" fill="#ecf6ff"/></g></g><g><g><rect width="19.5" height="3.9" rx="0" ry="0" transform="matrix(.7245-.6892 0.6892 0.7245 642.598787 764.679176)" fill="#ecf6ff"/></g></g><g><g><circle r="38.7" transform="translate(702.2 839.6)" fill="#ecf6ff"/></g></g><g><g><rect width="19.5" height="3.9" rx="0" ry="0" transform="matrix(.7245-.6892 0.6892 0.7245 642.585213 735.786241)" fill="#ecf6ff"/></g></g><g><g><rect width="3.9" height="19.9" rx="0" ry="0" transform="matrix(.7071-.7071 0.7071 0.7071 601.712419 730.115802)" fill="#ecf6ff"/></g></g><g><g><path d="M233.9,797.6c0,32.5,24.1,50.6,55.5,50.6s55.5-18.1,55.5-50.6c0-68.4-35.4-147.2-55.5-147.2s-55.5,78.8-55.5,147.2Z" fill="#dceeff"/></g></g><g><g><rect width="4.9" height="175.3" rx="0" ry="0" transform="translate(286.9 722)" fill="#ecf6ff"/></g></g><g><g><rect width="3.3" height="21.1" rx="0" ry="0" transform="matrix(.7242-.6896 0.6896 0.7242 259.621089 757.443084)" fill="#ecf6ff"/></g></g><g><g><rect width="3.3" height="21.1" rx="0" ry="0" transform="matrix(.7242-.6896 0.6896 0.7242 259.625888 736.638022)" fill="#ecf6ff"/></g></g><g><g><circle r="58.9" transform="translate(359.9 799.6)" fill="#f3faff"/></g></g><g><g><rect width="4.9" height="113.4" rx="0" ry="0" transform="translate(357.4 785.7)" fill="#e3f2ff"/></g></g><g><g><rect width="18.2" height="4.9" rx="0" ry="0" transform="matrix(.7071-.7071 0.7071 0.7071 370.295324 797.493665)" fill="#e3f2ff"/></g></g><g><g><rect width="4.9" height="18.2" rx="0" ry="0" transform="matrix(.7071-.7071 0.7071 0.7071 333.005812 810.231862)" fill="#e3f2ff"/></g></g><g><g><rect width="4.9" height="18.2" rx="0" ry="0" transform="matrix(.7071-.7071 0.7071 0.7071 333.010019 789.130356)" fill="#e3f2ff"/></g></g><g><g><rect width="4.9" height="58" rx="0" ry="0" transform="translate(699.7 839.4)" fill="#dceeff"/></g></g><g><g><rect width="14.1" height="3" rx="0" ry="0" transform="matrix(.713-.7011 0.7011 0.713 709.632618 847.692044)" fill="#dceeff"/></g></g><g><g><rect width="3" height="16" rx="0" ry="0" transform="matrix(.6702-.7422 0.7422 0.6702 681.75626 847.299519)" fill="#dceeff"/></g></g><g><g><path d="M610.8,827.9c0,33.6-22,48.7-48.9,48.7-27,0-48.9-15.1-48.9-48.7c0-62.6,26.7-121.1,48.9-121.1c22.2-.1,48.9,58.4,48.9,121.1Z" fill="#f3faff"/></g></g><g><g><rect width="4.9" height="126.3" rx="0" ry="0" transform="translate(559.4 771)" fill="#dceeff"/></g></g><g><g><rect width="20.9" height="4.9" rx="0" ry="0" transform="matrix(.7071-.7071 0.7071 0.7071 569.296108 841.151443)" fill="#dceeff"/></g></g><g><g><rect width="20.9" height="4.9" rx="0" ry="0" transform="matrix(.7071-.7071 0.7071 0.7071 569.296591 786.9517)" fill="#dceeff"/></g></g><g><g><rect width="4.9" height="21.1" rx="0" ry="0" transform="matrix(.7071-.7071 0.7071 0.7071 533.685886 780.03751)" fill="#dceeff"/></g></g><g><g><path d="M274.8,822.4c0,26.1-12.6,49.7-41.1,49.7s-41.1-23.7-41.1-49.7c0-30.6,21.5-60.9,41.1-60.9s41.1,30.4,41.1,60.9Z" fill="#ecf6ff"/></g></g><g><g><rect width="4.9" height="83.3" rx="0" ry="0" transform="translate(231.2 814)" fill="#dceeff"/></g></g><g><g><rect width="18.4" height="3.3" rx="0" ry="0" transform="matrix(.6651-.7467 0.7467 0.6651 242.09435 826.147299)" fill="#dceeff"/></g></g><g><g><rect width="3.3" height="18.4" rx="0" ry="0" transform="matrix(.7468-.6651 0.6651 0.7468 210.536305 837.826864)" fill="#dceeff"/></g></g><g><g><rect width="3.3" height="18.4" rx="0" ry="0" transform="matrix(.7468-.6651 0.6651 0.7468 210.497425 815.041006)" fill="#dceeff"/></g></g></g><g><g><path d="M346,879.7c-.2.3-4.4,10.3-3.9,19.9h-14.8c-.3-5.2-3.5-8.8-3.5-8.8s6.5-1.2,10.9,6.7c0,.1,3.3-14.1,11.3-17.8Z" fill="#dceeff"/></g><g><path d="M327,879.4c.2.3,5.5,10.3,4.8,19.9h18.3c.3-5.2,4.3-12.7,4.3-12.7s-8.1,2.8-13.5,10.6c0,0-4.1-14.2-13.9-17.8Z" fill="#dceeff"/></g><g><path d="M614,881.5c.2.3,6.5,8.6,7.2,16.3h11c-5.1-10.3-17.9-16.1-18.2-16.3Z" fill="#dceeff"/></g><g><path d="M642.5,885.9c-.1.2-4.6,6.3-5.1,11.9h-7.8c3.6-7.5,12.7-11.8,12.9-11.9Z" fill="#dceeff"/></g><g><path d="M714,886.5c-.1.2-4.6,6.3-5.1,11.9h-7.8c3.6-7.5,12.7-11.8,12.9-11.9Z" fill="#dceeff"/></g><g><path d="M597.2,885.9c-.1.2-4.6,6.3-5.1,11.9h-7.8c3.6-7.5,12.7-11.8,12.9-11.9Z" fill="#dceeff"/></g><g><path d="M675.3,897.8h-11.6c-.1-8.4-4.4-19.3-4.4-19.3s12.8,10.5,16,19.3Z" fill="#dceeff"/></g><g><path d="M678.8,897.8c2.8-6,3-10.8,3-10.8s5.5,6,7.9,10.8h-10.9Z" fill="#dceeff"/></g><g><path d="M201,897.8c2.8-6,3-10.8,3-10.8s5.5,6,7.9,10.8h-10.9Z" fill="#dceeff"/></g><g><path d="M275.7,878.7c.2.3,5.5,10.3,4.8,19.9h18.3c.3-5.2,4.3-12.7,4.3-12.7s-8.1,2.8-13.5,10.6c0,0-4.1-14.2-13.9-17.8Z" fill="#dceeff"/></g><g><path d="M250.2,880.3c-.2.4-4.6,8.1-5.8,17l-17.5,1.8c-1.2-8-3.8-12.4-3.8-12.4s7.3,2.1,11.3,8.4c.1,0,4.6-9.6,15.8-14.8Z" fill="#dceeff"/></g></g><g><g><g><path d="M422.1,748.3h79.1v0c0,10.5-8.5,19-19,19h-41.1c-10.5-.1-19-8.6-19-19v0Z" fill="#b6d4ff"/></g></g><g><g><path d="M422.1,861.1h79.1v0c0,3-2.4,5.5-5.5,5.5h-68.1c-3.1-.1-5.5-2.5-5.5-5.5v0Z" fill="#cce3ff"/></g></g><g><g><path d="M545.9,821.2h-168.6v0c0-10.3,8.4-18.7,18.7-18.7h131.2c10.4.1,18.7,8.4,18.7,18.7v0Z" fill="#d7edff"/></g></g><g><g><path d="M396.5,821.2h130.3v0c0,13.6-11,24.7-24.7,24.7h-80.9c-13.7,0-24.7-11-24.7-24.7v0Z" fill="#b6d4ff"/></g></g><g><g><path d="M501.9,802.6h-80.6c15-.1,27.2-15.9,27.2-35.3h26.3c0,19.4,12.1,35.2,27.1,35.3Z" fill="#cce3ff"/></g></g><g><g><path d="M488,729.3h-52.8c15-.1,19-11.6,19-25.9h14.8c0,14.3,4,25.8,19,25.9Z" fill="#cce3ff"/></g></g><g><g><path d="M513.2,748.3h-103.2v0c0-10.5,8.5-19,19-19h65.3c10.4,0,18.9,8.5,18.9,19v0Z" fill="#d7edff"/></g></g><g><g><polygon points="585.6,898.3 337.6,898.3 336.4,873.5 586.9,873.5" fill="#cce3ff"/></g></g><g><g><path d="M588,873.5h-252.7c-3.9,0-7-3.2-7-7v0h266.7v0c0,3.8-3.2,7-7,7Z" fill="#dceeff"/></g></g><g><g><path d="M339.6,890.3h244.1c3.9,0,7,3.2,7,7v0h-258.2v0c0-3.9,3.2-7,7.1-7Z" fill="#dceeff"/></g></g><g><g><rect width="2.6" height="31.5" rx="0" ry="0" transform="translate(377.2 821.3)" fill="#d9efff"/></g></g><g><g><rect width="2.6" height="7.1" rx="0" ry="0" transform="translate(377.2 857.7)" fill="#d9efff"/></g></g><g><g><rect width="2.6" height="31.5" rx="0" ry="0" transform="translate(390.9 821.3)" fill="#d9efff"/></g></g><g><g><rect width="2.6" height="7.2" rx="0" ry="0" transform="translate(390.9 857.6)" fill="#d9efff"/></g></g><g><g><rect width="2.6" height="7.2" rx="0" ry="0" transform="translate(405.3 846.3)" fill="#d9efff"/></g></g><g><g><rect width="2.6" height="15.1" rx="0" ry="0" transform="translate(432.4 769.4)" fill="#d9efff"/></g></g><g><g><rect width="2.6" height="6.4" rx="0" ry="0" transform="translate(487.6 768.5)" fill="#d9efff"/></g></g><g><g><rect width="2.6" height="22.9" rx="0" ry="0" transform="translate(398.4 839.2)" fill="#d9efff"/></g></g><g><g><rect width="2.6" height="10.3" rx="0" ry="0" transform="translate(384 821.3)" fill="#d9efff"/></g></g><g><g><rect width="2.6" height="25.1" rx="0" ry="0" transform="translate(384 836.9)" fill="#d9efff"/></g></g><g><g><rect width="2.6" height="25.4" rx="0" ry="0" transform="translate(424.7 774.1)" fill="#d9efff"/></g></g><g><g><rect width="2.6" height="7" rx="0" ry="0" transform="translate(424.7 763.8)" fill="#d9efff"/></g></g><g><g><rect width="2.6" height="26.4" rx="0" ry="0" transform="translate(410.1 774.1)" fill="#d9efff"/></g></g><g><g><rect width="2.6" height="7.1" rx="0" ry="0" transform="translate(410.1 763)" fill="#d9efff"/></g></g><g><g><rect width="2.6" height="12" rx="0" ry="0" transform="translate(410.1 748.2)" fill="#d9efff"/></g></g><g><g><rect width="2.6" height="6.5" rx="0" ry="0" transform="translate(417.5 791.9)" fill="#d9efff"/></g></g><g><g><rect width="2.6" height="20.4" rx="0" ry="0" transform="translate(417.5 768.1)" fill="#d9efff"/></g></g><g><g><rect width="2.6" height="16.4" rx="0" ry="0" transform="translate(417.5 748.2)" fill="#d9efff"/></g></g><g><g><rect width="2.6" height="7.4" rx="0" ry="0" transform="translate(522.1 856.6)" fill="#d9efff"/></g></g><g><g><rect width="2.6" height="13.6" rx="0" ry="0" transform="translate(522.1 839.6)" fill="#d9efff"/></g></g><g><g><rect width="2.6" height="14" rx="0" ry="0" transform="translate(536.1 821.2)" fill="#d9efff"/></g></g><g><g><rect width="2.6" height="26.8" rx="0" ry="0" transform="translate(536.1 838.3)" fill="#d9efff"/></g></g><g><g><rect width="2.6" height="20.6" rx="0" ry="0" transform="translate(543.6 821.2)" fill="#d9efff"/></g></g><g><g><rect width="2.6" height="17.3" rx="0" ry="0" transform="translate(543.6 847)" fill="#d9efff"/></g></g><g><g><rect width="2.6" height="10.3" rx="0" ry="0" transform="translate(529 821.2)" fill="#d9efff"/></g></g><g><g><rect width="2.6" height="10.3" rx="0" ry="0" transform="translate(514.9 845.5)" fill="#d9efff"/></g></g><g><g><rect width="2.6" height="27.4" rx="0" ry="0" transform="translate(529 834.9)" fill="#d9efff"/></g></g><g><g><rect width="2.6" height="19.3" rx="0" ry="0" transform="translate(503.2 748)" fill="#d9efff"/></g></g><g><g><rect width="2.6" height="11" rx="0" ry="0" transform="translate(503.2 771.1)" fill="#d9efff"/></g></g><g><g><rect width="2.6" height="11.6" rx="0" ry="0" transform="translate(503.2 785)" fill="#d9efff"/></g></g><g><g><rect width="2.6" height="16.6" rx="0" ry="0" transform="translate(510.6 748)" fill="#d9efff"/></g></g><g><g><rect width="2.6" height="10.3" rx="0" ry="0" transform="translate(510.6 768)" fill="#d9efff"/></g></g><g><g><rect width="2.6" height="16.4" rx="0" ry="0" transform="translate(510.6 782)" fill="#d9efff"/></g></g><g><g><rect width="2.6" height="12.6" rx="0" ry="0" transform="translate(495.8 766.6)" fill="#d9efff"/></g></g><g><g><rect width="2.6" height="15.8" rx="0" ry="0" transform="translate(495.8 782.6)" fill="#d9efff"/></g></g><g><g><rect width="2.6" height="11.9" rx="0" ry="0" transform="translate(426.8 715.1)" fill="#d9efff"/></g></g><g><g><rect width="2.6" height="5.3" rx="0" ry="0" transform="translate(426.8 705.6)" fill="#d9efff"/></g></g><g><g><rect width="2.6" height="18.6" rx="0" ry="0" transform="translate(426.8 683.5)" fill="#d9efff"/></g></g><g><g><rect width="2.6" height="19.9" rx="0" ry="0" transform="translate(433.1 703.9)" fill="#d9efff"/></g></g><g><g><rect width="2.6" height="24.3" rx="0" ry="0" transform="translate(487.3 695.3)" fill="#d9efff"/></g></g><g><g><rect width="2.6" height="5.3" rx="0" ry="0" transform="translate(433.1 694.4)" fill="#d9efff"/></g></g><g><g><path d="M429.4,678.2h-2.6v-12c0-2.8.6-5.4,1.7-7.9l2.4,1.1c-1,2.1-1.5,4.4-1.5,6.8v12Z" fill="#d9efff"/></g></g><g><g><path d="M433.1,655.8l-2-1.7c1-1.2,2.1-2.2,3.3-3.1l1.6,2.1c-1.1.8-2.1,1.7-2.9,2.7Z" fill="#d9efff"/></g></g><g><g><path d="M462.9,678.2h-2.6v-12c0-8.8-6.9-16-15.5-16-2.3,0-4.5.5-6.6,1.5l-1.2-2.4c2.4-1.2,5-1.8,7.7-1.8c10,0,18.1,8.4,18.1,18.6v12.1Z" fill="#d9efff"/></g></g><g><g><rect width="2.6" height="25.7" rx="0" ry="0" transform="translate(493.9 701.3)" fill="#d9efff"/></g></g><g><g><rect width="2.6" height="10.3" rx="0" ry="0" transform="translate(493.9 683.5)" fill="#d9efff"/></g></g><g><g><rect width="2.6" height="10.3" rx="0" ry="0" transform="translate(481.2 702)" fill="#d9efff"/></g></g><g><g><rect width="2.6" height="6.3" rx="0" ry="0" transform="translate(493.9 672.7)" fill="#d9efff"/></g></g><g><g><rect width="2.6" height="6.3" rx="0" ry="0" transform="translate(439.4 701.9)" fill="#d9efff"/></g></g><g><g><path d="M496.5,666.2h-2.6c0-3.3-1-6.5-2.8-9.2l2.2-1.5c2,3.2,3.2,6.9,3.2,10.7Z" fill="#d9efff"/></g></g><g><g><path d="M462.9,678.2h-2.6v-12c0-10.3,8.1-18.6,18.1-18.6c3.7,0,7.3,1.2,10.4,3.4l-1.5,2.1c-2.6-1.9-5.7-2.9-8.8-2.9-8.5,0-15.5,7.2-15.5,16v12Z" fill="#d9efff"/></g></g><g><g><path d="M448.9,680.8h-2.6v-4.6c0-3-2.3-5.4-5.2-5.4-.8,0-1.5.2-2.2.5l-1.2-2.4c1.1-.5,2.2-.8,3.3-.8c4.3,0,7.8,3.6,7.8,8v4.7Z" fill="#d9efff"/></g></g><g><g><path d="M477.5,680.8h-2.6v-4.6c0-4.4,3.5-8,7.8-8c1.6,0,3.2.5,4.5,1.5l-1.5,2.1c-.9-.6-1.9-1-2.9-1-2.8,0-5.2,2.4-5.2,5.4v4.6Z" fill="#d9efff"/></g></g><g><g><path d="M439.5,661.7l-1.2-2.4c1.4-.7,2.9-1.1,4.4-1.2l.2,2.6c-1.1.2-2.3.5-3.4,1Z" fill="#d9efff"/></g></g><g><g><path d="M455.6,678.2h-2.6v-7.7c0-4.1-2.5-7.8-6.3-9.2l.9-2.5c4.8,1.8,8,6.5,8,11.6v7.8Z" fill="#d9efff"/></g></g><g><g><path d="M471.8,664.7l-2.1-1.5c2.3-3.1,5.9-5,9.6-5c2.5,0,4.9.8,6.9,2.3l-1.5,2.1c-1.6-1.2-3.4-1.8-5.4-1.8-2.9,0-5.6,1.4-7.5,3.9Z" fill="#d9efff"/></g></g><g><g><path d="M469.9,678.2h-2.6v-7.7c0-1.3.2-2.6.6-3.9l2.5.8c-.3,1-.5,2-.5,3.1v7.7Z" fill="#d9efff"/></g></g><g><g><path d="M452.1,631.3c-2.2-1.9-4.8-2.9-7.3-2.9v-2.6c3.2,0,6.3,1.2,9,3.5l-1.7,2Z" fill="#d9efff"/></g></g><g><g><path d="M462.9,669.5h-2.6v-17.4c0-6.4-1.7-12.5-4.8-17l2.2-1.5c3.4,5,5.2,11.5,5.2,18.5v17.4Z" fill="#d9efff"/></g></g><g><g><path d="M475.2,628.9l-.8-2.5c1.3-.4,2.6-.6,4-.6v2.6c-1.1,0-2.1.2-3.2.5Z" fill="#d9efff"/></g></g><g><g><path d="M462.9,669.5h-2.6v-17.4c0-9.8,3.7-18.8,9.7-23.3l1.6,2.1c-5.3,4-8.6,12.4-8.6,21.2v17.4Z" fill="#d9efff"/></g></g><g><g><path d="M487.8,690h-52.4v0c0-6.5,5.3-11.8,11.8-11.8h28.8c6.5,0,11.8,5.3,11.8,11.8v0Z" fill="#d7edff"/></g></g><g><g><path d="M491,861.2h-58.8v0c0-8.4,6.8-15.3,15.3-15.3h28.3c8.4,0,15.2,6.8,15.2,15.3v0Z" fill="#b6d4ff"/></g></g><g><g><path d="M440.7,690h41.9v0c0,7.4-6,13.4-13.4,13.4h-15.1c-7.4,0-13.4-6-13.4-13.4v0Z" fill="#b6d4ff"/></g></g><g><g><path d="" fill="#cce3ff"/></g></g><g><g><rect width="168.6" height="4.9" rx="0" ry="0" transform="translate(377.3 818.8)" fill="#cce3ff"/></g></g><g><g><path d="M588.9,885.9h-2.5c-5.3,0-8-1.1-10.5-2-2.3-.9-4.4-1.7-8.7-1.7s-6.4.8-8.7,1.7c-2.4,1-5.2,2-10.5,2s-8-1.1-10.5-2c-2.3-.9-4.4-1.7-8.7-1.7s-6.4.8-8.7,1.7c-2.4,1-5.2,2-10.5,2s-8-1.1-10.5-2c-2.3-.9-4.4-1.7-8.7-1.7s-6.4.8-8.7,1.7c-2.4,1-5.2,2-10.5,2s-8-1.1-10.5-2c-2.3-.9-4.4-1.7-8.7-1.7s-6.4.8-8.7,1.7c-2.4,1-5.2,2-10.5,2s-8-1.1-10.5-2c-2.3-.9-4.4-1.7-8.7-1.7s-6.4.8-8.7,1.7c-2.4,1-5.2,2-10.5,2s-8-1.1-10.5-2c-2.3-.9-4.4-1.7-8.7-1.7s-6.4.8-8.7,1.7c-2.4,1-5.2,2-10.5,2s-8-1.1-10.5-2c-2.3-.9-4.4-1.7-8.7-1.7h-2.5v-4.9h2.5c5.3,0,8,1.1,10.5,2c2.3.9,4.4,1.7,8.7,1.7s6.4-.8,8.7-1.7c2.4-1,5.2-2,10.5-2s8,1.1,10.5,2c2.3.9,4.4,1.7,8.7,1.7s6.4-.8,8.7-1.7c2.4-1,5.2-2,10.5-2s8,1.1,10.5,2c2.3.9,4.4,1.7,8.7,1.7s6.4-.8,8.7-1.7c2.4-1,5.2-2,10.5-2s8,1.1,10.5,2c2.3.9,4.4,1.7,8.7,1.7s6.4-.8,8.7-1.7c2.4-1,5.2-2,10.5-2s8,1.1,10.5,2c2.3.9,4.4,1.7,8.7,1.7s6.4-.8,8.7-1.7c2.4-1,5.2-2,10.5-2s8,1.1,10.5,2c2.3.9,4.4,1.7,8.7,1.7s6.4-.8,8.7-1.7c2.4-1,5.2-2,10.5-2s8,1.1,10.5,2c2.3.9,4.4,1.7,8.7,1.7h2.5v4.9Z" fill="#d9efff"/></g></g><g><g><path d="M544.9,815.7c-5.1,0-7.7-1.2-10.1-2.2-2.2-.9-4.1-1.8-8.1-1.8s-5.9.8-8.1,1.8c-2.4,1-5,2.2-10.1,2.2s-7.7-1.2-10.1-2.2c-2.2-.9-4.1-1.8-8.1-1.8s-5.9.8-8.1,1.8c-2.4,1-5,2.2-10.1,2.2s-7.7-1.2-10.1-2.2c-2.2-.9-4.1-1.8-8.1-1.8s-5.9.8-8.1,1.8c-2.4,1-5,2.2-10.1,2.2s-7.7-1.2-10.1-2.2c-2.2-.9-4.1-1.8-8.1-1.8s-5.9.8-8.1,1.8c-2.4,1-5,2.2-10.1,2.2s-7.7-1.2-10.1-2.2c-2.2-.9-4.1-1.8-8.1-1.8v-4.9c5.1,0,7.7,1.2,10.1,2.2c2.2.9,4.1,1.8,8.1,1.8s5.9-.8,8.1-1.8c2.4-1,5-2.2,10.1-2.2s7.7,1.2,10.1,2.2c2.2.9,4.1,1.8,8.1,1.8s5.9-.8,8.1-1.8c2.4-1,5-2.2,10.1-2.2s7.7,1.2,10.1,2.2c2.2.9,4.1,1.8,8.1,1.8s5.9-.8,8.1-1.8c2.4-1,5-2.2,10.1-2.2s7.7,1.2,10.1,2.2c2.2.9,4.1,1.8,8.1,1.8s5.9-.8,8.1-1.8c2.4-1,5-2.2,10.1-2.2s7.7,1.2,10.1,2.2c2.2.9,4.1,1.8,8.1,1.8v4.9Z" fill="#cce3ff"/></g></g><g><g><rect width="103.2" height="4.9" rx="0" ry="0" transform="translate(410 745.8)" fill="#cce3ff"/></g></g><g><g><path d="M411.7,742.3v-4.9c3.6,0,5.3-.8,7.3-1.6c2.2-1,4.6-2.1,9.3-2.1s7.1,1.1,9.3,2.1c2,.9,3.7,1.6,7.3,1.6s5.3-.8,7.3-1.6c2.2-1,4.6-2.1,9.3-2.1s7.1,1.1,9.3,2.1c2,.9,3.7,1.6,7.3,1.6s5.3-.8,7.3-1.6c2.2-1,4.6-2.1,9.3-2.1s7.1,1.1,9.3,2.1c2,.9,3.7,1.6,7.3,1.6v4.9c-4.7,0-7.1-1.1-9.3-2.1-2-.9-3.7-1.6-7.3-1.6s-5.3.8-7.3,1.6c-2.2,1-4.6,2.1-9.3,2.1s-7.1-1.1-9.3-2.1c-2-.9-3.7-1.6-7.3-1.6s-5.3.8-7.3,1.6c-2.2,1-4.6,2.1-9.3,2.1s-7.1-1.1-9.3-2.1c-2-.9-3.7-1.6-7.3-1.6s-5.3.8-7.3,1.6c-2.2,1-4.6,2.1-9.3,2.1Z" fill="#cce3ff"/></g></g><g><g><rect width="52.4" height="4.9" rx="0" ry="0" transform="translate(435.4 687.5)" fill="#cce3ff"/></g></g></g><g><line x1="749" y1="899.8" x2="174.3" y2="899.8" fill="#ecf6ff"/><path d="M749,903.1h-574.7c-1.8,0-3.3-1.5-3.3-3.3s1.5-3.3,3.3-3.3h574.7c1.8,0,3.3,1.5,3.3,3.3-.1,1.8-1.5,3.3-3.3,3.3Z" fill="#dceeff"/></g></g><g id="e6CRaZ4SkgU486_to" transform="translate(-322.825744,231.972717)"><path d="M28.5,284.9c0,0,18.2-48.8,86.9-51s100.9-52.6,159.1-54.8s80,62.9,156.7,59.6s108.3,46.2,108.3,46.2h-511Z" transform="translate(-284,-231.972717)" clip-rule="evenodd" fill="#fff" fill-rule="evenodd"/></g><g id="e6CRaZ4SkgU487_to" transform="translate(-189.022671,173.100006)"><path d="M1800.4,207.2c0,0,29.6-68.2,76.8-68.2c38.3,0,42.6,48.3,77.7,47.1s52.9-23.2,84.6-23.2c40,0,72.9,44.3,72.9,44.3h-312Z" transform="translate(-1956.399963,-173.100006)" clip-rule="evenodd" fill="#fff" fill-rule="evenodd"/></g><g id="e6CRaZ4SkgU488_to" transform="translate(-228.325695,317.500015)"><path d="M2123.8,353.6h-189c0,0,12.3-47.3,37.8-47.3c16,0,22.4,16.7,37.3,16.7s33.8-41.6,58.1-41.6c38,.1,55.8,72.2,55.8,72.2" transform="translate(-2029.300049,-317.500015)" clip-rule="evenodd" fill="#fff" fill-rule="evenodd"/></g></svg>