<svg id="drone-walk" xmlns="http://www.w3.org/2000/svg" xmlns:xlink="http://www.w3.org/1999/xlink" viewBox="0 0 1201.800000 1012.700000" shape-rendering="geometricPrecision" text-rendering="geometricPrecision" width="1201.800000" height="1012.700000"><style><![CDATA[#drone-walk-path12_tr {animation: drone-walk-path12_tr__tr 6000ms linear infinite normal forwards}@keyframes drone-walk-path12_tr__tr { 0% {transform: translate(334.400000px,839.145767px) rotate(-10deg)} 3.333333% {transform: translate(334.400000px,839.145767px) rotate(10deg)} 6.666667% {transform: translate(334.400000px,839.145767px) rotate(-10deg)} 10% {transform: translate(334.400000px,839.145767px) rotate(10deg)} 13.333333% {transform: translate(334.400000px,839.145767px) rotate(-10deg)} 16.666667% {transform: translate(334.400000px,839.145767px) rotate(10deg)} 20% {transform: translate(334.400000px,839.145767px) rotate(-10deg)} 23.333333% {transform: translate(334.400000px,839.145767px) rotate(10deg)} 26.666667% {transform: translate(334.400000px,839.145767px) rotate(-10deg)} 30% {transform: translate(334.400000px,839.145767px) rotate(10deg)} 33.333333% {transform: translate(334.400000px,839.145767px) rotate(-10deg)} 36.666667% {transform: translate(334.400000px,839.145767px) rotate(10deg)} 40% {transform: translate(334.400000px,839.145767px) rotate(-10deg)} 43.333333% {transform: translate(334.400000px,839.145767px) rotate(10deg)} 46.666667% {transform: translate(334.400000px,839.145767px) rotate(-10deg)} 50% {transform: translate(334.400000px,839.145767px) rotate(10deg)} 53.333333% {transform: translate(334.400000px,839.145767px) rotate(-10deg)} 56.666667% {transform: translate(334.400000px,839.145767px) rotate(10deg)} 60% {transform: translate(334.400000px,839.145767px) rotate(-10deg)} 63.333333% {transform: translate(334.400000px,839.145767px) rotate(10deg)} 66.666667% {transform: translate(334.400000px,839.145767px) rotate(-10deg)} 70% {transform: translate(334.400000px,839.145767px) rotate(10deg)} 73.333333% {transform: translate(334.400000px,839.145767px) rotate(-10deg)} 76.666667% {transform: translate(334.400000px,839.145767px) rotate(10deg)} 80% {transform: translate(334.400000px,839.145767px) rotate(-10deg)} 83.333333% {transform: translate(334.400000px,839.145767px) rotate(10deg)} 86.666667% {transform: translate(334.400000px,839.145767px) rotate(-10deg)} 90% {transform: translate(334.400000px,839.145767px) rotate(10deg)} 93.333333% {transform: translate(334.400000px,839.145767px) rotate(-10deg)} 96.666667% {transform: translate(334.400000px,839.145767px) rotate(10deg)} 100% {transform: translate(334.400000px,839.145767px) rotate(-10deg)} }#drone-walk-g4_to {animation: drone-walk-g4_to__to 6000ms linear infinite normal forwards}@keyframes drone-walk-g4_to__to { 0% {transform: translate(523.299988px,79.050002px)} 5% {transform: translate(497.100000px,145.100000px)} 16.666667% {transform: translate(523.300000px,79.050000px)} 50% {transform: translate(523.299988px,79.050002px)} 60% {transform: translate(478.067863px,214.654717px)} 70% {transform: translate(523.300000px,79.050000px)} 100% {transform: translate(523.300000px,79.050000px)} }]]></style><g id="drone-walk-g1"><path id="drone-walk-path1" d="M154.500000,801.700000L148.600000,797.900000C149.200000,797,208.900000,702.900000,280.600000,575.900000C346.700000,458.800000,436.800000,289,490.500000,145.100000L497.100000,147.500000C467.300000,227.200000,406.700000,366.800000,286.700000,579.300000C214.800000,706.500000,155,800.700000,154.500000,801.700000Z" fill="rgb(36,82,186)" stroke="none" stroke-width="1"/><ellipse id="drone-walk-ellipse1" rx="248.500000" ry="3.600000" transform="matrix(1 0 0 1 269.50000000000000 992.70000000000005)" fill="rgb(175,179,198)" stroke="none" stroke-width="1"/><path id="drone-walk-path2" d="M125.900000,785.600000C120.600000,796.400000,110.400000,802.300000,103.100000,798.700000L122.400000,759.500000C129.700000,763.100000,131.200000,774.800000,125.900000,785.600000Z" fill="rgb(3,36,102)" stroke="none" stroke-width="1"/><path id="drone-walk-path3" d="M135,877.300000C135,877.300000,155.900000,902.200000,153.500000,916.200000C151,930.200000,121.500000,954.400000,121.500000,954.400000L105.500000,983.900000C104.100000,986.400000,104.900000,989.500000,107.300000,991.100000L107.300000,991.100000C112.400000,994.300000,119.100000,992.700000,122.100000,987.500000L133.800000,967.500000L185.700000,923.100000C190.800000,918.700000,193.700000,912.400000,193.700000,905.700000L193.700000,869.200000L135,877.300000Z" fill="rgb(3,36,102)" stroke="none" stroke-width="1"/><path id="drone-walk-path4" d="M371.500000,863.100000C371.800000,886.600000,360.800000,914.400000,355.500000,926.400000L354.400000,925.300000C354.400000,925.300000,354.100000,892.500000,308.600000,887.100000C276.900000,883.300000,259.800000,892.700000,238.700000,899.200000C236.400000,899.900000,234,900.600000,231.600000,901.200000C224.300000,903.100000,216.400000,904.400000,207.200000,904.700000C166.600000,906,140.500000,892,140.500000,892C140.500000,892,136.400000,876.900000,127.800000,862.500000C126.200000,859.800000,124.400000,857.100000,122.400000,854.500000C115.800000,845.800000,107.300000,838.500000,96.800000,836.800000C18.200000,824,13.200000,793,16.400000,776.800000C17.600000,770.600000,20.100000,766.500000,20.100000,766.500000L29.800000,769.200000L89.100000,785.700000C89.100000,785.700000,94.300000,776.600000,106.600000,776.300000C117.600000,776,128.700000,783.600000,145.700000,792.200000C147.600000,793.100000,149.500000,794.100000,151.500000,795C158.300000,798.200000,166,801.400000,175,804.300000C192,809.800000,209,811.300000,226.700000,811.100000C228,811.100000,229.300000,811.100000,230.600000,811C257.800000,810.400000,286.800000,806.200000,320,806.200000C337.400000,806.200000,353.400000,819.300000,362.800000,836C367.700000,844.400000,370.800000,853.900000,371.500000,863.100000Z" fill="rgb(35,85,165)" stroke="none" stroke-width="1"/><path id="drone-walk-path5" d="M119.200000,844.900000C119.200000,844.900000,137,864.200000,129.100000,875.500000C119.500000,889.500000,112.500000,901.800000,110.200000,913.500000C105.900000,934.900000,162.800000,982.200000,162.800000,982.200000C162.800000,982.200000,172.300000,971.600000,159.700000,957.700000L136.600000,921.100000L184,888.900000L119.200000,844.900000Z" fill="rgb(35,85,165)" stroke="none" stroke-width="1"/><circle id="drone-walk-circle1" r="4.700000" transform="matrix(1 0 0 1 100.50000000000000 787.29999999999995)" fill="rgb(255,235,243)" stroke="none" stroke-width="1"/><path id="drone-walk-path6" d="M141.100000,782.400000C132.100000,790.400000,120.400000,792,115,785.900000L147.700000,757C153.100000,763.100000,150.100000,774.400000,141.100000,782.400000Z" fill="rgb(35,85,165)" stroke="none" stroke-width="1"/><path id="drone-walk-path7" d="M406.200000,943.700000L406.200000,986.700000C406.200000,989.900000,402.800000,992.600000,398.700000,992.600000L395.400000,992.600000C393.800000,992.600000,392.500000,991.600000,392.500000,990.300000L392.900000,963.900000C392.900000,960.800000,391.300000,957.900000,388.600000,955.700000L351.100000,926.300000C357.900000,914.300000,371.800000,886.500000,371.500000,863C371.500000,863.400000,374.400000,930.900000,402.800000,938.400000C405.300000,939,406.200000,941.600000,406.200000,943.700000Z" fill="rgb(3,36,102)" stroke="none" stroke-width="1"/><path id="drone-walk-path8" d="M365.400000,894.800000L351.600000,939.200000C351.400000,940,351.400000,940.800000,351.800000,941.600000L361.400000,958.700000C362.300000,960.300000,362.500000,962.200000,361.900000,964L352.700000,990.200000C351.800000,991.900000,350,993,348,993L339.500000,993C337.600000,993,336.300000,991.200000,337,989.600000L345.500000,967.600000C346.600000,964.700000,345.900000,961.400000,343.600000,959.100000L323.600000,939.100000C322.600000,938,322,936.700000,321.700000,935.400000L303.400000,843.300000L365.400000,894.800000Z" fill="rgb(35,85,165)" stroke="none" stroke-width="1"/><path id="drone-walk-path9" d="M29.800000,769.700000C29.800000,774.700000,26.100000,778.700000,21.500000,778.700000C19.600000,778.700000,17.800000,778,16.400000,776.800000C17.600000,770.600000,20.100000,766.500000,20.100000,766.500000L29.800000,769.200000C29.800000,769.400000,29.800000,769.500000,29.800000,769.700000Z" fill="rgb(3,36,102)" stroke="none" stroke-width="1"/><ellipse id="drone-walk-ellipse2" rx="2.900000" ry="8.200000" transform="matrix(1 0 0 1 124.80000000000000 867.89999999999998)" fill="rgb(255,192,0)" stroke="none" stroke-width="1"/><rect id="drone-walk-rect1" width="3.600000" height="16.400000" rx="0" ry="0" transform="matrix(1 0 0 1 121.09999999999999 859.70000000000005)" fill="rgb(255,192,0)" stroke="none" stroke-width="1"/><ellipse id="drone-walk-ellipse3" rx="2.900000" ry="8.200000" transform="matrix(1 0 0 1 121.09999999999999 867.89999999999998)" fill="rgb(219,139,33)" stroke="none" stroke-width="1"/><path id="drone-walk-path10" d="M153.600000,792.100000C137.900000,808.300000,127.500000,834,126.400000,863.200000L120.200000,856.400000C121.900000,828.800000,132.100000,804.600000,147,789C149.100000,790,151.300000,791,153.600000,792.100000Z" fill="rgb(207,62,131)" stroke="none" stroke-width="1"/><g id="drone-walk-g2"><path id="drone-walk-path11" d="M365.300000,749.400000C365.300000,749.400000,382.900000,752.300000,389.300000,764.600000" fill="rgb(255,255,255)" stroke="none" stroke-width="1"/></g><g id="drone-walk-path12_tr" transform="translate(334.400000,839.145767) rotate(-10)"><path id="drone-walk-path12" d="M356.900000,767.800000C359.100000,764.800000,361.700000,761.800000,365.100000,760.300000C368.500000,758.800000,373,759.200000,375.500000,762.100000C378.300000,765.400000,377.400000,770.300000,376.200000,774.400000C369.100000,798.900000,355.500000,821.400000,337.100000,839.100000C336,840.100000,332.900000,824.400000,333.100000,822.600000C333.900000,816.500000,337.400000,812.700000,339.900000,807.400000C346.200000,794.200000,348,780.100000,356.900000,767.800000Z" transform="translate(-334.400000,-839.145767)" fill="rgb(35,85,165)" stroke="none" stroke-width="1"/></g></g><g id="drone-walk-g3"><ellipse id="drone-walk-ellipse4" rx="222.500000" ry="3.600000" transform="matrix(1 0 0 1 954 992.70000000000005)" fill="rgb(175,179,198)" stroke="none" stroke-width="1"/><path id="drone-walk-path13" d="M791,935.200000L780.300000,954C780.300000,954,735.900000,923.200000,709.100000,925.400000L782.900000,993.100000L817.100000,942.300000L791,935.200000Z" fill="rgb(13,11,109)" stroke="none" stroke-width="1"/><polygon id="drone-walk-polygon1" points="1092.800000,912.600000 1119.300000,940 1108.900000,975.800000 1075,993.200000 1127.400000,993.200000 1161.300000,935.200000 1104,887.100000" fill="rgb(13,11,109)" stroke="none" stroke-width="1"/><path id="drone-walk-path14" d="M926.500000,571.800000C926.500000,571.800000,889.900000,501.300000,892.800000,479.200000C895.700000,457,922.100000,419.500000,951,406.300000L982.500000,454L926.500000,571.800000Z" fill="rgb(207,62,131)" stroke="none" stroke-width="1"/><path id="drone-walk-path15" d="M1037.600000,224.600000C1037.600000,224.600000,996.900000,247.900000,1028.800000,272" fill="rgb(13,11,109)" stroke="none" stroke-width="1"/><polygon id="drone-walk-polygon2" points="940,412.500000 950,474.700000 976.800000,431" fill="rgb(163,38,70)" stroke="none" stroke-width="1"/><polygon id="drone-walk-polygon3" points="814.800000,946.400000 800,967.800000 780.300000,954 789.100000,938.300000" fill="rgb(207,62,131)" stroke="none" stroke-width="1"/><polygon id="drone-walk-polygon4" points="1104.500000,887.100000 1137.400000,915.300000 1119.300000,940 1099.500000,919.600000" fill="rgb(207,62,131)" stroke="none" stroke-width="1"/><path id="drone-walk-path16" d="M1009.100000,543.500000C974.300000,731.200000,1137.400000,887.100000,1137.400000,887.100000L1097.500000,937.100000C1097.500000,937.100000,1024.900000,864.800000,972.600000,760.200000C895,605,936.600000,510.900000,936.600000,510.900000L1009.100000,543.500000Z" fill="rgb(16,16,22)" stroke="none" stroke-width="1"/><polygon id="drone-walk-polygon5" points="965.800000,524.400000 778.300000,940.900000 827.100000,965.500000 1047.400000,560.800000" fill="rgb(60,60,66)" stroke="none" stroke-width="1"/><path id="drone-walk-path17" d="M936.500000,510.900000L956.500000,443L938.100000,409.100000C938.100000,409.100000,993.700000,360.500000,1041.400000,373.700000L1078.900000,380.800000C1078.900000,380.800000,1151.300000,390.300000,1170.600000,451.300000L1093.800000,480.300000L1047.300000,560.900000" fill="rgb(219,139,33)" stroke="none" stroke-width="1"/><path id="drone-walk-path18" d="M1170.700000,451.300000L1168.600000,452.100000L1094.800000,481.700000L1092.500000,482.600000L1049.800000,556.500000C1047.500000,557.200000,1045.200000,557.900000,1042.900000,558.600000L936.600000,510.700000L956.600000,442.800000C956.600000,442.800000,961.500000,412,985.700000,389.300000C1002.700000,373.400000,1021.500000,371.500000,1023.300000,371.300000L1023.300000,371.300000C1029.400000,371.200000,1035.500000,371.900000,1041.500000,373.600000L1079,380.700000C1079,380.800000,1151.300000,390.300000,1170.700000,451.300000Z" fill="rgb(255,192,0)" stroke="none" stroke-width="1"/><path id="drone-walk-path19" d="M1049.800000,556.600000L1047.400000,560.800000L1042.900000,558.800000C1045.200000,558,1047.500000,557.300000,1049.800000,556.600000Z" fill="rgb(255,198,39)" stroke="none" stroke-width="1"/><path id="drone-walk-path20" d="M1187.900000,538.300000C1182.900000,594.500000,1017.100000,603.500000,1017.100000,603.500000L1009.100000,566.900000C1021.100000,564.600000,1032.400000,561.800000,1042.800000,558.700000C1045.200000,558,1047.500000,557.300000,1049.700000,556.600000C1093.600000,542.700000,1120.700000,525,1120.700000,525L1094.700000,481.800000L1168.500000,452.200000C1181.200000,475.900000,1190.700000,506.300000,1187.900000,538.300000Z" fill="rgb(229,118,198)" stroke="none" stroke-width="1"/><path id="drone-walk-path21" d="M1109.600000,307.300000C1115.400000,300.700000,1143.300000,301,1141.800000,320.700000C1139.800000,346.100000,1093.300000,340.400000,1093.300000,340.400000L1082.800000,380.600000L1097.400000,385.300000C1097.400000,385.300000,1049.400000,414.400000,1023.100000,405.200000C996.800000,396,1023.300000,371.500000,1023.300000,371.500000L1034.900000,372.400000L1050.800000,333.400000C1050.800000,333.400000,1011.900000,320.500000,1005.700000,313.100000C1005.700000,313.100000,1015.100000,273.800000,1031.800000,250.100000L1074.500000,235.100000L1122.900000,259.700000L1109.600000,307.300000Z" fill="rgb(229,118,198)" stroke="none" stroke-width="1"/><path id="drone-walk-path22" d="M1133.200000,305.700000C1133.200000,305.700000,1161.600000,306,1145.600000,264.900000C1129.600000,223.800000,1098.100000,228.400000,1098.100000,228.400000C1098.100000,228.400000,1103.500000,195.600000,1083.800000,187.500000C1055.700000,175.900000,1033.300000,217.300000,1033.300000,217.300000C1033.300000,217.300000,1036.200000,190.800000,1026.700000,190.800000C1017.300000,190.800000,977.200000,265.900000,1104.500000,274.500000C1104.500000,274.500000,1085.900000,292,1109.600000,307.100000C1109.600000,307.300000,1117.900000,299.900000,1133.200000,305.700000Z" fill="rgb(13,11,109)" stroke="none" stroke-width="1"/><polygon id="drone-walk-polygon6" points="1137.800000,262.200000 1127.500000,250.600000 1141,229.700000 1148.600000,234.700000 1138.700000,249.800000 1140.200000,251.400000 1156.600000,244.600000 1160,252.800000" fill="rgb(3,36,102)" stroke="none" stroke-width="1"/><path id="drone-walk-path23" d="M1019.400000,608.900000C1018.700000,608.500000,1012.200000,605,1008.600000,587.900000C1004.100000,566.500000,1012.800000,559.200000,1013.200000,558.900000L1016.300000,562.800000L1014.700000,560.900000L1016.300000,562.800000C1016.200000,562.900000,1009.700000,568.800000,1013.400000,587C1016.400000,601.600000,1021.500000,604.600000,1021.500000,604.600000L1019.400000,608.900000Z" fill="rgb(15,16,22)" stroke="none" stroke-width="1"/><path id="drone-walk-path24" d="" fill="none" stroke="rgb(191,87,29)" stroke-width="3" stroke-miterlimit="10"/><path id="drone-walk-path25" d="" fill="none" stroke="rgb(191,87,29)" stroke-width="3" stroke-miterlimit="10"/><polygon id="drone-walk-polygon7" points="1050.800000,333.300000 1077.800000,338.300000 1046.200000,344.700000" fill="rgb(207,62,131)" stroke="none" stroke-width="1"/><polygon id="drone-walk-polygon8" points="1038,282.200000 1022.900000,297.400000 1031.900000,301.300000" fill="rgb(64,95,211)" stroke="none" stroke-width="1"/><path id="drone-walk-path26" d="M1033,278C1032,280.900000,1028.800000,282.400000,1025.900000,281.400000C1023,280.400000,1021.500000,277.200000,1022.500000,274.300000L1033,278Z" fill="rgb(13,11,109)" stroke="none" stroke-width="1"/><path id="drone-walk-path27" d="M1057.600000,287.300000C1056.600000,290.200000,1053.400000,291.700000,1050.500000,290.700000C1047.600000,289.700000,1046.100000,286.500000,1047.100000,283.600000L1057.600000,287.300000Z" fill="rgb(13,11,109)" stroke="none" stroke-width="1"/><path id="drone-walk-path28" d="M1031.800000,312.600000C1029.400000,312.600000,1027.200000,311.900000,1025.800000,311.200000L1027.100000,308.500000C1027.400000,308.600000,1033.400000,311.500000,1037.100000,307.300000L1039.400000,309.300000C1037.300000,311.800000,1034.400000,312.600000,1031.800000,312.600000Z" fill="rgb(24,32,132)" stroke="none" stroke-width="1"/><polygon id="drone-walk-polygon9" points="1092.500000,482.700000 1070.600000,449.600000 1080.300000,503.800000" fill="rgb(219,139,33)" stroke="none" stroke-width="1"/><path id="drone-walk-path29" d="" fill="rgb(26,29,33)" stroke="none" stroke-width="1"/></g><g id="drone-walk-g4_to" transform="translate(523.299988,79.050002)"><g id="drone-walk-g4" transform="translate(-523.299988,-79.050002)"><g id="drone-walk-g5"><rect id="drone-walk-rect2" width="401" height="145.300000" rx="0" ry="0" transform="matrix(1 0 0 1 322.80000000000001 6.40000000000001)" fill="rgb(255,255,255)" stroke="none" stroke-width="1"/><rect id="drone-walk-rect3" width="401" height="145.300000" rx="0" ry="0" transform="matrix(1 0 0 1 322.80000000000001 6.40000000000001)" fill="rgb(255,255,255)" stroke="none" stroke-width="1"/></g><path id="drone-walk-path30" d="M487,84.900000L487,84.900000C492.300000,84.900000,496.500000,80.600000,496.500000,75.400000L496.500000,48.600000L477.400000,48.600000L477.400000,75.400000C477.500000,80.600000,481.700000,84.900000,487,84.900000Z" fill="rgb(72,102,229)" stroke="none" stroke-width="1"/><rect id="drone-walk-rect4" width="4" height="21.300000" rx="0" ry="0" transform="matrix(1 0 0 1 485 27.30000000000000)" fill="rgb(108,161,255)" stroke="none" stroke-width="1"/><path id="drone-walk-path31" d="M594.900000,91.200000L594.900000,81.200000C630.500000,81.200000,645.900000,72.700000,652.700000,65.600000C658.300000,59.700000,658.200000,54.200000,658.200000,54.100000L668.200000,53.500000C668.300000,54.500000,668.500000,63.400000,659.900000,72.400000C648.200000,84.900000,626.300000,91.200000,594.900000,91.200000Z" fill="rgb(72,102,229)" stroke="none" stroke-width="1"/><path id="drone-walk-path32" d="M489.400000,151.200000C478.100000,151.200000,467.600000,146.800000,459.800000,138.900000C451.900000,131,447.600000,120.500000,447.600000,109.400000L447.600000,85.300000L457.600000,85.300000L457.600000,109.400000C457.600000,117.900000,460.900000,125.800000,466.900000,131.900000C472.800000,137.900000,480.800000,141.200000,489.400000,141.200000C506.900000,141.200000,521.200000,126.900000,521.200000,109.400000L521.200000,85.300000L531.200000,85.300000L531.200000,109.400000C531.200000,132.500000,512.500000,151.200000,489.400000,151.200000Z" fill="rgb(72,102,229)" stroke="none" stroke-width="1"/><path id="drone-walk-path33" d="M594.700000,109.200000L450.300000,109.200000C437.500000,109.200000,427.100000,98.800000,427.100000,86L427.100000,86C427.100000,73.200000,437.500000,62.800000,450.300000,62.800000L594.700000,62.800000C607.500000,62.800000,617.900000,73.200000,617.900000,86L617.900000,86C617.900000,98.900000,607.500000,109.200000,594.700000,109.200000Z" fill="rgb(48,67,178)" stroke="none" stroke-width="1"/><path id="drone-walk-path34" d="M479.900000,109.200000L450.300000,109.200000C437.500000,109.200000,427.100000,98.800000,427.100000,86L427.100000,86C427.100000,73.200000,437.500000,62.800000,450.300000,62.800000L479.900000,62.800000C492.700000,62.800000,503.100000,73.200000,503.100000,86L503.100000,86C503,98.900000,492.700000,109.200000,479.900000,109.200000Z" fill="rgb(108,161,255)" stroke="none" stroke-width="1"/><path id="drone-walk-path35" d="M549.500000,92.600000L549.500000,81.600000C559,81.600000,566.100000,79.200000,570.700000,74.500000C576.600000,68.400000,576.600000,60.200000,576.600000,60.100000L587.600000,59.800000C587.600000,60.300000,587.900000,72.600000,578.700000,82.100000C572,89.100000,562.200000,92.600000,549.500000,92.600000Z" fill="rgb(108,161,255)" stroke="none" stroke-width="1"/><path id="drone-walk-path36" d="M455.400000,91.100000C422.900000,91.100000,400.300000,84.700000,388.400000,72.100000C380,63.200000,380.200000,54.500000,380.200000,53.500000L385.200000,53.800000L390.200000,54C390.200000,54.200000,390.200000,59.600000,396,65.600000C402.900000,72.700000,418.900000,81.100000,455.400000,81.100000L455.400000,91.100000Z" fill="rgb(72,102,229)" stroke="none" stroke-width="1"/><path id="drone-walk-path37" d="M384.900000,85L384.900000,85C379.600000,85,375.400000,80.700000,375.400000,75.500000L375.400000,48.700000L394.500000,48.700000L394.500000,75.500000C394.500000,80.700000,390.200000,85,384.900000,85Z" fill="rgb(72,102,229)" stroke="none" stroke-width="1"/><path id="drone-walk-path38" d="M583.100000,84.100000L583.100000,84.100000C577.800000,84.100000,573.600000,79.800000,573.600000,74.600000L573.600000,47.800000L592.700000,47.800000L592.700000,74.600000C592.600000,79.800000,588.300000,84.100000,583.100000,84.100000Z" fill="rgb(108,161,255)" stroke="none" stroke-width="1"/><path id="drone-walk-path39" d="M663.200000,85.100000L663.200000,85.100000C657.900000,85.100000,653.700000,80.800000,653.700000,75.600000L653.700000,48.800000L672.700000,48.800000L672.700000,75.600000C672.700000,80.800000,668.400000,85.100000,663.200000,85.100000Z" fill="rgb(72,102,229)" stroke="none" stroke-width="1"/><rect id="drone-walk-rect5" width="4" height="21.200000" rx="0" ry="0" transform="matrix(1 0 0 1 382.50000000000000 27.50000000000000)" fill="rgb(108,161,255)" stroke="none" stroke-width="1"/><rect id="drone-walk-rect6" width="4" height="21.200000" rx="0" ry="0" transform="matrix(1 0 0 1 581.10000000000002 26.60000000000000)" fill="rgb(108,161,255)" stroke="none" stroke-width="1"/><rect id="drone-walk-rect7" width="4" height="21.200000" rx="0" ry="0" transform="matrix(1 0 0 1 661.20000000000005 27.60000000000000)" fill="rgb(108,161,255)" stroke="none" stroke-width="1"/><path id="drone-walk-path40" d="M568.700000,151.700000C556.300000,151.700000,545.200000,147.600000,538.100000,140.400000C530.500000,132.800000,526.900000,126.700000,526.900000,112.900000L526.900000,99.500000L526.900000,99.500000C526.900000,99.500000,527,95.600000,524.700000,93.200000C523.300000,91.700000,521,91,518,91L518,81C525.400000,81,529.800000,84,532.100000,86.400000C537,91.600000,537,98.500000,536.900000,100L536.900000,113C536.900000,124,539.400000,127.700000,545.200000,133.500000C550.400000,138.800000,559,141.800000,568.700000,141.800000C586.200000,141.800000,600.500000,127.500000,600.500000,110L600.500000,95C600.300000,89.300000,595.100000,88.700000,592.900000,88.700000L592.900000,78.700000C605.800000,78.700000,610.500000,88.400000,610.500000,95L610.500000,109.900000C610.500000,133,591.800000,151.700000,568.700000,151.700000Z" fill="rgb(108,161,255)" stroke="none" stroke-width="1"/><ellipse id="drone-walk-ellipse5" rx="4.400000" ry="11" transform="matrix(1 0 0 1 474.39999999999998 85.30000000000000)" fill="rgb(48,67,178)" stroke="none" stroke-width="1"/><rect id="drone-walk-rect8" width="5.500000" height="22.100000" rx="0" ry="0" transform="matrix(1 0 0 1 468.89999999999998 74.30000000000000)" fill="rgb(48,67,178)" stroke="none" stroke-width="1"/><ellipse id="drone-walk-ellipse6" rx="4.400000" ry="11" transform="matrix(1 0 0 1 468.89999999999998 85.30000000000000)" fill="rgb(255,192,0)" stroke="none" stroke-width="1"/><g id="drone-walk-g6"><path id="drone-walk-path41" d="M691.900000,23.300000C685.100000,18.200000,673.300000,15.900000,661.800000,17.500000L661.500000,15.500000C673.400000,13.800000,685.800000,16.300000,693,21.700000L691.900000,23.300000Z" fill="rgb(26,29,33)" stroke="none" stroke-width="1"/><path id="drone-walk-path42" d="M663.200000,27.600000L628.800000,27.600000C628.800000,23.400000,637,19.800000,648.800000,18.200000C655.200000,22.300000,663.200000,27.600000,663.200000,27.600000Z" fill="rgb(207,62,131)" stroke="none" stroke-width="1"/><path id="drone-walk-path43" d="M697.600000,27.600000C697.600000,31.500000,690.600000,34.800000,680.200000,36.600000L663.200000,27.600000L697.600000,27.600000Z" fill="rgb(207,62,131)" stroke="none" stroke-width="1"/><path id="drone-walk-path44" d="M660.600000,40.800000C651.200000,40.800000,642.300000,38.400000,636.600000,34.100000L637.800000,32.500000C644.600000,37.600000,656.400000,39.900000,667.900000,38.300000L668.200000,40.300000C665.700000,40.700000,663.100000,40.800000,660.600000,40.800000Z" fill="rgb(26,29,33)" stroke="none" stroke-width="1"/></g><g id="drone-walk-g7"><path id="drone-walk-path45" d="M515.200000,23.500000C508.400000,18.400000,496.600000,16.100000,485.100000,17.700000L484.800000,15.700000C496.700000,14,509.100000,16.500000,516.300000,21.900000L515.200000,23.500000Z" fill="rgb(26,29,33)" stroke="none" stroke-width="1"/><path id="drone-walk-path46" d="M487,27.300000L452.600000,27.300000C452.600000,23.100000,460.800000,19.500000,472.600000,17.900000C479,22.100000,487,27.300000,487,27.300000Z" fill="rgb(207,62,131)" stroke="none" stroke-width="1"/><path id="drone-walk-path47" d="M521.400000,27.300000C521.400000,31.200000,514.400000,34.500000,504,36.300000L487,27.300000C487,27.300000,521.400000,27.300000,521.400000,27.300000Z" fill="rgb(207,62,131)" stroke="none" stroke-width="1"/><path id="drone-walk-path48" d="M479.800000,41.800000C470.400000,41.800000,461.500000,39.400000,455.800000,35.100000L457,33.500000C463.800000,38.600000,475.600000,40.900000,487.100000,39.300000L487.400000,41.300000C484.900000,41.700000,482.300000,41.800000,479.800000,41.800000Z" fill="rgb(26,29,33)" stroke="none" stroke-width="1"/></g><g id="drone-walk-g8"><path id="drone-walk-path49" d="M350.100000,27.500000L384.500000,27.500000C384.500000,27.500000,376.500000,22.300000,370.100000,18.100000C358.300000,19.700000,350.100000,23.300000,350.100000,27.500000Z" fill="rgb(207,62,131)" stroke="none" stroke-width="1"/><path id="drone-walk-path50" d="M415.500000,21.500000L416.700000,19.900000C409.500000,14.500000,397.100000,12,385.200000,13.700000L385.500000,15.700000C396.900000,14.100000,408.700000,16.400000,415.500000,21.500000Z" fill="rgb(26,29,33)" stroke="none" stroke-width="1"/><path id="drone-walk-path51" d="M384.500000,27.500000L401.500000,36.500000C411.900000,34.700000,418.900000,31.400000,418.900000,27.500000L384.500000,27.500000Z" fill="rgb(207,62,131)" stroke="none" stroke-width="1"/><path id="drone-walk-path52" d="M347.100000,29.800000C346.600000,28.600000,346.800000,27.300000,347.900000,26L346.300000,24.700000C344.400000,27.100000,344.700000,29.200000,345.200000,30.500000C347.300000,35.500000,357.200000,39,365.900000,39.800000L366.100000,37.800000C357,37,348.600000,33.400000,347.100000,29.800000Z" fill="rgb(26,29,33)" stroke="none" stroke-width="1"/></g><g id="drone-walk-g9"><path id="drone-walk-path53" d="M614.100000,21.100000C607.700000,15.600000,596,12.600000,584.400000,13.500000L584.200000,11.500000C596.500000,10.500000,608.400000,13.600000,615.300000,19.500000L614.100000,21.100000Z" fill="rgb(26,29,33)" stroke="none" stroke-width="1"/><path id="drone-walk-path54" d="M583.100000,26.600000L548.700000,26.600000C548.700000,22.400000,556.900000,18.800000,568.700000,17.200000C575.100000,21.300000,583.100000,26.600000,583.100000,26.600000Z" fill="rgb(207,62,131)" stroke="none" stroke-width="1"/><path id="drone-walk-path55" d="M617.500000,26.600000C617.500000,30.500000,610.500000,33.800000,600.100000,35.600000L583.100000,26.600000L617.500000,26.600000Z" fill="rgb(207,62,131)" stroke="none" stroke-width="1"/><path id="drone-walk-path56" d="M562.300000,38.800000C553.600000,38,543.700000,34.500000,541.600000,29.500000C541,28.200000,540.800000,26,542.700000,23.700000L544.300000,25C543.200000,26.300000,543,27.600000,543.500000,28.800000C545,32.500000,553.400000,36,562.500000,36.900000L562.300000,38.800000Z" fill="rgb(26,29,33)" stroke="none" stroke-width="1"/></g></g></g></svg>