<?xml version="1.0" encoding="utf-8"?>
<!-- Generator: Adobe Illustrator 24.3.0, SVG Export Plug-In . SVG Version: 6.00 Build 0)  -->
<svg version="1.1" id="Man" xmlns="http://www.w3.org/2000/svg" xmlns:xlink="http://www.w3.org/1999/xlink" x="0px" y="0px"
	 viewBox="0 0 1201.8 1012.7" style="enable-background:new 0 0 1201.8 1012.7;" xml:space="preserve">
<style type="text/css">
	.st0{fill:#4866E5;}
	.st1{fill:none;stroke:#6CA1FF;stroke-width:4;stroke-miterlimit:10;}
	.st2{fill:none;stroke:#4866E5;stroke-width:10;stroke-miterlimit:10;}
	.st3{fill:#3043B2;}
	.st4{fill:#6CA1FF;}
	.st5{fill:none;stroke:#6CA1FF;stroke-width:11;stroke-miterlimit:10;}
	.st6{fill:#CF3E83;}
	.st7{fill:none;stroke:#1A1D21;stroke-width:2;stroke-miterlimit:10;}
	.st8{fill:none;stroke:#6CA1FF;stroke-width:10;stroke-miterlimit:10;}
	.st9{fill:#FFC000;}
	.st10{fill:none;stroke:#2452BA;stroke-width:7;stroke-linejoin:bevel;stroke-miterlimit:10;}
	.st11{fill:#AFB3C6;}
	.st12{fill:#032466;}
	.st13{fill:#2355A5;}
	.st14{fill:#FFEBF3;}
	.st15{fill:#DB8B21;}
	.st16{fill:#FFFFFF;stroke:#1A1D21;stroke-width:2;stroke-miterlimit:10;}
	.st17{fill:#0D0B6D;}
	.st18{fill:#A32646;}
	.st19{fill:#101016;}
	.st20{fill:#3C3C42;}
	.st21{fill:#FFC627;}
	.st22{fill:#E576C6;}
	.st23{fill:none;stroke:#032466;stroke-width:9;stroke-miterlimit:10;}
	.st24{fill:none;stroke:#0F1016;stroke-width:5;stroke-miterlimit:10;}
	.st25{fill:none;stroke:#BF571D;stroke-width:3;stroke-miterlimit:10;}
	.st26{fill:#405FD3;}
	.st27{fill:none;stroke:#182084;stroke-width:3;stroke-miterlimit:10;}
	.st28{fill:#1A1D21;}
</style>
<g>
	<path class="st0" d="M491.3,85L491.3,85c5.3,0,9.5-4.3,9.5-9.5V48.7h-19.1v26.8C481.8,80.7,486,85,491.3,85z"/>
	<line class="st1" x1="491.3" y1="27.4" x2="491.3" y2="48.7"/>
	<path class="st2" d="M667.5,54c0,0,1.8,32.3-68.3,32.3"/>
	<path class="st2" d="M530.5,85.4v24.1c0,20.3-16.5,36.8-36.8,36.8c-10.2,0-19.4-4.1-26-10.8c-6.7-6.7-10.8-15.9-10.8-26V85.4"/>
	<path class="st3" d="M599,109.3H454.6c-12.8,0-23.2-10.4-23.2-23.2v0c0-12.8,10.4-23.2,23.2-23.2H599c12.8,0,23.2,10.4,23.2,23.2v0
		C622.2,99,611.8,109.3,599,109.3z"/>
	<path class="st4" d="M484.2,109.3h-29.6c-12.8,0-23.2-10.4-23.2-23.2v0c0-12.8,10.4-23.2,23.2-23.2h29.6
		c12.8,0,23.2,10.4,23.2,23.2v0C507.3,99,497,109.3,484.2,109.3z"/>
	<path class="st5" d="M586.4,60.1c0,0,0.9,27.1-32.6,27.1"/>
	<path class="st2" d="M389.5,53.9c0,0-1.8,32.3,70.2,32.3"/>
	<path class="st0" d="M389.2,85.1L389.2,85.1c-5.3,0-9.5-4.3-9.5-9.5V48.8h19.1v26.8C398.8,80.8,394.5,85.1,389.2,85.1z"/>
	<path class="st4" d="M587.4,84.2L587.4,84.2c-5.3,0-9.5-4.3-9.5-9.5V47.9h19.1v26.8C596.9,79.9,592.6,84.2,587.4,84.2z"/>
	<path class="st0" d="M667.5,85.2L667.5,85.2c-5.3,0-9.5-4.3-9.5-9.5V48.9H677v26.8C677,80.9,672.7,85.2,667.5,85.2z"/>
	<line class="st1" x1="388.8" y1="27.6" x2="388.8" y2="48.8"/>
	<path class="st6" d="M388.8,27.6h-34.4c0-4.2,8.2-7.8,20-9.4C380.8,22.4,388.8,27.6,388.8,27.6z"/>
	<path class="st7" d="M420.4,20.8c-7.2-5.4-19.4-7.6-30.8-6"/>
	<path class="st7" d="M520.1,22.8c-7.2-5.4-19.4-7.6-30.8-6"/>
	<path class="st7" d="M619,20.4c-6.9-5.9-18.9-8.7-30.4-7.8"/>
	<path class="st7" d="M696.8,22.6c-7.2-5.4-19.4-7.6-30.8-6"/>
	<path class="st6" d="M423.2,27.6c0,3.9-7,7.2-17.4,9l-17-9H423.2z"/>
	<line class="st1" x1="587.4" y1="26.7" x2="587.4" y2="47.9"/>
	<path class="st6" d="M587.4,26.7H553c0-4.2,8.2-7.8,20-9.4C579.4,21.4,587.4,26.7,587.4,26.7z"/>
	<path class="st6" d="M621.8,26.7c0,3.9-7,7.2-17.4,9l-17-9H621.8z"/>
	<path class="st6" d="M491.3,27.4h-34.4c0-4.2,8.2-7.8,20-9.4C483.3,22.2,491.3,27.4,491.3,27.4z"/>
	<path class="st6" d="M525.7,27.4c0,3.9-7,7.2-17.4,9l-17-9H525.7z"/>
	<line class="st1" x1="667.5" y1="27.7" x2="667.5" y2="48.9"/>
	<path class="st6" d="M667.5,27.7h-34.4c0-4.2,8.2-7.8,20-9.4C659.5,22.4,667.5,27.7,667.5,27.7z"/>
	<path class="st6" d="M701.9,27.7c0,3.9-7,7.2-17.4,9l-17-9H701.9z"/>
	<path class="st8" d="M597.2,83.8c12.6,0,12.6,11.3,12.6,11.3v14.9c0,20.3-16.5,36.8-36.8,36.8c-10.2,0-20.4-3.1-27-9.8
		c-6.7-6.7-9.8-11.6-9.8-24V99.9c0,0,0.9-13.9-13.9-13.9"/>
	<ellipse class="st3" cx="478.7" cy="85.4" rx="4.4" ry="11"/>
	<rect x="473.2" y="74.4" class="st3" width="5.5" height="22.1"/>
	<ellipse class="st9" cx="473.2" cy="85.4" rx="4.4" ry="11"/>
	<path class="st7" d="M641.5,33.4c7.2,5.4,19.4,7.6,30.8,6"/>
	<path class="st7" d="M460.7,34.4c7.2,5.4,19.4,7.6,30.8,6"/>
	<path class="st7" d="M351.4,25.4c-5.4,6.7,7.3,12.4,18.9,13.5"/>
	<path class="st7" d="M547.8,24.4c-5.4,6.7,7.3,12.4,18.9,13.5"/>
</g>
<g>
	<path class="st10" d="M151.5,799.8c0,0,238-374.4,342.2-653.4"/>
	<ellipse class="st11" cx="269.5" cy="992.7" rx="248.5" ry="3.6"/>
	<path class="st12" d="M125.9,785.6c-5.3,10.8-15.5,16.7-22.8,13.1l19.3-39.2C129.7,763.1,131.2,774.8,125.9,785.6z"/>
	<path class="st12" d="M135,877.3c0,0,20.9,24.9,18.5,38.9c-2.5,14-32,38.2-32,38.2l-16,29.5c-1.4,2.5-0.6,5.6,1.8,7.2h0
		c5.1,3.2,11.8,1.6,14.8-3.6l11.7-20l51.9-44.4c5.1-4.4,8-10.7,8-17.4v-36.5L135,877.3z"/>
	<path class="st13" d="M371.5,863.1c0.3,23.5-10.7,51.3-16,63.3l-1.1-1.1c0,0-0.3-32.8-45.8-38.2c-31.7-3.8-48.8,5.6-69.9,12.1
		c-2.3,0.7-4.7,1.4-7.1,2c-7.3,1.9-15.2,3.2-24.4,3.5c-40.6,1.3-66.7-12.7-66.7-12.7s-4.1-15.1-12.7-29.5c-1.6-2.7-3.4-5.4-5.4-8
		c-6.6-8.7-15.1-16-25.6-17.7C18.2,824,13.2,793,16.4,776.8c1.2-6.2,3.7-10.3,3.7-10.3l9.7,2.7l59.3,16.5c0,0,5.2-9.1,17.5-9.4
		c11-0.3,22.1,7.3,39.1,15.9c1.9,0.9,3.8,1.9,5.8,2.8c6.8,3.2,14.5,6.4,23.5,9.3c17,5.5,34,7,51.7,6.8c1.3,0,2.6,0,3.9-0.1
		c27.2-0.6,56.2-4.8,89.4-4.8c17.4,0,33.4,13.1,42.8,29.8C367.7,844.4,370.8,853.9,371.5,863.1z"/>
	<path class="st13" d="M119.2,844.9c0,0,17.8,19.3,9.9,30.6c-9.6,14-16.6,26.3-18.9,38c-4.3,21.4,52.6,68.7,52.6,68.7
		s9.5-10.6-3.1-24.5l-23.1-36.6l47.4-32.2L119.2,844.9z"/>
	<circle class="st14" cx="100.5" cy="787.3" r="4.7"/>
	<path class="st13" d="M141.1,782.4c-9,8-20.7,9.6-26.1,3.5l32.7-28.9C153.1,763.1,150.1,774.4,141.1,782.4z"/>
	<path class="st12" d="M406.2,943.7v43c0,3.2-3.4,5.9-7.5,5.9h-3.3c-1.6,0-2.9-1-2.9-2.3l0.4-26.4c0-3.1-1.6-6-4.3-8.2l-37.5-29.4
		c6.8-12,20.7-39.8,20.4-63.3c0,0.4,2.9,67.9,31.3,75.4C405.3,939,406.2,941.6,406.2,943.7z"/>
	<path class="st13" d="M334.7,810.7c0.7,1.6,22.2,18.2,16.7-1.2c-5.5-19.4-44.3-39.2-44.3-39.2s-3.6-9.3,10-6.9s64.3,17,61.9,57.4
		s-68.9-10.1-68.9-10.1H334.7z"/>
	<path class="st13" d="M365.4,894.8l-13.8,44.4c-0.2,0.8-0.2,1.6,0.2,2.4l9.6,17.1c0.9,1.6,1.1,3.5,0.5,5.3l-9.2,26.2
		c-0.9,1.7-2.7,2.8-4.7,2.8h-8.5c-1.9,0-3.2-1.8-2.5-3.4l8.5-22c1.1-2.9,0.4-6.2-1.9-8.5l-20-20c-1-1.1-1.6-2.4-1.9-3.7l-18.3-92.1
		L365.4,894.8z"/>
	<path class="st12" d="M29.8,769.7c0,5-3.7,9-8.3,9c-1.9,0-3.7-0.7-5.1-1.9c1.2-6.2,3.7-10.3,3.7-10.3l9.7,2.7
		C29.8,769.4,29.8,769.5,29.8,769.7z"/>
	<ellipse class="st9" cx="124.8" cy="867.9" rx="2.9" ry="8.2"/>
	<rect x="121.1" y="859.7" class="st9" width="3.6" height="16.4"/>
	<ellipse class="st15" cx="121.1" cy="867.9" rx="2.9" ry="8.2"/>
	<path class="st6" d="M153.6,792.1c-15.7,16.2-26.1,41.9-27.2,71.1l-6.2-6.8c1.7-27.6,11.9-51.8,26.8-67.4
		C149.1,790,151.3,791,153.6,792.1z"/>
	<path class="st16" d="M344,763c0,0,17.6,2.9,24,15.2"/>
	<path class="st10" d="M494.6,142.2c0,0,36.9,102.6,0,102.6S494.6,142.2,494.6,142.2z"/>
</g>
<g>
	<ellipse class="st11" cx="954" cy="992.7" rx="222.5" ry="3.6"/>
	<path class="st17" d="M791,935.2L780.3,954c0,0-44.4-30.8-71.2-28.6l73.8,67.7l34.2-50.8L791,935.2z"/>
	<polygon class="st17" points="1092.8,912.6 1119.3,940 1108.9,975.8 1075,993.2 1127.4,993.2 1161.3,935.2 1104,887.1 	"/>
	<path class="st6" d="M926.5,571.8c0,0-36.6-70.5-33.7-92.6c2.9-22.2,29.3-59.7,58.2-72.9l31.5,47.7L926.5,571.8z"/>
	<path class="st17" d="M1037.6,224.6c0,0-40.7,23.3-8.8,47.4"/>
	<polygon class="st18" points="940,412.5 950,474.7 976.8,431 	"/>
	<polygon class="st6" points="814.8,946.4 800,967.8 780.3,954 789.1,938.3 	"/>
	<polygon class="st6" points="1104.5,887.1 1137.4,915.3 1119.3,940 1099.5,919.6 	"/>
	<path class="st19" d="M1009.1,543.5c-34.8,187.7,128.3,343.6,128.3,343.6l-39.9,50c0,0-72.6-72.3-124.9-176.9
		c-77.6-155.2-36-249.3-36-249.3L1009.1,543.5z"/>
	<polygon class="st20" points="965.8,524.4 778.3,940.9 827.1,965.5 1047.4,560.8 	"/>
	<path class="st15" d="M936.5,510.9l20-67.9l-18.4-33.9c0,0,55.6-48.6,103.3-35.4l37.5,7.1c0,0,72.4,9.5,91.7,70.5l-76.8,29
		l-46.5,80.6"/>
	<path class="st9" d="M1170.7,451.3l-2.1,0.8l-73.8,29.6l-2.3,0.9l-42.7,73.9c-2.3,0.7-4.6,1.4-6.9,2.1l-106.3-47.9l20-67.9
		c0,0,4.9-30.8,29.1-53.5c17-15.9,35.8-17.8,37.6-18c0,0,0,0,0,0c6.1-0.1,12.2,0.6,18.2,2.3l37.5,7.1
		C1079,380.8,1151.3,390.3,1170.7,451.3z"/>
	<path class="st21" d="M1049.8,556.6l-2.4,4.2l-4.5-2C1045.2,558,1047.5,557.3,1049.8,556.6z"/>
	<path class="st22" d="M1187.9,538.3c-5,56.2-170.8,65.2-170.8,65.2l-8-36.6c12-2.3,23.3-5.1,33.7-8.2c2.4-0.7,4.7-1.4,6.9-2.1
		c43.9-13.9,71-31.6,71-31.6l-26-43.2l73.8-29.6C1181.2,475.9,1190.7,506.3,1187.9,538.3z"/>
	<path class="st22" d="M1109.6,307.3c5.8-6.6,33.7-6.3,32.2,13.4c-2,25.4-48.5,19.7-48.5,19.7l-10.5,40.2l14.6,4.7
		c0,0-48,29.1-74.3,19.9s0.2-33.7,0.2-33.7l11.6,0.9l15.9-39c0,0-38.9-12.9-45.1-20.3c0,0,9.4-39.3,26.1-63l42.7-15l48.4,24.6
		L1109.6,307.3z"/>
	<path class="st17" d="M1133.2,305.7c0,0,28.4,0.3,12.4-40.8s-47.5-36.5-47.5-36.5s5.4-32.8-14.3-40.9
		c-28.1-11.6-50.5,29.8-50.5,29.8s2.9-26.5-6.6-26.5c-9.4,0-49.5,75.1,77.8,83.7c0,0-18.6,17.5,5.1,32.6
		C1109.6,307.3,1117.9,299.9,1133.2,305.7z"/>
	<polyline class="st23" points="1144.8,232.2 1133.1,250.2 1139,256.8 1158.3,248.7 	"/>
	<path class="st24" d="M1014.8,560.7c0,0-7.9,6.4-3.7,26.6c3.4,16.4,9.4,19.3,9.4,19.3"/>
	<path class="st25" d="M1082.3,454.7"/>
	<path class="st25" d="M1097.2,480"/>
	<polygon class="st6" points="1050.8,333.3 1077.8,338.3 1046.2,344.7 	"/>
	<polygon class="st26" points="1038,282.2 1022.9,297.4 1031.9,301.3 	"/>
	<path class="st17" d="M1033,278c-1,2.9-4.2,4.4-7.1,3.4c-2.9-1-4.4-4.2-3.4-7.1L1033,278z"/>
	<path class="st17" d="M1057.6,287.3c-1,2.9-4.2,4.4-7.1,3.4c-2.9-1-4.4-4.2-3.4-7.1L1057.6,287.3z"/>
	<path class="st27" d="M1026.5,309.9c0,0,7.3,3.6,11.8-1.6"/>
	<polygon class="st15" points="1092.5,482.7 1070.6,449.6 1080.3,503.8 	"/>
	<path class="st28" d="M956.8,260.9"/>
</g>
</svg>
