<?xml version="1.0" encoding="utf-8"?>
<!-- Generator: Adobe Illustrator 26.0.3, SVG Export Plug-In . SVG Version: 6.00 Build 0)  -->
<svg version="1.1" id="Layer_1" xmlns="http://www.w3.org/2000/svg" xmlns:xlink="http://www.w3.org/1999/xlink" x="0px" y="0px"
	 viewBox="0 0 500 36.5" style="enable-background:new 0 0 500 36.5;" xml:space="preserve">
<g>
	<path d="M14.8,4.2l-3.5,5.6v5.1H9.3V9.8L5.8,4.2H8l2.3,3.9l2.3-3.9H14.8z"/>
	<path d="M20.2,15c-1,0-2-0.2-2.8-0.7c-0.8-0.4-1.5-1.1-1.9-1.9c-0.5-0.8-0.7-1.8-0.7-2.9s0.2-2.1,0.7-2.9c0.5-0.8,1.1-1.5,1.9-1.9
		c0.8-0.4,1.7-0.7,2.8-0.7c1,0,1.9,0.2,2.8,0.7c0.8,0.4,1.5,1.1,1.9,1.9s0.7,1.8,0.7,2.9s-0.2,2.1-0.7,2.9c-0.5,0.8-1.1,1.5-1.9,1.9
		C22.1,14.8,21.2,15,20.2,15z M17.7,12.2c0.7,0.7,1.5,1,2.5,1c1,0,1.8-0.3,2.5-1c0.7-0.7,1-1.6,1-2.7c0-1.1-0.3-2-1-2.7
		c-0.7-0.7-1.5-1-2.5-1c-0.5,0-0.9,0.1-1.4,0.3c-0.4,0.2-0.8,0.4-1.1,0.7C17.4,7.1,17.1,7.5,17,8c-0.2,0.5-0.3,1-0.3,1.5
		C16.7,10.7,17,11.6,17.7,12.2z"/>
	<path d="M31.7,15c-0.6,0-1.1-0.1-1.6-0.2s-0.9-0.4-1.3-0.7c-0.4-0.3-0.7-0.7-0.9-1.2c-0.2-0.5-0.3-1.1-0.3-1.7v-7h1.9v6.7
		c0,0.8,0.2,1.4,0.6,1.8c0.4,0.4,0.9,0.6,1.6,0.6c0.6,0,1.2-0.2,1.6-0.6c0.4-0.4,0.6-1,0.6-1.8V4.2h1.9v7c0,0.6-0.1,1.2-0.3,1.7
		c-0.2,0.5-0.5,0.9-0.9,1.2c-0.4,0.3-0.8,0.5-1.3,0.7S32.2,15,31.7,15z"/>
	<path d="M44.2,14.9l-2.8-4.7h-1v4.7h-1.9V4.2h3.8c0.6,0,1.1,0.1,1.5,0.2s0.8,0.4,1.1,0.7c0.3,0.3,0.5,0.6,0.6,1s0.2,0.8,0.2,1.2
		c0,0.7-0.2,1.3-0.6,1.7s-1,0.8-1.7,0.9l3.1,4.9H44.2z M40.4,5.8v2.8h1.5c0.6,0,1.1-0.1,1.4-0.4c0.3-0.2,0.4-0.6,0.4-1
		s-0.1-0.8-0.4-1C43,6,42.6,5.8,41.9,5.8H40.4z"/>
	<path d="M7.1,33.2V22.5H9v10.7H7.1z"/>
	<path d="M19.2,22.5h1.9v10.7H19l-5.1-8v8H12V22.5h2.2l5.1,7.9V22.5z"/>
	<path d="M30.8,22.5h2l-3.9,10.7h-2.1l-3.9-10.7h2l2.9,8.4L30.8,22.5z"/>
	<path d="M40.7,24.2h-4.1V27h3.6v1.7h-3.6v2.8h4.1v1.7h-6V22.5h6V24.2z"/>
	<path d="M50.3,22.5h1.9v10.7H50l-5.1-8v8H43V22.5h2.2l5.1,7.9V22.5z"/>
	<path d="M61.2,22.5v1.7h-2.6v9h-1.9v-9H54v-1.7H61.2z"/>
	<path d="M67.2,33.3c-1,0-2-0.2-2.8-0.7c-0.8-0.4-1.5-1.1-1.9-1.9c-0.5-0.8-0.7-1.8-0.7-2.9c0-1.1,0.2-2.1,0.7-2.9
		c0.5-0.8,1.1-1.5,1.9-1.9c0.8-0.4,1.7-0.7,2.8-0.7c1,0,1.9,0.2,2.8,0.7c0.8,0.4,1.5,1.1,1.9,1.9s0.7,1.8,0.7,2.9
		c0,1.1-0.2,2.1-0.7,2.9s-1.1,1.5-1.9,1.9C69.2,33.1,68.2,33.3,67.2,33.3z M64.7,30.5c0.7,0.7,1.5,1,2.5,1s1.8-0.3,2.5-1
		c0.7-0.7,1-1.6,1-2.7c0-1.1-0.3-2-1-2.7s-1.5-1-2.5-1c-0.5,0-0.9,0.1-1.4,0.3s-0.8,0.4-1.1,0.7c-0.3,0.3-0.6,0.7-0.7,1.2
		c-0.2,0.5-0.3,1-0.3,1.5C63.7,29,64.1,29.9,64.7,30.5z"/>
	<path d="M80.5,33.2l-2.8-4.7h-1v4.7h-1.9V22.5h3.8c0.6,0,1.1,0.1,1.5,0.2c0.4,0.2,0.8,0.4,1.1,0.7c0.3,0.3,0.5,0.6,0.6,1
		c0.1,0.4,0.2,0.8,0.2,1.2c0,0.7-0.2,1.3-0.6,1.7c-0.4,0.5-1,0.8-1.7,0.9l3.1,4.9H80.5z M76.8,24.1v2.8h1.5c0.6,0,1.1-0.1,1.4-0.4
		c0.3-0.2,0.4-0.6,0.4-1s-0.1-0.8-0.4-1c-0.3-0.2-0.7-0.4-1.4-0.4H76.8z"/>
	<path d="M91.8,22.5l-3.5,5.6v5.1h-1.9v-5.1l-3.5-5.6H85l2.3,3.9l2.3-3.9H91.8z"/>
</g>
<g>
	<path d="M166,15c-0.8,0-1.5-0.1-2.1-0.4c-0.7-0.3-1.2-0.6-1.7-1.1c-0.5-0.5-0.9-1-1.1-1.7c-0.3-0.7-0.4-1.4-0.4-2.3
		c0-1.1,0.2-2.1,0.7-2.9c0.5-0.8,1.1-1.5,1.9-1.9c0.8-0.4,1.7-0.7,2.8-0.7c1.1,0,2.2,0.3,3,0.8s1.5,1.3,1.9,2.3l-1.8,0.7
		c-0.3-0.6-0.7-1.1-1.2-1.5c-0.6-0.4-1.2-0.5-1.9-0.5c-0.5,0-0.9,0.1-1.4,0.3c-0.4,0.2-0.8,0.4-1.1,0.7c-0.3,0.3-0.6,0.7-0.7,1.2
		c-0.2,0.5-0.3,1-0.3,1.5c0,1.1,0.3,2,1,2.7c0.7,0.7,1.5,1,2.5,1c0.7,0,1.4-0.2,1.9-0.5c0.6-0.4,1-0.8,1.2-1.5l1.8,0.7
		c-0.4,1-1,1.7-1.9,2.3C168.2,14.7,167.2,15,166,15z"/>
	<path d="M180,14.9l-0.8-2.3h-4.6l-0.8,2.3h-2l3.9-10.7h2.4l3.9,10.7H180z M175.1,10.9h3.4l-1.7-4.9L175.1,10.9z"/>
	<path d="M189.4,14.9l-2.8-4.7h-1v4.7h-1.9V4.2h3.8c0.6,0,1.1,0.1,1.5,0.2s0.8,0.4,1.1,0.7c0.3,0.3,0.5,0.6,0.6,1
		c0.1,0.4,0.2,0.8,0.2,1.2c0,0.7-0.2,1.3-0.6,1.7s-1,0.8-1.7,0.9l3.1,4.9H189.4z M185.7,5.8v2.8h1.5c0.6,0,1.1-0.1,1.4-0.4
		c0.3-0.2,0.4-0.6,0.4-1s-0.1-0.8-0.4-1c-0.3-0.2-0.7-0.4-1.4-0.4H185.7z"/>
	<path d="M199.7,5.9h-4.2v2.8h3.6v1.7h-3.6v4.5h-2V4.2h6.1V5.9z"/>
	<path d="M203.6,13.1h3.5v1.7h-5.4V4.2h1.9V13.1z"/>
	<path d="M212.8,15c-0.6,0-1.1-0.1-1.6-0.2s-0.9-0.4-1.3-0.7c-0.4-0.3-0.7-0.7-0.9-1.2c-0.2-0.5-0.3-1.1-0.3-1.7v-7h1.9v6.7
		c0,0.8,0.2,1.4,0.6,1.8s0.9,0.6,1.6,0.6c0.6,0,1.2-0.2,1.6-0.6c0.4-0.4,0.6-1,0.6-1.8V4.2h1.9v7c0,0.6-0.1,1.2-0.3,1.7
		s-0.5,0.9-0.9,1.2c-0.4,0.3-0.8,0.5-1.3,0.7C213.9,14.9,213.3,15,212.8,15z"/>
	<path d="M225.6,5.9h-4.1v2.8h3.6v1.7h-3.6v2.8h4.1v1.7h-6V4.2h6V5.9z"/>
	<path d="M235.2,4.2h1.9v10.7H235l-5.1-8v8H228V4.2h2.2l5.1,7.9V4.2z"/>
	<path d="M246.1,4.2v1.7h-2.6v9h-1.9v-9H239V4.2H246.1z"/>
	<path d="M164.8,33.3c-1.2,0-2.1-0.3-2.9-0.8c-0.8-0.5-1.3-1.3-1.4-2.2l2-0.5c0.1,0.6,0.4,1.1,0.8,1.4c0.4,0.3,1,0.5,1.6,0.5
		c0.5,0,1-0.1,1.3-0.4c0.4-0.2,0.5-0.6,0.5-1.1c0-0.1,0-0.3-0.1-0.4c-0.1-0.1-0.1-0.2-0.2-0.3s-0.2-0.2-0.3-0.3
		c-0.1-0.1-0.3-0.2-0.4-0.2c-0.1-0.1-0.3-0.1-0.5-0.2c-0.2-0.1-0.4-0.1-0.5-0.2c-0.1,0-0.3-0.1-0.6-0.2c0,0-0.1,0-0.1,0
		c-0.3-0.1-0.5-0.2-0.7-0.2c-0.2-0.1-0.4-0.1-0.6-0.2s-0.5-0.2-0.6-0.3c-0.2-0.1-0.3-0.2-0.5-0.4s-0.3-0.3-0.4-0.5
		c-0.1-0.2-0.2-0.4-0.3-0.6s-0.1-0.5-0.1-0.8c0-0.6,0.2-1.2,0.5-1.7c0.3-0.5,0.8-0.8,1.3-1c0.6-0.2,1.2-0.3,1.9-0.3
		c0.5,0,0.9,0.1,1.4,0.2c0.4,0.1,0.8,0.3,1.2,0.5c0.4,0.2,0.7,0.5,1,0.9s0.4,0.8,0.5,1.2l-1.9,0.5c-0.1-0.5-0.4-0.9-0.7-1.2
		s-0.8-0.4-1.4-0.4c-0.5,0-1,0.1-1.3,0.4c-0.4,0.2-0.5,0.6-0.5,1.1c0,0.2,0,0.3,0.1,0.5s0.2,0.3,0.3,0.4s0.3,0.2,0.5,0.3
		s0.4,0.2,0.6,0.2c0.2,0.1,0.4,0.1,0.7,0.2c0,0,0,0,0.1,0c0.4,0.1,0.8,0.2,1,0.3s0.6,0.2,0.9,0.4s0.7,0.4,0.9,0.6s0.4,0.5,0.5,0.8
		c0.2,0.3,0.2,0.7,0.2,1.1c0,0.5-0.1,1-0.3,1.4c-0.2,0.4-0.5,0.7-0.9,1s-0.8,0.4-1.2,0.6C165.8,33.3,165.3,33.3,164.8,33.3z"/>
	<path d="M175.6,33.3c-1,0-2-0.2-2.8-0.7c-0.8-0.4-1.5-1.1-1.9-1.9c-0.5-0.8-0.7-1.8-0.7-2.9c0-1.1,0.2-2.1,0.7-2.9
		c0.5-0.8,1.1-1.5,1.9-1.9c0.8-0.4,1.7-0.7,2.8-0.7c1,0,1.9,0.2,2.8,0.7c0.8,0.4,1.5,1.1,1.9,1.9s0.7,1.8,0.7,2.9
		c0,1.1-0.2,2.1-0.7,2.9s-1.1,1.5-1.9,1.9C177.6,33.1,176.6,33.3,175.6,33.3z M173.1,30.5c0.7,0.7,1.5,1,2.5,1s1.8-0.3,2.5-1
		c0.7-0.7,1-1.6,1-2.7c0-1.1-0.3-2-1-2.7s-1.5-1-2.5-1c-0.5,0-0.9,0.1-1.4,0.3s-0.8,0.4-1.1,0.7c-0.3,0.3-0.6,0.7-0.7,1.2
		c-0.2,0.5-0.3,1-0.3,1.5C172.1,29,172.4,29.9,173.1,30.5z"/>
	<path d="M189.3,24.2h-4.2V27h3.6v1.7h-3.6v4.5h-2V22.5h6.1V24.2z"/>
	<path d="M197.4,22.5v1.7h-2.6v9h-1.9v-9h-2.6v-1.7H197.4z"/>
	<path d="M201,33.2l-2.9-10.7h2l2.2,8.3l2.5-8.3h1.7l2.5,8.3l2.2-8.3h2l-2.9,10.7h-2.4l-2.2-7.1l-2.2,7.1H201z"/>
	<path d="M221.5,33.2l-0.8-2.3H216l-0.8,2.3h-2l3.9-10.7h2.4l3.9,10.7H221.5z M216.6,29.2h3.4l-1.7-4.9L216.6,29.2z"/>
	<path d="M230.9,33.2l-2.8-4.7h-1v4.7h-1.9V22.5h3.8c0.6,0,1.1,0.1,1.5,0.2c0.4,0.2,0.8,0.4,1.1,0.7s0.5,0.6,0.6,1
		c0.1,0.4,0.2,0.8,0.2,1.2c0,0.7-0.2,1.3-0.6,1.7s-1,0.8-1.7,0.9l3.1,4.9H230.9z M227.2,24.1v2.8h1.5c0.6,0,1.1-0.1,1.4-0.4
		c0.3-0.2,0.4-0.6,0.4-1s-0.1-0.8-0.4-1c-0.3-0.2-0.7-0.4-1.4-0.4H227.2z"/>
	<path d="M241,24.2H237V27h3.6v1.7H237v2.8h4.1v1.7h-6V22.5h6V24.2z"/>
</g>
<g>
	<path d="M327.4,9.3c1.4,0.4,2,1.2,2,2.7c0,0.9-0.3,1.6-0.8,2.2c-0.6,0.5-1.4,0.8-2.4,0.8h-4.3V4.2h3.4c1.1,0,1.9,0.3,2.5,0.8
		c0.6,0.5,0.9,1.2,0.9,2.1c0,0.5-0.1,0.9-0.3,1.3S327.9,9,327.4,9.3z M325.3,5.8h-1.5v2.8h1.7c0.5,0,0.8-0.1,1.1-0.4
		c0.3-0.3,0.4-0.6,0.4-1c0-0.4-0.1-0.7-0.4-1C326.2,6,325.9,5.8,325.3,5.8z M325.9,13.2c0.6,0,1-0.1,1.3-0.4
		c0.3-0.3,0.4-0.6,0.4-1.1c0-0.4-0.1-0.8-0.4-1.1c-0.3-0.3-0.7-0.4-1.3-0.4h-2v3H325.9z"/>
	<path d="M337.7,5.9h-4.1v2.8h3.6v1.7h-3.6v2.8h4.1v1.7h-6V4.2h6V5.9z"/>
	<path d="M347.1,14.9l-0.8-2.3h-4.6l-0.8,2.3h-2l3.9-10.7h2.4l3.9,10.7H347.1z M342.3,10.9h3.4L344,6.1L342.3,10.9z"/>
	<path d="M354.5,15c-0.6,0-1.1-0.1-1.6-0.2c-0.5-0.2-0.9-0.4-1.3-0.7c-0.4-0.3-0.7-0.7-0.9-1.2c-0.2-0.5-0.3-1.1-0.3-1.7v-7h1.9v6.7
		c0,0.8,0.2,1.4,0.6,1.8c0.4,0.4,0.9,0.6,1.6,0.6c0.6,0,1.2-0.2,1.6-0.6c0.4-0.4,0.6-1,0.6-1.8V4.2h1.9v7c0,0.6-0.1,1.2-0.3,1.7
		c-0.2,0.5-0.5,0.9-0.9,1.2c-0.4,0.3-0.8,0.5-1.3,0.7S355.1,15,354.5,15z"/>
	<path d="M367.3,4.2v1.7h-2.6v9h-1.9v-9h-2.6V4.2H367.3z"/>
	<path d="M369.1,14.9V4.2h1.9v10.7H369.1z"/>
	<path d="M380.1,5.9H376v2.8h3.6v1.7H376v4.5h-2V4.2h6.1V5.9z"/>
	<path d="M386,15c-0.6,0-1.1-0.1-1.6-0.2c-0.5-0.2-0.9-0.4-1.3-0.7c-0.4-0.3-0.7-0.7-0.9-1.2c-0.2-0.5-0.3-1.1-0.3-1.7v-7h1.9v6.7
		c0,0.8,0.2,1.4,0.6,1.8c0.4,0.4,0.9,0.6,1.6,0.6c0.6,0,1.2-0.2,1.6-0.6c0.4-0.4,0.6-1,0.6-1.8V4.2h1.9v7c0,0.6-0.1,1.2-0.3,1.7
		c-0.2,0.5-0.5,0.9-0.9,1.2c-0.4,0.3-0.8,0.5-1.3,0.7S386.6,15,386,15z"/>
	<path d="M394.8,13.1h3.5v1.7h-5.4V4.2h1.9V13.1z"/>
	<path d="M402,13.1h3.5v1.7h-5.4V4.2h1.9V13.1z"/>
	<path d="M414,4.2l-3.5,5.6v5.1h-1.9V9.8L405,4.2h2.2l2.3,3.9l2.3-3.9H414z"/>
	<path d="M425.1,9.3c1.4,0.4,2,1.2,2,2.7c0,0.9-0.3,1.6-0.8,2.2c-0.6,0.5-1.4,0.8-2.4,0.8h-4.3V4.2h3.4c1.1,0,1.9,0.3,2.5,0.8
		c0.6,0.5,0.9,1.2,0.9,2.1c0,0.5-0.1,0.9-0.3,1.3C425.9,8.8,425.5,9,425.1,9.3z M423,5.8h-1.5v2.8h1.7c0.5,0,0.8-0.1,1.1-0.4
		c0.3-0.3,0.4-0.6,0.4-1c0-0.4-0.1-0.7-0.4-1S423.5,5.8,423,5.8z M423.6,13.2c0.6,0,1-0.1,1.3-0.4c0.3-0.3,0.4-0.6,0.4-1.1
		c0-0.4-0.1-0.8-0.4-1.1c-0.3-0.3-0.7-0.4-1.3-0.4h-2v3H423.6z"/>
	<path d="M429.3,14.9V4.2h1.9v10.7H429.3z"/>
	<path d="M436.1,13.1h3.5v1.7h-5.4V4.2h1.9V13.1z"/>
	<path d="M441.4,14.9V4.2h1.9v10.7H441.4z"/>
	<path d="M453.6,4.2h1.9v10.7h-2.2l-5.1-8v8h-1.9V4.2h2.2l5.1,7.9V4.2z"/>
	<path d="M463,15c-1,0-1.9-0.2-2.7-0.7c-0.8-0.4-1.4-1.1-1.9-1.9c-0.5-0.8-0.7-1.8-0.7-2.9c0-1.1,0.2-2.1,0.7-2.9s1.1-1.5,1.9-1.9
		c0.8-0.4,1.7-0.7,2.8-0.7c1,0,1.9,0.2,2.7,0.6c0.8,0.4,1.4,1.1,1.9,1.9l-1.7,0.9c-0.3-0.6-0.7-1-1.2-1.3c-0.5-0.3-1.1-0.4-1.7-0.4
		c-1,0-1.8,0.3-2.5,1s-1,1.6-1,2.8c0,1.2,0.3,2.1,1,2.8c0.6,0.7,1.5,1,2.6,1c0.8,0,1.5-0.2,2.1-0.6c0.6-0.4,0.9-1.1,1.1-1.9h-3.1
		V9.2h5v5.7h-1.5v-1.7c-0.4,0.6-0.8,1-1.4,1.3C464.6,14.9,463.9,15,463,15z"/>
	<path d="M474.5,15c-0.6,0-1.1-0.1-1.6-0.2c-0.5-0.2-0.9-0.4-1.3-0.7c-0.4-0.3-0.7-0.7-0.9-1.2c-0.2-0.5-0.3-1.1-0.3-1.7v-7h1.9v6.7
		c0,0.8,0.2,1.4,0.6,1.8c0.4,0.4,0.9,0.6,1.6,0.6c0.6,0,1.2-0.2,1.6-0.6c0.4-0.4,0.6-1,0.6-1.8V4.2h1.9v7c0,0.6-0.1,1.2-0.3,1.7
		c-0.2,0.5-0.5,0.9-0.9,1.2c-0.4,0.3-0.8,0.5-1.3,0.7S475.1,15,474.5,15z"/>
	<path d="M488.2,14.9l-0.8-2.3h-4.6l-0.8,2.3h-2l3.9-10.7h2.4l3.9,10.7H488.2z M483.3,10.9h3.4L485,6.1L483.3,10.9z"/>
	<path d="M493.8,13.1h3.5v1.7h-5.4V4.2h1.9V13.1z"/>
	<path d="M329,33.2l-0.8-2.3h-4.6l-0.8,2.3h-2l3.9-10.7h2.4l3.9,10.7H329z M324.2,29.2h3.4l-1.7-4.9L324.2,29.2z"/>
	<path d="M336.4,33.3c-0.6,0-1.1-0.1-1.6-0.2c-0.5-0.2-0.9-0.4-1.3-0.7s-0.7-0.7-0.9-1.2c-0.2-0.5-0.3-1.1-0.3-1.7v-7h1.9v6.7
		c0,0.8,0.2,1.4,0.6,1.8c0.4,0.4,0.9,0.6,1.6,0.6c0.6,0,1.2-0.2,1.6-0.6c0.4-0.4,0.6-1,0.6-1.8v-6.7h1.9v7c0,0.6-0.1,1.2-0.3,1.7
		c-0.2,0.5-0.5,0.9-0.9,1.2c-0.4,0.3-0.8,0.5-1.3,0.7S337,33.3,336.4,33.3z"/>
	<path d="M349.2,22.5v1.7h-2.6v9h-1.9v-9h-2.6v-1.7H349.2z"/>
	<path d="M355.3,33.3c-1,0-2-0.2-2.8-0.7s-1.5-1.1-1.9-1.9c-0.5-0.8-0.7-1.8-0.7-2.9c0-1.1,0.2-2.1,0.7-2.9c0.5-0.8,1.1-1.5,1.9-1.9
		s1.7-0.7,2.8-0.7c1,0,1.9,0.2,2.8,0.7s1.5,1.1,1.9,1.9c0.5,0.8,0.7,1.8,0.7,2.9c0,1.1-0.2,2.1-0.7,2.9c-0.5,0.8-1.1,1.5-1.9,1.9
		S356.3,33.3,355.3,33.3z M352.8,30.5c0.7,0.7,1.5,1,2.5,1c1,0,1.8-0.3,2.5-1c0.7-0.7,1-1.6,1-2.7c0-1.1-0.3-2-1-2.7s-1.5-1-2.5-1
		c-0.5,0-0.9,0.1-1.4,0.3s-0.8,0.4-1.1,0.7c-0.3,0.3-0.6,0.7-0.7,1.2s-0.3,1-0.3,1.5C351.8,29,352.1,29.9,352.8,30.5z"/>
	<path d="M368.8,31.5h3.5v1.7h-5.4V22.5h1.9V31.5z"/>
	<path d="M374.1,33.2V22.5h1.9v10.7H374.1z"/>
	<path d="M382.4,33.3c-1.2,0-2.1-0.3-2.9-0.8c-0.8-0.5-1.3-1.3-1.4-2.2l2-0.5c0.1,0.6,0.4,1.1,0.8,1.4c0.4,0.3,1,0.5,1.6,0.5
		c0.5,0,1-0.1,1.3-0.4c0.4-0.2,0.5-0.6,0.5-1.1c0-0.1,0-0.3-0.1-0.4c-0.1-0.1-0.1-0.2-0.2-0.3c-0.1-0.1-0.2-0.2-0.3-0.3
		c-0.1-0.1-0.3-0.2-0.4-0.2c-0.1-0.1-0.3-0.1-0.5-0.2c-0.2-0.1-0.4-0.1-0.5-0.2c-0.1,0-0.3-0.1-0.6-0.2c0,0-0.1,0-0.1,0
		c-0.3-0.1-0.5-0.2-0.7-0.2c-0.2-0.1-0.4-0.1-0.6-0.2s-0.5-0.2-0.6-0.3c-0.2-0.1-0.3-0.2-0.5-0.4c-0.2-0.2-0.3-0.3-0.4-0.5
		c-0.1-0.2-0.2-0.4-0.3-0.6s-0.1-0.5-0.1-0.8c0-0.6,0.2-1.2,0.5-1.7c0.3-0.5,0.8-0.8,1.3-1s1.2-0.3,1.9-0.3c0.5,0,0.9,0.1,1.4,0.2
		c0.4,0.1,0.8,0.3,1.2,0.5c0.4,0.2,0.7,0.5,1,0.9c0.3,0.4,0.4,0.8,0.5,1.2l-1.9,0.5c-0.1-0.5-0.4-0.9-0.7-1.2s-0.8-0.4-1.4-0.4
		c-0.5,0-1,0.1-1.3,0.4c-0.4,0.2-0.5,0.6-0.5,1.1c0,0.2,0,0.3,0.1,0.5s0.2,0.3,0.3,0.4c0.1,0.1,0.3,0.2,0.5,0.3s0.4,0.2,0.6,0.2
		c0.2,0.1,0.4,0.1,0.7,0.2c0,0,0,0,0.1,0c0.4,0.1,0.8,0.2,1,0.3s0.6,0.2,0.9,0.4s0.7,0.4,0.9,0.6s0.4,0.5,0.5,0.8s0.2,0.7,0.2,1.1
		c0,0.5-0.1,1-0.3,1.4s-0.5,0.7-0.9,1s-0.8,0.4-1.2,0.6C383.4,33.3,382.9,33.3,382.4,33.3z"/>
	<path d="M394.5,22.5v1.7h-2.6v9H390v-9h-2.6v-1.7H394.5z"/>
	<path d="M396.3,33.2V22.5h1.9v10.7H396.3z"/>
	<path d="M408.4,22.5h1.9v10.7h-2.2l-5.1-8v8h-1.9V22.5h2.2l5.1,7.9V22.5z"/>
	<path d="M417.9,33.3c-1,0-1.9-0.2-2.7-0.7c-0.8-0.4-1.4-1.1-1.9-1.9c-0.5-0.8-0.7-1.8-0.7-2.9c0-1.1,0.2-2.1,0.7-2.9
		c0.5-0.8,1.1-1.5,1.9-1.9s1.7-0.7,2.8-0.7c1,0,1.9,0.2,2.7,0.6c0.8,0.4,1.4,1.1,1.9,1.9l-1.7,0.9c-0.3-0.6-0.7-1-1.2-1.3
		s-1.1-0.4-1.7-0.4c-1,0-1.8,0.3-2.5,1s-1,1.6-1,2.8c0,1.2,0.3,2.1,1,2.8c0.6,0.7,1.5,1,2.6,1c0.8,0,1.5-0.2,2.1-0.6
		c0.6-0.4,0.9-1.1,1.1-1.9H418v-1.6h5v5.7h-1.5v-1.7c-0.4,0.6-0.8,1-1.4,1.3S418.7,33.3,417.9,33.3z"/>
	<path d="M429,33.3c-1.2,0-2.1-0.3-2.9-0.8c-0.8-0.5-1.3-1.3-1.4-2.2l2-0.5c0.1,0.6,0.4,1.1,0.8,1.4c0.4,0.3,1,0.5,1.6,0.5
		c0.5,0,1-0.1,1.3-0.4c0.4-0.2,0.5-0.6,0.5-1.1c0-0.1,0-0.3-0.1-0.4c-0.1-0.1-0.1-0.2-0.2-0.3c-0.1-0.1-0.2-0.2-0.3-0.3
		c-0.1-0.1-0.3-0.2-0.4-0.2c-0.1-0.1-0.3-0.1-0.5-0.2c-0.2-0.1-0.4-0.1-0.5-0.2c-0.1,0-0.3-0.1-0.6-0.2c0,0-0.1,0-0.1,0
		c-0.3-0.1-0.5-0.2-0.7-0.2s-0.4-0.1-0.6-0.2c-0.3-0.1-0.5-0.2-0.6-0.3c-0.2-0.1-0.3-0.2-0.5-0.4c-0.2-0.2-0.3-0.3-0.4-0.5
		c-0.1-0.2-0.2-0.4-0.3-0.6c-0.1-0.2-0.1-0.5-0.1-0.8c0-0.6,0.2-1.2,0.5-1.7c0.3-0.5,0.8-0.8,1.3-1s1.2-0.3,1.9-0.3
		c0.5,0,0.9,0.1,1.4,0.2c0.4,0.1,0.8,0.3,1.2,0.5c0.4,0.2,0.7,0.5,1,0.9c0.3,0.4,0.4,0.8,0.5,1.2l-1.9,0.5c-0.1-0.5-0.4-0.9-0.7-1.2
		s-0.8-0.4-1.4-0.4c-0.5,0-1,0.1-1.3,0.4c-0.4,0.2-0.5,0.6-0.5,1.1c0,0.2,0,0.3,0.1,0.5s0.2,0.3,0.3,0.4c0.1,0.1,0.3,0.2,0.5,0.3
		c0.2,0.1,0.4,0.2,0.6,0.2c0.2,0.1,0.4,0.1,0.7,0.2c0,0,0,0,0.1,0c0.4,0.1,0.8,0.2,1,0.3s0.6,0.2,0.9,0.4c0.4,0.2,0.7,0.4,0.9,0.6
		c0.2,0.2,0.4,0.5,0.5,0.8c0.2,0.3,0.2,0.7,0.2,1.1c0,0.5-0.1,1-0.3,1.4s-0.5,0.7-0.9,1c-0.4,0.2-0.8,0.4-1.2,0.6
		C430,33.3,429.5,33.3,429,33.3z"/>
</g>
<g>
	<path d="M277.3,14.9v-3.1h13.6v3.1H277.3z M277.3,21.8v-3.1h13.6v3.1H277.3z"/>
</g>
<g>
	<path d="M120.4,24.8v-6.3h-6.3v-3.1h6.3V9h3.1v6.3h6.3v3.1h-6.3v6.3H120.4z"/>
</g>
</svg>
