<?xml version="1.0" encoding="utf-8"?>
<!-- Generator: Adobe Illustrator 26.0.3, SVG Export Plug-In . SVG Version: 6.00 Build 0)  -->
<svg version="1.1" id="Layer_1" xmlns="http://www.w3.org/2000/svg" xmlns:xlink="http://www.w3.org/1999/xlink" x="0px" y="0px"
	 viewBox="0 0 2400 1250" style="enable-background:new 0 0 2400 1250;" xml:space="preserve">
<style type="text/css">
	.st0{fill:#ECF3FA;}
	.st1{fill:#CCE3FF;}
	.st2{fill:#DCEEFF;}
	.st3{fill:url(#SVGID_1_);}
	.st4{fill:url(#SVGID_00000129925809513228670750000002766931722838784154_);}
	.st5{fill:#B6D4FF;}
	.st6{fill:#ECF6FF;}
	.st7{fill:none;stroke:#B6D4FF;stroke-width:28;stroke-linecap:round;stroke-miterlimit:10;}
</style>
<rect x="-1.4" y="3.4" class="st0" width="2400" height="1242.5"/>
<g>
	<circle class="st1" cx="1944" cy="210.4" r="36.6"/>
	<circle class="st1" cx="922.5" cy="595.1" r="36.6"/>
	<circle class="st2" cx="748.7" cy="210.4" r="36.6"/>
	<circle class="st2" cx="2311.8" cy="544.1" r="36.6"/>
	<g>
		<path class="st1" d="M1561.2,811c0,1.8,0.1,3.5,0.4,5.2c2.3,16.3,15.3,29.1,31.7,31.1c1.5,0.2,3,0.3,4.5,0.3
			c20.2,0,36.6-16.4,36.6-36.5c0-8.5-2.9-16.4-7.8-22.6c-6.7-8.5-17-13.9-28.6-13.9h-0.1C1577.5,774.5,1561.2,790.8,1561.2,811z"/>
		<path class="st2" d="M1561.5,816.2c2.3,16.3,15.3,29.1,31.7,31.1c0.6-2.1,0.9-4.3,0.9-6.6c0-14.1-11.4-25.5-25.5-25.5
			C1566.1,815.2,1563.8,815.5,1561.5,816.2z"/>
		<path class="st2" d="M1597.7,776.5c0,3,0.8,5.7,2.1,8.1c1.7,3,4.2,5.4,7.3,6.9c2.2,1.1,4.8,1.8,7.5,1.8c4.6,0,8.8-1.9,11.9-4.9
			c-6.7-8.5-17-13.9-28.6-13.9C1597.8,775.1,1597.7,775.8,1597.7,776.5z"/>
		<circle class="st2" cx="1600.6" cy="791.1" r="6.5"/>
	</g>
	<g>
		
			<linearGradient id="SVGID_1_" gradientUnits="userSpaceOnUse" x1="457.27" y1="745.0303" x2="962.3818" y2="745.0303" gradientTransform="matrix(-0.9282 0.3721 0.3721 0.9282 2093.1487 -362.7207)">
			<stop  offset="0" style="stop-color:#DCEEFF;stop-opacity:0"/>
			<stop  offset="1" style="stop-color:#DCEEFF"/>
		</linearGradient>
		<polygon class="st3" points="1957.1,526.8 1488.2,714.8 1465.9,659 1934.7,471.1 		"/>
		
			<linearGradient id="SVGID_00000135668947488138042350000007860073425811408011_" gradientUnits="userSpaceOnUse" x1="759.1558" y1="610.9341" x2="1179.7087" y2="610.9341" gradientTransform="matrix(-0.9282 0.3721 0.3721 0.9282 2093.1487 -362.7207)">
			<stop  offset="0" style="stop-color:#DCEEFF;stop-opacity:0"/>
			<stop  offset="1" style="stop-color:#DCEEFF"/>
		</linearGradient>
		<polygon style="fill:url(#SVGID_00000135668947488138042350000007860073425811408011_);" points="1624.9,509.6 1234.6,666.1 
			1216.3,620.5 1606.7,464 		"/>
		<circle class="st2" cx="1225.4" cy="643.3" r="24.5"/>
		<circle class="st2" cx="1477.1" cy="686.9" r="30"/>
		<circle class="st5" cx="1477.1" cy="686.9" r="17.3"/>
		<circle class="st5" cx="1225.4" cy="643.3" r="13.2"/>
	</g>
	<g>
		<ellipse class="st2" cx="1953.6" cy="643.7" rx="12.5" ry="38"/>
		<circle class="st1" cx="2176" cy="725.1" r="9"/>
		<circle class="st1" cx="1767.8" cy="704.2" r="9"/>
		<circle class="st5" cx="1855.3" cy="408.9" r="15.3"/>
		<circle class="st2" cx="1733" cy="182.8" r="9"/>
		<circle class="st2" cx="1953.6" cy="273.7" r="9"/>
		<circle class="st2" cx="2328.8" cy="188.5" r="9"/>
		<circle class="st2" cx="794.2" cy="161.4" r="9"/>
		<circle class="st2" cx="687.2" cy="317" r="9"/>
		<circle class="st2" cx="1155.4" cy="440.9" r="9"/>
		<circle class="st2" cx="1126.3" cy="179.4" r="9"/>
		<circle class="st1" cx="739.6" cy="732.9" r="9"/>
		<ellipse class="st6" cx="1588.7" cy="188.5" rx="15" ry="45.5"/>
		<ellipse class="st6" cx="1117.3" cy="741.9" rx="18.1" ry="55"/>
		<ellipse class="st2" cx="1831.5" cy="847.6" rx="16.7" ry="50.6"/>
		<ellipse class="st2" cx="701.4" cy="538.7" rx="14.2" ry="43.1"/>
		<circle class="st2" cx="1402.2" cy="878.4" r="7.7"/>
		<circle class="st2" cx="1507" cy="338.9" r="10.9"/>
		<circle class="st1" cx="1674.2" cy="284.1" r="6.7"/>
		<circle class="st2" cx="1403.9" cy="199.2" r="19.8"/>
		<circle class="st5" cx="876" cy="886.1" r="10"/>
		<circle class="st5" cx="2014.6" cy="864.4" r="6.3"/>
		<circle class="st5" cx="1340.7" cy="471.9" r="6.3"/>
		<circle class="st2" cx="1614.9" cy="538.7" r="6.3"/>
		<circle class="st2" cx="1823.8" cy="430.9" r="6.3"/>
		<circle class="st2" cx="2311.8" cy="770.6" r="6.3"/>
		<circle class="st2" cx="1888.4" cy="538.7" r="6.3"/>
		<circle class="st2" cx="2159.3" cy="581.8" r="7.6"/>
	</g>
	<g>
		<circle class="st2" cx="2153" cy="284.9" r="158.8"/>
		<circle class="st6" cx="2093.4" cy="194.1" r="24"/>
		<circle class="st6" cx="2093.5" cy="245.2" r="9.6"/>
		<circle class="st6" cx="2200.7" cy="371.7" r="9.6"/>
		<path class="st1" d="M2252.7,311.4c-49.6,40.3-89.6-21.2-89.6-21.2c68.6,21,87.5-44.7,7.9-70.8c-49.4-16.2-43.8-60.9-32.3-92.5
			c84.7-7.8,161,52.9,171.9,137.9c3.6,27.8-0.3,54.9-10,79.2c-3.3-4.6-5.9-9.1-7.2-12.8C2287.5,315,2289,281.9,2252.7,311.4z"/>
		<path class="st1" d="M2173.2,442.4c-87,11.2-166.5-50.3-177.7-137.3c-3.1-24.3-0.6-48.1,6.6-69.9c5.2,8.5,15.4,16.6,34.8,5.9
			c33-18.2,39.8,32.7,13,50.6c-15.1,10.1-28.4,28.5-9.8,42c20.5,14.8,55.7-50.3,88.2-26.4c43.7,32.1-32.9,80.3-3.7,94.7
			c18.3,9,31.4-16.2,31.4-16.2s39.9,37.2,76.1,6.2c12-10.3,28.7-11.5,37.5,0.6C2245.3,419.1,2211.8,437.5,2173.2,442.4z"/>
	</g>
	<g>
		<circle class="st2" cx="986.9" cy="338.9" r="159.5"/>
		<path class="st6" d="M827.4,335.2c34.2,6.8,119.2,18.5,185.9-15.1c62.6-31.5,68.8-62.1,99.1-79.6c-5-6.4-10.5-12.4-16.4-17.9
			c-31.7,1.5-84.1,10.5-136.9,47.6c-44.9,31.5-93.1,37.4-128.4,36.2C828.7,315.7,827.6,325.4,827.4,335.2z"/>
		<path class="st6" d="M1037.4,347.1c2.3,0.9,45.7,17.5,108.9-7.3c0-9.2-0.7-18.5-2.3-27.9c-1.9-10.9-4.8-21.4-8.7-31.3
			C1112.8,304.8,1061.6,355.9,1037.4,347.1z"/>
		<path class="st6" d="M838,396.3c6.5,16.9,15.8,32.3,27.1,45.7c39.8-14.8,115.4-37.7,172.2-24.7c31.8,7.3,61.2,7.8,85,5.7
			c7.9-12.7,14-26.6,18.1-41.1c-34.2-0.5-99.3-3.4-153.6-18.1C931.2,348.6,877.4,381.2,838,396.3z"/>
		<path class="st6" d="M892.5,467.4c6.9,5.1,14.3,9.6,22,13.5c39.2-15.8,89.5-32.8,116.6-28C1027.7,452.2,971.2,440.8,892.5,467.4z"
			/>
		<path class="st6" d="M841.5,273.2c30.5-2.1,93.6-12.1,144.4-57.8c28-25.1-22.6-20.2-93.2-5.3C870.4,226.4,852.8,248.2,841.5,273.2
			z"/>
		<path class="st6" d="M968.9,497.4c14.6,1.7,29.7,1.3,45-1.3c34.3-5.9,64.1-22.3,86.7-45.4C1072.9,452.5,1017.4,460.8,968.9,497.4z
			"/>
		<path class="st6" d="M1021.3,210.3c5.1-0.5,25.7-2.8,41.5-11.7c-8.2-4.4-16.8-8.2-25.7-11.2C1031.4,198.5,1025.1,209,1021.3,210.3
			z"/>
		<path class="st6" d="M1020.1,210.4c0.4,0.1,0.7,0.1,1.2-0.1C1020.5,210.4,1020.1,210.4,1020.1,210.4z"/>
		<path class="st7" d="M786.7,341c-69,22.2-111.6,45.3-108.6,62.6c5.2,30.2,148.5,30.8,320.1,1.3c171.6-29.5,306.5-77.9,301.3-108.1
			c-3-17.7-53.5-25.2-129.2-22.5"/>
	</g>
</g>
</svg>
