<?xml version="1.0" encoding="utf-8"?>
<!-- Generator: Adobe Illustrator 24.3.0, SVG Export Plug-In . SVG Version: 6.00 Build 0)  -->
<svg version="1.1" xmlns="http://www.w3.org/2000/svg" xmlns:xlink="http://www.w3.org/1999/xlink" x="0px" y="0px"
	 viewBox="0 0 1798.2 927.3" style="enable-background:new 0 0 1798.2 927.3;" xml:space="preserve">
<style type="text/css">
	.st0{fill:#CCE3FF;}
	.st1{fill:none;stroke:#ECF6FF;stroke-width:15;stroke-linecap:square;stroke-miterlimit:10;}
	.st2{fill:none;stroke:#ECF6FF;stroke-width:10;stroke-linecap:square;stroke-miterlimit:10;}
	.st3{fill:#ECF6FF;}
	.st4{fill:none;stroke:#B6D4FF;stroke-width:15;stroke-linecap:square;stroke-miterlimit:10;}
	.st5{fill:none;stroke:#B6D4FF;stroke-width:12;stroke-linecap:square;stroke-miterlimit:10;}
	.st6{fill:none;stroke:#CCE3FF;stroke-width:15;stroke-linecap:square;stroke-miterlimit:10;}
	.st7{fill:none;stroke:#CCE3FF;stroke-width:10;stroke-linecap:square;stroke-miterlimit:10;}
	.st8{fill:#DCEEFF;}
	.st9{fill:none;stroke:#DCEEFF;stroke-width:15;stroke-linecap:square;stroke-miterlimit:10;}
	.st10{fill:none;stroke:#DCEEFF;stroke-width:9;stroke-linecap:square;stroke-miterlimit:10;}
	.st11{fill:none;stroke:#ECF6FF;stroke-width:12;stroke-linecap:square;stroke-miterlimit:10;}
	.st12{fill:none;stroke:#B6D4FF;stroke-width:9;stroke-linecap:square;stroke-miterlimit:10;}
	.st13{fill:#B6D4FF;}
	.st14{fill:none;stroke:#DCEEFF;stroke-width:10;stroke-linecap:square;stroke-miterlimit:10;}
	.st15{fill:#ECF6FF;stroke:#DCEEFF;stroke-width:20;stroke-linecap:round;stroke-miterlimit:10;}
	.st16{fill:#262933;}
	.st17{fill:#606A75;}
	.st18{fill:#FFFFFF;}
	.st19{fill:none;stroke:#CF3E83;stroke-width:22;stroke-linecap:round;stroke-miterlimit:10;}
	.st20{fill:none;stroke:#202033;stroke-width:4;stroke-miterlimit:10;}
	.st21{fill:#D8E0E5;}
	.st22{clip-path:url(#SVGID_2_);fill:#FFFFFF;}
	.st23{clip-path:url(#SVGID_2_);fill:#ECF6FF;}
	.st24{clip-path:url(#SVGID_2_);fill:#DCE8EF;}
	.st25{clip-path:url(#SVGID_2_);fill:none;stroke:#CFD8E2;stroke-width:5;stroke-miterlimit:10;}
	.st26{clip-path:url(#SVGID_2_);fill:#D1DCE0;}
	.st27{fill:#0D0B6D;}
	.st28{fill:#CF3E83;}
	.st29{fill:#240040;}
	.st30{fill:#FFC000;}
	.st31{fill:#E576C6;}
	.st32{fill:none;stroke:#032466;stroke-width:9;stroke-miterlimit:10;}
	.st33{fill:#405FD3;}
	.st34{fill:none;stroke:#182084;stroke-width:3;stroke-miterlimit:10;}
	.st35{fill:#C6661E;}
	.st36{fill:none;stroke:#C14999;stroke-width:2;stroke-linecap:round;stroke-miterlimit:10;}
</style>
<g id="Back">
	<g>
		<path class="st0" d="M1635.6,556.7c0,114.5-74.8,178.4-172.1,178.4c-97.4,0-172.1-63.9-172.1-178.4
			c0-241.2,109.9-519.2,172.1-519.2S1635.6,315.6,1635.6,556.7z"/>
		<line class="st1" x1="1463.5" y1="386.4" x2="1463.5" y2="915"/>
		<line class="st2" x1="1510.7" y1="658.3" x2="1548.8" y2="620.2"/>
		<line class="st2" x1="1510.7" y1="443.7" x2="1548.8" y2="405.7"/>
	</g>
	<g>
		<circle class="st3" cx="1172.2" cy="497.1" r="238"/>
		<line class="st4" x1="1172.2" y1="450.9" x2="1172.2" y2="915"/>
		<line class="st5" x1="1228.6" y1="659.2" x2="1266.7" y2="621.1"/>
		<line class="st5" x1="1228.6" y1="488.6" x2="1266.7" y2="450.5"/>
		<line class="st5" x1="1115.8" y1="577.8" x2="1077.7" y2="539.7"/>
		<line class="st5" x1="1115.8" y1="492.4" x2="1077.7" y2="454.4"/>
	</g>
	<g>
		<path class="st3" d="M841.5,689.4c0,113.3-74,164.2-164.9,164.2c-90.9,0-164.9-50.9-164.9-164.2c0-211.1,90-408.2,164.9-408.2
			C751.6,281.3,841.5,478.4,841.5,689.4z"/>
		<line class="st6" x1="676.6" y1="506" x2="676.6" y2="915"/>
		<line class="st7" x1="713.6" y1="734.1" x2="751.6" y2="696"/>
		<line class="st7" x1="713.6" y1="551.5" x2="751.6" y2="513.4"/>
		<line class="st7" x1="645.7" y1="734.1" x2="607.1" y2="695.6"/>
		<line class="st7" x1="642.9" y1="644" x2="604.4" y2="605.4"/>
	</g>
	<path class="st0" d="M1387,912.8L957.9,915c-24.5-31.1-81.5-109-58.6-132.1c15.1-15.1,60.4,33.6,72.6,19
		c12.2-14.6-68-105.7-47.7-118.6c35.9-22.6,151.5,139.8,166.4,126.7c15.7-13.7-58-109.2-32-119.4c30.2-11.8,110.3,134.3,133.4,119.4
		c12.1-7.8-11.4-55.4,6.1-63.6c30.4-14.2,81.2,123.3,102.8,111.1c10.2-5.8-1.3-25.7,14-30.6C1333.7,821,1371.4,884.6,1387,912.8z"/>
	<path class="st0" d="M1591.5,857.8c-0.6,0.8-19.7,26.3-22.1,49.7h-33.5C1551.7,876.1,1590.6,858.2,1591.5,857.8z"/>
	<path class="st8" d="M104.2,862c0.6,0.8,19.7,26.3,22.1,49.7h33.5C144,880.2,105.1,862.4,104.2,862z"/>
	<path class="st8" d="M832.3,862.7c0.6,0.8,19.7,26.3,22.1,49.7h33.5C872.1,881,833.2,863.1,832.3,862.7z"/>
	<path class="st8" d="M1701.6,878.3c-0.4,0.6-10.1,13.5-16.6,29.2h-24.2C1678.5,888.9,1701,878.6,1701.6,878.3z"/>
	<path class="st8" d="M318.7,911.7h-35.5C283,886.2,270,853,270,853S308.9,884.8,318.7,911.7z"/>
	<path class="st8" d="M329.4,911.7c8.6-18.2,9.1-32.8,9.1-32.8s16.8,18.3,24,32.8H329.4z"/>
	<path class="st8" d="M1475.9,763.4c-0.5,1.5-28.2,77.9-30.9,144.1h-44.7c2.7-29.9-10.7-66-10.7-66s23.8,18.3,29.9,44.3
		C1419.6,885.8,1438.1,802.8,1475.9,763.4z"/>
	<path class="st8" d="M1516,845.2c0,0-26.2,34.7-33.1,62.3h-24.3C1466.8,890.5,1486.8,855.9,1516,845.2z"/>
	<g>
		<path class="st3" d="M1727.2,746.7c0,58.2-27.7,111-90.5,111c-62.7,0-90.5-52.8-90.5-111c0-68.2,47.4-136.1,90.5-136.1
			S1727.2,678.4,1727.2,746.7z"/>
		<line class="st9" x1="1636.7" y1="741.2" x2="1636.7" y2="915"/>
		<line class="st10" x1="1668" y1="760.7" x2="1693.9" y2="735.2"/>
		<line class="st10" x1="1608.4" y1="787.4" x2="1576.7" y2="758.7"/>
	</g>
	<g>
		<path class="st0" d="M202.7,476.1c-6.3-19-41-15.7-41-68.6c0-79.6,109.6-70.5,116-130.4s-63.9-58.5-66.1-109.1
			c-2.2-50.6,51.4-154.9,132.6-154.9c64.1,0,11,80.5,62.7,116.5s110.7-10.1,140,46.5c40.2,78-62.7,171.6-52.5,231.4
			s70.5,45.6,72.3,111.3c1.8,65.7-85.8,77.2-77.5,133.6c5.2,35.5,60.7,23.6,63.6,93.7c2.5,59.3-188.1,132.6-331.3,12
			S226.9,548.4,202.7,476.1z"/>
		<line class="st1" x1="359.5" y1="332.5" x2="359.5" y2="915"/>
		<line class="st11" x1="416" y1="705" x2="454.1" y2="666.9"/>
		<line class="st11" x1="404.4" y1="500.4" x2="442.5" y2="462.4"/>
		<line class="st11" x1="404.4" y1="398.1" x2="442.5" y2="360.1"/>
		<line class="st11" x1="304.6" y1="398.1" x2="266.5" y2="360.1"/>
	</g>
	<path class="st12" d="M512.6,909.3c0,0-33.8-76.1-84.9-112.3"/>
	<path class="st12" d="M529.6,911.7c0,0-5.5-115.1,36.3-157.3"/>
	<circle class="st13" cx="560.1" cy="754.3" r="25.8"/>
	<circle class="st13" cx="437.4" cy="808" r="25.8"/>
	<path class="st12" d="M994.7,905.3c0,0-3.9-52.1,25.2-113.1"/>
	<path class="st12" d="M978.4,910.6c0,0-25-109.3-89.7-162.7"/>
	<circle class="st13" cx="887.9" cy="741.2" r="25.8"/>
	<circle class="st13" cx="1027" cy="773" r="25.8"/>
	<path class="st0" d="M618.6,782.9c-0.8,1.1-53.5,70.3-54.9,124.5h-42.6C526.9,889.8,551.6,825.2,618.6,782.9z"/>
	<path class="st0" d="M498.3,907.5h-33.9c-6.7-25.5-27-41.4-27-41.4S477.7,874,498.3,907.5z"/>
	<path class="st8" d="M1121.4,840.3c0.7,0.9,16.6,37.5,14.7,72.1h55.9c1.1-18.9,13.1-46,13.1-46s-24.6,10-41.3,38.4
		C1163.8,904.8,1151.2,853.5,1121.4,840.3z"/>
	<path class="st8" d="M1033.8,856.7c-0.7,1.3-14.1,24.6-17.7,51.9l-53.3,5.5c-3.6-24.2-11.5-37.7-11.5-37.7s22.4,6.5,34.3,25.5
		C985.7,901.8,999.5,872.5,1033.8,856.7z"/>
	<g>
		<path class="st3" d="M323.3,670.9c0,92.7-38.4,177-125.2,177s-125.2-84.2-125.2-177c0-108.8,65.6-217,125.2-217
			S323.3,562.1,323.3,670.9z"/>
		<line class="st9" x1="198.1" y1="650.9" x2="198.1" y2="915"/>
		<line class="st14" x1="234.5" y1="683.1" x2="268.4" y2="645.1"/>
		<line class="st14" x1="161.7" y1="761.3" x2="127.8" y2="723.3"/>
		<line class="st14" x1="161.7" y1="684.7" x2="127.8" y2="646.6"/>
	</g>
	<line class="st15" x1="1775.1" y1="915" x2="23.7" y2="915"/>
</g>
<g id="Woman_phone">
	<g>
		<path class="st16" d="M1125.3,861.8h278.8c15.6,0,28.7-11.8,30.3-27.3l63-612c1.8-18-12.2-33.6-30.3-33.6h-278.8
			c-15.6,0-28.7,11.8-30.3,27.3l-63,612C1093.2,846.2,1107.3,861.8,1125.3,861.8z"/>
		<path class="st17" d="M1462.3,222.4l-63,612c-1.6,15.5-14.7,27.3-30.3,27.3h-278.8c-18.1,0-32.1-15.6-30.3-33.6l63-612
			c1.6-15.5,14.7-27.3,30.3-27.3H1432C1450.1,188.9,1464.2,204.5,1462.3,222.4z"/>
		<path class="st18" d="M1104,836.7h253.8c10.6,0,19.5-8,20.6-18.6l60-583.3c1.3-12.2-8.3-22.8-20.6-22.8H1164
			c-10.6,0-19.5,8-20.6,18.6l-60,583.3C1082.2,826.1,1091.7,836.7,1104,836.7z"/>
		<path class="st17" d="M1378.1,192.3l-3.3,32.4c-1.1,10.8-10.2,19-21,19h-121c-12.5,0-22.3-10.8-21-23.3l2.9-28.1H1378.1z"/>
		<path d="M1315.3,222.3h-54.1c-2.2,0-4.1-1.8-4.1-4.1v0c0-2.2,1.8-4.1,4.1-4.1h54.1c2.2,0,4.1,1.8,4.1,4.1v0
			C1319.4,220.4,1317.6,222.3,1315.3,222.3z"/>
		<circle cx="1334.5" cy="218.2" r="6.8"/>
		<path class="st3" d="M1405.8,320.5l-18.3,178c-0.8,8.2-7.7,14.4-15.9,14.4h-215c-9.5,0-16.9-8.2-15.9-17.6l18.3-178
			c0.8-8.2,7.7-14.4,15.9-14.4l215-0.1C1399.4,302.9,1406.8,311.1,1405.8,320.5z"/>
		<path class="st3" d="M1374,622.7l-18.3,178c-0.8,8.2-7.7,14.4-15.9,14.4h-215c-9.5,0-16.9-8.2-15.9-17.6l18.3-178
			c0.8-8.2,7.7-14.4,15.9-14.4l215-0.1C1367.5,605,1375,613.2,1374,622.7z"/>
		<polyline class="st19" points="1150.5,545.4 1158,557.1 1169.8,545.4 		"/>
		<line class="st20" x1="1139.1" y1="531.5" x2="1132.2" y2="524.5"/>
		<line class="st20" x1="1132.6" y1="549.6" x2="1122.8" y2="549.6"/>
		<line class="st20" x1="1140.3" y1="567.8" x2="1133.4" y2="574.7"/>
		<circle class="st21" cx="1166.4" cy="229" r="8.2"/>
		<circle class="st21" cx="1188.9" cy="229" r="8.2"/>
		<circle class="st21" cx="1416.3" cy="229" r="8.2"/>
	</g>
</g>
<g id="Man_phone">
	<g>
		<path class="st16" d="M703.3,868.9H424.5c-15.6,0-28.7-11.8-30.3-27.3l-63-612c-1.8-18,12.2-33.6,30.3-33.6h278.8
			c15.6,0,28.7,11.8,30.3,27.3l63,612C735.5,853.3,721.4,868.9,703.3,868.9z"/>
		<path class="st17" d="M738.4,868.9H459.6c-15.6,0-28.7-11.8-30.3-27.3l-63-612c-1.8-17.9,12.2-33.6,30.3-33.6h278.8
			c15.6,0,28.7,11.8,30.3,27.3l63,612C770.5,853.3,756.4,868.9,738.4,868.9z"/>
		<g id="screen_mask">
			<defs>
				<path id="SVGID_1_" d="M726.2,825.1H471.1c-10.7,0-19.6-8-20.7-18.7L392,238.5c-1.3-12.2,8.3-22.9,20.7-22.9h61.7
					c8.7,0,15.9,6.6,16.8,15.2l1.1,10.4c1,10.2,9.6,17.9,19.9,17.9h69.3c9.2,0,16.4-8,15.5-17.2l-1-9.9c-0.9-8.8,6-16.4,14.8-16.4
					h57.1c10.7,0,19.6,8,20.7,18.6l58.4,567.9C748.1,814.4,738.5,825.1,726.2,825.1z"/>
			</defs>
			<clipPath id="SVGID_2_">
				<use xlink:href="#SVGID_1_"  style="overflow:visible;"/>
			</clipPath>
			<rect x="331.1" y="181.8" class="st22" width="463.4" height="700.9"/>
			<path class="st23" d="M466.1,704.6l18.3,178c0.8,8.2,7.7,14.4,15.9,14.4h215c9.5,0,16.9-8.2,15.9-17.6l-18.3-178
				c-0.8-8.2-7.7-14.4-15.9-14.4L482,687C472.5,687,465.1,695.2,466.1,704.6z"/>
			<path class="st23" d="M435.1,401.4l18.3,178c0.8,8.2,7.7,14.4,15.9,14.4h215c9.5,0,16.9-8.2,15.9-17.6l-18.3-178
				c-0.8-8.2-7.7-14.4-15.9-14.4l-215-0.1C441.5,383.7,434.1,391.9,435.1,401.4z"/>
			<path class="st23" d="M403.1,97.9l18.3,178c0.8,8.2,7.7,14.4,15.9,14.4h215c9.5,0,16.9-8.2,15.9-17.6l-18.3-178
				c-0.8-8.2-7.7-14.4-15.9-14.4l-215-0.1C409.6,80.2,402.2,88.4,403.1,97.9z"/>
			<path class="st24" d="M586.4,776.2c-19.3,20.4-51.4,21.4-71.9,2.1c-20.4-19.3-21.4-51.4-2.1-71.9"/>
			<path class="st24" d="M626.4,839.9c-26.4-23.9-28.5-64.6-4.7-91.1c23.9-26.4,64.6-28.5,91.1-4.7"/>
			<path class="st24" d="M664.5,414.1c0,34-16.2,64.9-52.9,64.9c-36.7,0-52.9-30.9-52.9-64.9c0-10.4,1.9-20.7,5.1-30.4h95.6
				C662.6,393.4,664.5,403.7,664.5,414.1z"/>
			<line class="st25" x1="611.5" y1="422.7" x2="611.5" y2="518.4"/>
			<path class="st26" d="M531.9,481c-32.2,6.5-52-17.8-58-47.7c-1.8-9-2-18.4-0.9-27.4c1-7.8,2.9-15.4,5.6-22.2l33.8,0l6.6,32.8
				L531.9,481z"/>
			<path class="st24" d="M543.5,571.8c0,0-26.3-33.9-17.6-41.6c8.6-7.8,17.5,12.4,31.2,11.3s1.4-14.7,4.7-21.1
				c3.4-6.4,44.9,14.3,44.9,14.3L543.5,571.8z"/>
			<path class="st24" d="M546.4,469c0,35.2-28.6,63.8-63.8,63.8c-12.9,0-25-3.8-35-10.5L437.4,424c9.4-9.4,21.8-15.9,35.6-18
				c3.1-0.5,6.3-0.7,9.6-0.7c13.5,0,26,4.2,36.3,11.3C535.6,428.1,546.4,447.3,546.4,469z"/>
			<line class="st25" x1="485" y1="469" x2="485" y2="564.8"/>
			<circle class="st26" cx="565.7" cy="749.4" r="16.5"/>
		</g>
		<path d="M555.8,237.6h-22.4c-2.5,0-4.6-2.1-4.6-4.6v0c0-2.5,2.1-4.6,4.6-4.6h22.4c2.5,0,4.6,2.1,4.6,4.6v0
			C560.4,235.6,558.4,237.6,555.8,237.6z"/>
		<circle cx="575.1" cy="229.6" r="7.7"/>
		<circle cx="514.1" cy="229.9" r="7.7"/>
	</g>
	<g>
		<path class="st27" d="M701.7,830.1l-7.4,20.4c0,0,49.5,23.3,65.2,45l-96.7-21.7l16.5-58.9L701.7,830.1z"/>
		<polygon class="st28" points="677.7,819.3 671,844.4 694.3,850.5 700.5,833.6 		"/>
		<path class="st29" d="M511.8,593.8c0,0,66.2-77.4,143.1-75.1s52,56.4,52,56.4s37.9,70.6,41.6,122.5
			c2.5,35.1-42.2,146.6-42.2,146.6L670.5,834c0,0,36.4-104.2,28.1-147.2c-6-31.2-52.6-89.6-67.8-93H511.8z"/>
		<path class="st30" d="M899.3,509.1l-5.9,45.1l-52.7-4.3c0,0-22.8,16.5-58.2,25c-35.4,8.6-88.9,21-119.7,0
			c-30.8-21-21.2-47.4-21.2-47.4l35,0.4l8.7-45.9c28-3.6,51.5-2.1,71.5-0.7c25.9,1.8,45.4,6.4,59.2,9.9c1.7,0.4,3.6,0.9,5.7,1.4
			C848.5,499.2,899.3,509.1,899.3,509.1z"/>
		<path class="st31" d="M773.5,531.2c-14.2-4.5-19.3-18.1-17.4-36.2c0.5-4.8,3.7-12.1,10.9-12.7c25.9,1.8,49.5,4.8,50.4,9.3
			C824.5,526,785.3,534.9,773.5,531.2z"/>
		<path class="st31" d="M782.5,518.6l33.5-21.6c0,0,33.8,11.8,42,9.4c0,0,19.6-32.1,19.3-57.6l-23.7-32.1l-47.5-6.1l-14,41.3
			c-1-7.7-21.4-21.3-30.1-6.2c-11.2,19.5,22,36.4,22,36.4l-20.9,11.5L782.5,518.6z"/>
		<path class="st27" d="M770.5,439.2c0,0-18.9-16.2,13.2-38.2c32.1-22,52.8-3,52.8-3s12.4-26.6,30.8-22.7c26.2,5.5,22,46.9,22,46.9
			s11.1-20.7,17.9-16c6.9,4.7-1.2,79.4-98.3,22.3c0,0,8.1,24.2-16.7,23.5C792.1,451.9,786.5,438.1,770.5,439.2z"/>
		<polyline class="st32" points="800.5,377.5 800.1,396.5 792.6,398.3 782.5,382.9 		"/>
		<polygon class="st33" points="853.6,467 857,485.6 848.5,484 		"/>
		<circle class="st27" cx="843.2" cy="463.6" r="4.3"/>
		<circle class="st27" cx="865.5" cy="464.7" r="4.3"/>
		<polygon class="st28" points="816,496.9 791.5,485.1 805.7,503.7 		"/>
		<path class="st34" d="M836.7,453.6c1.4-2.2,3.9-3.5,6.7-3.3c2.8,0.3,5,2.1,5.9,4.5"/>
		<path class="st34" d="M859.1,455.8c1.4-2.2,3.9-3.5,6.7-3.3c2.8,0.3,5,2.1,5.9,4.5"/>
		<polygon class="st28" points="1081.4,550.6 1069.4,561.5 1049.7,553.7 1056.4,541 		"/>
		<path class="st31" d="M894,549.6l139.7,8.4c0,0,12.2,6,18.6,7.3s17.7-0.7,24.3,2.4c6.6,3.1,5.4-5.1-0.6-6.5
			c-6-1.4-19.2-7.5-19.2-7.5l7.7-5.2c0,0,26.2,5.7,30.8,4.9c4.6-0.8,10.9-4.3,10.9-6.8c0,0-29.8-2.2-40.2-9.4
			c-10.3-7.2-32.8,1.1-32.8,1.1l-134.1-27.8L894,549.6z"/>
		<path class="st31" d="M685,483.9c0,0-56.6,3-69.7,7.4c-13.1,4.4-73,102.2-73,102.2l18.8,1.2c0,0-7.7,12.3-13.5,14.2
			c-5.8,1.8,1.2,4.9,1.2,4.9s-0.9,3.7,6.2,4c12.6,0.6,31.4-7.7,39.4-20.6c0,0,4.3-7.5-1.8-10.7c-6.2-3.2-18.5-3.8-18.5-3.8
			l49.7-55.4l53,0.6L685,483.9z"/>
		<path class="st18" d="M851,493.2c-1.5,2.8-6.5,3.1-11.2,0.6c-4.7-2.5-6.7-7.8-5.2-10.6c1.5-2.8,6,1.6,10.7,4.1
			C849.9,489.8,852.5,490.4,851,493.2z"/>
		<path class="st35" d="M641.6,527.6l35,0.4l-0.9,4.5l36-2.3l-70.9,13.9c0,0-1.1-5.2-0.4-10.7C640.9,530.3,641.6,527.6,641.6,527.6z
			"/>
		<path class="st36" d="M549.2,613.2c0,0,5.9-1.2,11.4-5.7c9.7-7.8,11.3-15.5,11.3-15.5"/>
	</g>
	<g>
		<path class="st27" d="M1381.8,411.3c-0.6-4.5-1.5-8.9-2.7-13.2c-0.9-1.2-2.2-2.2-3.6-2.8c-6.4-11.1-23.3-27.6-25.3-28.4
			c-11.9-5.1-41.6-5.9-51.3-5.9c-38.6,0-54.9,7.6-58.6,9.1c-10,3-37.4,22.5-38.9,23.6c-1.4,1-2.9,1.9-4.5,2.8l-3.2,0.2
			c-1.6,0-7,2.4-16.7,6.6s-11.7,6.9-11.9,7.3c-0.2,0.4-1.4,3.6-1.4,3.6c-1.1,0.9-2,2-2.8,3.1c-0.9,1.5-1.3,16.5-1.3,16.5l-0.2,1.3
			c0.9,1.2,1.9,2.3,3,3.2c5.6,2.3,11.5,3.9,17.6,4.8h7.8c-6.8-8.9-4.3-22.6,5.6-30.5c4.2-3.4,9.3-5.3,14.4-5.4
			c11.7,0.1,19.9,9.7,18.4,21.5c-0.6,5.4-3.3,10.7-7.5,14.7c21.3,0,45.3,0.2,55.3,0.2c8.7,0,29.2-0.5,48.8-1.2
			c-2.7-3.9-3.8-8.7-3.2-13.7c1.4-11.6,12-21,23.6-21s19.9,9.4,18.4,21c-0.5,4.5-2.5,8.9-5.5,12.5c7.4-0.3,12.2-0.5,12.3-0.6
			c3.4-3.4,12.9-13.9,13.7-15.9C1383,422.8,1382.4,416,1381.8,411.3z"/>
		<path class="st27" d="M1342.9,411.4c-9.5,0.1-18,7.9-19,17.4c-0.6,5.2,1.1,10.2,4.7,13.5c5.8,5.4,15.3,5.1,22.1-0.8
			c3.9-3.3,6.5-7.9,7.1-12.7C1359,419.2,1352.4,411.5,1342.9,411.4z M1341.6,422c3.7-0.1,6.5,2.9,6.1,6.6c-0.4,3.7-3.7,6.8-7.4,6.9
			c-3.7,0.1-6.5-2.9-6.1-6.6c0-0.1,0-0.1,0-0.2C1334.7,425,1337.9,422,1341.6,422z"/>
		<path class="st27" d="M1207.4,411.4c-9.5,0.1-18,7.9-19,17.4c-0.7,5.9,1.6,11.3,6.1,14.5c5.1,3.6,12.2,3.6,18.1,0
			c5.3-3.2,9-8.7,9.7-14.6C1223.5,419.2,1216.8,411.4,1207.4,411.4z M1206.1,422c3.7-0.1,6.5,2.9,6.1,6.6c-0.4,3.7-3.7,6.8-7.4,6.9
			c-3.7,0.1-6.5-2.9-6.1-6.6c0-0.1,0-0.1,0-0.2C1199.1,425,1202.4,422,1206.1,422z"/>
	</g>
	<g>
		<path class="st0" d="M1351,721c-0.6-4.5-1.5-8.9-2.7-13.2c-0.9-1.2-2.2-2.2-3.6-2.8c-6.4-11.1-23.3-27.6-25.3-28.4
			c-11.9-5.1-41.6-5.9-51.3-5.9c-38.6,0-54.9,7.6-58.6,9.1c-10,3-37.4,22.5-38.9,23.6c-1.4,1-2.9,1.9-4.5,2.8l-3.2,0.2
			c-1.6,0-7,2.4-16.7,6.6c-9.7,4.2-11.7,6.9-11.9,7.3c-0.2,0.4-1.4,3.6-1.4,3.6c-1.1,0.9-2,2-2.8,3.1c-0.9,1.5-1.3,16.5-1.3,16.5
			l-0.2,1.3c0.9,1.2,1.9,2.3,3,3.2c5.6,2.3,11.5,3.9,17.6,4.8h7.8c-6.8-8.9-4.3-22.6,5.6-30.5c4.2-3.4,9.3-5.3,14.4-5.4
			c11.7,0.1,19.9,9.7,18.4,21.5c-0.6,5.4-3.3,10.7-7.5,14.7c21.3,0,45.3,0.2,55.3,0.2c8.7,0,29.2-0.5,48.8-1.2
			c-2.7-3.9-3.8-8.7-3.2-13.7c1.4-11.6,12-21,23.6-21s19.9,9.4,18.4,21c-0.5,4.5-2.5,8.9-5.5,12.5c7.4-0.3,12.2-0.5,12.3-0.6
			c3.4-3.4,12.9-13.9,13.7-15.9C1352.2,732.5,1351.6,725.6,1351,721z"/>
		<path class="st0" d="M1312.1,721c-9.5,0.1-18,7.9-19,17.4c-0.6,5.2,1.1,10.2,4.7,13.5c5.8,5.4,15.3,5.1,22.1-0.8
			c3.9-3.3,6.5-7.9,7.1-12.7C1328.1,728.9,1321.5,721.1,1312.1,721z M1310.8,731.6c3.7-0.1,6.5,2.9,6.1,6.6s-3.7,6.8-7.4,6.9
			s-6.5-2.9-6.1-6.6c0-0.1,0-0.1,0-0.2C1303.8,734.7,1307.1,731.7,1310.8,731.6z"/>
		<path class="st0" d="M1176.6,721c-9.5,0.1-18,7.9-19,17.4c-0.7,5.9,1.6,11.3,6.1,14.5c5.1,3.6,12.2,3.6,18.1,0
			c5.3-3.2,9-8.7,9.7-14.6C1192.7,728.8,1186,721.1,1176.6,721z M1175.3,731.6c3.7-0.1,6.5,2.9,6.1,6.6s-3.7,6.8-7.4,6.9
			s-6.5-2.9-6.1-6.6c0-0.1,0-0.1,0-0.2C1168.3,734.7,1171.6,731.7,1175.3,731.6z"/>
	</g>
</g>
</svg>
