<svg id="hero-img" xmlns="http://www.w3.org/2000/svg" xmlns:xlink="http://www.w3.org/1999/xlink" viewBox="0 0 1798.200000 927.300000" shape-rendering="geometricPrecision" text-rendering="geometricPrecision" width="1798.200000" height="927.300000"><style><![CDATA[#hero-img-polyline1_ts {animation: hero-img-polyline1_ts__ts 6000ms linear infinite normal forwards}@keyframes hero-img-polyline1_ts__ts { 0% {transform: translate(1160.150024px,551.250000px) scale(1,1)} 5% {transform: translate(1160.150024px,551.250000px) scale(1.500000,1.500000)} 10% {transform: translate(1160.150024px,551.250000px) scale(1,1)} 41.666667% {transform: translate(1160.150024px,551.250000px) scale(1,1)} 46.666667% {transform: translate(1160.150024px,551.250000px) scale(1.500000,1.500000)} 51.666667% {transform: translate(1160.150024px,551.250000px) scale(1,1)} 100% {transform: translate(1160.150024px,551.250000px) scale(1,1)} }#hero-img-line27_to {animation: hero-img-line27_to__to 6000ms linear infinite normal forwards}@keyframes hero-img-line27_to__to { 0% {transform: translate(1135.649963px,528px)} 5% {transform: translate(1120px,520px)} 10% {transform: translate(1135.650000px,528px)} 41.666667% {transform: translate(1135.649963px,528px)} 46.666667% {transform: translate(1120px,520px)} 51.666667% {transform: translate(1135.650000px,528px)} 100% {transform: translate(1135.650000px,528px)} }#hero-img-line28_to {animation: hero-img-line28_to__to 6000ms linear infinite normal forwards}@keyframes hero-img-line28_to__to { 0% {transform: translate(1127.700012px,549.599976px)} 5% {transform: translate(1114px,549.599976px)} 10% {transform: translate(1127.700000px,549.599976px)} 41.666667% {transform: translate(1127.700012px,549.599976px)} 46.666667% {transform: translate(1114px,549.599976px)} 51.666667% {transform: translate(1127.700000px,549.599976px)} 100% {transform: translate(1127.700000px,549.599976px)} }#hero-img-line29_to {animation: hero-img-line29_to__to 6000ms linear infinite normal forwards}@keyframes hero-img-line29_to__to { 0% {transform: translate(1136.850037px,571.250000px)} 5% {transform: translate(1126px,576px)} 10% {transform: translate(1136.850000px,571.250000px)} 41.666667% {transform: translate(1136.850037px,571.250000px)} 46.666667% {transform: translate(1126px,576px)} 51.666667% {transform: translate(1136.850000px,571.250000px)} 100% {transform: translate(1136.850000px,571.250000px)} }]]></style><defs><path id="hero-img-svgid_1_" d="M726.200000,825.100000L471.100000,825.100000C460.400000,825.100000,451.500000,817.100000,450.400000,806.400000L392,238.500000C390.700000,226.300000,400.300000,215.600000,412.700000,215.600000L474.400000,215.600000C483.100000,215.600000,490.300000,222.200000,491.200000,230.800000L492.300000,241.200000C493.300000,251.400000,501.900000,259.100000,512.200000,259.100000L581.500000,259.100000C590.700000,259.100000,597.900000,251.100000,597,241.900000L596,232C595.100000,223.200000,602,215.600000,610.800000,215.600000L667.900000,215.600000C678.600000,215.600000,687.500000,223.600000,688.600000,234.200000L747,802.100000C748.100000,814.400000,738.500000,825.100000,726.200000,825.100000Z" stroke="none" stroke-width="1"/></defs><g id="hero-img-back"><g id="hero-img-g1"><path id="hero-img-path1" d="M1635.600000,556.700000C1635.600000,671.200000,1560.800000,735.100000,1463.500000,735.100000C1366.100000,735.100000,1291.400000,671.200000,1291.400000,556.700000C1291.400000,315.500000,1401.300000,37.500000,1463.500000,37.500000C1525.700000,37.500000,1635.600000,315.600000,1635.600000,556.700000Z" fill="rgb(204,227,255)" stroke="none" stroke-width="1"/><line id="hero-img-line1" x1="1463.500000" y1="386.400000" x2="1463.500000" y2="915" fill="none" stroke="rgb(236,246,255)" stroke-width="15" stroke-linecap="square" stroke-miterlimit="10"/><line id="hero-img-line2" x1="1510.700000" y1="658.300000" x2="1548.800000" y2="620.200000" fill="none" stroke="rgb(236,246,255)" stroke-width="10" stroke-linecap="square" stroke-miterlimit="10"/><line id="hero-img-line3" x1="1510.700000" y1="443.700000" x2="1548.800000" y2="405.700000" fill="none" stroke="rgb(236,246,255)" stroke-width="10" stroke-linecap="square" stroke-miterlimit="10"/></g><g id="hero-img-g2"><circle id="hero-img-circle1" r="238" transform="matrix(1 0 0 1 1172.20000000000005 497.10000000000002)" fill="rgb(236,246,255)" stroke="none" stroke-width="1"/><line id="hero-img-line4" x1="1172.200000" y1="450.900000" x2="1172.200000" y2="915" fill="none" stroke="rgb(182,212,255)" stroke-width="15" stroke-linecap="square" stroke-miterlimit="10"/><line id="hero-img-line5" x1="1228.600000" y1="659.200000" x2="1266.700000" y2="621.100000" fill="none" stroke="rgb(182,212,255)" stroke-width="12" stroke-linecap="square" stroke-miterlimit="10"/><line id="hero-img-line6" x1="1228.600000" y1="488.600000" x2="1266.700000" y2="450.500000" fill="none" stroke="rgb(182,212,255)" stroke-width="12" stroke-linecap="square" stroke-miterlimit="10"/><line id="hero-img-line7" x1="1115.800000" y1="577.800000" x2="1077.700000" y2="539.700000" fill="none" stroke="rgb(182,212,255)" stroke-width="12" stroke-linecap="square" stroke-miterlimit="10"/><line id="hero-img-line8" x1="1115.800000" y1="492.400000" x2="1077.700000" y2="454.400000" fill="none" stroke="rgb(182,212,255)" stroke-width="12" stroke-linecap="square" stroke-miterlimit="10"/></g><g id="hero-img-g3"><path id="hero-img-path2" d="M841.500000,689.400000C841.500000,802.700000,767.500000,853.600000,676.600000,853.600000C585.700000,853.600000,511.700000,802.700000,511.700000,689.400000C511.700000,478.300000,601.700000,281.200000,676.600000,281.200000C751.600000,281.300000,841.500000,478.400000,841.500000,689.400000Z" fill="rgb(236,246,255)" stroke="none" stroke-width="1"/><line id="hero-img-line9" x1="676.600000" y1="506" x2="676.600000" y2="915" fill="none" stroke="rgb(204,227,255)" stroke-width="15" stroke-linecap="square" stroke-miterlimit="10"/><line id="hero-img-line10" x1="713.600000" y1="734.100000" x2="751.600000" y2="696" fill="none" stroke="rgb(204,227,255)" stroke-width="10" stroke-linecap="square" stroke-miterlimit="10"/><line id="hero-img-line11" x1="713.600000" y1="551.500000" x2="751.600000" y2="513.400000" fill="none" stroke="rgb(204,227,255)" stroke-width="10" stroke-linecap="square" stroke-miterlimit="10"/><line id="hero-img-line12" x1="645.700000" y1="734.100000" x2="607.100000" y2="695.600000" fill="none" stroke="rgb(204,227,255)" stroke-width="10" stroke-linecap="square" stroke-miterlimit="10"/><line id="hero-img-line13" x1="642.900000" y1="644" x2="604.400000" y2="605.400000" fill="none" stroke="rgb(204,227,255)" stroke-width="10" stroke-linecap="square" stroke-miterlimit="10"/></g><path id="hero-img-path3" d="M1387,912.800000L957.900000,915C933.400000,883.900000,876.400000,806,899.300000,782.900000C914.400000,767.800000,959.700000,816.500000,971.900000,801.900000C984.100000,787.300000,903.900000,696.200000,924.200000,683.300000C960.100000,660.700000,1075.700000,823.100000,1090.600000,810C1106.300000,796.300000,1032.600000,700.800000,1058.600000,690.600000C1088.800000,678.800000,1168.900000,824.900000,1192,810C1204.100000,802.200000,1180.600000,754.600000,1198.100000,746.400000C1228.500000,732.200000,1279.300000,869.700000,1300.900000,857.500000C1311.100000,851.700000,1299.600000,831.800000,1314.900000,826.900000C1333.700000,821,1371.400000,884.600000,1387,912.800000Z" fill="rgb(204,227,255)" stroke="none" stroke-width="1"/><path id="hero-img-path4" d="M1591.500000,857.800000C1590.900000,858.600000,1571.800000,884.100000,1569.400000,907.500000L1535.900000,907.500000C1551.700000,876.100000,1590.600000,858.200000,1591.500000,857.800000Z" fill="rgb(204,227,255)" stroke="none" stroke-width="1"/><path id="hero-img-path5" d="M104.200000,862C104.800000,862.800000,123.900000,888.300000,126.300000,911.700000L159.800000,911.700000C144,880.200000,105.100000,862.400000,104.200000,862Z" fill="rgb(220,238,255)" stroke="none" stroke-width="1"/><path id="hero-img-path6" d="M832.300000,862.700000C832.900000,863.500000,852,889,854.400000,912.400000L887.900000,912.400000C872.100000,881,833.200000,863.100000,832.300000,862.700000Z" fill="rgb(220,238,255)" stroke="none" stroke-width="1"/><path id="hero-img-path7" d="M1701.600000,878.300000C1701.200000,878.900000,1691.500000,891.800000,1685,907.500000L1660.800000,907.500000C1678.500000,888.900000,1701,878.600000,1701.600000,878.300000Z" fill="rgb(220,238,255)" stroke="none" stroke-width="1"/><path id="hero-img-path8" d="M318.700000,911.700000L283.200000,911.700000C283,886.200000,270,853,270,853C270,853,308.900000,884.800000,318.700000,911.700000Z" fill="rgb(220,238,255)" stroke="none" stroke-width="1"/><path id="hero-img-path9" d="M329.400000,911.700000C338,893.500000,338.500000,878.900000,338.500000,878.900000C338.500000,878.900000,355.300000,897.200000,362.500000,911.700000L329.400000,911.700000Z" fill="rgb(220,238,255)" stroke="none" stroke-width="1"/><path id="hero-img-path10" d="M1475.900000,763.400000C1475.400000,764.900000,1447.700000,841.300000,1445,907.500000L1400.300000,907.500000C1403,877.600000,1389.600000,841.500000,1389.600000,841.500000C1389.600000,841.500000,1413.400000,859.800000,1419.500000,885.800000C1419.600000,885.800000,1438.100000,802.800000,1475.900000,763.400000Z" fill="rgb(220,238,255)" stroke="none" stroke-width="1"/><path id="hero-img-path11" d="M1516,845.200000C1516,845.200000,1489.800000,879.900000,1482.900000,907.500000L1458.600000,907.500000C1466.800000,890.500000,1486.800000,855.900000,1516,845.200000Z" fill="rgb(220,238,255)" stroke="none" stroke-width="1"/><g id="hero-img-g4"><path id="hero-img-path12" d="M1727.200000,746.700000C1727.200000,804.900000,1699.500000,857.700000,1636.700000,857.700000C1574,857.700000,1546.200000,804.900000,1546.200000,746.700000C1546.200000,678.500000,1593.600000,610.600000,1636.700000,610.600000C1679.800000,610.600000,1727.200000,678.400000,1727.200000,746.700000Z" fill="rgb(236,246,255)" stroke="none" stroke-width="1"/><line id="hero-img-line14" x1="1636.700000" y1="741.200000" x2="1636.700000" y2="915" fill="none" stroke="rgb(220,238,255)" stroke-width="15" stroke-linecap="square" stroke-miterlimit="10"/><line id="hero-img-line15" x1="1668" y1="760.700000" x2="1693.900000" y2="735.200000" fill="none" stroke="rgb(220,238,255)" stroke-width="9" stroke-linecap="square" stroke-miterlimit="10"/><line id="hero-img-line16" x1="1608.400000" y1="787.400000" x2="1576.700000" y2="758.700000" fill="none" stroke="rgb(220,238,255)" stroke-width="9" stroke-linecap="square" stroke-miterlimit="10"/></g><g id="hero-img-g5"><path id="hero-img-path13" d="M202.700000,476.100000C196.400000,457.100000,161.700000,460.400000,161.700000,407.500000C161.700000,327.900000,271.300000,337,277.700000,277.100000C284.100000,217.200000,213.800000,218.600000,211.600000,168C209.400000,117.400000,263,13.100000,344.200000,13.100000C408.300000,13.100000,355.200000,93.600000,406.900000,129.600000C458.600000,165.600000,517.600000,119.500000,546.900000,176.100000C587.100000,254.100000,484.200000,347.700000,494.400000,407.500000C504.600000,467.300000,564.900000,453.100000,566.700000,518.800000C568.500000,584.500000,480.900000,596,489.200000,652.400000C494.400000,687.900000,549.900000,676,552.800000,746.100000C555.300000,805.400000,364.700000,878.700000,221.500000,758.100000C78.300000,637.500000,226.900000,548.400000,202.700000,476.100000Z" fill="rgb(204,227,255)" stroke="none" stroke-width="1"/><line id="hero-img-line17" x1="359.500000" y1="332.500000" x2="359.500000" y2="915" fill="none" stroke="rgb(236,246,255)" stroke-width="15" stroke-linecap="square" stroke-miterlimit="10"/><line id="hero-img-line18" x1="416" y1="705" x2="454.100000" y2="666.900000" fill="none" stroke="rgb(236,246,255)" stroke-width="12" stroke-linecap="square" stroke-miterlimit="10"/><line id="hero-img-line19" x1="404.400000" y1="500.400000" x2="442.500000" y2="462.400000" fill="none" stroke="rgb(236,246,255)" stroke-width="12" stroke-linecap="square" stroke-miterlimit="10"/><line id="hero-img-line20" x1="404.400000" y1="398.100000" x2="442.500000" y2="360.100000" fill="none" stroke="rgb(236,246,255)" stroke-width="12" stroke-linecap="square" stroke-miterlimit="10"/><line id="hero-img-line21" x1="304.600000" y1="398.100000" x2="266.500000" y2="360.100000" fill="none" stroke="rgb(236,246,255)" stroke-width="12" stroke-linecap="square" stroke-miterlimit="10"/></g><path id="hero-img-path14" d="M512.600000,909.300000C512.600000,909.300000,478.800000,833.200000,427.700000,797" fill="none" stroke="rgb(182,212,255)" stroke-width="9" stroke-linecap="square" stroke-miterlimit="10"/><path id="hero-img-path15" d="M529.600000,911.700000C529.600000,911.700000,524.100000,796.600000,565.900000,754.400000" fill="none" stroke="rgb(182,212,255)" stroke-width="9" stroke-linecap="square" stroke-miterlimit="10"/><circle id="hero-img-circle2" r="25.800000" transform="matrix(1 0 0 1 560.10000000000002 754.29999999999995)" fill="rgb(182,212,255)" stroke="none" stroke-width="1"/><circle id="hero-img-circle3" r="25.800000" transform="matrix(1 0 0 1 437.39999999999998 808)" fill="rgb(182,212,255)" stroke="none" stroke-width="1"/><path id="hero-img-path16" d="M994.700000,905.300000C994.700000,905.300000,990.800000,853.200000,1019.900000,792.200000" fill="none" stroke="rgb(182,212,255)" stroke-width="9" stroke-linecap="square" stroke-miterlimit="10"/><path id="hero-img-path17" d="M978.400000,910.600000C978.400000,910.600000,953.400000,801.300000,888.700000,747.900000" fill="none" stroke="rgb(182,212,255)" stroke-width="9" stroke-linecap="square" stroke-miterlimit="10"/><circle id="hero-img-circle4" r="25.800000" transform="matrix(1 0 0 1 887.89999999999998 741.20000000000005)" fill="rgb(182,212,255)" stroke="none" stroke-width="1"/><circle id="hero-img-circle5" r="25.800000" transform="matrix(1 0 0 1 1027 773)" fill="rgb(182,212,255)" stroke="none" stroke-width="1"/><path id="hero-img-path18" d="M618.600000,782.900000C617.800000,784,565.100000,853.200000,563.700000,907.400000L521.100000,907.400000C526.900000,889.800000,551.600000,825.200000,618.600000,782.900000Z" fill="rgb(204,227,255)" stroke="none" stroke-width="1"/><path id="hero-img-path19" d="M498.300000,907.500000L464.400000,907.500000C457.700000,882,437.400000,866.100000,437.400000,866.100000C437.400000,866.100000,477.700000,874,498.300000,907.500000Z" fill="rgb(204,227,255)" stroke="none" stroke-width="1"/><path id="hero-img-path20" d="M1121.400000,840.300000C1122.100000,841.200000,1138,877.800000,1136.100000,912.400000L1192,912.400000C1193.100000,893.500000,1205.100000,866.400000,1205.100000,866.400000C1205.100000,866.400000,1180.500000,876.400000,1163.800000,904.800000C1163.800000,904.800000,1151.200000,853.500000,1121.400000,840.300000Z" fill="rgb(220,238,255)" stroke="none" stroke-width="1"/><path id="hero-img-path21" d="M1033.800000,856.700000C1033.100000,858,1019.700000,881.300000,1016.100000,908.600000L962.800000,914.100000C959.200000,889.900000,951.300000,876.400000,951.300000,876.400000C951.300000,876.400000,973.700000,882.900000,985.600000,901.900000C985.700000,901.800000,999.500000,872.500000,1033.800000,856.700000Z" fill="rgb(220,238,255)" stroke="none" stroke-width="1"/><g id="hero-img-g6"><path id="hero-img-path22" d="M323.300000,670.900000C323.300000,763.600000,284.900000,847.900000,198.100000,847.900000C111.300000,847.900000,72.900000,763.700000,72.900000,670.900000C72.900000,562.100000,138.500000,453.900000,198.100000,453.900000C257.700000,453.900000,323.300000,562.100000,323.300000,670.900000Z" fill="rgb(236,246,255)" stroke="none" stroke-width="1"/><line id="hero-img-line22" x1="198.100000" y1="650.900000" x2="198.100000" y2="915" fill="none" stroke="rgb(220,238,255)" stroke-width="15" stroke-linecap="square" stroke-miterlimit="10"/><line id="hero-img-line23" x1="234.500000" y1="683.100000" x2="268.400000" y2="645.100000" fill="none" stroke="rgb(220,238,255)" stroke-width="10" stroke-linecap="square" stroke-miterlimit="10"/><line id="hero-img-line24" x1="161.700000" y1="761.300000" x2="127.800000" y2="723.300000" fill="none" stroke="rgb(220,238,255)" stroke-width="10" stroke-linecap="square" stroke-miterlimit="10"/><line id="hero-img-line25" x1="161.700000" y1="684.700000" x2="127.800000" y2="646.600000" fill="none" stroke="rgb(220,238,255)" stroke-width="10" stroke-linecap="square" stroke-miterlimit="10"/></g><line id="hero-img-line26" x1="1775.100000" y1="915" x2="23.700000" y2="915" fill="rgb(236,246,255)" stroke="rgb(220,238,255)" stroke-width="20" stroke-linecap="round" stroke-miterlimit="10"/></g><g id="hero-img-woman_phone"><g id="hero-img-g7"><path id="hero-img-path23" d="M1125.300000,861.800000L1404.100000,861.800000C1419.700000,861.800000,1432.800000,850,1434.400000,834.500000L1497.400000,222.500000C1499.200000,204.500000,1485.200000,188.900000,1467.100000,188.900000L1188.300000,188.900000C1172.700000,188.900000,1159.600000,200.700000,1158,216.200000L1095,828.200000C1093.200000,846.200000,1107.300000,861.800000,1125.300000,861.800000Z" fill="rgb(38,41,51)" stroke="none" stroke-width="1"/><path id="hero-img-path24" d="M1462.300000,222.400000L1399.300000,834.400000C1397.700000,849.900000,1384.600000,861.700000,1369,861.700000L1090.200000,861.700000C1072.100000,861.700000,1058.100000,846.100000,1059.900000,828.100000L1122.900000,216.100000C1124.500000,200.600000,1137.600000,188.800000,1153.200000,188.800000L1432,188.800000C1450.100000,188.900000,1464.200000,204.500000,1462.300000,222.400000Z" fill="rgb(96,106,117)" stroke="none" stroke-width="1"/><path id="hero-img-path25" d="M1104,836.700000L1357.800000,836.700000C1368.400000,836.700000,1377.300000,828.700000,1378.400000,818.100000L1438.400000,234.800000C1439.700000,222.600000,1430.100000,212,1417.800000,212L1164,212C1153.400000,212,1144.500000,220,1143.400000,230.600000L1083.400000,813.900000C1082.200000,826.100000,1091.700000,836.700000,1104,836.700000Z" fill="rgb(255,255,255)" stroke="none" stroke-width="1"/><path id="hero-img-path26" d="M1378.100000,192.300000L1374.800000,224.700000C1373.700000,235.500000,1364.600000,243.700000,1353.800000,243.700000L1232.800000,243.700000C1220.300000,243.700000,1210.500000,232.900000,1211.800000,220.400000L1214.700000,192.300000L1378.100000,192.300000Z" fill="rgb(96,106,117)" stroke="none" stroke-width="1"/><path id="hero-img-path27" d="M1315.300000,222.300000L1261.200000,222.300000C1259,222.300000,1257.100000,220.500000,1257.100000,218.200000L1257.100000,218.200000C1257.100000,216,1258.900000,214.100000,1261.200000,214.100000L1315.300000,214.100000C1317.500000,214.100000,1319.400000,215.900000,1319.400000,218.200000L1319.400000,218.200000C1319.400000,220.400000,1317.600000,222.300000,1315.300000,222.300000Z" fill="rgb(0,0,0)" stroke="none" stroke-width="1"/><circle id="hero-img-circle6" r="6.800000" transform="matrix(1 0 0 1 1334.50000000000000 218.19999999999999)" fill="rgb(0,0,0)" stroke="none" stroke-width="1"/><path id="hero-img-path28" d="M1405.800000,320.500000L1387.500000,498.500000C1386.700000,506.700000,1379.800000,512.900000,1371.600000,512.900000L1156.600000,512.900000C1147.100000,512.900000,1139.700000,504.700000,1140.700000,495.300000L1159,317.300000C1159.800000,309.100000,1166.700000,302.900000,1174.900000,302.900000L1389.900000,302.800000C1399.400000,302.900000,1406.800000,311.100000,1405.800000,320.500000Z" fill="rgb(236,246,255)" stroke="none" stroke-width="1"/><path id="hero-img-path29" d="M1374,622.700000L1355.700000,800.700000C1354.900000,808.900000,1348,815.100000,1339.800000,815.100000L1124.800000,815.100000C1115.300000,815.100000,1107.900000,806.900000,1108.900000,797.500000L1127.200000,619.500000C1128,611.300000,1134.900000,605.100000,1143.100000,605.100000L1358.100000,605C1367.500000,605,1375,613.200000,1374,622.700000Z" fill="rgb(236,246,255)" stroke="none" stroke-width="1"/><g id="hero-img-polyline1_ts" transform="translate(1160.150024,551.250000) scale(1,1)"><polyline id="hero-img-polyline1" points="1150.500000,545.400000 1158,557.100000 1169.800000,545.400000" transform="translate(-1160.150024,-551.250000)" fill="none" stroke="rgb(207,62,131)" stroke-width="22" stroke-linecap="round" stroke-miterlimit="10"/></g><g id="hero-img-line27_to" transform="translate(1135.649963,528)"><line id="hero-img-line27" x1="1139.100000" y1="531.500000" x2="1132.200000" y2="524.500000" transform="translate(-1135.649963,-528)" fill="none" stroke="rgb(32,32,51)" stroke-width="4" stroke-miterlimit="10"/></g><g id="hero-img-line28_to" transform="translate(1127.700012,549.599976)"><line id="hero-img-line28" x1="1132.600000" y1="549.600000" x2="1122.800000" y2="549.600000" transform="translate(-1127.700012,-549.599976)" fill="none" stroke="rgb(32,32,51)" stroke-width="4" stroke-miterlimit="10"/></g><g id="hero-img-line29_to" transform="translate(1136.850037,571.250000)"><line id="hero-img-line29" x1="1140.300000" y1="567.800000" x2="1133.400000" y2="574.700000" transform="translate(-1136.850037,-571.250000)" fill="none" stroke="rgb(32,32,51)" stroke-width="4" stroke-miterlimit="10"/></g><circle id="hero-img-circle7" r="8.200000" transform="matrix(1 0 0 1 1166.40000000000009 229)" fill="rgb(216,224,229)" stroke="none" stroke-width="1"/><circle id="hero-img-circle8" r="8.200000" transform="matrix(1 0 0 1 1188.90000000000009 229)" fill="rgb(216,224,229)" stroke="none" stroke-width="1"/><circle id="hero-img-circle9" r="8.200000" transform="matrix(1 0 0 1 1416.29999999999995 229)" fill="rgb(216,224,229)" stroke="none" stroke-width="1"/></g></g><g id="hero-img-man_phone"><g id="hero-img-g8"><path id="hero-img-path30" d="M703.300000,868.900000L424.500000,868.900000C408.900000,868.900000,395.800000,857.100000,394.200000,841.600000L331.200000,229.600000C329.400000,211.600000,343.400000,196,361.500000,196L640.300000,196C655.900000,196,669,207.800000,670.600000,223.300000L733.600000,835.300000C735.500000,853.300000,721.400000,868.900000,703.300000,868.900000Z" fill="rgb(38,41,51)" stroke="none" stroke-width="1"/><path id="hero-img-path31" d="M738.400000,868.900000L459.600000,868.900000C444,868.900000,430.900000,857.100000,429.300000,841.600000L366.300000,229.600000C364.500000,211.700000,378.500000,196,396.600000,196L675.400000,196C691,196,704.100000,207.800000,705.700000,223.300000L768.700000,835.300000C770.500000,853.300000,756.400000,868.900000,738.400000,868.900000Z" fill="rgb(96,106,117)" stroke="none" stroke-width="1"/><g id="hero-img-screen_mask"><g id="hero-img-g9" clip-path="url(#hero-img-svgid_2_)"><rect id="hero-img-rect1" width="463.400000" height="700.900000" rx="0" ry="0" transform="matrix(1 0 0 1 331.10000000000002 181.80000000000001)" fill="rgb(255,255,255)" stroke="none" stroke-width="1"/><path id="hero-img-path32" d="M466.100000,704.600000L484.400000,882.600000C485.200000,890.800000,492.100000,897,500.300000,897L715.300000,897C724.800000,897,732.200000,888.800000,731.200000,879.400000L712.900000,701.400000C712.100000,693.200000,705.200000,687,697,687L482,687C472.500000,687,465.100000,695.200000,466.100000,704.600000Z" fill="rgb(236,246,255)" stroke="none" stroke-width="1"/><path id="hero-img-path33" d="M435.100000,401.400000L453.400000,579.400000C454.200000,587.600000,461.100000,593.800000,469.300000,593.800000L684.300000,593.800000C693.800000,593.800000,701.200000,585.600000,700.200000,576.200000L681.900000,398.200000C681.100000,390,674.200000,383.800000,666,383.800000L451,383.700000C441.500000,383.700000,434.100000,391.900000,435.100000,401.400000Z" fill="rgb(236,246,255)" stroke="none" stroke-width="1"/><path id="hero-img-path34" d="M403.100000,97.900000L421.400000,275.900000C422.200000,284.100000,429.100000,290.300000,437.300000,290.300000L652.300000,290.300000C661.800000,290.300000,669.200000,282.100000,668.200000,272.700000L649.900000,94.700000C649.100000,86.500000,642.200000,80.300000,634,80.300000L419,80.200000C409.600000,80.200000,402.200000,88.400000,403.100000,97.900000Z" fill="rgb(236,246,255)" stroke="none" stroke-width="1"/><path id="hero-img-path35" d="M586.400000,776.200000C567.100000,796.600000,535,797.600000,514.500000,778.300000C494.100000,759,493.100000,726.900000,512.400000,706.400000" fill="rgb(220,232,239)" stroke="none" stroke-width="1"/><path id="hero-img-path36" d="M626.400000,839.900000C600,816,597.900000,775.300000,621.700000,748.800000C645.600000,722.400000,686.300000,720.300000,712.800000,744.100000" fill="rgb(220,232,239)" stroke="none" stroke-width="1"/><path id="hero-img-path37" d="M664.500000,414.100000C664.500000,448.100000,648.300000,479,611.600000,479C574.900000,479,558.700000,448.100000,558.700000,414.100000C558.700000,403.700000,560.600000,393.400000,563.800000,383.700000L659.400000,383.700000C662.600000,393.400000,664.500000,403.700000,664.500000,414.100000Z" fill="rgb(220,232,239)" stroke="none" stroke-width="1"/><line id="hero-img-line30" x1="611.500000" y1="422.700000" x2="611.500000" y2="518.400000" fill="none" stroke="rgb(207,216,226)" stroke-width="5" stroke-miterlimit="10"/><path id="hero-img-path38" d="M531.900000,481C499.700000,487.500000,479.900000,463.200000,473.900000,433.300000C472.100000,424.300000,471.900000,414.900000,473,405.900000C474,398.100000,475.900000,390.500000,478.600000,383.700000L512.400000,383.700000L519,416.500000L531.900000,481Z" fill="rgb(209,220,224)" stroke="none" stroke-width="1"/><path id="hero-img-path39" d="M543.500000,571.800000C543.500000,571.800000,517.200000,537.900000,525.900000,530.200000C534.500000,522.400000,543.400000,542.600000,557.100000,541.500000C570.800000,540.400000,558.500000,526.800000,561.800000,520.400000C565.200000,514,606.700000,534.700000,606.700000,534.700000L543.500000,571.800000Z" fill="rgb(220,232,239)" stroke="none" stroke-width="1"/><path id="hero-img-path40" d="M546.400000,469C546.400000,504.200000,517.800000,532.800000,482.600000,532.800000C469.700000,532.800000,457.600000,529,447.600000,522.300000L437.400000,424C446.800000,414.600000,459.200000,408.100000,473,406C476.100000,405.500000,479.300000,405.300000,482.600000,405.300000C496.100000,405.300000,508.600000,409.500000,518.900000,416.600000C535.600000,428.100000,546.400000,447.300000,546.400000,469Z" fill="rgb(220,232,239)" stroke="none" stroke-width="1"/><line id="hero-img-line31" x1="485" y1="469" x2="485" y2="564.800000" fill="none" stroke="rgb(207,216,226)" stroke-width="5" stroke-miterlimit="10"/><circle id="hero-img-circle10" r="16.500000" transform="matrix(1 0 0 1 565.70000000000005 749.39999999999998)" fill="rgb(209,220,224)" stroke="none" stroke-width="1"/><clipPath id="hero-img-svgid_2_"><use id="hero-img-use1" width="0" height="0" xlink:href="#hero-img-svgid_1_" fill="rgb(0,0,0)"/></clipPath></g></g><path id="hero-img-path41" d="M555.800000,237.600000L533.400000,237.600000C530.900000,237.600000,528.800000,235.500000,528.800000,233L528.800000,233C528.800000,230.500000,530.900000,228.400000,533.400000,228.400000L555.800000,228.400000C558.300000,228.400000,560.400000,230.500000,560.400000,233L560.400000,233C560.400000,235.600000,558.400000,237.600000,555.800000,237.600000Z" fill="rgb(0,0,0)" stroke="none" stroke-width="1"/><circle id="hero-img-circle11" r="7.700000" transform="matrix(1 0 0 1 575.10000000000002 229.59999999999999)" fill="rgb(0,0,0)" stroke="none" stroke-width="1"/><circle id="hero-img-circle12" r="7.700000" transform="matrix(1 0 0 1 514.10000000000002 229.90000000000001)" fill="rgb(0,0,0)" stroke="none" stroke-width="1"/></g><g id="hero-img-g10"><path id="hero-img-path42" d="M701.700000,830.100000L694.300000,850.500000C694.300000,850.500000,743.800000,873.800000,759.500000,895.500000L662.800000,873.800000L679.300000,814.900000L701.700000,830.100000Z" fill="rgb(13,11,109)" stroke="none" stroke-width="1"/><polygon id="hero-img-polygon1" points="677.700000,819.300000 671,844.400000 694.300000,850.500000 700.500000,833.600000" fill="rgb(207,62,131)" stroke="none" stroke-width="1"/><path id="hero-img-path43" d="M511.800000,593.800000C511.800000,593.800000,578,516.400000,654.900000,518.700000C731.800000,521,706.900000,575.100000,706.900000,575.100000C706.900000,575.100000,744.800000,645.700000,748.500000,697.600000C751,732.700000,706.300000,844.200000,706.300000,844.200000L670.500000,834C670.500000,834,706.900000,729.800000,698.600000,686.800000C692.600000,655.600000,646,597.200000,630.800000,593.800000L511.800000,593.800000Z" fill="rgb(36,0,64)" stroke="none" stroke-width="1"/><path id="hero-img-path44" d="M899.300000,509.100000L893.400000,554.200000L840.700000,549.900000C840.700000,549.900000,817.900000,566.400000,782.500000,574.900000C747.100000,583.500000,693.600000,595.900000,662.800000,574.900000C632,553.900000,641.600000,527.500000,641.600000,527.500000L676.600000,527.900000L685.300000,482C713.300000,478.400000,736.800000,479.900000,756.800000,481.300000C782.700000,483.100000,802.200000,487.700000,816,491.200000C817.700000,491.600000,819.600000,492.100000,821.700000,492.600000C848.500000,499.200000,899.300000,509.100000,899.300000,509.100000Z" fill="rgb(255,192,0)" stroke="none" stroke-width="1"/><path id="hero-img-path45" d="M773.500000,531.200000C759.300000,526.700000,754.200000,513.100000,756.100000,495C756.600000,490.200000,759.800000,482.900000,767,482.300000C792.900000,484.100000,816.500000,487.100000,817.400000,491.600000C824.500000,526,785.300000,534.900000,773.500000,531.200000Z" fill="rgb(229,118,198)" stroke="none" stroke-width="1"/><path id="hero-img-path46" d="M782.500000,518.600000L816,497C816,497,849.800000,508.800000,858,506.400000C858,506.400000,877.600000,474.300000,877.300000,448.800000L853.600000,416.700000L806.100000,410.600000L792.100000,451.900000C791.100000,444.200000,770.700000,430.600000,762,445.700000C750.800000,465.200000,784,482.100000,784,482.100000L763.100000,493.600000L782.500000,518.600000Z" fill="rgb(229,118,198)" stroke="none" stroke-width="1"/><path id="hero-img-path47" d="M770.500000,439.200000C770.500000,439.200000,751.600000,423,783.700000,401C815.800000,379,836.500000,398,836.500000,398C836.500000,398,848.900000,371.400000,867.300000,375.300000C893.500000,380.800000,889.300000,422.200000,889.300000,422.200000C889.300000,422.200000,900.400000,401.500000,907.200000,406.200000C914.100000,410.900000,906,485.600000,808.900000,428.500000C808.900000,428.500000,817,452.700000,792.200000,452C792.100000,451.900000,786.500000,438.100000,770.500000,439.200000Z" fill="rgb(13,11,109)" stroke="none" stroke-width="1"/><polyline id="hero-img-polyline2" points="800.500000,377.500000 800.100000,396.500000 792.600000,398.300000 782.500000,382.900000" fill="none" stroke="rgb(3,36,102)" stroke-width="9" stroke-miterlimit="10"/><polygon id="hero-img-polygon2" points="853.600000,467 857,485.600000 848.500000,484" fill="rgb(64,95,211)" stroke="none" stroke-width="1"/><circle id="hero-img-circle13" r="4.300000" transform="matrix(1 0 0 1 843.20000000000005 463.60000000000002)" fill="rgb(13,11,109)" stroke="none" stroke-width="1"/><circle id="hero-img-circle14" r="4.300000" transform="matrix(1 0 0 1 865.50000000000000 464.69999999999999)" fill="rgb(13,11,109)" stroke="none" stroke-width="1"/><polygon id="hero-img-polygon3" points="816,496.900000 791.500000,485.100000 805.700000,503.700000" fill="rgb(207,62,131)" stroke="none" stroke-width="1"/><path id="hero-img-path48" d="M836.700000,453.600000C838.100000,451.400000,840.600000,450.100000,843.400000,450.300000C846.200000,450.600000,848.400000,452.400000,849.300000,454.800000" fill="none" stroke="rgb(24,32,132)" stroke-width="3" stroke-miterlimit="10"/><path id="hero-img-path49" d="M859.100000,455.800000C860.500000,453.600000,863,452.300000,865.800000,452.500000C868.600000,452.800000,870.800000,454.600000,871.700000,457" fill="none" stroke="rgb(24,32,132)" stroke-width="3" stroke-miterlimit="10"/><polygon id="hero-img-polygon4" points="1081.400000,550.600000 1069.400000,561.500000 1049.700000,553.700000 1056.400000,541" fill="rgb(207,62,131)" stroke="none" stroke-width="1"/><path id="hero-img-path50" d="M894,549.600000L1033.700000,558C1033.700000,558,1045.900000,564,1052.300000,565.300000C1058.700000,566.600000,1070,564.600000,1076.600000,567.700000C1083.200000,570.800000,1082,562.600000,1076,561.200000C1070,559.800000,1056.800000,553.700000,1056.800000,553.700000L1064.500000,548.500000C1064.500000,548.500000,1090.700000,554.200000,1095.300000,553.400000C1099.900000,552.600000,1106.200000,549.100000,1106.200000,546.600000C1106.200000,546.600000,1076.400000,544.400000,1066,537.200000C1055.700000,530,1033.200000,538.300000,1033.200000,538.300000L899.100000,510.500000L894,549.600000Z" fill="rgb(229,118,198)" stroke="none" stroke-width="1"/><path id="hero-img-path51" d="M685,483.900000C685,483.900000,628.400000,486.900000,615.300000,491.300000C602.200000,495.700000,542.300000,593.500000,542.300000,593.500000L561.100000,594.700000C561.100000,594.700000,553.400000,607,547.600000,608.900000C541.800000,610.700000,548.800000,613.800000,548.800000,613.800000C548.800000,613.800000,547.900000,617.500000,555,617.800000C567.600000,618.400000,586.400000,610.100000,594.400000,597.200000C594.400000,597.200000,598.700000,589.700000,592.600000,586.500000C586.400000,583.300000,574.100000,582.700000,574.100000,582.700000L623.800000,527.300000L676.800000,527.900000L685,483.900000Z" fill="rgb(229,118,198)" stroke="none" stroke-width="1"/><path id="hero-img-path52" d="M851,493.200000C849.500000,496,844.500000,496.300000,839.800000,493.800000C835.100000,491.300000,833.100000,486,834.600000,483.200000C836.100000,480.400000,840.600000,484.800000,845.300000,487.300000C849.900000,489.800000,852.500000,490.400000,851,493.200000Z" fill="rgb(255,255,255)" stroke="none" stroke-width="1"/><path id="hero-img-path53" d="M641.600000,527.600000L676.600000,528L675.700000,532.500000L711.700000,530.200000L640.800000,544.100000C640.800000,544.100000,639.700000,538.900000,640.400000,533.400000C640.900000,530.300000,641.600000,527.600000,641.600000,527.600000Z" fill="rgb(198,102,30)" stroke="none" stroke-width="1"/><path id="hero-img-path54" d="M549.200000,613.200000C549.200000,613.200000,555.100000,612,560.600000,607.500000C570.300000,599.700000,571.900000,592,571.900000,592" fill="none" stroke="rgb(193,73,153)" stroke-width="2" stroke-linecap="round" stroke-miterlimit="10"/></g><g id="hero-img-g11"><path id="hero-img-path55" d="M1381.800000,411.300000C1381.200000,406.800000,1380.300000,402.400000,1379.100000,398.100000C1378.200000,396.900000,1376.900000,395.900000,1375.500000,395.300000C1369.100000,384.200000,1352.200000,367.700000,1350.200000,366.900000C1338.300000,361.800000,1308.600000,361,1298.900000,361C1260.300000,361,1244,368.600000,1240.300000,370.100000C1230.300000,373.100000,1202.900000,392.600000,1201.400000,393.700000C1200,394.700000,1198.500000,395.600000,1196.900000,396.500000L1193.700000,396.700000C1192.100000,396.700000,1186.700000,399.100000,1177,403.300000C1167.300000,407.500000,1165.300000,410.200000,1165.100000,410.600000C1164.900000,411,1163.700000,414.200000,1163.700000,414.200000C1162.600000,415.100000,1161.700000,416.200000,1160.900000,417.300000C1160,418.800000,1159.600000,433.800000,1159.600000,433.800000L1159.400000,435.100000C1160.300000,436.300000,1161.300000,437.400000,1162.400000,438.300000C1168,440.600000,1173.900000,442.200000,1180,443.100000L1187.800000,443.100000C1181,434.200000,1183.500000,420.500000,1193.400000,412.600000C1197.600000,409.200000,1202.700000,407.300000,1207.800000,407.200000C1219.500000,407.300000,1227.700000,416.900000,1226.200000,428.700000C1225.600000,434.100000,1222.900000,439.400000,1218.700000,443.400000C1240,443.400000,1264,443.600000,1274,443.600000C1282.700000,443.600000,1303.200000,443.100000,1322.800000,442.400000C1320.100000,438.500000,1319,433.700000,1319.600000,428.700000C1321,417.100000,1331.600000,407.700000,1343.200000,407.700000C1354.800000,407.700000,1363.100000,417.100000,1361.600000,428.700000C1361.100000,433.200000,1359.100000,437.600000,1356.100000,441.200000C1363.500000,440.900000,1368.300000,440.700000,1368.400000,440.600000C1371.800000,437.200000,1381.300000,426.700000,1382.100000,424.700000C1383,422.800000,1382.400000,416,1381.800000,411.300000Z" fill="rgb(13,11,109)" stroke="none" stroke-width="1"/><path id="hero-img-path56" d="M1342.900000,411.400000C1333.400000,411.500000,1324.900000,419.300000,1323.900000,428.800000C1323.300000,434,1325,439,1328.600000,442.300000C1334.400000,447.700000,1343.900000,447.400000,1350.700000,441.500000C1354.600000,438.200000,1357.200000,433.600000,1357.800000,428.800000C1359,419.200000,1352.400000,411.500000,1342.900000,411.400000ZM1341.600000,422C1345.300000,421.900000,1348.100000,424.900000,1347.700000,428.600000C1347.300000,432.300000,1344,435.400000,1340.300000,435.500000C1336.600000,435.600000,1333.800000,432.600000,1334.200000,428.900000C1334.200000,428.800000,1334.200000,428.800000,1334.200000,428.700000C1334.700000,425,1337.900000,422,1341.600000,422Z" fill="rgb(13,11,109)" stroke="none" stroke-width="1"/><path id="hero-img-path57" d="M1207.400000,411.400000C1197.900000,411.500000,1189.400000,419.300000,1188.400000,428.800000C1187.700000,434.700000,1190,440.100000,1194.500000,443.300000C1199.600000,446.900000,1206.700000,446.900000,1212.600000,443.300000C1217.900000,440.100000,1221.600000,434.600000,1222.300000,428.700000C1223.500000,419.200000,1216.800000,411.400000,1207.400000,411.400000ZM1206.100000,422C1209.800000,421.900000,1212.600000,424.900000,1212.200000,428.600000C1211.800000,432.300000,1208.500000,435.400000,1204.800000,435.500000C1201.100000,435.600000,1198.300000,432.600000,1198.700000,428.900000C1198.700000,428.800000,1198.700000,428.800000,1198.700000,428.700000C1199.100000,425,1202.400000,422,1206.100000,422Z" fill="rgb(13,11,109)" stroke="none" stroke-width="1"/></g><g id="hero-img-g12"><path id="hero-img-path58" d="M1351,721C1350.400000,716.500000,1349.500000,712.100000,1348.300000,707.800000C1347.400000,706.600000,1346.100000,705.600000,1344.700000,705C1338.300000,693.900000,1321.400000,677.400000,1319.400000,676.600000C1307.500000,671.500000,1277.800000,670.700000,1268.100000,670.700000C1229.500000,670.700000,1213.200000,678.300000,1209.500000,679.800000C1199.500000,682.800000,1172.100000,702.300000,1170.600000,703.400000C1169.200000,704.400000,1167.700000,705.300000,1166.100000,706.200000L1162.900000,706.400000C1161.300000,706.400000,1155.900000,708.800000,1146.200000,713C1136.500000,717.200000,1134.500000,719.900000,1134.300000,720.300000C1134.100000,720.700000,1132.900000,723.900000,1132.900000,723.900000C1131.800000,724.800000,1130.900000,725.900000,1130.100000,727C1129.200000,728.500000,1128.800000,743.500000,1128.800000,743.500000L1128.600000,744.800000C1129.500000,746,1130.500000,747.100000,1131.600000,748C1137.200000,750.300000,1143.100000,751.900000,1149.200000,752.800000L1157,752.800000C1150.200000,743.900000,1152.700000,730.200000,1162.600000,722.300000C1166.800000,718.900000,1171.900000,717,1177,716.900000C1188.700000,717,1196.900000,726.600000,1195.400000,738.400000C1194.800000,743.800000,1192.100000,749.100000,1187.900000,753.100000C1209.200000,753.100000,1233.200000,753.300000,1243.200000,753.300000C1251.900000,753.300000,1272.400000,752.800000,1292,752.100000C1289.300000,748.200000,1288.200000,743.400000,1288.800000,738.400000C1290.200000,726.800000,1300.800000,717.400000,1312.400000,717.400000C1324,717.400000,1332.300000,726.800000,1330.800000,738.400000C1330.300000,742.900000,1328.300000,747.300000,1325.300000,750.900000C1332.700000,750.600000,1337.500000,750.400000,1337.600000,750.300000C1341,746.900000,1350.500000,736.400000,1351.300000,734.400000C1352.200000,732.500000,1351.600000,725.600000,1351,721Z" fill="rgb(204,227,255)" stroke="none" stroke-width="1"/><path id="hero-img-path59" d="M1312.100000,721C1302.600000,721.100000,1294.100000,728.900000,1293.100000,738.400000C1292.500000,743.600000,1294.200000,748.600000,1297.800000,751.900000C1303.600000,757.300000,1313.100000,757,1319.900000,751.100000C1323.800000,747.800000,1326.400000,743.200000,1327,738.400000C1328.100000,728.900000,1321.500000,721.100000,1312.100000,721ZM1310.800000,731.600000C1314.500000,731.500000,1317.300000,734.500000,1316.900000,738.200000C1316.500000,741.900000,1313.200000,745,1309.500000,745.100000C1305.800000,745.200000,1303,742.200000,1303.400000,738.500000C1303.400000,738.400000,1303.400000,738.400000,1303.400000,738.300000C1303.800000,734.700000,1307.100000,731.700000,1310.800000,731.600000Z" fill="rgb(204,227,255)" stroke="none" stroke-width="1"/><path id="hero-img-path60" d="M1176.600000,721C1167.100000,721.100000,1158.600000,728.900000,1157.600000,738.400000C1156.900000,744.300000,1159.200000,749.700000,1163.700000,752.900000C1168.800000,756.500000,1175.900000,756.500000,1181.800000,752.900000C1187.100000,749.700000,1190.800000,744.200000,1191.500000,738.300000C1192.700000,728.800000,1186,721.100000,1176.600000,721ZM1175.300000,731.600000C1179,731.500000,1181.800000,734.500000,1181.400000,738.200000C1181,741.900000,1177.700000,745,1174,745.100000C1170.300000,745.200000,1167.500000,742.200000,1167.900000,738.500000C1167.900000,738.400000,1167.900000,738.400000,1167.900000,738.300000C1168.300000,734.700000,1171.600000,731.700000,1175.300000,731.600000Z" fill="rgb(204,227,255)" stroke="none" stroke-width="1"/></g></g></svg>