<?xml version="1.0" encoding="utf-8"?>
<!-- Generator: Adobe Illustrator 26.0.3, SVG Export Plug-In . SVG Version: 6.00 Build 0)  -->
<svg version="1.1" id="Back" xmlns="http://www.w3.org/2000/svg" xmlns:xlink="http://www.w3.org/1999/xlink" x="0px" y="0px"
	 viewBox="0 0 1802.4 985.8" style="enable-background:new 0 0 1802.4 985.8;" xml:space="preserve">
<style type="text/css">
	.st0{fill:#ECF6FF;}
	.st1{fill:none;stroke:#B6D4FF;stroke-width:15;stroke-linecap:square;stroke-miterlimit:10;}
	.st2{fill:none;stroke:#B6D4FF;stroke-width:12;stroke-linecap:square;stroke-miterlimit:10;}
	.st3{fill:#CCE3FF;}
	.st4{fill:none;stroke:#ECF6FF;stroke-width:15;stroke-linecap:square;stroke-miterlimit:10;}
	.st5{fill:none;stroke:#ECF6FF;stroke-width:10;stroke-linecap:square;stroke-miterlimit:10;}
	.st6{fill:#DCEEFF;}
	.st7{fill:#B6D4FF;}
	.st8{fill:none;stroke:#CCE3FF;stroke-width:13;stroke-miterlimit:10;}
	.st9{fill:#B6D4FF;stroke:#ECF6FF;stroke-width:13;stroke-miterlimit:10;}
	.st10{fill:none;stroke:#ECF6FF;stroke-width:13;stroke-miterlimit:10;}
	.st11{fill:none;stroke:#ECF6FF;stroke-width:16;stroke-linejoin:bevel;stroke-miterlimit:10;}
	.st12{fill:#B6D4FF;stroke:#ECF6FF;stroke-width:7;stroke-miterlimit:10;}
	.st13{fill:none;stroke:#ECF6FF;stroke-width:7;stroke-miterlimit:10;}
	.st14{fill:#ECF6FF;stroke:#DCEEFF;stroke-width:20;stroke-linecap:round;stroke-miterlimit:10;}
</style>
<g>
	<circle class="st0" cx="1291" cy="528.8" r="238"/>
	<line class="st1" x1="1291" y1="482.7" x2="1291" y2="946.8"/>
	<line class="st2" x1="1347.4" y1="690.9" x2="1385.5" y2="652.9"/>
	<line class="st2" x1="1347.4" y1="520.3" x2="1385.5" y2="482.2"/>
	<line class="st2" x1="1234.6" y1="609.5" x2="1196.5" y2="571.4"/>
	<line class="st2" x1="1234.6" y1="524.2" x2="1196.5" y2="486.1"/>
</g>
<g>
	<path class="st3" d="M1754.5,588.5c0,114.5-74.8,178.4-172.1,178.4c-97.4,0-172.1-63.9-172.1-178.4
		c0-241.2,109.9-519.2,172.1-519.2S1754.5,347.3,1754.5,588.5z"/>
	<line class="st4" x1="1582.4" y1="418.1" x2="1582.4" y2="946.8"/>
	<line class="st5" x1="1629.6" y1="690" x2="1667.6" y2="651.9"/>
	<line class="st5" x1="1629.6" y1="475.5" x2="1667.6" y2="437.4"/>
</g>
<path class="st3" d="M897.2,948.8l429.1,2.3c24.5-31.1,81.5-109,58.6-132.1c-15.1-15.1-60.4,33.6-72.6,19
	c-12.2-14.6,68-105.7,47.7-118.6c-35.9-22.6-151.5,139.8-166.4,126.7c-15.7-13.7,58-109.2,32-119.4
	c-30.2-11.8-110.3,134.3-133.4,119.4c-12.1-7.8,11.4-55.4-6.1-63.6c-30.4-14.2-81.2,123.3-102.8,111.1c-10.2-5.8,1.3-25.7-14-30.6
	C950.5,857,912.8,920.6,897.2,948.8z"/>
<g>
	<rect x="530.7" y="37.6" class="st6" width="97.2" height="131.8"/>
	<rect x="467.8" y="37.6" class="st3" width="81.3" height="131.8"/>
	<rect x="527" y="18" class="st6" width="118.2" height="19.5"/>
	<rect x="450.5" y="18" class="st3" width="105.5" height="19.5"/>
	<polygon class="st7" points="45.4,437.5 613.2,437.5 897.2,110.3 329.3,110.3 	"/>
	<polygon class="st7" points="1181.5,437.5 613.6,437.5 329.7,110.3 897.5,110.3 	"/>
	<line class="st8" x1="846.5" y1="110.3" x2="1130.5" y2="437.5"/>
	<line class="st8" x1="771.5" y1="110.3" x2="1055.5" y2="437.5"/>
	<line class="st8" x1="696.5" y1="110.3" x2="980.5" y2="437.5"/>
	<line class="st8" x1="621.5" y1="110.3" x2="905.5" y2="437.5"/>
	<line class="st8" x1="546.5" y1="110.3" x2="830.5" y2="437.5"/>
	<line class="st8" x1="396.5" y1="110.3" x2="680.5" y2="437.5"/>
	<line class="st8" x1="471.5" y1="110.3" x2="755.5" y2="437.5"/>
	<rect x="86.1" y="437.4" class="st3" width="535.6" height="518.5"/>
	<polygon class="st3" points="621.7,437.4 86.1,437.4 353.9,128.9 	"/>
	<path class="st6" d="M185.5,503.6L185.5,503.6c-16.6,0-30,13.4-30,30v325.1h60V533.6C215.5,517,202,503.6,185.5,503.6z"/>
	<path class="st6" d="M538.3,503.6L538.3,503.6c-16.6,0-30,13.4-30,30v325.1h60V533.6C568.3,517,554.9,503.6,538.3,503.6z"/>
	<rect x="621.7" y="437.4" class="st6" width="535.6" height="518.5"/>
	<rect x="727.7" y="563.8" class="st3" width="134.3" height="281.4"/>
	<g>
		<rect x="728.6" y="851.8" class="st7" width="142.8" height="0.4"/>
		<polygon class="st0" points="877.9,845.3 722.1,845.3 722.1,858.7 877.9,858.7 877.9,845.3 		"/>
	</g>
	<rect x="722.1" y="845.3" class="st3" width="15.2" height="13.4"/>
	<g>
		<rect x="919.6" y="851.8" class="st7" width="142.8" height="0.4"/>
		<polygon class="st0" points="1069,845.3 913.1,845.3 913.1,858.7 1069,858.7 1069,845.3 		"/>
	</g>
	<rect x="913.1" y="845.3" class="st3" width="15.2" height="13.4"/>
	<rect x="916.6" y="563.8" class="st3" width="134.3" height="281.4"/>
	<g>
		<rect x="741.5" y="570.3" class="st7" width="121.3" height="268.4"/>
		<path class="st0" d="M856.4,576.8v255.4H748V576.8H856.4 M869.4,563.8H735v281.4h134.3V563.8L869.4,563.8z"/>
	</g>
	<rect x="264.3" y="535.9" class="st6" width="179.1" height="415.2"/>
	<g>
		<path class="st7" d="M154,852.2V533.6c0-13,10.5-23.5,23.5-23.5s23.5,10.5,23.5,23.5v318.6H154z"/>
		<path class="st0" d="M177.5,516.6c9.4,0,17,7.6,17,17v312.1h-34V533.6C160.5,524.2,168.1,516.6,177.5,516.6 M177.5,503.6
			c-16.6,0-30,13.4-30,30v325.1h60V533.6C207.5,517,194,503.6,177.5,503.6L177.5,503.6z"/>
	</g>
	<g>
		<path class="st7" d="M506.8,852.2V533.6c0-13,10.5-23.5,23.5-23.5s23.5,10.5,23.5,23.5v318.6H506.8z"/>
		<path class="st0" d="M530.3,516.6c9.4,0,17,7.6,17,17v312.1h-34V533.6C513.3,524.2,520.9,516.6,530.3,516.6 M530.3,503.6
			L530.3,503.6c-16.6,0-30,13.4-30,30v325.1h60V533.6C560.3,517,546.9,503.6,530.3,503.6L530.3,503.6z"/>
	</g>
	<g>
		<rect x="930.4" y="570.3" class="st7" width="121.3" height="268.4"/>
		<path class="st0" d="M1045.2,576.8v255.4H936.9V576.8H1045.2 M1058.2,563.8H923.9v281.4h134.3V563.8L1058.2,563.8z"/>
	</g>
	<polygon class="st6" points="1011.5,437.5 767.4,437.5 889.5,296.8 	"/>
	<circle class="st9" cx="889.5" cy="458" r="59.7"/>
	<g>
		<line class="st10" x1="741.3" y1="704.5" x2="864.7" y2="704.5"/>
	</g>
	<line class="st10" x1="802.2" y1="572.7" x2="802.2" y2="705.7"/>
	<line class="st10" x1="991" y1="570.9" x2="991" y2="839.7"/>
	<line class="st10" x1="930" y1="704.5" x2="1052.5" y2="704.5"/>
	<line class="st10" x1="835.4" y1="458" x2="948.4" y2="458"/>
	<line class="st10" x1="889.5" y1="398.3" x2="889.5" y2="517.7"/>
	<circle class="st9" cx="353.9" cy="328.6" r="61.6"/>
	<line class="st10" x1="295.9" y1="328.6" x2="412.3" y2="328.6"/>
	<line class="st10" x1="353.9" y1="267" x2="353.9" y2="390.1"/>
	<g>
		<line class="st10" x1="155.8" y1="580.3" x2="197" y2="580.3"/>
	</g>
	<line class="st10" x1="157.9" y1="650.1" x2="194.8" y2="650.1"/>
	<line class="st10" x1="157.9" y1="719.8" x2="194.8" y2="719.8"/>
	<line class="st10" x1="155.8" y1="789.6" x2="197" y2="789.6"/>
	<g>
		<line class="st10" x1="508.8" y1="580.3" x2="550" y2="580.3"/>
	</g>
	<line class="st10" x1="510.9" y1="650.1" x2="547.8" y2="650.1"/>
	<line class="st10" x1="510.9" y1="719.8" x2="547.8" y2="719.8"/>
	<line class="st10" x1="508.8" y1="789.6" x2="550" y2="789.6"/>
	<g>
		<rect x="305.2" y="690.6" class="st7" width="97.5" height="93.7"/>
		<g>
			<path class="st0" d="M398.1,695.1v84.7h-88.5v-84.7H398.1 M407.1,686.1H300.7v102.7h106.5V686.1L407.1,686.1z"/>
		</g>
	</g>
	<rect x="319.5" y="803.4" class="st0" width="68.8" height="16.6"/>
	<g>
		<rect x="305.2" y="570.8" class="st7" width="97.5" height="93.7"/>
		<g>
			<path class="st0" d="M398.1,575.3v84.7h-88.5v-84.7H398.1 M407.1,566.3H300.7v102.7h106.5V566.3L407.1,566.3z"/>
		</g>
	</g>
	<circle class="st7" cx="284.6" cy="749.4" r="8.6"/>
	<polyline class="st11" points="45.4,442.5 329.7,115.3 613.6,442.5 	"/>
	<polyline class="st11" points="765.3,437.4 889.5,294.5 1013.6,437.4 	"/>
	<line class="st12" x1="621.7" y1="458.7" x2="86.1" y2="458.7"/>
	<line class="st13" x1="86.1" y1="440.4" x2="621.7" y2="440.4"/>
	<line class="st13" x1="86.1" y1="477" x2="621.7" y2="477"/>
	<rect x="318.1" y="878.3" class="st7" width="71.5" height="68.1"/>
	<rect x="334.5" y="875.6" class="st0" width="38.8" height="5.5"/>
</g>
<path class="st6" d="M1540.5,876.4c0.7,0.9,16.6,37.5,14.7,72.1h55.9c1.1-18.9,13.1-46,13.1-46s-24.6,10-41.3,38.4
	C1583,940.9,1570.4,889.5,1540.5,876.4z"/>
<path class="st6" d="M1722.3,863.6c-0.4,1.7-10.1,37.1-16.6,80.4h-24.2C1699.2,892.8,1721.6,864.4,1722.3,863.6z"/>
<path class="st6" d="M1473.4,897.1c0.6,0.8,19.7,26.3,22.1,49.7h33.5C1513.2,915.4,1474.3,897.5,1473.4,897.1z"/>
<line class="st14" x1="1791.2" y1="951" x2="39.9" y2="951"/>
</svg>
