<svg id="e660eh1nizkb1" xmlns="http://www.w3.org/2000/svg" xmlns:xlink="http://www.w3.org/1999/xlink" viewBox="0 0 1088.500000 1199.800000" shape-rendering="geometricPrecision" text-rendering="geometricPrecision"><style><![CDATA[#e660eh1nizkb2 {animation: e660eh1nizkb2_c_o 6000ms linear infinite normal forwards}@keyframes e660eh1nizkb2_c_o { 0% {opacity: 0} 16.666667% {opacity: 1} 58.333333% {opacity: 1} 85% {opacity: 0} 100% {opacity: 0} }#e660eh1nizkb6 {animation: e660eh1nizkb6_c_o 6000ms linear infinite normal forwards}@keyframes e660eh1nizkb6_c_o { 0% {opacity: 0} 16.666667% {opacity: 1} 58.333333% {opacity: 1} 85% {opacity: 0} 100% {opacity: 0} }#e660eh1nizkb9 {animation: e660eh1nizkb9_c_o 6000ms linear infinite normal forwards}@keyframes e660eh1nizkb9_c_o { 0% {opacity: 0} 16.666667% {opacity: 1} 58.333333% {opacity: 1} 100% {opacity: 0} }#e660eh1nizkb58 {animation: e660eh1nizkb58_c_o 6000ms linear infinite normal forwards}@keyframes e660eh1nizkb58_c_o { 0% {opacity: 0} 16.666667% {opacity: 1} 58.333333% {opacity: 1} 100% {opacity: 0} }#e660eh1nizkb59 {animation: e660eh1nizkb59_c_o 6000ms linear infinite normal forwards}@keyframes e660eh1nizkb59_c_o { 0% {opacity: 0} 16.666667% {opacity: 1} 58.333333% {opacity: 1} 100% {opacity: 0} }#e660eh1nizkb65 {animation: e660eh1nizkb65_c_o 6000ms linear infinite normal forwards}@keyframes e660eh1nizkb65_c_o { 0% {opacity: 0} 8.333333% {opacity: 0} 25% {opacity: 1} 66.666667% {opacity: 1} 93.333333% {opacity: 0} 100% {opacity: 0} }#e660eh1nizkb66 {animation: e660eh1nizkb66_c_o 6000ms linear infinite normal forwards}@keyframes e660eh1nizkb66_c_o { 0% {opacity: 0} 8.333333% {opacity: 0} 25% {opacity: 1} 66.666667% {opacity: 1} 93.333333% {opacity: 0} 100% {opacity: 0} }]]></style><circle id="e660eh1nizkb2" r="13.500000" transform="matrix(1 0 0 1 170.30000000000001 834.50000000000000)" opacity="0" fill="rgb(215,218,221)" stroke="none" stroke-width="1"/><circle id="e660eh1nizkb3" r="13.500000" transform="matrix(1 0 0 1 474.39999999999998 1060.90000000000009)" fill="rgb(215,218,221)" stroke="none" stroke-width="1"/><circle id="e660eh1nizkb4" r="7.800000" transform="matrix(1 0 0 1 30.80000000000000 914.10000000000002)" fill="rgb(215,218,221)" stroke="none" stroke-width="1"/><circle id="e660eh1nizkb5" r="7.800000" transform="matrix(1 0 0 1 938.29999999999995 1105.50000000000000)" fill="rgb(215,218,221)" stroke="none" stroke-width="1"/><circle id="e660eh1nizkb6" r="19.400000" transform="matrix(1 0 0 1 626 755.20000000000005)" opacity="0" fill="rgb(215,218,221)" stroke="none" stroke-width="1"/><circle id="e660eh1nizkb7" r="19.400000" transform="matrix(1 0 0 1 180.59999999999999 1117.09999999999991)" fill="rgb(215,218,221)" stroke="none" stroke-width="1"/><circle id="e660eh1nizkb8" r="8" transform="matrix(1 0 0 1 777.10000000000002 737.60000000000002)" fill="rgb(215,218,221)" stroke="none" stroke-width="1"/><circle id="e660eh1nizkb9" r="18.500000" transform="matrix(1 0 0 1 1044.20000000000005 882.89999999999998)" opacity="0" fill="rgb(215,218,221)" stroke="none" stroke-width="1"/><path id="e660eh1nizkb10" d="M1032.700000,959.300000C1026.300000,873.400000,951.800000,880.800000,951.800000,880.800000C951.800000,880.800000,968.800000,798.900000,900.800000,763.800000C814,719,763.500000,814.300000,743.900000,725.200000C716.200000,599.500000,648.700000,316,648.700000,316L635.300000,333C635.300000,333,666.800000,640.600000,674.800000,740.400000C681.700000,825.300000,622.600000,747.100000,586.700000,837.700000C560.400000,812.300000,525.600000,818.200000,487.900000,829.300000C475.500000,783.900000,445.100000,746.900000,379.900000,749.900000C310.900000,753.100000,289.500000,859.700000,269.900000,755.700000C251.600000,658.500000,180.500000,373.500000,180.500000,373.500000L171.400000,400.600000C171.400000,400.600000,202.100000,758,203,826.400000C203.900000,892.200000,147.700000,838.900000,94.500000,871.900000C59.800000,893.400000,59.800000,928.800000,59.800000,957.400000C59.800000,957.900000,59.800000,958.500000,59.800000,959L60.400000,959C64.300000,1017.500000,108.700000,1064.900000,165.900000,1073.300000C171.800000,1074.200000,177.900000,1074.600000,184.100000,1074.600000C190.600000,1074.600000,196.900000,1074.100000,203.100000,1073.100000C217.800000,1102.400000,243.700000,1125.200000,275.200000,1135.800000C287.700000,1140,301.200000,1142.300000,315.100000,1142.300000C384.300000,1142.300000,440.300000,1086.200000,440.300000,1017.100000C440.300000,1014.700000,440.200000,1012.300000,440.100000,1010C440,1008,439.800000,1006,439.600000,1004C448.100000,1010,458,1014.200000,468.700000,1015.800000C471.900000,1016.300000,475.200000,1016.500000,478.600000,1016.500000C484.400000,1016.500000,490,1015.800000,495.400000,1014.400000C497.600000,1013.800000,499.800000,1013.100000,501.900000,1012.400000C519.600000,1057.700000,560.600000,1091.300000,610.100000,1098.600000C616.700000,1099.600000,623.500000,1100.100000,630.400000,1100.100000C637.600000,1100.100000,644.700000,1099.500000,651.600000,1098.500000C668,1131.100000,696.700000,1156.500000,731.800000,1168.200000C745.800000,1172.900000,760.700000,1175.400000,776.200000,1175.400000C853.100000,1175.400000,915.500000,1113,915.500000,1036.100000C915.500000,1033.400000,915.400000,1030.800000,915.300000,1028.200000C915.200000,1025.900000,915,1023.700000,914.700000,1021.500000C924.100000,1028.200000,935.100000,1032.800000,947.100000,1034.600000C950.700000,1035.100000,954.300000,1035.400000,958.100000,1035.400000C964.600000,1035.400000,970.800000,1034.600000,976.800000,1033C1009,1024.700000,1032.800000,995.400000,1032.800000,960.700000C1032.700000,960.300000,1032.700000,959.800000,1032.700000,959.300000L1032.700000,959.300000Z" fill="rgb(181,184,188)" stroke="none" stroke-width="1"/><g id="e660eh1nizkb11"><g id="e660eh1nizkb12"><path id="e660eh1nizkb13" d="M208.600000,407.300000L150.300000,415.100000C150.300000,415.100000,132,278.500000,125.600000,230.500000C120.100000,189.800000,145.900000,160.800000,145.900000,160.800000C145.900000,160.800000,178.400000,181.900000,183.800000,222.700000C190,268.600000,208.600000,407.300000,208.600000,407.300000Z" fill="rgb(108,161,255)" stroke="none" stroke-width="1"/><rect id="e660eh1nizkb14" width="58.800000" height="130.700000" rx="0" ry="0" transform="matrix(0.99110001325607 -0.13279999792576 0.13279999792576 0.99110001325607 127.78128046691415 246.66196423470973)" fill="rgb(64,95,211)" stroke="none" stroke-width="1"/><rect id="e660eh1nizkb15" width="47.300000" height="17.900000" rx="0" ry="0" transform="matrix(0.99110001325607 -0.13279999792576 0.13279999792576 0.99110001325607 156.02738196700813 414.29221544563774)" fill="rgb(64,95,211)" stroke="none" stroke-width="1"/><polygon id="e660eh1nizkb16" points="123.300000,426.900000 150.300000,415.100000 145.800000,381.100000 121.900000,416.900000" fill="rgb(64,95,211)" stroke="none" stroke-width="1"/><polygon id="e660eh1nizkb17" points="237.800000,411.500000 208.600000,407.300000 204,373.300000 236.400000,401.600000" fill="rgb(64,95,211)" stroke="none" stroke-width="1"/></g><polygon id="e660eh1nizkb18" points="627.700000,301.400000 179.200000,361.500000 165.400000,258.400000 372.200000,98.100000 613.900000,198.300000" fill="rgb(108,161,255)" stroke="none" stroke-width="1"/><path id="e660eh1nizkb19" d="M513.300000,184.100000L530.700000,314.400000L276.100000,348.500000L258.700000,218.200000C256.300000,200.200000,263.600000,182.200000,278,171.100000L372.200000,98.100000L482.300000,143.800000C499.100000,150.700000,510.900000,166.100000,513.300000,184.100000Z" fill="rgb(64,95,211)" stroke="none" stroke-width="1"/><g id="e660eh1nizkb20"><path id="e660eh1nizkb21" d="M674.200000,339.500000L615.900000,347.300000C615.900000,347.300000,597.600000,210.700000,591.200000,162.700000C585.700000,122,611.500000,93,611.500000,93C611.500000,93,644,114.100000,649.400000,154.900000C655.600000,200.800000,674.200000,339.500000,674.200000,339.500000Z" fill="rgb(108,161,255)" stroke="none" stroke-width="1"/><rect id="e660eh1nizkb22" width="58.800000" height="130.700000" rx="0" ry="0" transform="matrix(0.99110001325607 -0.13279999792576 0.13279999792576 0.99110001325607 593.35950704813001 178.84950363337992)" fill="rgb(64,95,211)" stroke="none" stroke-width="1"/><rect id="e660eh1nizkb23" width="47.300000" height="17.900000" rx="0" ry="0" transform="matrix(0.99110001325607 -0.13279999792576 0.13279999792576 0.99110001325607 621.60560854822393 346.47985211908815)" fill="rgb(64,95,211)" stroke="none" stroke-width="1"/><polygon id="e660eh1nizkb24" points="588.900000,359 615.900000,347.300000 611.400000,313.300000 587.600000,349.100000" fill="rgb(64,95,211)" stroke="none" stroke-width="1"/><polygon id="e660eh1nizkb25" points="703.400000,343.700000 674.200000,339.500000 669.600000,305.500000 702,333.800000" fill="rgb(64,95,211)" stroke="none" stroke-width="1"/></g><path id="e660eh1nizkb26" d="M322,594.200000L338.700000,612.300000C338.700000,612.300000,300,647.900000,296.700000,674.900000L380,620.500000L339.100000,564.100000L322,594.200000Z" fill="rgb(13,11,109)" stroke="none" stroke-width="1"/><polygon id="e660eh1nizkb27" points="342.600000,569.400000 361.500000,595.700000 338.700000,612.300000 322,594.200000" fill="rgb(207,62,131)" stroke="none" stroke-width="1"/><path id="e660eh1nizkb28" d="M496.500000,677L514.300000,694.100000C514.300000,694.100000,497.700000,750.900000,496,778.100000L554,695.800000L511.800000,645.900000L496.500000,677Z" fill="rgb(13,11,109)" stroke="none" stroke-width="1"/><polygon id="e660eh1nizkb29" points="515.600000,651 534,672.100000 514.300000,694.100000 496.500000,677" fill="rgb(207,62,131)" stroke="none" stroke-width="1"/><path id="e660eh1nizkb30" d="M230,379.900000C230,379.900000,324.800000,378,330.300000,364.500000C341.200000,337.900000,328.200000,249.400000,328.200000,249.400000L272.500000,259L282.100000,339.300000L217.700000,353.300000" fill="rgb(229,118,198)" stroke="none" stroke-width="1"/><path id="e660eh1nizkb31" d="M329.400000,342.700000L315.600000,284L270.100000,292.600000C270.100000,292.600000,269.200000,220.700000,280.800000,202.900000C290.800000,187.500000,307.800000,167.600000,350.600000,158.800000C414.200000,145.800000,429.600000,152.500000,450.900000,168.700000C469.300000,182.800000,494.600000,226.500000,494.600000,226.500000L446.900000,252.500000L462.900000,307.600000L329.400000,342.700000Z" fill="rgb(255,192,0)" stroke="none" stroke-width="1"/><polyline id="e660eh1nizkb32" points="356.700000,28.400000 359.600000,47.800000 367.600000,48.800000 375.900000,31.600000" fill="none" stroke="rgb(13,11,109)" stroke-width="9" stroke-miterlimit="10"/><path id="e660eh1nizkb33" d="M264.200000,78.100000C264.200000,78.100000,246.800000,118.600000,284.400000,118.600000L264.200000,78.100000Z" fill="rgb(13,11,109)" stroke="none" stroke-width="1"/><path id="e660eh1nizkb34" d="M338.800000,177L332.600000,153.200000C332.600000,153.200000,299.100000,164.600000,290.300000,162.500000C290.300000,162.500000,275.100000,127.700000,274.200000,100.500000L297.700000,65.100000L348,56.200000L365,99.400000C365.600000,91.100000,386.700000,75.600000,396.700000,91.200000C409.600000,111.400000,372.600000,132.600000,372.600000,132.600000L382.100000,163.700000" fill="rgb(229,118,198)" stroke="none" stroke-width="1"/><path id="e660eh1nizkb35" d="M338.800000,161.500000L327.900000,165.500000C327.900000,165.500000,321.900000,198.600000,355,191.700000C381.800000,186.200000,386.300000,153.200000,386.300000,153.200000L371.500000,154.900000" fill="rgb(229,118,198)" stroke="none" stroke-width="1"/><path id="e660eh1nizkb36" d="M381.800000,84.900000C381.800000,84.900000,403.300000,69.100000,368,47.300000C332.700000,25.500000,311.700000,46.900000,311.700000,46.900000C311.700000,46.900000,297.200000,19.300000,277.800000,24.300000C250.200000,31.500000,256.800000,75.300000,256.800000,75.300000C256.800000,75.300000,236.900000,55.600000,229.900000,61C222.800000,66.300000,242.300000,143.600000,342.700000,77.900000C342.700000,77.900000,338.700000,101.600000,365,99.500000C364.900000,99.400000,367,89.200000,381.800000,84.900000Z" fill="rgb(13,11,109)" stroke="none" stroke-width="1"/><path id="e660eh1nizkb37" d="M403.900000,152C403.900000,152,407,150.100000,425,154.700000C425,154.700000,411.200000,204.700000,451.800000,297.400000L445.100000,303.800000C445.100000,303.800000,394.500000,240.200000,403.900000,152Z" fill="rgb(36,37,48)" stroke="none" stroke-width="1"/><path id="e660eh1nizkb38" d="M295.800000,184.700000C295.800000,184.700000,307.300000,172.800000,314.900000,171.200000C314.900000,171.200000,296.700000,211.700000,322.200000,312.100000L327.900000,336.400000C327.900000,336.400000,284.300000,271.200000,295.800000,184.700000Z" fill="rgb(36,37,48)" stroke="none" stroke-width="1"/><path id="e660eh1nizkb39" d="M310.800000,146.900000C312,150.600000,320.800000,151.800000,326,147.900000C337.400000,139.300000,333.900000,128,326.900000,128.200000C318.100000,128.400000,320.200000,136.500000,316.100000,139.200000C311.500000,142.300000,310,144.200000,310.800000,146.900000Z" fill="rgb(255,255,255)" stroke="none" stroke-width="1"/><polygon id="e660eh1nizkb40" points="332.600000,153.300000 358.800000,140.800000 335.600000,164.500000" fill="rgb(207,62,131)" stroke="none" stroke-width="1"/><polygon id="e660eh1nizkb41" points="300.700000,119.500000 297.500000,142.300000 307.700000,139.800000" fill="rgb(64,95,211)" stroke="none" stroke-width="1"/><ellipse id="e660eh1nizkb42" rx="5" ry="6.800000" transform="matrix(0.99029999971390 -0.13879999518394 0.13879999518394 0.99029999971390 313.88706910908218 118.51013238728046)" fill="rgb(13,11,109)" stroke="none" stroke-width="1"/><ellipse id="e660eh1nizkb43" rx="5" ry="6.800000" transform="matrix(0.99029999971390 -0.13879999518394 0.13879999518394 0.99029999971390 289.58969887793069 123.90628959536554)" fill="rgb(13,11,109)" stroke="none" stroke-width="1"/><path id="e660eh1nizkb44" d="M329.400000,342.700000C329.400000,342.700000,207.800000,407.400000,195.200000,443.600000C181.700000,482.600000,318,610.700000,318,610.700000L360.100000,580.200000L283,459.300000L427,379.900000L396,325.200000L329.400000,342.700000Z" fill="rgb(47,47,61)" stroke="none" stroke-width="1"/><path id="e660eh1nizkb45" d="M386.200000,327.800000C386.200000,327.800000,377.300000,505.800000,386.200000,542.300000C391,561.900000,499.400000,698.200000,499.400000,698.200000L534.300000,655.900000L459.900000,515.200000L469.100000,304.700000L386.200000,327.800000Z" fill="rgb(47,47,61)" stroke="none" stroke-width="1"/><path id="e660eh1nizkb46" d="M412.400000,322.800000C412.400000,322.800000,500.800000,337.100000,512.900000,325.700000C532.200000,307.500000,488,230.300000,488,230.300000L445,253.900000L461.900000,289.400000L409.700000,289.800000" fill="rgb(229,118,198)" stroke="none" stroke-width="1"/><line id="e660eh1nizkb47" x1="190.200000" y1="330.200000" x2="235.500000" y2="390.500000" fill="none" stroke="rgb(35,38,43)" stroke-width="20" stroke-miterlimit="10"/><line id="e660eh1nizkb48" x1="398.800000" y1="336.700000" x2="382.800000" y2="261.200000" fill="none" stroke="rgb(35,38,43)" stroke-width="18" stroke-miterlimit="10"/><ellipse id="e660eh1nizkb49" rx="13.800000" ry="23.600000" transform="matrix(0.73869997262955 -0.67400002479553 0.67400002479553 0.73869997262955 209.48065652251245 373.20582251548768)" fill="rgb(229,118,198)" stroke="none" stroke-width="1"/><path id="e660eh1nizkb50" d="M217,355.200000C216.500000,362.800000,208.400000,363.300000,208.400000,363.300000L207.200000,344.200000L232.400000,350.200000L231,363.300000L217,355.200000Z" fill="rgb(229,118,198)" stroke="none" stroke-width="1"/><path id="e660eh1nizkb51" d="M417.100000,293.500000C417.100000,293.500000,392.700000,277,386.800000,277.400000C379.600000,278,369.200000,283.200000,365.400000,286C361.600000,288.800000,364.600000,296.100000,367,297.700000C367,297.700000,362.600000,303.900000,368.200000,310.300000C368.200000,310.300000,367.800000,316.600000,373.700000,319.900000C373.700000,319.900000,375.100000,326.400000,382,326.600000C388.900000,326.800000,405.200000,323.900000,417.800000,321.500000" fill="rgb(229,118,198)" stroke="none" stroke-width="1"/><line id="e660eh1nizkb52" x1="190.200000" y1="330.200000" x2="307.200000" y2="175.800000" fill="none" stroke="rgb(35,38,43)" stroke-width="5" stroke-miterlimit="10"/><line id="e660eh1nizkb53" x1="413.600000" y1="152.600000" x2="382.800000" y2="261.200000" fill="none" stroke="rgb(35,38,43)" stroke-width="5" stroke-miterlimit="10"/><polygon id="e660eh1nizkb54" points="383.300000,403.700000 384.300000,383.500000 331.200000,432.300000" fill="rgb(29,33,38)" stroke="none" stroke-width="1"/><polygon id="e660eh1nizkb55" points="445,253.800000 488,230.200000 451.900000,268.300000" fill="rgb(207,62,131)" stroke="none" stroke-width="1"/><polygon id="e660eh1nizkb56" points="276.400000,291.400000 278.300000,307.400000 308.600000,296 305.200000,286" fill="rgb(207,62,131)" stroke="none" stroke-width="1"/></g><circle id="e660eh1nizkb57" r="94.700000" transform="matrix(1 0 0 1 322 922.29999999999995)" fill="rgb(215,218,221)" stroke="none" stroke-width="1"/><circle id="e660eh1nizkb58" r="67.500000" transform="matrix(1 0 0 1 416.69999999999999 912.70000000000005)" opacity="0" fill="rgb(215,218,221)" stroke="none" stroke-width="1"/><circle id="e660eh1nizkb59" r="50.600000" transform="matrix(1 0 0 1 220.90000000000001 964.60000000000002)" opacity="0" fill="rgb(215,218,221)" stroke="none" stroke-width="1"/><circle id="e660eh1nizkb60" r="28.400000" transform="matrix(1 0 0 1 121.90000000000001 959.29999999999995)" fill="rgb(190,193,198)" stroke="none" stroke-width="1"/><circle id="e660eh1nizkb61" r="38.200000" transform="matrix(1 0 0 1 777.10000000000002 1090.09999999999991)" fill="rgb(190,193,198)" stroke="none" stroke-width="1"/><circle id="e660eh1nizkb62" r="22.300000" transform="matrix(1 0 0 1 864.20000000000005 812.20000000000005)" fill="rgb(190,193,198)" stroke="none" stroke-width="1"/><circle id="e660eh1nizkb63" r="34.900000" transform="matrix(1 0 0 1 313.89999999999998 1082.20000000000005)" fill="rgb(190,193,198)" stroke="none" stroke-width="1"/><circle id="e660eh1nizkb64" r="94.700000" transform="matrix(1 0 0 1 765.50000000000000 921.79999999999995)" fill="rgb(215,218,221)" stroke="none" stroke-width="1"/><circle id="e660eh1nizkb65" r="63.800000" transform="matrix(1 0 0 1 631.20000000000005 959.29999999999995)" opacity="0" fill="rgb(215,218,221)" stroke="none" stroke-width="1"/><circle id="e660eh1nizkb66" r="48" transform="matrix(1 0 0 1 930.50000000000000 956.70000000000005)" opacity="0" fill="rgb(215,218,221)" stroke="none" stroke-width="1"/></svg>