<?xml version="1.0" encoding="utf-8"?>
<!-- Generator: Adobe Illustrator 24.3.0, SVG Export Plug-In . SVG Version: 6.00 Build 0)  -->
<svg version="1.1" id="Back" xmlns="http://www.w3.org/2000/svg" xmlns:xlink="http://www.w3.org/1999/xlink" x="0px" y="0px"
	 viewBox="0 0 1391.8 800.1" style="enable-background:new 0 0 1391.8 800.1;" xml:space="preserve">
<style type="text/css">
	.st0{fill:#AFB3C6;}
	.st1{opacity:0.36;fill:#989BA5;}
	.st2{fill:#2E2F33;}
	.st3{fill:#232428;}
	.st4{fill:#0F0F11;}
	.st5{fill:#42444C;}
	.st6{fill:#B5B9C6;}
	.st7{fill:#E8E8EA;}
	.st8{fill:none;stroke:#838487;stroke-width:3;stroke-miterlimit:10;}
	.st9{fill:#BDBDC6;}
	.st10{fill:#4C4E56;}
	.st11{fill:#FFFFFF;}
	.st12{fill:#C0F5F9;}
	.st13{fill:none;stroke:#838487;stroke-width:5;stroke-miterlimit:10;}
	.st14{fill-rule:evenodd;clip-rule:evenodd;fill:#1D1E22;}
	.st15{fill-rule:evenodd;clip-rule:evenodd;fill:#34363A;}
	.st16{fill:#E576C6;}
	.st17{fill:#CF3E83;}
	.st18{fill-rule:evenodd;clip-rule:evenodd;fill:#FFFFFF;}
	.st19{fill-rule:evenodd;clip-rule:evenodd;fill:#25252B;}
	.st20{fill:#D3DBE0;}
	.st21{fill:#240040;}
	.st22{fill:#6CA1FF;}
	.st23{fill:#405FD3;}
	.st24{fill:#0D0B6D;}
	.st25{fill:none;stroke:#C14999;stroke-width:2;stroke-linecap:round;stroke-miterlimit:10;}
	.st26{fill:#C8C9D3;}
	.st27{fill:none;stroke:#838487;stroke-width:6;stroke-miterlimit:10;}
</style>
<g>
	<ellipse class="st0" cx="699" cy="774.3" rx="677.6" ry="3.6"/>
	<path class="st1" d="M1197.2,774.3h-126.3c1.5-33.6,29.2-60.4,63.2-60.4c1.2,0,2.3,0,3.5,0.1
		C1169.8,715.8,1195.7,741.9,1197.2,774.3z"/>
	<path class="st1" d="M1312,738.8c0,12.6-2.6,24.7-7.4,35.6h-163.2c-4.8-10.9-7.4-22.9-7.4-35.6c0-8.6,1.2-16.9,3.5-24.7
		c10.7-37.1,44.9-64.3,85.5-64.3c40.6,0,74.8,27.1,85.5,64.3C1310.8,721.9,1312,730.2,1312,738.8z"/>
	<path class="st1" d="M1358.8,767.5c0,2.3-0.2,4.6-0.4,6.9h-106.2c-0.3-2.2-0.4-4.5-0.4-6.9c0-29.6,24-53.5,53.5-53.5
		c1.1,0,2.2,0,3.3,0.1C1336.5,715.7,1358.8,739,1358.8,767.5z"/>
	<path class="st1" d="M686.4,774.3H579.6c1.8-27.9,25-49.9,53.4-49.9c9.8,0,19,2.6,26.8,7.2C674.8,740.3,685.2,756.1,686.4,774.3z"
		/>
	<path class="st1" d="M803.2,767.5c0,2.3-0.1,4.6-0.3,6.9H651.2c-0.2-2.3-0.3-4.5-0.3-6.9c0-13,3.2-25.2,9-35.9
		c12.8-24,38.1-40.3,67.2-40.3c29.6,0,55.2,16.8,67.8,41.5C800.2,743.2,803.2,755,803.2,767.5z"/>
	<path class="st1" d="M880.6,770.7c0,1.2,0,2.4-0.1,3.6H778.2c-0.1-1.2-0.1-2.4-0.1-3.6c0-15,6.5-28.6,16.8-37.9
		c9.1-8.3,21.2-13.3,34.5-13.3c21.3,0,39.5,13,47.3,31.4C879.2,756.9,880.6,763.7,880.6,770.7z"/>
	<path class="st1" d="M933.6,774.3h-66.7c0-9.2,3.7-17.5,9.7-23.5c6-6.1,14.4-9.9,23.7-9.9C918.7,741,933.6,755.9,933.6,774.3z"/>
	<path class="st2" d="M522.9,701.3h562.5l32.8-60.3c0,0,11.5-131.9-42.7-152.8c-54.2-20.9-365.5-22.4-365.5-22.4L522.9,701.3z"/>
	<ellipse class="st3" cx="509.5" cy="650.6" rx="52.4" ry="123.7"/>
	<rect x="509.5" y="526.9" class="st3" width="65.7" height="247.4"/>
	<ellipse class="st4" cx="575.2" cy="650.6" rx="52.4" ry="123.7"/>
	<ellipse class="st4" cx="575.2" cy="650.6" rx="35.7" ry="92.9"/>
	<g>
		<ellipse class="st3" cx="661.3" cy="650.6" rx="52.4" ry="123.7"/>
		<rect x="661.3" y="526.9" class="st3" width="65.7" height="247.4"/>
		<ellipse class="st5" cx="727" cy="650.6" rx="52.4" ry="123.7"/>
		<ellipse class="st6" cx="727" cy="650.6" rx="35.7" ry="92.9"/>
	</g>
	<ellipse class="st3" cx="146.3" cy="650.6" rx="52.4" ry="123.7"/>
	<rect x="146.3" y="526.9" class="st3" width="65.7" height="247.4"/>
	<ellipse class="st4" cx="212" cy="650.6" rx="52.4" ry="123.7"/>
	<ellipse class="st4" cx="212" cy="650.6" rx="35.7" ry="92.9"/>
	<g>
		<ellipse class="st3" cx="1000.8" cy="650.6" rx="52.4" ry="123.7"/>
		<rect x="1000.8" y="526.9" class="st3" width="65.7" height="247.4"/>
		<ellipse class="st5" cx="1066.5" cy="650.6" rx="52.4" ry="123.7"/>
		<ellipse class="st6" cx="1066.5" cy="650.6" rx="35.7" ry="92.9"/>
	</g>
	<path class="st7" d="M1118.9,649c0.7-2.7,2.1-155.6-45.1-155.6c-35,0-55.1,122-62.8,177.7c-0.6,4.6-1.2,8.8-1.7,12.6
		c-1.3,10-9.8,17.6-20,17.6H799.1c-8.1,0-13.6-8-10.8-15.6c1.6-4.2,3-9.1,4.4-14.5c14.5-57,16.8-174.1-44.1-178.2
		c-55.5-3.8-82.3,102.3-95.5,164.5c-1,4.9-2.7,9.5-4.9,13.7c-9.3,18.2-28.2,30.2-49.4,30.2H138.5c-18.7,0-36-6.9-49.3-18.4
		c-13.3-11.5-22.6-27.7-25.2-46.2c-11.1-138.5,94-302.2,94-302.2l0,0c0,0,94.9-159.4,179.7-204.8C486.7,49.9,819.1,76,924.5,131
		c27.9,14.6,51.2,40.8,70.5,72.5c22.4,36.8,39.5,81.1,52.4,123.7c25.4,84.1,34.2,152.5,34.2,152.5
		C1132.6,525.6,1119.9,646.6,1118.9,649z"/>
	
		<ellipse transform="matrix(0.9952 -9.787605e-02 9.787605e-02 0.9952 -35.0144 104.3395)" class="st8" cx="1046" cy="409.1" rx="8.4" ry="34.8"/>
	<path class="st9" d="M995.5,589.5c-8.5,34.9-39.7,59.5-75.6,59.5h-54.8c-21.7,0-39.3-17.6-39.3-39.3V190.4
		c0-21.4,17.4-38.8,38.8-38.8h19.2c50.3,0,91.3,36.2,105,84.6c9.7,34.2,16.3,67.1,20.4,98.3C1023.9,444.6,1008.9,534.2,995.5,589.5z
		"/>
	<path class="st10" d="M1009.2,334.6H825.8V190.4c0-21.4,17.4-38.8,38.8-38.8h19.2c50.3,0,91.3,36.2,105,84.6
		C998.4,270.4,1005,303.3,1009.2,334.6z"/>
	<path class="st11" d="M987,334.6H840.5V199c0-17.1,13.9-31,31-31h15.3c40.2,0,72.9,28.9,83.9,67.6C978.4,263,983.7,309.6,987,334.6
		z"/>
	<path class="st12" d="M974,402.8h-98.1c-6.2,0-11.2-5.1-11.2-11.2v0c0-6.2,5.1-11.2,11.2-11.2H974c6.2,0,11.2,5.1,11.2,11.2v0
		C985.2,397.7,980.2,402.8,974,402.8z"/>
	<line class="st13" x1="160.9" y1="334.5" x2="1009.3" y2="334.5"/>
	<path class="st10" d="M779.4,129.8c-2.2,2.8-4.1,5.7-5.7,8.9c-22.3,42.6-46.8,115.9-69.9,195.8H158c0,0,5.1-8.6,14-22.3
		c29.5-45.5,100.6-147.6,165.7-182.5c0.6-0.3,1.2-0.7,1.8-1c62.9-15.8,137.6-24.9,217.8-24.9C639.3,103.8,715.7,113.4,779.4,129.8z"
		/>
	<path class="st11" d="M729.3,140c4.4,1,6.5,5.7,4.4,9.6c0,0,0,0.1,0,0.1c-16.6,30.1-34.5,78.6-52,133.2
		c-5.8,18.3-23.3,30.8-43,30.8H199.9c-3.6,0-5.8-3.9-3.9-6.8c2-3.1,4.7-7.1,7.9-11.9c25.9-38.1,88.5-123.6,145.9-152.9l0,0
		c1-0.5,2.1-0.9,3.2-1.2c55-13,120.2-20.5,190.1-20.5C611.4,120.4,675.1,127.6,729.3,140z"/>
	<path class="st9" d="M703.8,334.5c-29.1,100.8-59.7,230-76.9,305c-8.3,36.1-40.4,61.7-77.5,61.7h-411c-18.7,0-36-6.9-49.3-18.4
		c-13.3-11.5-22.6-27.7-25.2-46.2c-11.1-138.5,94-302.2,94-302.2H703.8z"/>
	<path id="Rounded_Rectangle_2" class="st14" d="M349.6,425.3c13.4,0,22.1,10.8,19.5,24.2L352.1,536c-2.6,13.4-15.6,24.2-29,24.2
		c-13.4,0-22.1-10.8-19.5-24.2l16.9-86.5C323.2,436.1,336.2,425.3,349.6,425.3z"/>
	<path id="Rounded_Rectangle_2_1_" class="st15" d="M337.9,466.1c9.3-0.1,15.4,6.3,13.7,14.3l-11,52.1c-1.7,8-10.6,14.7-19.9,14.8
		c-9.3,0.1-15.4-6.3-13.7-14.3l11-52.1C319.7,472.9,328.6,466.2,337.9,466.1z"/>
	<path class="st16" d="M1114.1,201.7l-7.7,115.8c-2.9,12.5-17.2,18.4-28,11.6l-89.5-53.8l23.7-41l61.5,43.6l15.8-87.7"/>
	<polygon class="st17" points="1074.1,277.9 1072.3,290.3 1058.6,266.9 	"/>
	<path class="st18" d="M586.6,472.4l-6.4,33.8l-1.3,6.8c-5,26-30.1,47.2-56.1,47.2c-26,0-43.1-21.1-38.2-47.2l7.7-40.6
		c5-26,30.1-47.2,56.1-47.2c14.8,0,26.7,6.8,33.3,17.5C586.8,450.9,588.8,461.2,586.6,472.4z"/>
	<path class="st19" d="M586.6,472.4l-6.4,33.8c-5.7,3.5-12.4,5.5-19.6,5.5c-20.8,0-37.7-16.9-37.7-37.7c0-20.8,16.9-37.7,37.7-37.7
		c7.8,0,15.1,2.4,21.2,6.5C586.8,450.9,588.8,461.2,586.6,472.4z"/>
	<path class="st18" d="M200.1,472.4l-6.4,33.8l-1.3,6.8c-5,26-30.1,47.2-56.1,47.2c-26,0-43.1-21.1-38.2-47.2l7.7-40.6
		c5-26,30.1-47.2,56.1-47.2c14.8,0,26.7,6.8,33.3,17.5C200.3,450.9,202.3,461.2,200.1,472.4z"/>
	<path class="st19" d="M200.1,472.4l-6.4,33.8c-5.7,3.5-12.4,5.5-19.6,5.5c-20.8,0-37.7-16.9-37.7-37.7c0-20.8,16.9-37.7,37.7-37.7
		c7.8,0,15.1,2.4,21.2,6.5C200.3,450.9,202.3,461.2,200.1,472.4z"/>
	<path class="st11" d="M322.2,619c7,17.9,34.4,24,61.2,13.6c26.8-10.4,40.4-40.2,33.4-58.1c-7-17.9-33.7,4.2-60.5,14.6
		C329.5,599.5,315.2,601.1,322.2,619z"/>
	<path class="st20" d="M560.6,120.6l-134,193H297.3l129-185.9c36.6-4.8,75.9-7.3,116.9-7.3C549,120.4,554.8,120.5,560.6,120.6z"/>
	<path class="st20" d="M630.2,124.4L498.9,313.6h-38.9l133.2-191.9C605.8,122.4,618.1,123.3,630.2,124.4z"/>
	<path class="st16" d="M1090.2,194.5l-2.2-9.1c0,0-1.2-4.2-1.9-11.2c-0.7-7,1.3-10.7-1.1-22.1c-2.7-12.9,6-5.7,8.3,0.2
		c1.8,4.6,0.2,9.8,3.2,13.1c1.7-1.6,5.1-3.7,10.7-20c1-2.9,2-12.9,2-12.9c0.7-2.9,1.8-9,5.3-9.2c0.9,0,1.7,1.1,1.7,1.1
		s0.6-3.9,4.2-3.8c1.4,0,2,8.8,2,8.8s1.4-4,4-3.9c0.7,0,3.3,25.8,3.3,25.8l0.8-5.5l0.2-5.7c0,0,0.8-2.9,3.3-2.9
		c1,0,1.6,5.4,1.8,11.6c0.4,9.6-1.3,16.4-3.7,22.9c-2.9,7.9-3.2,10.7-9.2,19.8c-2.5,3.7-7.3,9.2-9.6,11.4"/>
	<circle class="st21" cx="956.7" cy="140.9" r="77.7"/>
	<circle class="st21" cx="1023.2" cy="61.7" r="41.7"/>
	
		<rect x="901.4" y="115.7" transform="matrix(1.271375e-02 -0.9999 0.9999 1.271375e-02 750.0135 1146.335)" class="st21" width="108.2" height="155.3"/>
	<path class="st22" d="M1052.3,255l-25.1,69.2l-25.4-23.1L986.7,332L851.4,332c-4.4-7.9-25.4-48.5-25.4-48.5s22.9-39.3,38.7-50.5
		c24.9-17.7,55.7-18.4,87.9-16C998.2,220.4,1052.3,255,1052.3,255z"/>
	<g>
		<path class="st16" d="M929,263.3c-2.9,0-5.6-0.4-8.2-1.1c-5.2-1.5-9.1-5.5-11.2-11.2c-3-8.5-1.4-19.5,3.9-27
			c9-12.6,14.5-13.4,15.6-13.4l0.2,0l0.2,0c0.4,0.1,10.9,1.9,19.6,4.4c7.1,2,18.3,5.1,18.3,5.1l0.7,0.2l0.4,0.6
			c0.4,0.6,3.7,6-3.4,19.6C957.8,254.3,943.6,263.3,929,263.3C929,263.3,929,263.3,929,263.3z"/>
		<path class="st23" d="M929.1,212.6c0,0,10.7,1.9,19.4,4.3c7.1,2,18.3,5.2,18.3,5.2s3.2,4.6-3.6,17.5
			c-7.7,14.5-21.9,21.8-34.4,21.8c-2.7,0-5.3-0.3-7.7-1c-12.7-3.6-14.4-23.6-6.1-35.1C924,212.7,929.1,212.6,929.1,212.6
			 M929.4,208.6l-0.4,0c-1.7,0-7.8,1.2-17.2,14.2c-5.7,8-7.4,19.6-4.2,28.8c2.3,6.4,6.7,10.9,12.5,12.5c2.8,0.8,5.7,1.2,8.8,1.2
			c15.3,0,30.2-9.4,37.9-23.9c7.4-13.9,4.4-20.1,3.3-21.6l-0.8-1.2l-1.4-0.4c0,0-11.3-3.2-18.3-5.1c-8.8-2.5-19.4-4.3-19.9-4.4
			L929.4,208.6L929.4,208.6z"/>
	</g>
	<path class="st16" d="M967.1,182.3c-5.4,5.8-5.5,14.9-4.1,20.5c0.5,1.9,2.8,17.6,3.4,18.5c2.4,3.2-36.7,11.8-36.7,11.8l3.4-30.2
		c-10.6-1.4-22.7-4.4-28.6-10.2c-17.5-17.3-9.6-63.8-8.8-66.1l20.5-15.5c0,0,27.7-6.8,30.6-1c5.3,10.5,13.8,54.6,26.7,52.2
		c0,0,1-13,11.6-10.9c7.9,1.6,8.8,8.3,8.1,12C990.8,175.7,974.5,174.4,967.1,182.3z"/>
	<polygon class="st23" points="912,161.2 900.8,178 909.6,179.6 	"/>
	
		<ellipse transform="matrix(0.1463 -0.9892 0.9892 0.1463 625.5839 1052.1879)" class="st24" cx="922.4" cy="163.7" rx="6.8" ry="4.6"/>
	
		<ellipse transform="matrix(0.1463 -0.9892 0.9892 0.1463 608.8918 1027.3445)" class="st24" cx="899.7" cy="160.9" rx="6.8" ry="4.6"/>
	<path class="st21" d="M925.4,109.8c-0.9,4.4-2.5,8.4-4.8,12c-0.3,0.4-0.6,0.9-0.9,1.3c-2.1,3-4.7,5.6-7.7,7.8
		c-7.9,6-18.4,9-29.4,7.9c-0.6-0.1-1.1-0.1-1.7-0.2l2.6-13.3l0,0c0.1-0.4,0.2-0.8,0.2-1.2c3.2-16.4,12.4-30.2,25.2-40
		c2.4-1.8,4.9-3.5,7.5-5c4.3,4.8,7.3,10.5,8.7,16.6C926.3,100.2,926.4,104.9,925.4,109.8z"/>
	<path class="st21" d="M974.8,125c-2.2,11-14,18.3-28.1,18.5c-1.1,0-2.3,0-3.4-0.1c-1.9-0.1-3.7-0.4-5.6-0.7
		c-17.9-3.5-30.3-17.2-27.7-30.4c0.3-1.3,0.6-2.5,1.1-3.7c4.7-11,19.8-17.2,36-14c17.7,3.5,30.1,16.9,27.8,30.1
		C974.9,124.7,974.8,124.9,974.8,125z"/>
	<path class="st17" d="M933.2,202.9c0,0,13.1,3,19.4,1l-20.4,7.8L933.2,202.9z"/>
	<path class="st21" d="M1002.1,284.6l-38.8-0.5l1.2-95.3l68.8,0.9l-0.8,65.3C1032.2,271.6,1018.6,284.8,1002.1,284.6z"/>
	<path class="st16" d="M942.6,370.4c-5.4,5.6-8.9,4.1-8.9,4.1s-0.7,2.6-2.5,2.8c-1.7,0.2-7.3-2.2-3.9-11.6c-0.7,1.9-2.9,6.5-5.5,5.8
		c-3.3-0.8-4.5-4.6-4.5-4.6s-5-2.5-4.5-6.6c1-7.9,1.3-18.9,1.3-18.9l-12.4-8.1l-61.2-1.6l-0.6-40.8l97.8,28.8
		c0,1.3,4.7,7.1,8.3,12.7c0.2,0.3,0.4,0.5,0.5,0.8c2,3.1,3.5,6.2,3.6,8.2C950.2,347.6,948,364.8,942.6,370.4z"/>
	<path class="st25" d="M934.9,372.2c0,0,5.7-12.7,6.7-18.5c1.5-8.5,1.3-15.3,1.3-15.3"/>
	<path class="st25" d="M926.9,367.9c0,0,3.9-10.8,5.4-15.2c1.7-4.9,1.7-15.9,1.7-15.9"/>
	<path class="st25" d="M923.8,335.5c0,0,0.9,8.2,0.1,14.1c-1.1,7.7-5.4,15.1-5.4,15.1"/>
	<path class="st26" d="M886.7,276.1v24.5c0,11.5-9.3,20.9-20.9,20.9h-77.3c-7.8,0-14.7-5.2-16.8-12.8l-15-54.9
		c-0.9-3.2,1.6-6.5,4.9-6.5H858C873.9,247.5,886.7,260.3,886.7,276.1z"/>
	<path class="st10" d="M886.7,297.5v3.1c0,11.5-9.3,20.9-20.9,20.9h-20.2v-24H886.7z"/>
	<line class="st27" x1="778.1" y1="297.5" x2="887" y2="297.5"/>
	<polygon class="st21" points="909.7,215.6 931.5,217.2 932.7,207 914.2,202.9 	"/>
	<path class="st11" d="M909.7,188.1c1.1,2.8,5.2,3.8,9.1,2.3c3.9-1.5,5.9-6.1,4.8-8.9c-1.1-2.8-5,0.5-8.9,2.1
		S908.6,185.3,909.7,188.1z"/>
</g>
</svg>
