<svg id="woman-car" xmlns="http://www.w3.org/2000/svg" xmlns:xlink="http://www.w3.org/1999/xlink" viewBox="0 0 1391.800000 800.100000" shape-rendering="geometricPrecision" text-rendering="geometricPrecision" width="1391.800000" height="800.100000"><style><![CDATA[#woman-car-path1 {animation: woman-car-path1_f_o 6000ms linear infinite normal forwards}@keyframes woman-car-path1_f_o { 0% {fill-opacity: 1} 18.333333% {fill-opacity: 1} 26.666667% {fill-opacity: 0} 35% {fill-opacity: 1} 68.333333% {fill-opacity: 1} 76.666667% {fill-opacity: 0} 85% {fill-opacity: 1} 100% {fill-opacity: 1} }#woman-car-path3 {animation: woman-car-path3_f_o 6000ms linear infinite normal forwards}@keyframes woman-car-path3_f_o { 0% {fill-opacity: 1} 33.333333% {fill-opacity: 1} 41.666667% {fill-opacity: 0} 50% {fill-opacity: 1} 83.333333% {fill-opacity: 1} 91.666667% {fill-opacity: 0} 100% {fill-opacity: 1} }#woman-car-path5 {animation: woman-car-path5_f_o 6000ms linear infinite normal forwards}@keyframes woman-car-path5_f_o { 0% {fill-opacity: 1} 8.333333% {fill-opacity: 0} 16.666667% {fill-opacity: 1} 50% {fill-opacity: 1} 58.333333% {fill-opacity: 0} 66.666667% {fill-opacity: 1} 100% {fill-opacity: 1} }#woman-car-path7 {animation: woman-car-path7_f_o 6000ms linear infinite normal forwards}@keyframes woman-car-path7_f_o { 0% {fill-opacity: 1} 8.333333% {fill-opacity: 1} 16.666667% {fill-opacity: 0} 25% {fill-opacity: 1} 83.333333% {fill-opacity: 1} 91.666667% {fill-opacity: 0} 100% {fill-opacity: 1} }#woman-car-path25_tr {animation: woman-car-path25_tr__tr 6000ms linear infinite normal forwards}@keyframes woman-car-path25_tr__tr { 0% {transform: translate(1102.200000px,207.900000px) rotate(0deg)} 8.333333% {transform: translate(1102.200000px,207.900000px) rotate(-10deg)} 16.666667% {transform: translate(1102.200000px,207.900000px) rotate(10deg)} 25% {transform: translate(1102.200000px,207.900000px) rotate(0deg)} 50% {transform: translate(1102.200000px,207.900000px) rotate(0deg)} 58.333333% {transform: translate(1102.200000px,207.900000px) rotate(-10deg)} 66.666667% {transform: translate(1102.200000px,207.900000px) rotate(10deg)} 75% {transform: translate(1102.200000px,207.900000px) rotate(0deg)} 100% {transform: translate(1102.200000px,207.900000px) rotate(0deg)} }]]></style><g id="woman-car-g1"><ellipse id="woman-car-ellipse1" rx="677.600000" ry="3.600000" transform="matrix(1 0 0 1 699 774.29999999999995)" fill="rgb(175,179,198)" stroke="none" stroke-width="1"/><path id="woman-car-path1" d="M1197.200000,774.300000L1070.900000,774.300000C1072.400000,740.700000,1100.100000,713.900000,1134.100000,713.900000C1135.300000,713.900000,1136.400000,713.900000,1137.600000,714C1169.800000,715.800000,1195.700000,741.900000,1197.200000,774.300000Z" opacity="0.36" fill="rgb(152,155,165)" stroke="none" stroke-width="1"/><path id="woman-car-path2" d="M1312,738.800000C1312,751.400000,1309.400000,763.500000,1304.600000,774.400000L1141.400000,774.400000C1136.600000,763.500000,1134,751.500000,1134,738.800000C1134,730.200000,1135.200000,721.900000,1137.500000,714.100000C1148.200000,677,1182.400000,649.800000,1223,649.800000C1263.600000,649.800000,1297.800000,676.900000,1308.500000,714.100000C1310.800000,721.900000,1312,730.200000,1312,738.800000Z" opacity="0.36" fill="rgb(152,155,165)" stroke="none" stroke-width="1"/><path id="woman-car-path3" d="M1358.800000,767.500000C1358.800000,769.800000,1358.600000,772.100000,1358.400000,774.400000L1252.200000,774.400000C1251.900000,772.200000,1251.800000,769.900000,1251.800000,767.500000C1251.800000,737.900000,1275.800000,714,1305.300000,714C1306.400000,714,1307.500000,714,1308.600000,714.100000C1336.500000,715.700000,1358.800000,739,1358.800000,767.500000Z" opacity="0.36" fill="rgb(152,155,165)" stroke="none" stroke-width="1"/><path id="woman-car-path4" d="M686.400000,774.300000L579.600000,774.300000C581.400000,746.400000,604.600000,724.400000,633,724.400000C642.800000,724.400000,652,727,659.800000,731.600000C674.800000,740.300000,685.200000,756.100000,686.400000,774.300000Z" opacity="0.36" fill="rgb(152,155,165)" stroke="none" stroke-width="1"/><path id="woman-car-path5" d="M803.200000,767.500000C803.200000,769.800000,803.100000,772.100000,802.900000,774.400000L651.200000,774.400000C651,772.100000,650.900000,769.900000,650.900000,767.500000C650.900000,754.500000,654.100000,742.300000,659.900000,731.600000C672.700000,707.600000,698,691.300000,727.100000,691.300000C756.700000,691.300000,782.300000,708.100000,794.900000,732.800000C800.200000,743.200000,803.200000,755,803.200000,767.500000Z" opacity="0.36" fill="rgb(152,155,165)" stroke="none" stroke-width="1"/><path id="woman-car-path6" d="M880.600000,770.700000C880.600000,771.900000,880.600000,773.100000,880.500000,774.300000L778.200000,774.300000C778.100000,773.100000,778.100000,771.900000,778.100000,770.700000C778.100000,755.700000,784.600000,742.100000,794.900000,732.800000C804,724.500000,816.100000,719.500000,829.400000,719.500000C850.700000,719.500000,868.900000,732.500000,876.700000,750.900000C879.200000,756.900000,880.600000,763.700000,880.600000,770.700000Z" opacity="0.36" fill="rgb(152,155,165)" stroke="none" stroke-width="1"/><path id="woman-car-path7" d="M933.600000,774.300000L866.900000,774.300000C866.900000,765.100000,870.600000,756.800000,876.600000,750.800000C882.600000,744.700000,891,740.900000,900.300000,740.900000C918.700000,741,933.600000,755.900000,933.600000,774.300000Z" opacity="0.36" fill="rgb(152,155,165)" stroke="none" stroke-width="1"/><path id="woman-car-path8" d="M522.900000,701.300000L1085.400000,701.300000L1118.200000,641C1118.200000,641,1129.700000,509.100000,1075.500000,488.200000C1021.300000,467.300000,710,465.800000,710,465.800000L522.900000,701.300000Z" fill="rgb(46,47,51)" stroke="none" stroke-width="1"/><ellipse id="woman-car-ellipse2" rx="52.400000" ry="123.700000" transform="matrix(1 0 0 1 509.50000000000000 650.60000000000002)" fill="rgb(35,36,40)" stroke="none" stroke-width="1"/><rect id="woman-car-rect1" width="65.700000" height="247.400000" rx="0" ry="0" transform="matrix(1 0 0 1 509.50000000000000 526.89999999999998)" fill="rgb(35,36,40)" stroke="none" stroke-width="1"/><ellipse id="woman-car-ellipse3" rx="52.400000" ry="123.700000" transform="matrix(1 0 0 1 575.20000000000005 650.60000000000002)" fill="rgb(15,15,17)" stroke="none" stroke-width="1"/><ellipse id="woman-car-ellipse4" rx="35.700000" ry="92.900000" transform="matrix(1 0 0 1 575.20000000000005 650.60000000000002)" fill="rgb(15,15,17)" stroke="none" stroke-width="1"/><g id="woman-car-g2"><ellipse id="woman-car-ellipse5" rx="52.400000" ry="123.700000" transform="matrix(1 0 0 1 661.29999999999995 650.60000000000002)" fill="rgb(35,36,40)" stroke="none" stroke-width="1"/><rect id="woman-car-rect2" width="65.700000" height="247.400000" rx="0" ry="0" transform="matrix(1 0 0 1 661.29999999999995 526.89999999999998)" fill="rgb(35,36,40)" stroke="none" stroke-width="1"/><ellipse id="woman-car-ellipse6" rx="52.400000" ry="123.700000" transform="matrix(1 0 0 1 727 650.60000000000002)" fill="rgb(66,68,76)" stroke="none" stroke-width="1"/><ellipse id="woman-car-ellipse7" rx="35.700000" ry="92.900000" transform="matrix(1 0 0 1 727 650.60000000000002)" fill="rgb(181,185,198)" stroke="none" stroke-width="1"/></g><ellipse id="woman-car-ellipse8" rx="52.400000" ry="123.700000" transform="matrix(1 0 0 1 146.30000000000001 650.60000000000002)" fill="rgb(35,36,40)" stroke="none" stroke-width="1"/><rect id="woman-car-rect3" width="65.700000" height="247.400000" rx="0" ry="0" transform="matrix(1 0 0 1 146.30000000000001 526.89999999999998)" fill="rgb(35,36,40)" stroke="none" stroke-width="1"/><ellipse id="woman-car-ellipse9" rx="52.400000" ry="123.700000" transform="matrix(1 0 0 1 212 650.60000000000002)" fill="rgb(15,15,17)" stroke="none" stroke-width="1"/><ellipse id="woman-car-ellipse10" rx="35.700000" ry="92.900000" transform="matrix(1 0 0 1 212 650.60000000000002)" fill="rgb(15,15,17)" stroke="none" stroke-width="1"/><g id="woman-car-g3"><ellipse id="woman-car-ellipse11" rx="52.400000" ry="123.700000" transform="matrix(1 0 0 1 1000.79999999999995 650.60000000000002)" fill="rgb(35,36,40)" stroke="none" stroke-width="1"/><rect id="woman-car-rect4" width="65.700000" height="247.400000" rx="0" ry="0" transform="matrix(1 0 0 1 1000.79999999999995 526.89999999999998)" fill="rgb(35,36,40)" stroke="none" stroke-width="1"/><ellipse id="woman-car-ellipse12" rx="52.400000" ry="123.700000" transform="matrix(1 0 0 1 1066.50000000000000 650.60000000000002)" fill="rgb(66,68,76)" stroke="none" stroke-width="1"/><ellipse id="woman-car-ellipse13" rx="35.700000" ry="92.900000" transform="matrix(1 0 0 1 1066.50000000000000 650.60000000000002)" fill="rgb(181,185,198)" stroke="none" stroke-width="1"/></g><path id="woman-car-path9" d="M1118.900000,649C1119.600000,646.300000,1121,493.400000,1073.800000,493.400000C1038.800000,493.400000,1018.700000,615.400000,1011,671.100000C1010.400000,675.700000,1009.800000,679.900000,1009.300000,683.700000C1008,693.700000,999.500000,701.300000,989.300000,701.300000L799.100000,701.300000C791,701.300000,785.500000,693.300000,788.300000,685.700000C789.900000,681.500000,791.300000,676.600000,792.700000,671.200000C807.200000,614.200000,809.500000,497.100000,748.600000,493C693.100000,489.200000,666.300000,595.300000,653.100000,657.500000C652.100000,662.400000,650.400000,667,648.200000,671.200000C638.900000,689.400000,620,701.400000,598.800000,701.400000L138.500000,701.400000C119.800000,701.400000,102.500000,694.500000,89.200000,683C75.900000,671.500000,66.600000,655.300000,64,636.800000C52.900000,498.300000,158,334.600000,158,334.600000L158,334.600000C158,334.600000,252.900000,175.200000,337.700000,129.800000C486.700000,49.900000,819.100000,76,924.500000,131C952.400000,145.600000,975.700000,171.800000,995,203.500000C1017.400000,240.300000,1034.500000,284.600000,1047.400000,327.200000C1072.800000,411.300000,1081.600000,479.700000,1081.600000,479.700000C1132.600000,525.600000,1119.900000,646.600000,1118.900000,649Z" fill="rgb(232,232,234)" stroke="none" stroke-width="1"/><ellipse id="woman-car-ellipse14" rx="8.400000" ry="34.800000" transform="matrix(0.99519997835159 -0.09787604957819 0.09787604957819 0.99519997835159 1046.00586875602608 409.09746371209621)" fill="none" stroke="rgb(131,132,135)" stroke-width="3" stroke-miterlimit="10"/><path id="woman-car-path10" d="M995.500000,589.500000C987,624.400000,955.800000,649,919.900000,649L865.100000,649C843.400000,649,825.800000,631.400000,825.800000,609.700000L825.800000,190.400000C825.800000,169,843.200000,151.600000,864.600000,151.600000L883.800000,151.600000C934.100000,151.600000,975.100000,187.800000,988.800000,236.200000C998.500000,270.400000,1005.100000,303.300000,1009.200000,334.500000C1023.900000,444.600000,1008.900000,534.200000,995.500000,589.500000Z" fill="rgb(189,189,198)" stroke="none" stroke-width="1"/><path id="woman-car-path11" d="M1009.200000,334.600000L825.800000,334.600000L825.800000,190.400000C825.800000,169,843.200000,151.600000,864.600000,151.600000L883.800000,151.600000C934.100000,151.600000,975.100000,187.800000,988.800000,236.200000C998.400000,270.400000,1005,303.300000,1009.200000,334.600000Z" fill="rgb(76,78,86)" stroke="none" stroke-width="1"/><path id="woman-car-path12" d="M987,334.600000L840.500000,334.600000L840.500000,199C840.500000,181.900000,854.400000,168,871.500000,168L886.800000,168C927,168,959.700000,196.900000,970.700000,235.600000C978.400000,263,983.700000,309.600000,987,334.600000Z" fill="rgb(255,255,255)" stroke="none" stroke-width="1"/><path id="woman-car-path13" d="M974,402.800000L875.900000,402.800000C869.700000,402.800000,864.700000,397.700000,864.700000,391.600000L864.700000,391.600000C864.700000,385.400000,869.800000,380.400000,875.900000,380.400000L974,380.400000C980.200000,380.400000,985.200000,385.500000,985.200000,391.600000L985.200000,391.600000C985.200000,397.700000,980.200000,402.800000,974,402.800000Z" fill="rgb(192,245,249)" stroke="none" stroke-width="1"/><line id="woman-car-line1" x1="160.900000" y1="334.500000" x2="1009.300000" y2="334.500000" fill="none" stroke="rgb(131,132,135)" stroke-width="5" stroke-miterlimit="10"/><path id="woman-car-path14" d="M779.400000,129.800000C777.200000,132.600000,775.300000,135.500000,773.700000,138.700000C751.400000,181.300000,726.900000,254.600000,703.800000,334.500000L158,334.500000C158,334.500000,163.100000,325.900000,172,312.200000C201.500000,266.700000,272.600000,164.600000,337.700000,129.700000C338.300000,129.400000,338.900000,129,339.500000,128.700000C402.400000,112.900000,477.100000,103.800000,557.300000,103.800000C639.300000,103.800000,715.700000,113.400000,779.400000,129.800000Z" fill="rgb(76,78,86)" stroke="none" stroke-width="1"/><path id="woman-car-path15" d="M729.300000,140C733.700000,141,735.800000,145.700000,733.700000,149.600000C733.700000,149.600000,733.700000,149.700000,733.700000,149.700000C717.100000,179.800000,699.200000,228.300000,681.700000,282.900000C675.900000,301.200000,658.400000,313.700000,638.700000,313.700000L199.900000,313.700000C196.300000,313.700000,194.100000,309.800000,196,306.900000C198,303.800000,200.700000,299.800000,203.900000,295C229.800000,256.900000,292.400000,171.400000,349.800000,142.100000L349.800000,142.100000C350.800000,141.600000,351.900000,141.200000,353,140.900000C408,127.900000,473.200000,120.400000,543.100000,120.400000C611.400000,120.400000,675.100000,127.600000,729.300000,140Z" fill="rgb(255,255,255)" stroke="none" stroke-width="1"/><path id="woman-car-path16" d="M703.800000,334.500000C674.700000,435.300000,644.100000,564.500000,626.900000,639.500000C618.600000,675.600000,586.500000,701.200000,549.400000,701.200000L138.400000,701.200000C119.700000,701.200000,102.400000,694.300000,89.100000,682.800000C75.800000,671.300000,66.500000,655.100000,63.900000,636.600000C52.800000,498.100000,157.900000,334.400000,157.900000,334.400000L703.800000,334.400000Z" fill="rgb(189,189,198)" stroke="none" stroke-width="1"/><path id="woman-car-rounded_rectangle_2" d="M349.600000,425.300000C363,425.300000,371.700000,436.100000,369.100000,449.500000L352.100000,536C349.500000,549.400000,336.500000,560.200000,323.100000,560.200000C309.700000,560.200000,301,549.400000,303.600000,536L320.500000,449.500000C323.200000,436.100000,336.200000,425.300000,349.600000,425.300000Z" clip-rule="evenodd" fill="rgb(29,30,34)" fill-rule="evenodd" stroke="none" stroke-width="1"/><path id="woman-car-rounded_rectangle_2_1_" d="M337.900000,466.100000C347.200000,466,353.300000,472.400000,351.600000,480.400000L340.600000,532.500000C338.900000,540.500000,330,547.200000,320.700000,547.300000C311.400000,547.400000,305.300000,541,307,533L318,480.900000C319.700000,472.900000,328.600000,466.200000,337.900000,466.100000Z" clip-rule="evenodd" fill="rgb(52,54,58)" fill-rule="evenodd" stroke="none" stroke-width="1"/><path id="woman-car-path17" d="M1114.100000,201.700000L1106.400000,317.500000C1103.500000,330,1089.200000,335.900000,1078.400000,329.100000L988.900000,275.300000L1012.600000,234.300000L1074.100000,277.900000L1089.900000,190.200000" fill="rgb(229,118,198)" stroke="none" stroke-width="1"/><polygon id="woman-car-polygon1" points="1074.100000,277.900000 1072.300000,290.300000 1058.600000,266.900000" fill="rgb(207,62,131)" stroke="none" stroke-width="1"/><path id="woman-car-path18" d="M586.600000,472.400000L580.200000,506.200000L578.900000,513C573.900000,539,548.800000,560.200000,522.800000,560.200000C496.800000,560.200000,479.700000,539.100000,484.600000,513L492.300000,472.400000C497.300000,446.400000,522.400000,425.200000,548.400000,425.200000C563.200000,425.200000,575.100000,432,581.700000,442.700000C586.800000,450.900000,588.800000,461.200000,586.600000,472.400000Z" clip-rule="evenodd" fill="rgb(255,255,255)" fill-rule="evenodd" stroke="none" stroke-width="1"/><path id="woman-car-path19" d="M586.600000,472.400000L580.200000,506.200000C574.500000,509.700000,567.800000,511.700000,560.600000,511.700000C539.800000,511.700000,522.900000,494.800000,522.900000,474C522.900000,453.200000,539.800000,436.300000,560.600000,436.300000C568.400000,436.300000,575.700000,438.700000,581.800000,442.800000C586.800000,450.900000,588.800000,461.200000,586.600000,472.400000Z" clip-rule="evenodd" fill="rgb(37,37,43)" fill-rule="evenodd" stroke="none" stroke-width="1"/><path id="woman-car-path20" d="M200.100000,472.400000L193.700000,506.200000L192.400000,513C187.400000,539,162.300000,560.200000,136.300000,560.200000C110.300000,560.200000,93.200000,539.100000,98.100000,513L105.800000,472.400000C110.800000,446.400000,135.900000,425.200000,161.900000,425.200000C176.700000,425.200000,188.600000,432,195.200000,442.700000C200.300000,450.900000,202.300000,461.200000,200.100000,472.400000Z" clip-rule="evenodd" fill="rgb(255,255,255)" fill-rule="evenodd" stroke="none" stroke-width="1"/><path id="woman-car-path21" d="M200.100000,472.400000L193.700000,506.200000C188,509.700000,181.300000,511.700000,174.100000,511.700000C153.300000,511.700000,136.400000,494.800000,136.400000,474C136.400000,453.200000,153.300000,436.300000,174.100000,436.300000C181.900000,436.300000,189.200000,438.700000,195.300000,442.800000C200.300000,450.900000,202.300000,461.200000,200.100000,472.400000Z" clip-rule="evenodd" fill="rgb(37,37,43)" fill-rule="evenodd" stroke="none" stroke-width="1"/><path id="woman-car-path22" d="M322.200000,619C329.200000,636.900000,356.600000,643,383.400000,632.600000C410.200000,622.200000,423.800000,592.400000,416.800000,574.500000C409.800000,556.600000,383.100000,578.700000,356.300000,589.100000C329.500000,599.500000,315.200000,601.100000,322.200000,619Z" fill="rgb(255,255,255)" stroke="none" stroke-width="1"/><path id="woman-car-path23" d="M560.600000,120.600000L426.600000,313.600000L297.300000,313.600000L426.300000,127.700000C462.900000,122.900000,502.200000,120.400000,543.200000,120.400000C549,120.400000,554.800000,120.500000,560.600000,120.600000Z" fill="rgb(211,219,224)" stroke="none" stroke-width="1"/><path id="woman-car-path24" d="M630.200000,124.400000L498.900000,313.600000L460,313.600000L593.200000,121.700000C605.800000,122.400000,618.100000,123.300000,630.200000,124.400000Z" fill="rgb(211,219,224)" stroke="none" stroke-width="1"/><g id="woman-car-path25_tr" transform="translate(1102.200000,207.900000) rotate(0)"><path id="woman-car-path25" d="M1090.200000,194.500000L1088,185.400000C1088,185.400000,1086.800000,181.200000,1086.100000,174.200000C1085.400000,167.200000,1087.400000,163.500000,1085,152.100000C1082.300000,139.200000,1091,146.400000,1093.300000,152.300000C1095.100000,156.900000,1093.500000,162.100000,1096.500000,165.400000C1098.200000,163.800000,1101.600000,161.700000,1107.200000,145.400000C1108.200000,142.500000,1109.200000,132.500000,1109.200000,132.500000C1109.900000,129.600000,1111,123.500000,1114.500000,123.300000C1115.400000,123.300000,1116.200000,124.400000,1116.200000,124.400000C1116.200000,124.400000,1116.800000,120.500000,1120.400000,120.600000C1121.800000,120.600000,1122.400000,129.400000,1122.400000,129.400000C1122.400000,129.400000,1123.800000,125.400000,1126.400000,125.500000C1127.100000,125.500000,1129.700000,151.300000,1129.700000,151.300000L1130.500000,145.800000L1130.700000,140.100000C1130.700000,140.100000,1131.500000,137.200000,1134,137.200000C1135,137.200000,1135.600000,142.600000,1135.800000,148.800000C1136.200000,158.400000,1134.500000,165.200000,1132.100000,171.700000C1129.200000,179.600000,1128.900000,182.400000,1122.900000,191.500000C1120.400000,195.200000,1115.600000,200.700000,1113.300000,202.900000" transform="translate(-1102.200000,-202.900000)" fill="rgb(229,118,198)" stroke="none" stroke-width="1"/></g><circle id="woman-car-circle1" r="77.700000" transform="matrix(1 0 0 1 956.70000000000005 140.90000000000001)" fill="rgb(36,0,64)" stroke="none" stroke-width="1"/><circle id="woman-car-circle2" r="41.700000" transform="matrix(1 0 0 1 1023.20000000000005 61.70000000000000)" fill="rgb(36,0,64)" stroke="none" stroke-width="1"/><rect id="woman-car-rect5" width="108.200000" height="155.300000" rx="0" ry="0" transform="matrix(0.01271374989300 -0.99989998340607 0.99989998340607 0.01271374989300 877.16209100316632 246.49609675789179)" fill="rgb(36,0,64)" stroke="none" stroke-width="1"/><path id="woman-car-path26" d="M1052.300000,255L1027.200000,324.200000L1001.800000,301.100000L986.700000,332L851.400000,332C847,324.100000,826,283.500000,826,283.500000C826,283.500000,848.900000,244.200000,864.700000,233C889.600000,215.300000,920.400000,214.600000,952.600000,217C998.200000,220.400000,1052.300000,255,1052.300000,255Z" fill="rgb(108,161,255)" stroke="none" stroke-width="1"/><g id="woman-car-g4"><path id="woman-car-path27" d="M929,263.300000C926.100000,263.300000,923.400000,262.900000,920.800000,262.200000C915.600000,260.700000,911.700000,256.700000,909.600000,251C906.600000,242.500000,908.200000,231.500000,913.500000,224C922.500000,211.400000,928,210.600000,929.100000,210.600000L929.300000,210.600000L929.500000,210.600000C929.900000,210.700000,940.400000,212.500000,949.100000,215C956.200000,217,967.400000,220.100000,967.400000,220.100000L968.100000,220.300000L968.500000,220.900000C968.900000,221.500000,972.200000,226.900000,965.100000,240.500000C957.800000,254.300000,943.600000,263.300000,929,263.300000C929,263.300000,929,263.300000,929,263.300000Z" fill="rgb(229,118,198)" stroke="none" stroke-width="1"/><path id="woman-car-path28" d="M929.100000,212.600000C929.100000,212.600000,939.800000,214.500000,948.500000,216.900000C955.600000,218.900000,966.800000,222.100000,966.800000,222.100000C966.800000,222.100000,970,226.700000,963.200000,239.600000C955.500000,254.100000,941.300000,261.400000,928.800000,261.400000C926.100000,261.400000,923.500000,261.100000,921.100000,260.400000C908.400000,256.800000,906.700000,236.800000,915,225.300000C924,212.700000,929.100000,212.600000,929.100000,212.600000M929.400000,208.600000L929,208.600000C927.300000,208.600000,921.200000,209.800000,911.800000,222.800000C906.100000,230.800000,904.400000,242.400000,907.600000,251.600000C909.900000,258,914.300000,262.500000,920.100000,264.100000C922.900000,264.900000,925.800000,265.300000,928.900000,265.300000C944.200000,265.300000,959.100000,255.900000,966.800000,241.400000C974.200000,227.500000,971.200000,221.300000,970.100000,219.800000L969.300000,218.600000L967.900000,218.200000C967.900000,218.200000,956.600000,215,949.600000,213.100000C940.800000,210.600000,930.200000,208.800000,929.700000,208.700000L929.400000,208.600000L929.400000,208.600000Z" fill="rgb(64,95,211)" stroke="none" stroke-width="1"/></g><path id="woman-car-path29" d="M967.100000,182.300000C961.700000,188.100000,961.600000,197.200000,963,202.800000C963.500000,204.700000,965.800000,220.400000,966.400000,221.300000C968.800000,224.500000,929.700000,233.100000,929.700000,233.100000L933.100000,202.900000C922.500000,201.500000,910.400000,198.500000,904.500000,192.700000C887,175.400000,894.900000,128.900000,895.700000,126.600000L916.200000,111.100000C916.200000,111.100000,943.900000,104.300000,946.800000,110.100000C952.100000,120.600000,960.600000,164.700000,973.500000,162.300000C973.500000,162.300000,974.500000,149.300000,985.100000,151.400000C993,153,993.900000,159.700000,993.200000,163.400000C990.800000,175.700000,974.500000,174.400000,967.100000,182.300000Z" fill="rgb(229,118,198)" stroke="none" stroke-width="1"/><polygon id="woman-car-polygon2" points="912,161.200000 900.800000,178 909.600000,179.600000" fill="rgb(64,95,211)" stroke="none" stroke-width="1"/><ellipse id="woman-car-ellipse15" rx="6.800000" ry="4.600000" transform="matrix(0.14630000293255 -0.98919999599457 0.98919999599457 0.14630000293255 922.46308538913740 163.69910038560636)" fill="rgb(13,11,109)" stroke="none" stroke-width="1"/><ellipse id="woman-car-ellipse16" rx="6.800000" ry="4.600000" transform="matrix(0.14630000293255 -0.98919999599457 0.98919999599457 0.14630000293255 899.68017666190872 160.90091649740930)" fill="rgb(13,11,109)" stroke="none" stroke-width="1"/><path id="woman-car-path30" d="M925.400000,109.800000C924.500000,114.200000,922.900000,118.200000,920.600000,121.800000C920.300000,122.200000,920,122.700000,919.700000,123.100000C917.600000,126.100000,915,128.700000,912,130.900000C904.100000,136.900000,893.600000,139.900000,882.600000,138.800000C882,138.700000,881.500000,138.700000,880.900000,138.600000L883.500000,125.300000L883.500000,125.300000C883.600000,124.900000,883.700000,124.500000,883.700000,124.100000C886.900000,107.700000,896.100000,93.900000,908.900000,84.100000C911.300000,82.300000,913.800000,80.600000,916.400000,79.100000C920.700000,83.900000,923.700000,89.600000,925.100000,95.700000C926.300000,100.200000,926.400000,104.900000,925.400000,109.800000Z" fill="rgb(36,0,64)" stroke="none" stroke-width="1"/><path id="woman-car-path31" d="M974.800000,125C972.600000,136,960.800000,143.300000,946.700000,143.500000C945.600000,143.500000,944.400000,143.500000,943.300000,143.400000C941.400000,143.300000,939.600000,143,937.700000,142.700000C919.800000,139.200000,907.400000,125.500000,910,112.300000C910.300000,111,910.600000,109.800000,911.100000,108.600000C915.800000,97.600000,930.900000,91.400000,947.100000,94.600000C964.800000,98.100000,977.200000,111.500000,974.900000,124.700000C974.900000,124.700000,974.800000,124.900000,974.800000,125Z" fill="rgb(36,0,64)" stroke="none" stroke-width="1"/><path id="woman-car-path32" d="M933.200000,202.900000C933.200000,202.900000,946.300000,205.900000,952.600000,203.900000L932.200000,211.700000L933.200000,202.900000Z" fill="rgb(207,62,131)" stroke="none" stroke-width="1"/><path id="woman-car-path33" d="M1002.100000,284.600000L963.300000,284.100000L964.500000,188.800000L1033.300000,189.700000L1032.500000,255C1032.200000,271.600000,1018.600000,284.800000,1002.100000,284.600000Z" fill="rgb(36,0,64)" stroke="none" stroke-width="1"/><path id="woman-car-path34" d="M942.600000,370.400000C937.200000,376,933.700000,374.500000,933.700000,374.500000C933.700000,374.500000,933,377.100000,931.200000,377.300000C929.500000,377.500000,923.900000,375.100000,927.300000,365.700000C926.600000,367.600000,924.400000,372.200000,921.800000,371.500000C918.500000,370.700000,917.300000,366.900000,917.300000,366.900000C917.300000,366.900000,912.300000,364.400000,912.800000,360.300000C913.800000,352.400000,914.100000,341.400000,914.100000,341.400000L901.700000,333.300000L840.500000,331.700000L839.900000,290.900000L937.700000,319.700000C937.700000,321,942.400000,326.800000,946,332.400000C946.200000,332.700000,946.400000,332.900000,946.500000,333.200000C948.500000,336.300000,950,339.400000,950.100000,341.400000C950.200000,347.600000,948,364.800000,942.600000,370.400000Z" fill="rgb(229,118,198)" stroke="none" stroke-width="1"/><path id="woman-car-path35" d="M934.900000,372.200000C934.900000,372.200000,940.600000,359.500000,941.600000,353.700000C943.100000,345.200000,942.900000,338.400000,942.900000,338.400000" fill="none" stroke="rgb(193,73,153)" stroke-width="2" stroke-linecap="round" stroke-miterlimit="10"/><path id="woman-car-path36" d="M926.900000,367.900000C926.900000,367.900000,930.800000,357.100000,932.300000,352.700000C934,347.800000,934,336.800000,934,336.800000" fill="none" stroke="rgb(193,73,153)" stroke-width="2" stroke-linecap="round" stroke-miterlimit="10"/><path id="woman-car-path37" d="M923.800000,335.500000C923.800000,335.500000,924.700000,343.700000,923.900000,349.600000C922.800000,357.300000,918.500000,364.700000,918.500000,364.700000" fill="none" stroke="rgb(193,73,153)" stroke-width="2" stroke-linecap="round" stroke-miterlimit="10"/><path id="woman-car-path38" d="M886.700000,276.100000L886.700000,300.600000C886.700000,312.100000,877.400000,321.500000,865.800000,321.500000L788.500000,321.500000C780.700000,321.500000,773.800000,316.300000,771.700000,308.700000L756.700000,253.800000C755.800000,250.600000,758.300000,247.300000,761.600000,247.300000L858,247.300000C873.900000,247.500000,886.700000,260.300000,886.700000,276.100000Z" fill="rgb(200,201,211)" stroke="none" stroke-width="1"/><path id="woman-car-path39" d="M886.700000,297.500000L886.700000,300.600000C886.700000,312.100000,877.400000,321.500000,865.800000,321.500000L845.600000,321.500000L845.600000,297.500000L886.700000,297.500000Z" fill="rgb(76,78,86)" stroke="none" stroke-width="1"/><line id="woman-car-line2" x1="778.100000" y1="297.500000" x2="887" y2="297.500000" fill="none" stroke="rgb(131,132,135)" stroke-width="6" stroke-miterlimit="10"/><polygon id="woman-car-polygon3" points="909.700000,215.600000 931.500000,217.200000 932.700000,207 914.200000,202.900000" fill="rgb(36,0,64)" stroke="none" stroke-width="1"/><path id="woman-car-path40" d="M909.700000,188.100000C910.800000,190.900000,914.900000,191.900000,918.800000,190.400000C922.700000,188.900000,924.700000,184.300000,923.600000,181.500000C922.500000,178.700000,918.600000,182,914.700000,183.600000C910.800000,185.200000,908.600000,185.300000,909.700000,188.100000Z" fill="rgb(255,255,255)" stroke="none" stroke-width="1"/></g></svg>